<?xml version="1.0" encoding="UTF-8" standalone="no"?>
<!-- Created with Inkscape (http://www.inkscape.org/) -->

<svg
   version="1.1"
   id="svg1"
   width="359.52344"
   height="30.767893"
   viewBox="0 0 359.52344 30.767892"
   xmlns="http://www.w3.org/2000/svg"
   xmlns:svg="http://www.w3.org/2000/svg">
  <defs
     id="defs1" />
  <g
     id="g1"
     transform="translate(-4.8203125,-3.7227207)">
    <path
       id="path1"
       d="M 9.34616,11.33871 H -9.34616 c -1.10046,0 -1.99255,-0.89209 -1.99255,-1.99255 V -9.34616 c 0,-1.10046 0.89209,-1.99255 1.99255,-1.99255 H 9.34616 c 1.10046,0 1.99255,0.89209 1.99255,1.99255 V 9.34616 c 0,1.10046 -0.89209,1.99255 -1.99255,1.99255 z"
       style="fill:#ccccff;fill-opacity:1;fill-rule:nonzero;stroke:#000000;stroke-width:0.3985;stroke-linecap:butt;stroke-linejoin:miter;stroke-miterlimit:10;stroke-dasharray:none;stroke-opacity:1"
       transform="matrix(1.3333333,0,0,-1.3333333,55.537333,19.106667)" />
    <path
       id="path2"
       d="M 4.8269141,-4.0904453 3.9948828,-6.0826328 c -0.035156,-0.070312 -0.046875,-0.1171875 -0.046875,-0.1289063 0,-0.058594 0.1640625,-0.2460937 0.5859375,-0.28125 0.09375,-0.011719 0.1992188,-0.023437 0.1992188,-0.1875 0,-0.1289062 -0.1171875,-0.1289062 -0.1523438,-0.1289062 -0.4101562,0 -0.8320312,0.035156 -1.2539062,0.035156 -0.2460938,0 -0.8671875,-0.035156 -1.1132813,-0.035156 -0.058594,0 -0.1875,0 -0.1875,0.1992187 0,0.1171875 0.1054688,0.1171875 0.234375,0.1171875 0.5976563,0 0.65625,0.09375 0.75,0.3164063 l 1.171875,2.7773437 -2.0976562,2.2617188 -0.1289063,0.1054687 c -0.4921875,0.52734379 -0.96093749,0.69140629 -1.46484374,0.72656254 -0.12890625,0 -0.22265625,0 -0.22265625,0.19921875 0,0 0,0.1054687475 0.12890625,0.1054687475 0.3046875,0 0.63281254,-0.0351562475 0.93750004,-0.0351562475 0.3632812,0 0.7617187,0.0351562475 1.1132812,0.0351562475 0.058594,0 0.1757813,0 0.1757813,-0.1992187475 0,-0.10546875 -0.09375,-0.10546875 -0.1171875,-0.10546875 -0.082031,-0.0117188 -0.3984375,-0.0351563 -0.3984375,-0.31640625 0,-0.15234375 0.1523437,-0.31640625 0.2695312,-0.44531249 l 1.0195313,-1.078125 0.890625,-0.9726563 1.0078125,2.37890629 c 0.046875,0.10546875 0.046875,0.1171875 0.046875,0.140625 0,0.0820313 -0.1875,0.24609375 -0.5742188,0.29296875 -0.1054687,0 -0.1992187,0.0117188 -0.1992187,0.1875 0,0.1171874975 0.1171875,0.1171874975 0.1523437,0.1171874975 0.28125,0 0.9726563,-0.0351562475 1.2539063,-0.0351562475 0.2460937,0 0.8554687,0.0351562475 1.1015625,0.0351562475 0.070312,0 0.1992187,0 0.1992187,-0.1874999975 0,-0.1171875 -0.1054687,-0.1171875 -0.1875,-0.1171875 -0.6679687,-0.0117188 -0.6796875,-0.046875 -0.8554687,-0.4453125 C 5.8464453,-1.6763828 5.1784766,-3.2232578 4.9441016,-3.8209141 c 0.6796875,-0.703125 1.734375,-1.8867187 2.0507812,-2.1679687 0.28125,-0.234375 0.6679688,-0.4804688 1.265625,-0.5039063 0.1289063,-0.011719 0.2109375,-0.011719 0.2109375,-0.1992187 0,-0.011719 0,-0.1171875 -0.1289062,-0.1171875 -0.2929688,0 -0.6210938,0.035156 -0.9375,0.035156 -0.3632813,0 -0.7382813,-0.035156 -1.1015625,-0.035156 -0.058594,0 -0.1875,0 -0.1875,0.1992187 0,0.070312 0.046875,0.1054688 0.1171875,0.1171875 0.09375,0.011719 0.3984375,0.023437 0.3984375,0.3046875 0,0.140625 -0.1054688,0.2695313 -0.1875,0.3632813 z m 0,0"
       style="fill:#000000;fill-opacity:1;fill-rule:nonzero;stroke:none"
       aria-label="X"
       transform="matrix(1.3333333,0,0,1.3333333,49.513333,23.645333)" />
    <path
       id="path3"
       d="M -11.53796,0 H -31.38063"
       style="fill:none;stroke:#000000;stroke-width:0.3985;stroke-linecap:butt;stroke-linejoin:miter;stroke-miterlimit:10;stroke-dasharray:none;stroke-opacity:1"
       transform="matrix(1.3333333,0,0,-1.3333333,55.537333,19.106667)" />
    <path
       id="path4"
       d="m 2.8254844,-6.2214453 c 0,-0.1992188 -0.1289063,-0.3632813 -0.3632813,-0.3632813 -0.2695312,0 -0.5390625,0.2578125 -0.5390625,0.5273438 0,0.1875 0.140625,0.3632812 0.375,0.3632812 0.234375,0 0.5273438,-0.234375 0.5273438,-0.5273437 z m -0.75,3.7382812 c 0.1171875,-0.28125 0.1171875,-0.3046875 0.2226562,-0.5742187 0.070312,-0.1992188 0.1289063,-0.3398438 0.1289063,-0.5273438 0,-0.4453125 -0.328125,-0.8203125 -0.8203125,-0.8203125 -0.93750002,0 -1.31250002,1.453125 -1.31250002,1.5351563 0,0.1054687 0.09375,0.1054687 0.1171875,0.1054687 0.09375,0 0.10546875,-0.023437 0.15234375,-0.1875 0.26953125,-0.9375 0.66796877,-1.2304687 1.00781247,-1.2304687 0.082031,0 0.2578125,0 0.2578125,0.3164062 0,0.2109375 -0.070312,0.421875 -0.1171875,0.515625 -0.082031,0.2578125 -0.5273437,1.4179688 -0.6796875,1.8515625 -0.10546872,0.2578125 -0.23437497,0.58593754 -0.23437497,0.79687504 0,0.46875 0.33984377,0.80859375 0.82031247,0.80859375 0.9375,0 1.3007813,-1.44140629 1.3007813,-1.53515629 0,-0.09375 -0.09375,-0.09375 -0.1171875,-0.09375 -0.1054688,0 -0.1054688,0.023437 -0.1523438,0.1757813 -0.1757812,0.63281249 -0.5039062,1.24218749 -1.0195312,1.24218749 -0.1640625,0 -0.234375,-0.10546875 -0.234375,-0.328125 0,-0.2578125 0.058594,-0.3984375 0.2929687,-0.99609379 z m 0,0"
       style="fill:#000000;fill-opacity:1;fill-rule:nonzero;stroke:none"
       aria-label="i"
       transform="matrix(1.3333333,0,0,1.3333333,4.428,23.486667)" />
    <path
       id="path5"
       d="M 11.53796,0 H 31.38063"
       style="fill:none;stroke:#000000;stroke-width:0.3985;stroke-linecap:butt;stroke-linejoin:miter;stroke-miterlimit:10;stroke-dasharray:none;stroke-opacity:1"
       transform="matrix(1.3333333,0,0,-1.3333333,55.537333,19.106667)" />
    <path
       id="path6"
       d="m 3.9489531,-6.2231719 c 0,-0.1875 -0.1289062,-0.3632812 -0.375,-0.3632812 -0.2226562,0 -0.5273437,0.234375 -0.5273437,0.5273437 0,0.1992188 0.140625,0.3632813 0.375,0.3632813 0.2695312,0 0.5273437,-0.2578125 0.5273437,-0.5273438 z M 1.9567656,0.50339063 C 1.7575469,1.2533906 1.2887969,1.8276094 0.72629688,1.8276094 c -0.0585938,0 -0.2109375,0 -0.38671875,-0.09375 0.29296875,-0.070312 0.4453125,-0.328125 0.4453125,-0.5273438 0,-0.1640625 -0.10546875,-0.35156247 -0.375,-0.35156247 -0.24609375,0 -0.5390625,0.21093747 -0.5390625,0.57421877 0,0.3984375 0.3984375,0.609375 0.87890625,0.609375 0.69140622,0 1.61718752,-0.5273438 1.87500002,-1.51171877 L 3.5387969,-3.1177031 c 0.046875,-0.1992188 0.046875,-0.3398438 0.046875,-0.375 0,-0.5625 -0.421875,-0.9140625 -0.9140625,-0.9140625 -1.0195313,0 -1.5820313,1.453125 -1.5820313,1.5351562 0,0.1054688 0.09375,0.1054688 0.1171875,0.1054688 0.09375,0 0.09375,-0.011719 0.1757813,-0.1992188 0.2460937,-0.609375 0.7148437,-1.21875 1.2539062,-1.21875 0.140625,0 0.3164063,0.035156 0.3164063,0.4570313 0,0.234375 -0.023437,0.3398437 -0.058594,0.5039062 z m 0,0"
       style="fill:#000000;fill-opacity:1;fill-rule:nonzero;stroke:none"
       aria-label="j"
       transform="matrix(1.3333333,0,0,1.3333333,102.07067,22.196)" />
    <path
       id="path7"
       d="m 6.8434531,-3.2585859 c 0.1523438,0 0.3398438,0 0.3398438,-0.1992188 0,-0.1992187 -0.1875,-0.1992187 -0.328125,-0.1992187 H 0.89032812 c -0.140625,0 -0.328125,0 -0.328125,0.1992187 0,0.1992188 0.1875,0.1992188 0.33984375,0.1992188 z m 0.011719,1.9335937 c 0.140625,0 0.328125,0 0.328125,-0.1992187 0,-0.1992188 -0.1875,-0.1992188 -0.3398438,-0.1992188 H 0.90204687 c -0.15234375,0 -0.33984375,0 -0.33984375,0.1992188 0,0.1992187 0.1875,0.1992187 0.328125,0.1992187 z m 0,0"
       style="fill:#000000;fill-opacity:1;fill-rule:nonzero;stroke:none"
       aria-label="="
       transform="matrix(1.3333333,0,0,1.3333333,125.96133,21.544)" />
    <path
       id="path8"
       d="m 122.7334,11.33871 h -18.69232 c -1.10048,0 -1.99256,-0.89209 -1.99256,-1.99255 V -9.34616 c 0,-1.10046 0.89208,-1.99255 1.99256,-1.99255 h 18.69232 c 1.10046,0 1.99255,0.89209 1.99255,1.99255 V 9.34616 c 0,1.10046 -0.89209,1.99255 -1.99255,1.99255 z"
       style="fill:#ccccff;fill-opacity:1;fill-rule:nonzero;stroke:#000000;stroke-width:0.3985;stroke-linecap:butt;stroke-linejoin:miter;stroke-miterlimit:10;stroke-dasharray:none;stroke-opacity:1"
       transform="matrix(1.3333333,0,0,-1.3333333,55.537333,19.106667)" />
    <path
       id="path9"
       d="m 6.3268984,-5.7545078 c 0.09375,-0.4101563 0.28125,-0.7148438 1.078125,-0.7382813 0.046875,0 0.1640625,-0.011719 0.1640625,-0.1992187 0,-0.011719 0,-0.1171875 -0.1289062,-0.1171875 -0.328125,0 -0.6796875,0.035156 -1.0195313,0.035156 -0.3398437,0 -0.703125,-0.035156 -1.03125,-0.035156 -0.058594,0 -0.1757812,0 -0.1757812,0.1992187 0,0.1171875 0.09375,0.1171875 0.1757812,0.1171875 0.5625,0.011719 0.6796875,0.2109375 0.6796875,0.4335938 0,0.035156 -0.023437,0.1757812 -0.035156,0.2109375 l -0.890625,3.5507812 c -0.3398438,1.33593754 -1.4882813,2.20312504 -2.484375,2.20312504 -0.6796875,0 -1.21875,-0.43359375 -1.21875,-1.28906254 0,-0.023437 0,-0.3398437 0.1171875,-0.7734375 l 0.9609375,-3.8789062 c 0.09375,-0.3632813 0.1054687,-0.4570313 0.8320312,-0.4570313 0.2695313,0 0.3398438,0 0.3398438,-0.1992187 0,-0.1171875 -0.1054688,-0.1171875 -0.140625,-0.1171875 -0.2695313,0 -0.9960938,0.035156 -1.265625,0.035156 -0.2929688,0 -0.9960938,-0.035156 -1.28906251,-0.035156 -0.0820313,0 -0.1875,0 -0.1875,0.1992187 0,0.1171875 0.09375,0.1171875 0.28125001,0.1171875 0.011719,0 0.2109375,0 0.375,0.011719 0.1757812,0.023437 0.2695312,0.035156 0.2695312,0.1640625 0,0.058594 -0.1054687,0.4804687 -0.1757812,0.703125 l -0.2109375,0.8789062 c -0.09375,0.3867188 -0.57421876,2.2734375 -0.60937501,2.4609375 -0.0703125,0.28125 -0.0703125,0.4335938 -0.0703125,0.5742188 0,1.21874999 0.90234371,1.92187499 1.95703121,1.92187499 1.2539063,0 2.484375,-1.125 2.8125,-2.44921879 z m 0,0"
       style="fill:#000000;fill-opacity:1;fill-rule:nonzero;stroke:none"
       aria-label="U"
       transform="matrix(1.3333333,0,0,1.3333333,201.45867,23.645333)" />
    <path
       id="path10"
       d="m 162.41875,11.33871 h -18.69232 c -1.10047,0 -1.99256,-0.89209 -1.99256,-1.99255 V -9.34616 c 0,-1.10046 0.89209,-1.99255 1.99256,-1.99255 h 18.69232 c 1.10048,0 1.99255,0.89209 1.99255,1.99255 V 9.34616 c 0,1.10046 -0.89207,1.99255 -1.99255,1.99255 z"
       style="fill:#ccccff;fill-opacity:1;fill-rule:nonzero;stroke:#000000;stroke-width:0.3985;stroke-linecap:butt;stroke-linejoin:miter;stroke-miterlimit:10;stroke-dasharray:none;stroke-opacity:1"
       transform="matrix(1.3333333,0,0,-1.3333333,55.537333,19.106667)" />
    <path
       id="path11"
       d="m 3.7040781,-3.2466953 c 0.09375,-0.1054688 0.09375,-0.140625 0.09375,-0.1640625 0,-0.046875 -0.046875,-0.09375 -0.070312,-0.140625 l -2.039063,-2.9414063 h 2.296875 c 1.6875,0 2.1796875,0.3515625 2.390625,1.9335938 h 0.2460938 l -0.28125,-2.25 H 0.82126563 c -0.24609375,0 -0.2578125,0 -0.2578125,0.234375 l 2.47265627,3.609375 -2.36718752,2.69531249 c -0.10546875,0.10546875 -0.10546875,0.12890625 -0.10546875,0.1640625 0,0.1054687475 0.10546875,0.1054687475 0.2578125,0.1054687475 H 6.3407969 L 6.6220469,-2.3560703 H 6.3759531 C 6.2001719,-0.69200781 5.5204844,-0.42247656 3.9501719,-0.42247656 H 1.2079844 Z m 0,0"
       style="fill:#000000;fill-opacity:1;fill-rule:nonzero;stroke:none"
       aria-label="Σ"
       transform="matrix(1.3333333,0,0,1.3333333,254.83467,23.645333)" />
    <path
       id="path12"
       d="m 202.10454,11.33871 h -18.69232 c -1.10048,0 -1.99256,-0.89209 -1.99256,-1.99255 V -9.34616 c 0,-1.10046 0.89208,-1.99255 1.99256,-1.99255 h 18.69232 c 1.10046,0 1.99255,0.89209 1.99255,1.99255 V 9.34616 c 0,1.10046 -0.89209,1.99255 -1.99255,1.99255 z"
       style="fill:#ccccff;fill-opacity:1;fill-rule:nonzero;stroke:#000000;stroke-width:0.3985;stroke-linecap:butt;stroke-linejoin:miter;stroke-miterlimit:10;stroke-dasharray:none;stroke-opacity:1"
       transform="matrix(1.3333333,0,0,-1.3333333,55.537333,19.106667)" />
    <g
       id="g12"
       aria-label="V&#10;†"
       transform="matrix(1.3333333,0,0,1.3333333,304.42667,24.745333)">
      <path
         id="path13"
         d="m 6.2571484,-5.6713047 c 0.4804688,-0.7734375 0.9023438,-0.8085937 1.2773438,-0.8203125 0.1171875,-0.011719 0.1289062,-0.1875 0.1289062,-0.1875 0,-0.082031 -0.058594,-0.1289062 -0.1289062,-0.1289062 -0.2578125,0 -0.5507813,0.035156 -0.8203125,0.035156 -0.328125,0 -0.6679688,-0.035156 -0.984375,-0.035156 -0.058594,0 -0.1875,0 -0.1875,0.1992187 0,0.1054688 0.082031,0.1171875 0.1523437,0.1171875 0.2695313,0.011719 0.4570313,0.1171875 0.4570313,0.328125 0,0.1523438 -0.140625,0.3632813 -0.140625,0.375 L 2.9524609,-0.92521094 2.2727734,-6.1986484 c 0,-0.1640625 0.2226563,-0.2929688 0.6796875,-0.2929688 0.140625,0 0.2578125,0 0.2578125,-0.1992187 0,-0.09375 -0.082031,-0.1171875 -0.140625,-0.1171875 -0.3984375,0 -0.8320312,0.035156 -1.2421875,0.035156 -0.1757812,0 -0.3632812,-0.011719 -0.5390625,-0.011719 -0.1875,0 -0.37499996,-0.023437 -0.53906246,-0.023437 -0.0703125,0 -0.1875,0 -0.1875,0.1992187 0,0.1171875 0.0820313,0.1171875 0.24609375,0.1171875 0.55078121,0 0.56250001,0.082031 0.59765621,0.3398438 l 0.7851563,6.14062496 c 0.035156,0.19921875 0.070312,0.234375 0.1992187,0.234375 0.1640625,0 0.1992188,-0.0585938 0.28125,-0.1875 z m 0,0"
         style="fill:#000000;fill-opacity:1;fill-rule:nonzero;stroke:none" />
      <path
         id="path14"
         d="m 9.9368359,-6.5326328 c 0.1054691,0.011719 0.1757811,0.023437 0.3867191,0.082031 0.222656,0.058594 0.386718,0.1054688 0.515625,0.1054688 0.28125,0 0.304687,-0.2109375 0.304687,-0.2695313 0,-0.058594 -0.02344,-0.28125 -0.304687,-0.28125 -0.128907,0 -0.292969,0.046875 -0.515625,0.1054688 -0.210938,0.058594 -0.28125,0.070312 -0.3867191,0.082031 0.011719,-0.2460937 0.058594,-0.5390625 0.09375,-0.75 0.03516,-0.140625 0.09375,-0.5039062 0.09375,-0.75 0,-0.1992187 -0.09375,-0.3164062 -0.2695316,-0.3164062 -0.1523438,0 -0.2695313,0.082031 -0.2695313,0.3164062 0,0.234375 0.046875,0.5859375 0.09375,0.8203125 0.011719,0.082031 0.082031,0.421875 0.09375,0.6796875 -0.1054687,-0.011719 -0.1757812,-0.023437 -0.3867187,-0.082031 -0.2226563,-0.058594 -0.3867188,-0.1054688 -0.5273438,-0.1054688 -0.2695312,0 -0.2929687,0.2109375 -0.2929687,0.28125 0,0.046875 0.023437,0.2695313 0.2929687,0.2695313 0.140625,0 0.3046875,-0.046875 0.5273438,-0.1054688 0.2109375,-0.058594 0.28125,-0.070312 0.3867187,-0.082031 -0.011719,0.1757812 -0.070312,0.3984375 -0.1054687,0.5507812 -0.082031,0.4335938 -0.082031,0.4804688 -0.082031,0.84375 0,1.3476563 0.1289063,2.7773438 0.1523438,2.90625 0,0.070312 0.023437,0.1054688 0.1171875,0.1054688 0.1054687,0 0.1054687,-0.035156 0.1289062,-0.140625 0,0 0.046875,-0.609375 0.082031,-1.03125 0.03516,-0.6210938 0.05859,-1.2304688 0.05859,-1.8398438 0,-0.3632812 0,-0.4101562 -0.09375,-0.8554687 -0.01172,-0.082031 -0.082031,-0.3632813 -0.09375,-0.5390625 z m 0,0"
         style="fill:#000000;fill-opacity:1;fill-rule:nonzero;stroke:none" />
    </g>
    <path
       id="path15"
       d="M 101.84926,0 H 82.00659"
       style="fill:none;stroke:#000000;stroke-width:0.3985;stroke-linecap:butt;stroke-linejoin:miter;stroke-miterlimit:10;stroke-dasharray:none;stroke-opacity:1"
       transform="matrix(1.3333333,0,0,-1.3333333,55.537333,19.106667)" />
    <path
       id="path16"
       d="m 2.82525,-6.2214453 c 0,-0.1992188 -0.1289062,-0.3632813 -0.3632812,-0.3632813 -0.2695313,0 -0.5390625,0.2578125 -0.5390625,0.5273438 0,0.1875 0.140625,0.3632812 0.375,0.3632812 0.234375,0 0.5273437,-0.234375 0.5273437,-0.5273437 z m -0.75,3.7382812 c 0.1171875,-0.28125 0.1171875,-0.3046875 0.2226563,-0.5742187 0.070312,-0.1992188 0.1289062,-0.3398438 0.1289062,-0.5273438 0,-0.4453125 -0.328125,-0.8203125 -0.8203125,-0.8203125 -0.9375,0 -1.3125,1.453125 -1.3125,1.5351563 0,0.1054687 0.09375,0.1054687 0.1171875,0.1054687 0.09375,0 0.10546875,-0.023437 0.15234375,-0.1875 0.26953125,-0.9375 0.66796875,-1.2304687 1.00781255,-1.2304687 0.082031,0 0.2578125,0 0.2578125,0.3164062 0,0.2109375 -0.070312,0.421875 -0.1171875,0.515625 -0.082031,0.2578125 -0.5273438,1.4179688 -0.6796875,1.8515625 -0.1054688,0.2578125 -0.23437505,0.58593754 -0.23437505,0.79687504 0,0.46875 0.33984375,0.80859375 0.82031255,0.80859375 0.9375,0 1.3007812,-1.44140629 1.3007812,-1.53515629 0,-0.09375 -0.09375,-0.09375 -0.1171875,-0.09375 -0.1054687,0 -0.1054687,0.023437 -0.1523437,0.1757813 -0.1757813,0.63281249 -0.5039063,1.24218749 -1.0195313,1.24218749 -0.1640625,0 -0.234375,-0.10546875 -0.234375,-0.328125 0,-0.2578125 0.058594,-0.3984375 0.2929688,-0.99609379 z m 0,0"
       style="fill:#000000;fill-opacity:1;fill-rule:nonzero;stroke:none"
       aria-label="i"
       transform="matrix(1.3333333,0,0,1.3333333,155.608,23.486667)" />
    <path
       id="path17"
       d="m 124.9252,0 h 16.60942"
       style="fill:none;stroke:#000000;stroke-width:0.3985;stroke-linecap:butt;stroke-linejoin:miter;stroke-miterlimit:10;stroke-dasharray:none;stroke-opacity:1"
       transform="matrix(1.3333333,0,0,-1.3333333,55.537333,19.106667)" />
    <path
       id="path18"
       d="m 2.8592344,-6.8080469 c 0,0 0,-0.1054687 -0.1289063,-0.1054687 -0.234375,0 -0.9609375,0.082031 -1.21875,0.1054687 -0.082031,0 -0.1875,0.011719 -0.1875,0.1992188 0,0.1171875 0.09375,0.1171875 0.234375,0.1171875 0.4804688,0 0.5039063,0.070312 0.5039063,0.1640625 l -0.035156,0.1992187 -1.44140622,5.74218753 c -0.0351563,0.140625 -0.0351563,0.15234375 -0.0351563,0.22265625 0,0.22265625 0.19921875,0.26953125 0.28125,0.26953125 0.12890625,0 0.28124992,-0.08203125 0.33984372,-0.2109375 0.058594,-0.0820313 0.5039062,-1.92187503 0.5625,-2.17968753 0.3398437,0.035156 1.1601562,0.1875 1.1601562,0.8554688 0,0.070312 0,0.1054687 -0.035156,0.1992187 -0.023437,0.1289063 -0.035156,0.24609378 -0.035156,0.35156253 0,0.5859375 0.3984375,0.984375 0.9140625,0.984375 0.2929688,0 0.5625,-0.15234375 0.7851563,-0.52734375 0.2460937,-0.43359375 0.3632812,-0.98437498 0.3632812,-1.00781248 0,-0.09375 -0.09375,-0.09375 -0.1289062,-0.09375 -0.09375,0 -0.1054688,0.035156 -0.140625,0.1757812 -0.1992188,0.72656253 -0.421875,1.24218753 -0.8671875,1.24218753 -0.1875,0 -0.3164063,-0.1171875 -0.3164063,-0.46875 0,-0.17578125 0.046875,-0.3984375 0.082031,-0.56250003 0.035156,-0.1640625 0.035156,-0.2109375 0.035156,-0.3046875 0,-0.65625 -0.6210937,-0.9375 -1.4648437,-1.0546875 0.3046875,-0.1757812 0.6210937,-0.4921875 0.8554687,-0.7265625 0.4804688,-0.5273437 0.9375,-0.9609375 1.4179688,-0.9609375 0.058594,0 0.070312,0 0.09375,0.011719 0.1171875,0.023437 0.1289062,0.023437 0.2109375,0.082031 0.023437,0 0.023437,0.011719 0.035156,0.035156 -0.4804687,0.035156 -0.5625,0.421875 -0.5625,0.5390625 0,0.1640625 0.1054688,0.3515625 0.375,0.3515625 0.2578125,0 0.5507813,-0.2226563 0.5507813,-0.609375 0,-0.3046875 -0.234375,-0.6328125 -0.6796875,-0.6328125 -0.28125,0 -0.7382813,0.082031 -1.453125,0.8789062 -0.3398438,0.375 -0.7265625,0.7734375 -1.1015625,0.9257813 z m 0,0"
       style="fill:#000000;fill-opacity:1;fill-rule:nonzero;stroke:none"
       aria-label="k"
       transform="matrix(1.3333333,0,0,1.3333333,229.508,14.413333)" />
    <path
       id="path19"
       d="M 164.61055,0 H 181.2204"
       style="fill:none;stroke:#000000;stroke-width:0.3985;stroke-linecap:butt;stroke-linejoin:miter;stroke-miterlimit:10;stroke-dasharray:none;stroke-opacity:1"
       transform="matrix(1.3333333,0,0,-1.3333333,55.537333,19.106667)" />
    <g
       id="g19"
       aria-label="k&#10;′"
       transform="matrix(1.3333333,0,0,1.3333333,280.55733,14.413333)">
      <path
         id="path20"
         d="m 2.8603203,-6.8080469 c 0,0 0,-0.1054687 -0.1289062,-0.1054687 -0.234375,0 -0.9609375,0.082031 -1.21875,0.1054687 -0.082031,0 -0.1875,0.011719 -0.1875,0.1992188 0,0.1171875 0.09375,0.1171875 0.234375,0.1171875 0.4804687,0 0.5039062,0.070312 0.5039062,0.1640625 l -0.035156,0.1992187 -1.44140629,5.74218753 c -0.0351563,0.140625 -0.0351563,0.15234375 -0.0351563,0.22265625 0,0.22265625 0.19921875,0.26953125 0.28125,0.26953125 0.12890625,0 0.28124999,-0.08203125 0.33984369,-0.2109375 0.058594,-0.0820313 0.5039063,-1.92187503 0.5625,-2.17968753 0.3398438,0.035156 1.1601563,0.1875 1.1601563,0.8554688 0,0.070312 0,0.1054687 -0.035156,0.1992187 -0.023437,0.1289063 -0.035156,0.24609378 -0.035156,0.35156253 0,0.5859375 0.3984375,0.984375 0.9140625,0.984375 0.2929687,0 0.5625,-0.15234375 0.7851562,-0.52734375 0.2460938,-0.43359375 0.3632813,-0.98437498 0.3632813,-1.00781248 0,-0.09375 -0.09375,-0.09375 -0.1289063,-0.09375 -0.09375,0 -0.1054687,0.035156 -0.140625,0.1757812 -0.1992187,0.72656253 -0.421875,1.24218753 -0.8671875,1.24218753 -0.1875,0 -0.3164062,-0.1171875 -0.3164062,-0.46875 0,-0.17578125 0.046875,-0.3984375 0.082031,-0.56250003 0.035156,-0.1640625 0.035156,-0.2109375 0.035156,-0.3046875 0,-0.65625 -0.6210938,-0.9375 -1.4648438,-1.0546875 0.3046875,-0.1757812 0.6210938,-0.4921875 0.8554688,-0.7265625 0.4804687,-0.5273437 0.9375,-0.9609375 1.4179687,-0.9609375 0.058594,0 0.070312,0 0.09375,0.011719 0.1171875,0.023437 0.1289063,0.023437 0.2109375,0.082031 0.023437,0 0.023437,0.011719 0.035156,0.035156 -0.4804688,0.035156 -0.5625,0.421875 -0.5625,0.5390625 0,0.1640625 0.1054687,0.3515625 0.375,0.3515625 0.2578125,0 0.5507812,-0.2226563 0.5507812,-0.609375 0,-0.3046875 -0.234375,-0.6328125 -0.6796875,-0.6328125 -0.28125,0 -0.7382811,0.082031 -1.453125,0.8789062 -0.3398436,0.375 -0.7265625,0.7734375 -1.1015625,0.9257813 z m 0,0"
         style="fill:#000000;fill-opacity:1;fill-rule:nonzero;stroke:none" />
      <path
         id="path21"
         d="m 7.5273125,-6.9076562 c 0.046875,-0.1171875 0.058594,-0.1757813 0.058594,-0.2226563 0,-0.2109375 -0.1992188,-0.3867187 -0.4101563,-0.3867187 -0.2695312,0 -0.3515625,0.2226562 -0.3867187,0.328125 L 5.8749688,-4.1654687 C 5.86325,-4.15375 5.8398125,-4.06 5.8398125,-4.0482812 c 0,0.082031 0.2109375,0.1523437 0.2695313,0.1523437 0.046875,0 0.058594,-0.023437 0.1054687,-0.1289062 z m 0,0"
         style="fill:#000000;fill-opacity:1;fill-rule:nonzero;stroke:none" />
    </g>
    <path
       id="path22"
       d="M 204.29634,0 H 224.139"
       style="fill:none;stroke:#000000;stroke-width:0.3985;stroke-linecap:butt;stroke-linejoin:miter;stroke-miterlimit:10;stroke-dasharray:none;stroke-opacity:1"
       transform="matrix(1.3333333,0,0,-1.3333333,55.537333,19.106667)" />
    <path
       id="path23"
       d="m 3.9488125,-6.2231719 c 0,-0.1875 -0.1289062,-0.3632812 -0.375,-0.3632812 -0.2226562,0 -0.5273437,0.234375 -0.5273437,0.5273437 0,0.1992188 0.140625,0.3632813 0.375,0.3632813 0.2695312,0 0.5273437,-0.2578125 0.5273437,-0.5273438 z M 1.956625,0.50339063 C 1.7574063,1.2533906 1.2886563,1.8276094 0.72615625,1.8276094 c -0.0585938,0 -0.2109375,0 -0.38671875,-0.09375 C 0.63240625,1.6635469 0.78475,1.4057344 0.78475,1.2065156 c 0,-0.1640625 -0.10546875,-0.35156247 -0.375,-0.35156247 -0.24609375,0 -0.5390625,0.21093747 -0.5390625,0.57421877 0,0.3984375 0.3984375,0.609375 0.87890625,0.609375 0.69140625,0 1.61718755,-0.5273438 1.87500005,-1.51171877 L 3.5386563,-3.1177031 c 0.046875,-0.1992188 0.046875,-0.3398438 0.046875,-0.375 0,-0.5625 -0.421875,-0.9140625 -0.9140625,-0.9140625 -1.0195313,0 -1.5820313,1.453125 -1.5820313,1.5351562 0,0.1054688 0.09375,0.1054688 0.1171875,0.1054688 0.09375,0 0.09375,-0.011719 0.1757813,-0.1992188 0.2460937,-0.609375 0.7148437,-1.21875 1.2539062,-1.21875 0.140625,0 0.3164063,0.035156 0.3164063,0.4570313 0,0.234375 -0.023437,0.3398437 -0.058594,0.5039062 z m 0,0"
       style="fill:#000000;fill-opacity:1;fill-rule:nonzero;stroke:none"
       aria-label="j"
       transform="matrix(1.3333333,0,0,1.3333333,359.07867,22.196)" />
  </g>
</svg>
