<?xml version="1.0" encoding="UTF-8" standalone="no"?>
<!-- Created with Inkscape (http://www.inkscape.org/) -->

<svg
   version="1.1"
   id="svg1"
   width="435.71927"
   height="24.921598"
   viewBox="0 0 435.71927 24.921598"
   xmlns="http://www.w3.org/2000/svg"
   xmlns:svg="http://www.w3.org/2000/svg">
  <defs
     id="defs1" />
  <g
     id="g1"
     transform="translate(6.7858636e-4,7.9968546e-4)">
    <path
       id="path1"
       d="M 50.12671,9.14635 H -50.12671 c -1.10046,0 -1.99255,-0.89208 -1.99255,-1.99255 V -7.1538 c 0,-1.10047 0.89209,-1.99255 1.99255,-1.99255 H 50.12671 c 1.10046,0 1.99255,0.89208 1.99255,1.99255 V 7.1538 c 0,1.10047 -0.89209,1.99255 -1.99255,1.99255 z"
       style="fill:#f0f0f0;fill-opacity:1;fill-rule:nonzero;stroke:#000000;stroke-width:0.3985;stroke-linecap:butt;stroke-linejoin:miter;stroke-miterlimit:10;stroke-dasharray:none;stroke-opacity:1"
       transform="matrix(1.3333333,0,0,-1.3333333,69.757333,12.46)" />
    <g
       id="g2"
       aria-label="|Ψ&#10;pur&#10;⟩inH&#10;phys&#10;⊗H&#10;anc"
       transform="matrix(1.3333333,0,0,1.3333333,5.5786667,15.541333)">
      <path
         id="path2"
         d="m 1.581625,-7.1120547 c 0,-0.1757812 0,-0.3632812 -0.1992187,-0.3632812 -0.1992188,0 -0.1992188,0.1875 -0.1992188,0.3632812 v 9.2460938 c 0,0.1757812 0,0.3632812 0.1992188,0.3632812 0.1992187,0 0.1992187,-0.1875 0.1992187,-0.3632812 z m 0,0"
         style="fill:#000000;fill-opacity:1;fill-rule:nonzero;stroke:none" />
      <path
         id="path3"
         d="m 7.0220547,-6.0104922 c 0,-0.3398437 0,-0.4804687 0.9492187,-0.4804687 h 0.328125 v -0.3164063 c -0.3632812,0.035156 -1.2773437,0.035156 -1.6875,0.035156 -0.4101562,0 -1.3359375,0 -1.6875,-0.035156 v 0.3164063 h 0.328125 c 0.9375,0 0.9375,0.1289062 0.9375,0.4804687 v 4.4179688 C 4.8892422,-1.9440859 4.8423672,-3.4792422 4.8423672,-4.1237734 4.8306484,-5.3308047 4.3970547,-5.5183047 3.9517422,-5.5183047 H 3.5884609 c -0.1523437,0 -0.2578125,0 -0.2578125,0.1054688 0,0.058594 0.035156,0.1054687 0.09375,0.1171875 0.328125,0.035156 0.5742188,0.1757812 0.5859375,1.3476562 0,0.234375 0.035156,1.0195313 0.515625,1.6875 0.3867188,0.5390625 0.9960938,0.8320313 1.6640625,0.9140625 v 0.56250001 c 0,0.33984375 0,0.48046875 -0.9375,0.48046875 h -0.328125 v 0.3046875 c 0.3515625,-0.03515625 1.265625,-0.03515625 1.6757813,-0.03515625 0.4101562,0 1.3359375,0 1.6992187,0.03515625 v -0.3046875 h -0.328125 c -0.9492187,0 -0.9492187,-0.12890625 -0.9492187,-0.48046875 V -1.3464297 c 0.7148437,-0.082031 1.3242187,-0.3867187 1.7109375,-0.9023437 0.515625,-0.703125 0.5273437,-1.5 0.5273437,-1.9335938 0,-0.1640625 0.011719,-1.0429687 0.5507813,-1.1132812 0.058594,-0.011719 0.1289062,-0.023437 0.1289062,-0.1171875 0,-0.1054688 -0.082031,-0.1054688 -0.234375,-0.1054688 H 9.3189297 c -0.3867188,0 -0.8671875,0.070312 -0.8789063,1.5117188 -0.011719,1.1015625 -0.3398437,2.15625 -1.4179687,2.4140625 z m 0,0"
         style="fill:#000000;fill-opacity:1;fill-rule:nonzero;stroke:none" />
      <path
         id="path4"
         d="m 12.450766,2.5969297 c -0.445313,0 -0.515625,0 -0.515625,-0.3046875 V 1.1555234 c 0.03516,0.035156 0.363281,0.4101563 0.949218,0.4101563 0.914063,0 1.699219,-0.69140626 1.699219,-1.58203126 0,-0.85546875 -0.703125,-1.55859374 -1.59375,-1.55859374 -0.398437,0 -0.796875,0.140625 -1.089844,0.421875 v -0.421875 l -1.042968,0.070312 v 0.2578125 c 0.492187,0 0.527343,0.035156 0.527343,0.32812499 V 2.2922422 c 0,0.3046875 -0.07031,0.3046875 -0.527343,0.3046875 v 0.2460937 c 0.01172,0 0.503906,-0.023437 0.796875,-0.023437 0.257812,0 0.738281,0.023437 0.796875,0.023437 z m -0.515625,-3.42187501 c 0.210937,-0.35156249 0.609375,-0.52734379 0.984375,-0.52734379 0.585937,0 1.03125,0.60937504 1.03125,1.33593754 0,0.796875 -0.515625,1.38281246 -1.113282,1.38281246 -0.609375,0 -0.878906,-0.53906246 -0.902343,-0.57421871 z m 5.501953,-0.67968749 v 0.2578125 c 0.46875,0 0.515625,0.046875 0.515625,0.38671874 v 1.1953125 c 0,0.609375 -0.386719,1.03124996 -0.925781,1.03124996 -0.632813,0 -0.65625,-0.2929687 -0.65625,-0.65624996 V -1.5749453 l -1.078125,0.070312 v 0.2578125 c 0.527343,0 0.527343,0.011719 0.527343,0.63281249 v 1.0546875 c 0,0.48046875 0,1.12500001 1.160157,1.12500001 0.152343,0 0.667968,0 0.996093,-0.58593751 h 0.01172 V 1.5656797 l 1.042969,-0.070312 V 1.2492734 c -0.46875,0 -0.527344,-0.058594 -0.527344,-0.39843746 V -1.5749453 Z m 3.263672,1.40624999 c 0,-0.5859375 0.28125,-1.28906249 0.9375,-1.28906249 -0.05859,0.046875 -0.117188,0.140625 -0.117188,0.2578125 0,0.22265624 0.175781,0.31640624 0.316406,0.31640624 0.164063,0 0.316407,-0.10546875 0.316407,-0.31640624 0,-0.2460938 -0.222657,-0.4453125 -0.550782,-0.4453125 -0.351562,0 -0.726562,0.2109375 -0.9375,0.73828124 h -0.01172 V -1.5749453 l -0.996094,0.070312 v 0.2578125 c 0.46875,0 0.527344,0.046875 0.527344,0.38671874 v 1.8046875 c 0,0.30468746 -0.07031,0.30468746 -0.527344,0.30468746 v 0.2460938 c 0.03516,0 0.515625,-0.023437 0.796875,-0.023437 0.304687,0 0.609375,0.011719 0.902344,0.023437 V 1.2492734 h -0.140625 c -0.515625,0 -0.515625,-0.082031 -0.515625,-0.31640621 z m 0,0"
         style="fill:#000000;fill-opacity:1;fill-rule:nonzero;stroke:none" />
      <path
         id="path5"
         d="m 25.646078,-2.3190859 c 0.04687,-0.1171875 0.04687,-0.140625 0.04687,-0.1757813 0,-0.023437 0,-0.046875 -0.04687,-0.1640625 l -1.746094,-4.5820312 c -0.05859,-0.1640625 -0.117187,-0.234375 -0.222656,-0.234375 -0.117187,0 -0.199219,0.09375 -0.199219,0.1992187 0,0.035156 0,0.058594 0.04687,0.1640625 l 1.757813,4.6171875 -1.757813,4.6054688 c -0.04687,0.1171875 -0.04687,0.1289062 -0.04687,0.1875 0,0.1054687 0.08203,0.1992187 0.199219,0.1992187 0.128906,0 0.164063,-0.1054687 0.210938,-0.1992187 z m 0,0"
         style="fill:#000000;fill-opacity:1;fill-rule:nonzero;stroke:none" />
      <path
         id="path6"
         d="m 31.880453,-4.4050234 -1.394531,0.1171875 v 0.3046875 c 0.65625,0 0.738281,0.058594 0.738281,0.5507812 v 2.67187501 c 0,0.45703125 -0.105469,0.45703125 -0.773437,0.45703125 v 0.3046875 c 0.316406,-0.01171875 0.855468,-0.03515625 1.101562,-0.03515625 0.339844,0 0.691406,0.0234375 1.03125,0.03515625 v -0.3046875 c -0.65625,0 -0.703125,-0.0585938 -0.703125,-0.4453125 z m 0.04687,-1.734375 c 0,-0.3164063 -0.246094,-0.5273438 -0.527344,-0.5273438 -0.316406,0 -0.527343,0.2695313 -0.527343,0.5273438 0,0.2695312 0.210937,0.5273437 0.527343,0.5273437 0.28125,0 0.527344,-0.1992187 0.527344,-0.5273437 z m 2.06543,2.71875 v 2.66015621 c 0,0.45703125 -0.117188,0.45703125 -0.785156,0.45703125 v 0.3046875 c 0.351562,-0.01171875 0.855468,-0.03515625 1.125,-0.03515625 0.257812,0 0.785156,0.0234375 1.113281,0.03515625 v -0.3046875 c -0.65625,0 -0.773438,0 -0.773438,-0.45703125 V -2.5886172 c 0,-1.03125 0.714844,-1.59375 1.347657,-1.59375 0.621093,0 0.738281,0.5390625 0.738281,1.1015625 v 2.32031251 c 0,0.45703125 -0.117188,0.45703125 -0.773438,0.45703125 v 0.3046875 c 0.339844,-0.01171875 0.855469,-0.03515625 1.125,-0.03515625 0.257813,0 0.773438,0.0234375 1.113282,0.03515625 v -0.3046875 c -0.515625,0 -0.773438,0 -0.785157,-0.3046875 V -2.5065859 c 0,-0.8554688 0,-1.171875 -0.304687,-1.5234375 -0.140625,-0.1757813 -0.46875,-0.375 -1.042969,-0.375 -0.726562,0 -1.195312,0.4335937 -1.476562,1.0546875 v -1.0546875 l -1.40625,0.1171875 v 0.3046875 c 0.703125,0 0.785156,0.070312 0.785156,0.5625 z m 0,0"
         style="fill:#000000;fill-opacity:1;fill-rule:nonzero;stroke:none" />
      <path
         id="path7"
         d="m 45.040609,-3.3386172 c 0.128907,-0.46875 0.257813,-0.9726562 0.363282,-1.453125 0.117187,-0.6679687 0.1875,-1.3359375 0.1875,-1.453125 0,-0.5625 -0.550782,-0.5625 -0.667969,-0.5625 -0.75,0 -1.429688,0.28125 -1.898438,0.5976563 -0.808593,0.5507812 -1.066406,1.21875 -1.066406,1.265625 0,0.070312 0.07031,0.070312 0.09375,0.070312 0.08203,0 0.550781,-0.1171875 0.761719,-0.4921875 0.269531,-0.515625 0.5625,-0.890625 1.453125,-0.890625 0.410156,0 0.480469,0.28125 0.480469,0.4453125 0,0 -0.03516,0.46875 -0.152344,1.1601562 -0.04687,0.28125 -0.08203,0.4570313 -0.292969,1.3125 h -0.351562 c -0.28125,0.011719 -0.738282,0.328125 -0.738282,0.4804688 0,0.058594 0.01172,0.070312 0.234375,0.070312 h 0.714844 c -0.210937,0.6914062 -0.492187,1.6523437 -0.949219,2.87109371 -0.09375,0.22265625 -0.09375,0.24609375 -0.09375,0.2578125 0,0.0703125 0.08203,0.0703125 0.105469,0.0703125 0.140625,0 0.445313,-0.12890625 0.644531,-0.328125 0.04687,-0.05859375 0.07031,-0.08203125 0.105469,-0.1875 0.351563,-0.8671875 0.65625,-1.76953121 0.914063,-2.68359371 h 2.238281 c 0.105469,0 0.304687,0 0.457031,-0.1054688 -0.105469,0.421875 -0.515625,2.05078126 -0.515625,2.83593751 0,0.29296875 0.164063,0.55078125 0.597656,0.55078125 1.324219,0 2.0625,-0.83203125 2.0625,-1.1484375 0,-0.0585938 -0.04687,-0.0820313 -0.105468,-0.0820313 -0.07031,0 -0.597657,0.140625 -0.75,0.52734375 -0.04687,0.0820313 -0.04687,0.09375 -0.246094,0.1171875 -0.105469,0.0234375 -0.292969,0.03515625 -0.304688,0.03515625 -0.175781,0 -0.410156,-0.1171875 -0.410156,-0.43359375 0,-0.1171875 0.07031,-0.66796871 0.105469,-0.87890621 0.164062,-1.1132813 0.65625,-2.9765625 1.511719,-5.25 0.02344,-0.070312 0.02344,-0.09375 0.02344,-0.1171875 0,-0.070312 -0.05859,-0.070312 -0.09375,-0.070312 -0.152344,0 -0.433594,0.140625 -0.632812,0.3164062 0,0.011719 -0.07031,0.070312 -0.105469,0.1523438 -0.398438,0.984375 -0.703125,1.9921875 -1.007813,2.9999999 z m 0,0"
         style="fill:#000000;fill-opacity:1;fill-rule:nonzero;stroke:none" />
      <path
         id="path8"
         d="m 52.092367,2.5969297 c -0.445312,0 -0.515625,0 -0.515625,-0.3046875 V 1.1555234 c 0.03516,0.035156 0.363281,0.4101563 0.949219,0.4101563 0.914062,0 1.699219,-0.69140626 1.699219,-1.58203126 0,-0.85546875 -0.703125,-1.55859374 -1.59375,-1.55859374 -0.398438,0 -0.796875,0.140625 -1.089844,0.421875 v -0.421875 l -1.042969,0.070312 v 0.2578125 c 0.492188,0 0.527344,0.035156 0.527344,0.32812499 V 2.2922422 c 0,0.3046875 -0.07031,0.3046875 -0.527344,0.3046875 v 0.2460937 c 0.01172,0 0.503906,-0.023437 0.796875,-0.023437 0.257813,0 0.738281,0.023437 0.796875,0.023437 z m -0.515625,-3.42187501 c 0.210938,-0.35156249 0.609375,-0.52734379 0.984375,-0.52734379 0.585938,0 1.03125,0.60937504 1.03125,1.33593754 0,0.796875 -0.515625,1.38281246 -1.113281,1.38281246 -0.609375,0 -0.878906,-0.53906246 -0.902344,-0.57421871 z m 6.56836,0.2109375 c 0,-0.60937499 -0.292969,-0.96093749 -1.042969,-0.96093749 -0.621094,0 -0.960938,0.3632812 -1.113281,0.63281249 h -0.01172 V -3.3444766 l -1.042969,0.082031 v 0.2460937 c 0.46875,0 0.527344,0.046875 0.527344,0.3867188 v 3.57421874 c 0,0.30468746 -0.07031,0.30468746 -0.527344,0.30468746 v 0.2460938 c 0.01172,0 0.503906,-0.023437 0.796875,-0.023437 0.257813,0 0.738281,0.011719 0.796875,0.023437 V 1.2492734 c -0.445312,0 -0.515625,0 -0.515625,-0.30468746 v -1.25390625 c 0,-0.73828129 0.574219,-1.07812499 1.03125,-1.07812499 0.492188,0 0.550781,0.3867187 0.550781,0.73828124 v 1.59375 c 0,0.30468746 -0.07031,0.30468746 -0.515625,0.30468746 v 0.2460938 c 0.01172,0 0.503907,-0.023437 0.796875,-0.023437 0.257813,0 0.738282,0.011719 0.796875,0.023437 V 1.2492734 c -0.457031,0 -0.527343,0 -0.527343,-0.30468746 z m 3.893554,-0.2109375 c 0.199219,-0.42187499 0.550782,-0.43359379 0.667969,-0.43359379 v -0.2460937 c -0.199219,0.011719 -0.328125,0.023437 -0.527344,0.023437 -0.1875,0 -0.445312,-0.011719 -0.632812,-0.023437 v 0.2460937 c 0.222656,0.011719 0.28125,0.1523438 0.28125,0.26953129 0,0.0820313 -0.03516,0.140625 -0.05859,0.2109375 L 60.995688,0.87427344 60.1285,-0.96557031 c -0.01172,-0.046875 -0.03516,-0.0820313 -0.03516,-0.12890629 0,-0.1640625 0.234375,-0.1640625 0.351562,-0.1640625 v -0.2460937 c -0.105468,0 -0.609375,0.023437 -0.796875,0.023437 -0.210937,0 -0.480468,-0.011719 -0.691406,-0.023437 v 0.2460937 c 0.398438,0 0.46875,0.023437 0.574219,0.2460938 l 1.171875,2.5078125 c -0.05859,0.140625 -0.128906,0.2695312 -0.1875,0.4101562 -0.164063,0.3398438 -0.386719,0.8203125 -0.855469,0.8203125 -0.175781,0 -0.234375,-0.035156 -0.304687,-0.082031 0.01172,0 0.210937,-0.070312 0.210937,-0.3046875 0,-0.1757813 -0.128906,-0.3046875 -0.304687,-0.3046875 -0.175782,0 -0.304688,0.1289062 -0.304688,0.3164062 0,0.328125 0.328125,0.5625 0.703125,0.5625 0.597656,0 0.9375,-0.6210937 1.03125,-0.8203125 z m 3.539063,-0.60937499 c 0,-0.1171875 0,-0.1757813 -0.105469,-0.1757813 -0.03516,0 -0.04687,0 -0.140625,0.082031 -0.01172,0 -0.08203,0.070312 -0.117187,0.1054687 -0.210938,-0.1523437 -0.480469,-0.1875 -0.738282,-0.1875 -0.996093,0 -1.230468,0.515625 -1.230468,0.86718754 0,0.22265625 0.09375,0.41015625 0.257812,0.5390625 0.269531,0.234375 0.539063,0.28125 0.960938,0.3515625 0.351562,0.0703125 0.914062,0.1640625 0.914062,0.6328125 0,0.26953126 -0.1875,0.58593746 -0.855469,0.58593746 -0.667968,0 -0.914062,-0.43359371 -1.03125,-0.91406246 -0.02344,-0.0820313 -0.03516,-0.1171875 -0.128906,-0.1171875 -0.117187,0 -0.117187,0.046875 -0.117187,0.1875 V 1.3781797 c 0,0.1289062 0,0.1875 0.09375,0.1875 0.05859,0 0.199218,-0.1523438 0.339843,-0.3046875 0.304688,0.2929687 0.679688,0.3046875 0.84375,0.3046875 0.914063,0 1.242188,-0.4921875 1.242188,-0.98437501 0,-0.26953125 -0.117188,-0.46875 -0.292969,-0.64453125 -0.269531,-0.24609375 -0.585937,-0.29296875 -0.832031,-0.33984375 -0.5625,-0.09375 -1.007813,-0.17578125 -1.007813,-0.55078125 0,-0.22265624 0.1875,-0.49218754 0.84375,-0.49218754 0.808594,0 0.84375,0.56250004 0.855469,0.76171879 0.01172,0.0820313 0.09375,0.0820313 0.117188,0.0820313 0.128906,0 0.128906,-0.046875 0.128906,-0.1875 z m 0,0"
         style="fill:#000000;fill-opacity:1;fill-rule:nonzero;stroke:none" />
      <path
         id="path9"
         d="m 74.334555,-2.4948672 c 0,-1.828125 -1.5,-3.3164062 -3.316407,-3.3164062 -1.851562,0 -3.328125,1.5117187 -3.328125,3.3164062 0,1.83984376 1.488282,3.32812501 3.316407,3.32812501 1.851562,0 3.328125,-1.51171875 3.328125,-3.32812501 z M 69.03768,-4.6276797 c -0.02344,-0.023437 -0.09375,-0.09375 -0.09375,-0.1171875 0,-0.035156 0.808593,-0.8085937 2.0625,-0.8085937 0.351562,0 1.265625,0.046875 2.074218,0.8085937 l -2.0625,2.0859375 z m -0.292969,4.21875001 C 68.135336,-1.0886172 67.936117,-1.8503359 67.936117,-2.4948672 c 0,-0.7617187 0.292969,-1.4882812 0.808594,-2.0742187 l 2.085937,2.0742187 z m 4.523437,-4.16015621 c 0.480469,0.5039062 0.808594,1.265625 0.808594,2.0742187 0,0.7734375 -0.28125,1.50000001 -0.796875,2.08593751 L 71.19393,-2.4948672 Z m -0.28125,4.21874996 c 0.02344,0.0234375 0.09375,0.09375 0.09375,0.1171875 0,0.0351563 -0.808593,0.80859375 -2.0625,0.80859375 -0.351562,0 -1.265625,-0.046875 -2.085937,-0.80859375 L 71.00643,-2.3190859 Z m 5.753907,-2.98828126 c 0.128906,-0.46875 0.257812,-0.9726562 0.363281,-1.453125 0.117187,-0.6679687 0.1875,-1.3359375 0.1875,-1.453125 0,-0.5625 -0.550781,-0.5625 -0.667969,-0.5625 -0.75,0 -1.429687,0.28125 -1.898437,0.5976563 -0.808594,0.5507812 -1.066407,1.21875 -1.066407,1.265625 0,0.070312 0.07031,0.070312 0.09375,0.070312 0.08203,0 0.550782,-0.1171875 0.761719,-0.4921875 0.269531,-0.515625 0.5625,-0.890625 1.453125,-0.890625 0.410156,0 0.480469,0.28125 0.480469,0.4453125 0,0 -0.03516,0.46875 -0.152344,1.1601562 -0.04687,0.28125 -0.08203,0.4570313 -0.292969,1.3125 h -0.351562 c -0.28125,0.011719 -0.738281,0.328125 -0.738281,0.4804688 0,0.058594 0.01172,0.070312 0.234375,0.070312 h 0.714843 c -0.210937,0.6914062 -0.492187,1.6523437 -0.949218,2.87109371 -0.09375,0.22265625 -0.09375,0.24609375 -0.09375,0.2578125 0,0.0703125 0.08203,0.0703125 0.105468,0.0703125 0.140625,0 0.445313,-0.12890625 0.644532,-0.328125 0.04687,-0.05859375 0.07031,-0.08203125 0.105468,-0.1875 0.351563,-0.8671875 0.65625,-1.76953121 0.914063,-2.68359371 h 2.238281 c 0.105469,0 0.304688,0 0.457031,-0.1054688 -0.105468,0.421875 -0.515625,2.05078126 -0.515625,2.83593751 0,0.29296875 0.164063,0.55078125 0.597657,0.55078125 1.324218,0 2.0625,-0.83203125 2.0625,-1.1484375 0,-0.0585938 -0.04687,-0.0820313 -0.105469,-0.0820313 -0.07031,0 -0.597656,0.140625 -0.75,0.52734375 -0.04687,0.0820313 -0.04687,0.09375 -0.246094,0.1171875 -0.105469,0.0234375 -0.292969,0.03515625 -0.304687,0.03515625 -0.175782,0 -0.410157,-0.1171875 -0.410157,-0.43359375 0,-0.1171875 0.07031,-0.66796871 0.105469,-0.87890621 0.164063,-1.1132813 0.65625,-2.9765625 1.511719,-5.25 0.02344,-0.070312 0.02344,-0.09375 0.02344,-0.1171875 0,-0.070312 -0.05859,-0.070312 -0.09375,-0.070312 -0.152343,0 -0.433593,0.140625 -0.632812,0.3164062 0,0.011719 -0.07031,0.070312 -0.105469,0.1523438 -0.398437,0.984375 -0.703125,1.9921875 -1.007812,2.9999999 z m 0,0"
         style="fill:#000000;fill-opacity:1;fill-rule:nonzero;stroke:none" />
      <path
         id="path10"
         d="m 86.961508,-0.36791406 c 0,-0.375 0,-0.64453124 -0.316406,-0.90234374 -0.28125,-0.234375 -0.621094,-0.3398438 -1.03125,-0.3398438 -0.667969,0 -1.125,0.2460938 -1.125,0.66796879 0,0.22265625 0.152343,0.33984375 0.328125,0.33984375 0.1875,0 0.328125,-0.12890625 0.328125,-0.31640625 0,-0.12890629 -0.05859,-0.26953129 -0.246094,-0.32812499 0.257812,-0.1757813 0.65625,-0.1757813 0.703125,-0.1757813 0.386719,0 0.808594,0.2578125 0.808594,0.84375004 v 0.22265625 c -0.375,0.0117188 -0.84375,0.0351563 -1.347657,0.22265625 -0.632812,0.22265625 -0.820312,0.609375 -0.820312,0.92578125 0,0.59765621 0.726562,0.77343751 1.21875,0.77343751 0.550781,0 0.878906,-0.3164063 1.03125,-0.58593751 0.02344,0.28125001 0.210937,0.55078121 0.539062,0.55078121 0.01172,0 0.691407,0 0.691407,-0.66796871 v -0.375 h -0.246094 v 0.375 c 0,0.0703125 0,0.39843751 -0.257813,0.39843751 -0.257812,0 -0.257812,-0.32812501 -0.257812,-0.41015626 z m -0.550781,0.87890625 c 0,0.66796871 -0.585938,0.85546871 -0.890625,0.85546871 -0.363282,0 -0.691407,-0.234375 -0.691407,-0.57421871 0,-0.38671875 0.328125,-0.92578125 1.582032,-0.97265625 z m 5.003906,-1.125 c 0,-0.60937499 -0.292969,-0.96093749 -1.042969,-0.96093749 -0.574219,0 -0.9375,0.3046875 -1.136719,0.66796874 V -1.5749453 l -1.03125,0.070312 v 0.2578125 c 0.46875,0 0.527344,0.046875 0.527344,0.38671874 v 1.8046875 c 0,0.30468746 -0.07031,0.30468746 -0.527344,0.30468746 v 0.2460938 c 0.01172,0 0.503907,-0.023437 0.796875,-0.023437 0.257813,0 0.738282,0.011719 0.796875,0.023437 V 1.2492734 c -0.445312,0 -0.515625,0 -0.515625,-0.30468746 v -1.25390625 c 0,-0.73828129 0.574219,-1.07812499 1.03125,-1.07812499 0.492188,0 0.550782,0.3867187 0.550782,0.73828124 v 1.59375 c 0,0.30468746 -0.07031,0.30468746 -0.515625,0.30468746 v 0.2460938 c 0.01172,0 0.503906,-0.023437 0.796875,-0.023437 0.257812,0 0.738281,0.011719 0.796875,0.023437 V 1.2492734 c -0.457032,0 -0.527344,0 -0.527344,-0.30468746 z m 3.521484,-0.66796879 c -0.117187,0.046875 -0.1875,0.1640625 -0.1875,0.30468754 0,0.1875 0.128906,0.328125 0.328125,0.328125 0.1875,0 0.328125,-0.1171875 0.328125,-0.33984375 0,-0.62109379 -0.960937,-0.62109379 -1.160156,-0.62109379 -1.042969,0 -1.699219,0.79687504 -1.699219,1.59375004 0,0.87890625 0.75,1.58203126 1.664063,1.58203126 1.042968,0 1.277343,-0.82031251 1.277343,-0.90234376 0,-0.09375 -0.08203,-0.09375 -0.117187,-0.09375 -0.08203,0 -0.09375,0.0234375 -0.128906,0.12890625 -0.152344,0.42187501 -0.527344,0.64453121 -0.949219,0.64453121 -0.480469,0 -1.101563,-0.35156246 -1.101563,-1.35937496 0,-0.890625 0.421875,-1.37109374 1.078125,-1.37109374 0.08203,0 0.421875,0 0.667969,0.1054687 z m 0,0"
         style="fill:#000000;fill-opacity:1;fill-rule:nonzero;stroke:none" />
    </g>
    <path
       id="path11"
       d="M 183.43971,9.14635 H 68.68372 c -1.10047,0 -1.99256,-0.89208 -1.99256,-1.99255 V -7.1538 c 0,-1.10047 0.89209,-1.99255 1.99256,-1.99255 h 114.75599 c 1.10047,0 1.99256,0.89208 1.99256,1.99255 V 7.1538 c 0,1.10047 -0.89209,1.99255 -1.99256,1.99255 z"
       style="fill:#f0f0f0;fill-opacity:1;fill-rule:nonzero;stroke:#000000;stroke-width:0.3985;stroke-linecap:butt;stroke-linejoin:miter;stroke-miterlimit:10;stroke-dasharray:none;stroke-opacity:1"
       transform="matrix(1.3333333,0,0,-1.3333333,69.757333,12.46)" />
    <g
       id="g11"
       aria-label="U&#10;tot&#10;=U&#10;phys&#10;⊗1(unitary)"
       transform="matrix(1.3333333,0,0,1.3333333,163.99067,15.541333)">
      <path
         id="path12"
         d="m 6.3292656,-5.7526797 c 0.09375,-0.4101562 0.28125,-0.7148437 1.078125,-0.7382812 0.046875,0 0.1640625,-0.011719 0.1640625,-0.1992188 0,-0.011719 0,-0.1171875 -0.1289062,-0.1171875 -0.328125,0 -0.6796875,0.035156 -1.0195313,0.035156 -0.3398437,0 -0.703125,-0.035156 -1.03125,-0.035156 -0.058594,0 -0.1757812,0 -0.1757812,0.1992188 0,0.1171875 0.09375,0.1171875 0.1757812,0.1171875 0.5625,0.011719 0.6796875,0.2109375 0.6796875,0.4335937 0,0.035156 -0.023437,0.1757813 -0.035156,0.2109375 l -0.890625,3.5507813 c -0.3398438,1.33593746 -1.4882813,2.20312496 -2.484375,2.20312496 -0.6796875,0 -1.21875,-0.43359375 -1.21875,-1.28906246 0,-0.023437 0,-0.3398438 0.1171875,-0.7734375 l 0.9609375,-3.8789063 c 0.09375,-0.3632812 0.1054687,-0.4570312 0.8320312,-0.4570312 0.2695313,0 0.3398438,0 0.3398438,-0.1992188 0,-0.1171875 -0.1054688,-0.1171875 -0.140625,-0.1171875 -0.2695313,0 -0.9960938,0.035156 -1.265625,0.035156 -0.2929688,0 -0.9960938,-0.035156 -1.28906252,-0.035156 -0.0820313,0 -0.1875,0 -0.1875,0.1992188 0,0.1171875 0.09375,0.1171875 0.28125002,0.1171875 0.011719,0 0.2109375,0 0.375,0.011719 0.1757812,0.023437 0.2695312,0.035156 0.2695312,0.1640625 0,0.058594 -0.1054687,0.4804688 -0.1757812,0.703125 l -0.2109375,0.8789063 c -0.09375,0.3867187 -0.57421877,2.2734375 -0.60937502,2.4609375 -0.0703125,0.28125 -0.0703125,0.4335937 -0.0703125,0.5742187 0,1.21875001 0.90234372,1.92187501 1.95703122,1.92187501 1.2539063,0 2.484375,-1.125 2.8125,-2.44921871 z m 0,0"
         style="fill:#000000;fill-opacity:1;fill-rule:nonzero;stroke:none" />
      <path
         id="path13"
         d="m 8.2071953,-1.2585391 h 1.078125 V -1.5046328 H 8.2071953 V -2.7936953 H 7.9611016 c 0,0.6328125 -0.2929688,1.3242187 -0.9609375,1.3359375 v 0.1992187 h 0.65625 v 1.88671879 c 0,0.77343751 0.5859375,0.93750001 0.9726562,0.93750001 0.46875,0 0.7851563,-0.3984375 0.7851563,-0.94921876 V 0.22974219 h -0.234375 v 0.375 c 0,0.48046871 -0.2226563,0.73828121 -0.4921875,0.73828121 -0.4804688,0 -0.4804688,-0.58593746 -0.4804688,-0.71484371 z m 5.3994137,1.26562504 c 0,-0.8671875 -0.75,-1.61718754 -1.710937,-1.61718754 -0.960938,0 -1.710938,0.75000004 -1.710938,1.61718754 0,0.8671875 0.773438,1.55859376 1.710938,1.55859376 0.9375,0 1.710937,-0.69140626 1.710937,-1.55859376 z M 11.895672,1.3430234 c -0.257813,0 -0.632813,-0.082031 -0.867188,-0.42187496 -0.1875,-0.29296875 -0.210937,-0.65625 -0.210937,-0.97265625 0,-0.3046875 0.01172,-0.71484375 0.257812,-1.00781249 0.175782,-0.2109375 0.46875,-0.3632813 0.820313,-0.3632813 0.410156,0 0.703125,0.1992188 0.855469,0.4101563 0.199218,0.28124999 0.222656,0.62109374 0.222656,0.96093749 0,0.328125 -0.02344,0.703125 -0.222656,0.984375 -0.1875,0.26953121 -0.515625,0.41015621 -0.855469,0.41015621 z m 3.398437,-2.6015625 h 1.078125 v -0.2460937 h -1.078125 v -1.2890625 h -0.246093 c 0,0.6328125 -0.292969,1.3242187 -0.960938,1.3359375 v 0.1992187 h 0.65625 v 1.88671879 c 0,0.77343751 0.585938,0.93750001 0.972656,0.93750001 0.46875,0 0.785157,-0.3984375 0.785157,-0.94921876 V 0.22974219 h -0.234375 v 0.375 c 0,0.48046871 -0.222657,0.73828121 -0.492188,0.73828121 -0.480469,0 -0.480469,-0.58593746 -0.480469,-0.71484371 z m 0,0"
         style="fill:#000000;fill-opacity:1;fill-rule:nonzero;stroke:none" />
      <path
         id="path14"
         d="m 27.109539,-3.2565859 c 0.152344,0 0.339844,0 0.339844,-0.1992188 0,-0.1992187 -0.1875,-0.1992187 -0.328125,-0.1992187 h -5.964844 c -0.140625,0 -0.328125,0 -0.328125,0.1992187 0,0.1992188 0.1875,0.1992188 0.339844,0.1992188 z m 0.01172,1.9335937 c 0.140625,0 0.328125,0 0.328125,-0.1992187 0,-0.1992188 -0.1875,-0.1992188 -0.339844,-0.1992188 h -5.941406 c -0.152344,0 -0.339844,0 -0.339844,0.1992188 0,0.1992187 0.1875,0.1992187 0.328125,0.1992187 z m 0,0"
         style="fill:#000000;fill-opacity:1;fill-rule:nonzero;stroke:none" />
      <path
         id="path15"
         d="m 37.111492,-5.7526797 c 0.09375,-0.4101562 0.28125,-0.7148437 1.078125,-0.7382812 0.04687,0 0.164063,-0.011719 0.164063,-0.1992188 0,-0.011719 0,-0.1171875 -0.128907,-0.1171875 -0.328125,0 -0.679687,0.035156 -1.019531,0.035156 -0.339844,0 -0.703125,-0.035156 -1.03125,-0.035156 -0.05859,0 -0.175781,0 -0.175781,0.1992188 0,0.1171875 0.09375,0.1171875 0.175781,0.1171875 0.5625,0.011719 0.679688,0.2109375 0.679688,0.4335937 0,0.035156 -0.02344,0.1757813 -0.03516,0.2109375 l -0.890625,3.5507813 c -0.339843,1.33593746 -1.488281,2.20312496 -2.484375,2.20312496 -0.679687,0 -1.21875,-0.43359375 -1.21875,-1.28906246 0,-0.023437 0,-0.3398438 0.117188,-0.7734375 l 0.960937,-3.8789063 c 0.09375,-0.3632812 0.105469,-0.4570312 0.832032,-0.4570312 0.269531,0 0.339843,0 0.339843,-0.1992188 0,-0.1171875 -0.105468,-0.1171875 -0.140625,-0.1171875 -0.269531,0 -0.996093,0.035156 -1.265625,0.035156 -0.292968,0 -0.996093,-0.035156 -1.289062,-0.035156 -0.08203,0 -0.1875,0 -0.1875,0.1992188 0,0.1171875 0.09375,0.1171875 0.28125,0.1171875 0.01172,0 0.210937,0 0.375,0.011719 0.175781,0.023437 0.269531,0.035156 0.269531,0.1640625 0,0.058594 -0.105469,0.4804688 -0.175781,0.703125 l -0.210938,0.8789063 c -0.09375,0.3867187 -0.574218,2.2734375 -0.609375,2.4609375 -0.07031,0.28125 -0.07031,0.4335937 -0.07031,0.5742187 0,1.21875001 0.902344,1.92187501 1.957031,1.92187501 1.253906,0 2.484375,-1.125 2.8125,-2.44921871 z m 0,0"
         style="fill:#000000;fill-opacity:1;fill-rule:nonzero;stroke:none" />
      <path
         id="path16"
         d="m 39.516766,2.5969297 c -0.445313,0 -0.515625,0 -0.515625,-0.3046875 V 1.1555234 c 0.03516,0.035156 0.363281,0.4101563 0.949218,0.4101563 0.914063,0 1.699219,-0.69140626 1.699219,-1.58203126 0,-0.85546875 -0.703125,-1.55859374 -1.59375,-1.55859374 -0.398437,0 -0.796875,0.140625 -1.089844,0.421875 v -0.421875 l -1.042968,0.070312 v 0.2578125 c 0.492187,0 0.527343,0.035156 0.527343,0.32812499 V 2.2922422 c 0,0.3046875 -0.07031,0.3046875 -0.527343,0.3046875 v 0.2460937 c 0.01172,0 0.503906,-0.023437 0.796875,-0.023437 0.257812,0 0.738281,0.023437 0.796875,0.023437 z m -0.515625,-3.42187501 c 0.210937,-0.35156249 0.609375,-0.52734379 0.984375,-0.52734379 0.585937,0 1.03125,0.60937504 1.03125,1.33593754 0,0.796875 -0.515625,1.38281246 -1.113282,1.38281246 -0.609375,0 -0.878906,-0.53906246 -0.902343,-0.57421871 z m 6.568359,0.2109375 c 0,-0.60937499 -0.292969,-0.96093749 -1.042969,-0.96093749 -0.621093,0 -0.960937,0.3632812 -1.113281,0.63281249 H 43.40153 V -3.3444766 l -1.042968,0.082031 v 0.2460937 c 0.46875,0 0.527343,0.046875 0.527343,0.3867188 v 3.57421874 c 0,0.30468746 -0.07031,0.30468746 -0.527343,0.30468746 v 0.2460938 c 0.01172,0 0.503906,-0.023437 0.796875,-0.023437 0.257812,0 0.738281,0.011719 0.796875,0.023437 V 1.2492734 c -0.445313,0 -0.515625,0 -0.515625,-0.30468746 v -1.25390625 c 0,-0.73828129 0.574218,-1.07812499 1.03125,-1.07812499 0.492187,0 0.550781,0.3867187 0.550781,0.73828124 v 1.59375 c 0,0.30468746 -0.07031,0.30468746 -0.515625,0.30468746 v 0.2460938 c 0.01172,0 0.503906,-0.023437 0.796875,-0.023437 0.257812,0 0.738281,0.011719 0.796875,0.023437 V 1.2492734 c -0.457031,0 -0.527344,0 -0.527344,-0.30468746 z m 3.893555,-0.2109375 c 0.199218,-0.42187499 0.550781,-0.43359379 0.667968,-0.43359379 v -0.2460937 c -0.199218,0.011719 -0.328125,0.023437 -0.527343,0.023437 -0.1875,0 -0.445313,-0.011719 -0.632813,-0.023437 v 0.2460937 c 0.222656,0.011719 0.28125,0.1523438 0.28125,0.26953129 0,0.0820313 -0.03516,0.140625 -0.05859,0.2109375 L 48.42009,0.87427344 47.552902,-0.96557031 c -0.01172,-0.046875 -0.03516,-0.0820313 -0.03516,-0.12890629 0,-0.1640625 0.234375,-0.1640625 0.351563,-0.1640625 v -0.2460937 c -0.105469,0 -0.609375,0.023437 -0.796875,0.023437 -0.210938,0 -0.480469,-0.011719 -0.691407,-0.023437 v 0.2460937 c 0.398438,0 0.46875,0.023437 0.574219,0.2460938 l 1.171875,2.5078125 c -0.05859,0.140625 -0.128906,0.2695312 -0.1875,0.4101562 -0.164062,0.3398438 -0.386719,0.8203125 -0.855469,0.8203125 -0.175781,0 -0.234375,-0.035156 -0.304687,-0.082031 0.01172,0 0.210937,-0.070312 0.210937,-0.3046875 0,-0.1757813 -0.128906,-0.3046875 -0.304687,-0.3046875 -0.175781,0 -0.304688,0.1289062 -0.304688,0.3164062 0,0.328125 0.328125,0.5625 0.703125,0.5625 0.597657,0 0.9375,-0.6210937 1.03125,-0.8203125 z m 3.539062,-0.60937499 c 0,-0.1171875 0,-0.1757813 -0.105469,-0.1757813 -0.03516,0 -0.04687,0 -0.140625,0.082031 -0.01172,0 -0.08203,0.070312 -0.117187,0.1054687 -0.210938,-0.1523437 -0.480469,-0.1875 -0.738281,-0.1875 -0.996094,0 -1.230469,0.515625 -1.230469,0.86718754 0,0.22265625 0.09375,0.41015625 0.257812,0.5390625 0.269532,0.234375 0.539063,0.28125 0.960938,0.3515625 0.351562,0.0703125 0.914062,0.1640625 0.914062,0.6328125 0,0.26953126 -0.1875,0.58593746 -0.855468,0.58593746 -0.667969,0 -0.914063,-0.43359371 -1.03125,-0.91406246 -0.02344,-0.0820313 -0.03516,-0.1171875 -0.128907,-0.1171875 -0.117187,0 -0.117187,0.046875 -0.117187,0.1875 V 1.3781797 c 0,0.1289062 0,0.1875 0.09375,0.1875 0.05859,0 0.199219,-0.1523438 0.339844,-0.3046875 0.304687,0.2929687 0.679687,0.3046875 0.84375,0.3046875 0.914062,0 1.242187,-0.4921875 1.242187,-0.98437501 0,-0.26953125 -0.117187,-0.46875 -0.292969,-0.64453125 -0.269531,-0.24609375 -0.585937,-0.29296875 -0.832031,-0.33984375 -0.5625,-0.09375 -1.007812,-0.17578125 -1.007812,-0.55078125 0,-0.22265624 0.1875,-0.49218754 0.84375,-0.49218754 0.808593,0 0.84375,0.56250004 0.855468,0.76171879 0.01172,0.0820313 0.09375,0.0820313 0.117188,0.0820313 0.128906,0 0.128906,-0.046875 0.128906,-0.1875 z m 0,0"
         style="fill:#000000;fill-opacity:1;fill-rule:nonzero;stroke:none" />
      <path
         id="path17"
         d="m 61.758953,-2.4948672 c 0,-1.828125 -1.5,-3.3164062 -3.316406,-3.3164062 -1.851563,0 -3.328125,1.5117187 -3.328125,3.3164062 0,1.83984376 1.488281,3.32812501 3.316406,3.32812501 1.851563,0 3.328125,-1.51171875 3.328125,-3.32812501 z m -5.296875,-2.1328125 c -0.02344,-0.023437 -0.09375,-0.09375 -0.09375,-0.1171875 0,-0.035156 0.808594,-0.8085937 2.0625,-0.8085937 0.351563,0 1.265625,0.046875 2.074219,0.8085937 l -2.0625,2.0859375 z m -0.292969,4.21875001 C 55.559734,-1.0886172 55.360516,-1.8503359 55.360516,-2.4948672 c 0,-0.7617187 0.292968,-1.4882812 0.808593,-2.0742187 l 2.085938,2.0742187 z m 4.523438,-4.16015621 c 0.480469,0.5039062 0.808594,1.265625 0.808594,2.0742187 0,0.7734375 -0.28125,1.50000001 -0.796875,2.08593751 L 58.618328,-2.4948672 Z m -0.28125,4.21874996 c 0.02344,0.0234375 0.09375,0.09375 0.09375,0.1171875 0,0.0351563 -0.808594,0.80859375 -2.0625,0.80859375 -0.351563,0 -1.265625,-0.046875 -2.085938,-0.80859375 l 2.074219,-2.08593746 z m 0,0"
         style="fill:#000000;fill-opacity:1;fill-rule:nonzero;stroke:none" />
      <path
         id="path18"
         d="m 65.796063,-6.3737734 c 0,-0.234375 0,-0.2578125 -0.234375,-0.2578125 -0.609375,0.6328125 -1.488282,0.6328125 -1.804688,0.6328125 v 0.3164062 c 0.199219,0 0.785156,0 1.300781,-0.2578125 v 5.15625001 c 0,0.3515625 -0.03516,0.48046875 -0.925781,0.48046875 h -0.316406 v 0.3046875 c 0.351562,-0.03515625 1.207031,-0.03515625 1.605469,-0.03515625 0.398437,0 1.265625,0 1.617187,0.03515625 v -0.3046875 h -0.316406 c -0.902344,0 -0.925781,-0.1171875 -0.925781,-0.48046875 z m 8.663085,8.765625 c 0,-0.035156 0,-0.046875 -0.164062,-0.2226563 -1.242188,-1.25390624 -1.570313,-3.12890624 -1.570313,-4.6640625 0,-1.7226562 0.386719,-3.4570312 1.605469,-4.7109375 0.128906,-0.1171875 0.128906,-0.1289062 0.128906,-0.1640625 0,-0.070312 -0.03516,-0.1054687 -0.09375,-0.1054687 -0.105468,0 -0.996093,0.6796875 -1.582031,1.9453125 -0.515625,1.1015625 -0.632812,2.203125 -0.632812,3.0351562 0,0.7851563 0.117187,1.99218751 0.65625,3.11718751 0.597656,1.21874999 1.453125,1.87499999 1.558593,1.87499999 0.05859,0 0.09375,-0.035156 0.09375,-0.1054687 z m 4.470704,-3.17578129 v 0.890625 l 1.441406,-0.10546875 v -0.3046875 c -0.703125,0 -0.785156,-0.0703125 -0.785156,-0.5625 V -4.4050234 l -1.453125,0.1171875 v 0.3046875 c 0.691406,0 0.773437,0.070312 0.773437,0.5625 v 1.7695312 c 0,0.86718751 -0.480469,1.54687501 -1.207031,1.54687501 -0.832031,0 -0.878906,-0.46875 -0.878906,-0.99609371 v -3.3046875 l -1.464844,0.1171875 v 0.3046875 c 0.785156,0 0.785156,0.035156 0.785156,0.9140625 v 1.5 c 0,0.77343746 0,1.67578121 1.511719,1.67578121 0.550781,0 0.996094,-0.26953125 1.277344,-0.890625 z m 2.745117,-2.63671871 v 2.66015621 c 0,0.45703125 -0.117188,0.45703125 -0.785156,0.45703125 v 0.3046875 c 0.351562,-0.01171875 0.855468,-0.03515625 1.125,-0.03515625 0.257812,0 0.785156,0.0234375 1.113281,0.03515625 v -0.3046875 c -0.65625,0 -0.773438,0 -0.773438,-0.45703125 V -2.5886172 c 0,-1.03125 0.714844,-1.59375 1.347657,-1.59375 0.621093,0 0.738281,0.5390625 0.738281,1.1015625 v 2.32031251 c 0,0.45703125 -0.117188,0.45703125 -0.773438,0.45703125 v 0.3046875 c 0.339844,-0.01171875 0.855469,-0.03515625 1.125,-0.03515625 0.257813,0 0.773438,0.0234375 1.113282,0.03515625 v -0.3046875 c -0.515625,0 -0.773438,0 -0.785157,-0.3046875 V -2.5065859 c 0,-0.8554688 0,-1.171875 -0.304687,-1.5234375 -0.140625,-0.1757813 -0.46875,-0.375 -1.042969,-0.375 -0.726562,0 -1.195312,0.4335937 -1.476562,1.0546875 v -1.0546875 l -1.40625,0.1171875 v 0.3046875 c 0.703125,0 0.785156,0.070312 0.785156,0.5625 z m 6.193359,-0.984375 -1.394531,0.1171875 v 0.3046875 c 0.65625,0 0.738281,0.058594 0.738281,0.5507812 v 2.67187501 c 0,0.45703125 -0.105469,0.45703125 -0.773437,0.45703125 v 0.3046875 c 0.316406,-0.01171875 0.855468,-0.03515625 1.101562,-0.03515625 0.339844,0 0.691406,0.0234375 1.03125,0.03515625 v -0.3046875 c -0.65625,0 -0.703125,-0.0585938 -0.703125,-0.4453125 z m 0.04687,-1.734375 c 0,-0.3164063 -0.246094,-0.5273438 -0.527344,-0.5273438 -0.316406,0 -0.527343,0.2695313 -0.527343,0.5273438 0,0.2695312 0.210937,0.5273437 0.527343,0.5273437 0.28125,0 0.527344,-0.1992187 0.527344,-0.5273437 z m 2.683594,2.15625 h 1.429687 v -0.3046875 h -1.429687 v -1.8398438 h -0.246094 c -0.01172,0.8203125 -0.316406,1.8867188 -1.289062,1.921875 v 0.2226563 h 0.84375 v 2.7539062 c 0,1.21875001 0.925781,1.33593751 1.289062,1.33593751 0.703125,0 0.984375,-0.703125 0.984375,-1.33593751 v -0.5742187 h -0.246094 v 0.5507812 c 0,0.73828126 -0.304687,1.11328126 -0.667968,1.11328126 -0.667969,0 -0.667969,-0.90234376 -0.667969,-1.07812496 z m 5.469726,3.22265621 c 0.03516,0.3984375 0.304688,0.8203125 0.773438,0.8203125 0.210937,0 0.820312,-0.140625 0.820312,-0.94921875 V -1.4401797 H 97.41618 v 0.55078126 c 0,0.5859375 -0.246094,0.64453125 -0.363282,0.64453125 -0.328125,0 -0.363281,-0.45703125 -0.363281,-0.50390625 V -2.7409609 c 0,-0.4101563 0,-0.8085938 -0.363281,-1.171875 -0.386719,-0.3867188 -0.878906,-0.5507813 -1.359375,-0.5507813 -0.820313,0 -1.511719,0.46875 -1.511719,1.125 0,0.3046875 0.199219,0.46875 0.457031,0.46875 0.28125,0 0.46875,-0.1992187 0.46875,-0.4570312 0,-0.1171875 -0.05859,-0.4453125 -0.515625,-0.4570313 0.269532,-0.3515625 0.761719,-0.4570312 1.078125,-0.4570312 0.492188,0 1.054688,0.3867187 1.054688,1.2773437 v 0.3632813 c -0.503906,0.035156 -1.207031,0.058594 -1.828125,0.3632812 -0.75,0.3398438 -0.996094,0.8554688 -0.996094,1.28906251 0,0.80859375 0.960938,1.0546875 1.59375,1.0546875 0.65625,0 1.113281,-0.3984375 1.300781,-0.8671875 z m -0.07031,-1.62890621 v 0.9960937 c 0,0.94921876 -0.714844,1.28906251 -1.160156,1.28906251 -0.492188,0 -0.902344,-0.3515625 -0.902344,-0.85546875 0,-0.53906246 0.421875,-1.37109376 2.0625,-1.42968746 z m 3.398437,-0.9140625 v -1.1015625 l -1.382812,0.1171875 v 0.3046875 c 0.691406,0 0.773437,0.070312 0.773437,0.5625 v 2.66015621 c 0,0.45703125 -0.105468,0.45703125 -0.773437,0.45703125 v 0.3046875 c 0.386719,-0.01171875 0.855469,-0.03515625 1.136719,-0.03515625 0.398437,0 0.867188,0 1.265628,0.03515625 v -0.3046875 h -0.21094 c -0.738282,0 -0.76172,-0.1171875 -0.76172,-0.46875 V -2.3073672 c 0,-0.984375 0.421875,-1.875 1.1836,-1.875 0.0586,0 0.082,0 0.10547,0.011719 -0.0352,0.011719 -0.23438,0.1289062 -0.23438,0.3867187 0,0.28125 0.21094,0.4335938 0.43359,0.4335938 0.17579,0 0.42188,-0.1289063 0.42188,-0.4453125 0,-0.3164063 -0.30469,-0.609375 -0.72656,-0.609375 -0.738287,0 -1.08985,0.6679687 -1.230475,1.1015623 z m 6.375005,-0.046875 c 0.25781,-0.6210938 0.76172,-0.6328125 0.92578,-0.6328125 v -0.3046875 c -0.23438,0.011719 -0.51563,0.023437 -0.75,0.023437 -0.17578,0 -0.64453,-0.023437 -0.86719,-0.023437 v 0.3046875 c 0.30469,0.011719 0.46875,0.1757812 0.46875,0.4335937 0,0.09375 -0.0117,0.1171875 -0.0586,0.234375 l -1.00781,2.44921876 -1.10157,-2.68359376 c -0.0469,-0.09375 -0.0586,-0.140625 -0.0586,-0.1757812 0,-0.2578125 0.36328,-0.2578125 0.55078,-0.2578125 v -0.3046875 c -0.25781,0 -0.91406,0.023437 -1.07812,0.023437 -0.26954,0 -0.66797,-0.011719 -0.97266,-0.023437 v 0.3046875 c 0.48047,0 0.66797,0 0.80859,0.3515625 l 1.5,3.63281246 c -0.0586,0.12890625 -0.19922,0.45703125 -0.25781,0.5859375 -0.21094,0.55078124 -0.49219,1.24218754 -1.13672,1.24218754 -0.0469,0 -0.26953,0 -0.46875,-0.1875 0.31641,-0.035156 0.39844,-0.2578125 0.39844,-0.4101563 0,-0.26953124 -0.19922,-0.42187499 -0.42188,-0.42187499 -0.19921,0 -0.42187,0.12890625 -0.42187,0.42187499 0,0.4570313 0.42187,0.8085938 0.91406,0.8085938 0.63281,0 1.04297,-0.5625 1.27735,-1.13671879 z m 4.00488,0.8554687 c 0,-0.7734375 -0.11719,-1.9804687 -0.65625,-3.1054687 -0.59765,-1.21875 -1.46484,-1.875 -1.55859,-1.875 -0.0586,0 -0.10547,0.046875 -0.10547,0.1054687 0,0.035156 0,0.046875 0.19922,0.234375 0.97265,0.984375 1.53515,2.5664063 1.53515,4.640625 0,1.71093751 -0.36328,3.45703126 -1.59375,4.7226563 -0.14062,0.1171875 -0.14062,0.1289062 -0.14062,0.1640625 0,0.058594 0.0469,0.1054687 0.10547,0.1054687 0.0937,0 0.99609,-0.6796875 1.58203,-1.94531249 0.50391,-1.1015625 0.63281,-2.20312501 0.63281,-3.04687501 z m 0,0"
         style="fill:#000000;fill-opacity:1;fill-rule:nonzero;stroke:none" />
    </g>
    <path
       id="path19"
       d="m 272.27914,8.96649 h -70.28242 c -1.10046,0 -1.99255,-0.89209 -1.99255,-1.99255 V -6.97394 c 0,-1.10046 0.89209,-1.99255 1.99255,-1.99255 h 70.28242 c 1.10048,0 1.99256,0.89209 1.99256,1.99255 V 6.97394 c 0,1.10046 -0.89208,1.99255 -1.99256,1.99255 z"
       style="fill:#f0f0f0;fill-opacity:1;fill-rule:nonzero;stroke:#000000;stroke-width:0.3985;stroke-linecap:butt;stroke-linejoin:miter;stroke-miterlimit:10;stroke-dasharray:none;stroke-opacity:1"
       transform="matrix(1.3333333,0,0,-1.3333333,69.757333,12.46)" />
    <g
       id="g19"
       aria-label="ρ(t)=Tr&#10;anc&#10;(·)"
       transform="matrix(1.3333333,0,0,1.3333333,341.73867,15.781333)">
      <path
         id="path20"
         d="m 0.32783594,1.7225937 c -0.0234375,0.1171875 -0.0234375,0.140625 -0.0234375,0.1640625 0,0.140625 0.10546875,0.2695313 0.26953125,0.2695313 0.2109375,0 0.328125,-0.1875 0.3515625,-0.2109375 0.046875,-0.09375 0.37500001,-1.4296875 0.63281251,-2.5078125 0.1992187,0.3984375 0.5273437,0.66796875 0.9960937,0.66796875 1.1601563,0 2.4492188,-1.40625005 2.4492188,-2.88281255 0,-1.0546875 -0.65625,-1.6289062 -1.3828125,-1.6289062 -0.9726563,0 -2.015625,0.9960937 -2.3203125,2.2148437 z M 2.5426797,-0.10553125 c -0.703125,0 -0.8554688,-0.796875 -0.8554688,-0.890625 0,-0.0351563 0.046875,-0.23437505 0.070312,-0.36328125 0.28125,-1.125 0.3867188,-1.4765625 0.5976563,-1.875 0.4335937,-0.7265625 0.9375,-0.9492188 1.2421875,-0.9492188 0.3632812,0 0.6914062,0.2929688 0.6914062,0.9726563 0,0.5507812 -0.2929687,1.6640625 -0.5625,2.15625 -0.328125,0.62109375 -0.8085937,0.94921875 -1.1835932,0.94921875 z m 0,0"
         style="fill:#000000;fill-opacity:1;fill-rule:nonzero;stroke:none" />
      <path
         id="path21"
         d="m 8.4430703,2.3905625 c 0,-0.035156 0,-0.046875 -0.1640625,-0.2226563 C 7.0368203,0.914 6.7086953,-0.961 6.7086953,-2.4961563 c 0,-1.7226562 0.3867188,-3.4570312 1.6054688,-4.7109375 0.1289062,-0.1171875 0.1289062,-0.1289062 0.1289062,-0.1640625 0,-0.070312 -0.035156,-0.1054687 -0.09375,-0.1054687 -0.1054687,0 -0.9960937,0.6796875 -1.5820312,1.9453125 -0.515625,1.1015625 -0.6328125,2.203125 -0.6328125,3.0351562 0,0.7851563 0.1171875,1.99218755 0.65625,3.11718755 0.5976562,1.21874995 1.453125,1.87499995 1.5585937,1.87499995 0.058594,0 0.09375,-0.035156 0.09375,-0.1054687 z m 0,0"
         style="fill:#000000;fill-opacity:1;fill-rule:nonzero;stroke:none" />
      <path
         id="path22"
         d="m 11.076859,-3.9844375 h 0.9375 c 0.199219,0 0.304688,0 0.304688,-0.1992188 0,-0.1054687 -0.105469,-0.1054687 -0.28125,-0.1054687 h -0.878906 c 0.363281,-1.4179688 0.410156,-1.6171875 0.410156,-1.6757813 0,-0.1757812 -0.117188,-0.2695312 -0.292969,-0.2695312 -0.02344,0 -0.304687,0.011719 -0.398437,0.3515625 l -0.386719,1.59375 H 9.5534219 c -0.1992188,0 -0.2929688,0 -0.2929688,0.1875 0,0.1171875 0.070312,0.1171875 0.2695313,0.1171875 h 0.8789066 c -0.7148441,2.8242187 -0.7500004,3 -0.7500004,3.17578125 0,0.5390625 0.3750004,0.9140625 0.9140624,0.9140625 1.007813,0 1.582031,-1.45312505 1.582031,-1.53515625 0,-0.09375 -0.08203,-0.09375 -0.117187,-0.09375 -0.09375,0 -0.105469,0.023437 -0.152344,0.140625 -0.433594,1.03125 -0.960937,1.27734375 -1.300781,1.27734375 -0.199219,0 -0.304688,-0.12890625 -0.304688,-0.45703125 0,-0.24609375 0.02344,-0.31640625 0.05859,-0.4804688 z m 0,0"
         style="fill:#000000;fill-opacity:1;fill-rule:nonzero;stroke:none" />
      <path
         id="path23"
         d="m 15.506547,-2.4961563 c 0,-0.7734375 -0.117188,-1.9804687 -0.65625,-3.1054687 -0.597656,-1.21875 -1.464844,-1.875 -1.558594,-1.875 -0.05859,0 -0.105469,0.046875 -0.105469,0.1054687 0,0.035156 0,0.046875 0.199219,0.234375 0.972656,0.984375 1.535156,2.5664063 1.535156,4.640625 0,1.71093755 -0.363281,3.4570313 -1.59375,4.7226563 -0.140625,0.1171875 -0.140625,0.1289062 -0.140625,0.1640625 0,0.058594 0.04687,0.1054687 0.105469,0.1054687 0.09375,0 0.996094,-0.6796875 1.582031,-1.94531245 0.503907,-1.1015625 0.632813,-2.20312505 0.632813,-3.04687505 z M 26.112016,-3.257875 c 0.152343,0 0.339843,0 0.339843,-0.1992188 0,-0.1992187 -0.1875,-0.1992187 -0.328125,-0.1992187 h -5.964843 c -0.140625,0 -0.328125,0 -0.328125,0.1992187 0,0.1992188 0.1875,0.1992188 0.339843,0.1992188 z m 0.01172,1.9335937 c 0.140625,0 0.328125,0 0.328125,-0.1992187 0,-0.1992188 -0.1875,-0.1992188 -0.339843,-0.1992188 h -5.941407 c -0.152343,0 -0.339843,0 -0.339843,0.1992188 0,0.1992187 0.1875,0.1992187 0.328125,0.1992187 z m 10.294922,-5.4140625 h -6.082031 l -0.1875,2.2382813 h 0.246094 c 0.140625,-1.6054688 0.292969,-1.9335938 1.792969,-1.9335938 0.175781,0 0.433593,0 0.539062,0.023437 0.210938,0.035156 0.210938,0.140625 0.210938,0.375 v 5.25000005 c 0,0.33984375 0,0.48046875 -1.054688,0.48046875 h -0.398439 v 0.304688 c 0.410156,-0.03515625 1.429687,-0.03515625 1.886718,-0.03515625 0.457032,0 1.488282,0 1.898438,0.03515625 V -0.30475 h -0.398438 c -1.054687,0 -1.054687,-0.140625 -1.054687,-0.48046875 V -6.0352188 c 0,-0.1992187 0,-0.3398437 0.1875,-0.375 0.105469,-0.023437 0.375,-0.023437 0.5625,-0.023437 1.5,0 1.652344,0.328125 1.792969,1.9335938 h 0.246093 z M 37.80733,-3.30475 v -1.1015625 l -1.382812,0.1171875 v 0.3046875 c 0.691406,0 0.773437,0.070312 0.773437,0.5625 v 2.66015625 c 0,0.45703125 -0.105469,0.45703125 -0.773437,0.45703125 V -6.25e-5 c 0.386718,-0.01171875 0.855468,-0.03515625 1.136718,-0.03515625 0.398438,0 0.867188,0 1.265625,0.03515625 V -0.30475 h -0.210937 c -0.738281,0 -0.761719,-0.1171875 -0.761719,-0.46875 v -1.5351563 c 0,-0.984375 0.421875,-1.875 1.183594,-1.875 0.05859,0 0.08203,0 0.105469,0.011719 -0.03516,0.011719 -0.234375,0.1289062 -0.234375,0.3867187 0,0.28125 0.210937,0.4335938 0.433593,0.4335938 0.175782,0 0.421875,-0.1289063 0.421875,-0.4453125 0,-0.3164063 -0.304687,-0.609375 -0.726562,-0.609375 -0.738281,0 -1.089844,0.6679687 -1.230469,1.1015623 z m 0,0"
         style="fill:#000000;fill-opacity:1;fill-rule:nonzero;stroke:none" />
      <path
         id="path24"
         d="m 43.154008,-0.36920313 c 0,-0.375 0,-0.64453127 -0.316406,-0.90234377 -0.28125,-0.234375 -0.621094,-0.3398437 -1.03125,-0.3398437 -0.667969,0 -1.125,0.2460937 -1.125,0.66796872 0,0.22265625 0.152343,0.33984375 0.328125,0.33984375 0.1875,0 0.328125,-0.12890625 0.328125,-0.31640625 0,-0.12890622 -0.05859,-0.26953122 -0.246094,-0.32812502 0.257812,-0.1757812 0.65625,-0.1757812 0.703125,-0.1757812 0.386719,0 0.808594,0.2578125 0.808594,0.84374997 v 0.22265625 c -0.375,0.0117188 -0.84375,0.0351563 -1.347657,0.22265625 -0.632812,0.22265625 -0.820312,0.609375 -0.820312,0.92578125 0,0.59765628 0.726562,0.77343748 1.21875,0.77343748 0.550781,0 0.878906,-0.3164062 1.03125,-0.58593748 0.02344,0.28124998 0.210937,0.55078128 0.539062,0.55078128 0.01172,0 0.691407,0 0.691407,-0.66796878 v -0.375 h -0.246094 v 0.375 c 0,0.0703125 0,0.39843748 -0.257813,0.39843748 -0.257812,0 -0.257812,-0.32812498 -0.257812,-0.41015623 z m -0.550781,0.87890625 c 0,0.66796878 -0.585938,0.85546878 -0.890625,0.85546878 -0.363282,0 -0.691407,-0.234375 -0.691407,-0.57421878 0,-0.38671875 0.328125,-0.92578125 1.582032,-0.97265625 z m 5.000976,-1.125 c 0,-0.60937502 -0.292969,-0.96093752 -1.042969,-0.96093752 -0.574218,0 -0.9375,0.3046875 -1.136718,0.66796877 V -1.5762344 l -1.03125,0.070312 v 0.2578125 c 0.46875,0 0.527343,0.046875 0.527343,0.38671877 v 1.8046875 c 0,0.30468753 -0.07031,0.30468753 -0.527343,0.30468753 v 0.2460937 c 0.01172,0 0.503906,-0.023437 0.796875,-0.023437 0.257812,0 0.738281,0.011719 0.796875,0.023437 V 1.2479844 c -0.445313,0 -0.515625,0 -0.515625,-0.30468753 v -1.25390625 c 0,-0.73828122 0.574218,-1.07812502 1.03125,-1.07812502 0.492187,0 0.550781,0.3867188 0.550781,0.73828127 v 1.59375 c 0,0.30468753 -0.07031,0.30468753 -0.515625,0.30468753 v 0.2460937 c 0.01172,0 0.503906,-0.023437 0.796875,-0.023437 0.257812,0 0.738281,0.011719 0.796875,0.023437 V 1.2479844 c -0.457031,0 -0.527344,0 -0.527344,-0.30468753 z m 3.521485,-0.66796872 c -0.117188,0.046875 -0.1875,0.1640625 -0.1875,0.30468747 0,0.1875 0.128906,0.328125 0.328125,0.328125 0.1875,0 0.328125,-0.1171875 0.328125,-0.33984375 0,-0.62109372 -0.960938,-0.62109372 -1.160157,-0.62109372 -1.042968,0 -1.699218,0.79687497 -1.699218,1.59374997 0,0.87890625 0.75,1.58203123 1.664062,1.58203123 1.042969,0 1.277344,-0.82031248 1.277344,-0.90234373 0,-0.09375 -0.08203,-0.09375 -0.117188,-0.09375 -0.08203,0 -0.09375,0.0234375 -0.128906,0.12890625 -0.152344,0.42187498 -0.527344,0.64453128 -0.949219,0.64453128 -0.480468,0 -1.101562,-0.35156253 -1.101562,-1.35937503 0,-0.890625 0.421875,-1.37109377 1.078125,-1.37109377 0.08203,0 0.421875,0 0.667969,0.1054688 z m 0,0"
         style="fill:#000000;fill-opacity:1;fill-rule:nonzero;stroke:none" />
      <path
         id="path25"
         d="m 55.751664,2.3905625 c 0,-0.035156 0,-0.046875 -0.164062,-0.2226563 C 54.345414,0.914 54.017289,-0.961 54.017289,-2.4961563 c 0,-1.7226562 0.386719,-3.4570312 1.605469,-4.7109375 0.128906,-0.1171875 0.128906,-0.1289062 0.128906,-0.1640625 0,-0.070312 -0.03516,-0.1054687 -0.09375,-0.1054687 -0.105469,0 -0.996094,0.6796875 -1.582031,1.9453125 -0.515625,1.1015625 -0.632813,2.203125 -0.632813,3.0351562 0,0.7851563 0.117188,1.99218755 0.65625,3.11718755 0.597657,1.21874995 1.453125,1.87499995 1.558594,1.87499995 0.05859,0 0.09375,-0.035156 0.09375,-0.1054687 z m 0,0"
         style="fill:#000000;fill-opacity:1;fill-rule:nonzero;stroke:none" />
      <path
         id="path26"
         d="m 59.905961,-2.4961563 c 0,-0.28125 -0.234375,-0.5273437 -0.527344,-0.5273437 -0.28125,0 -0.527344,0.2460937 -0.527344,0.5273437 0,0.2929688 0.246094,0.5390625 0.527344,0.5390625 0.292969,0 0.527344,-0.2460937 0.527344,-0.5390625 z m 0,0"
         style="fill:#000000;fill-opacity:1;fill-rule:nonzero;stroke:none" />
      <path
         id="path27"
         d="m 65.305375,-2.4961563 c 0,-0.7734375 -0.117187,-1.9804687 -0.65625,-3.1054687 -0.597656,-1.21875 -1.464844,-1.875 -1.558594,-1.875 -0.05859,0 -0.105468,0.046875 -0.105468,0.1054687 0,0.035156 0,0.046875 0.199218,0.234375 0.972657,0.984375 1.535157,2.5664063 1.535157,4.640625 0,1.71093755 -0.363282,3.4570313 -1.59375,4.7226563 -0.140625,0.1171875 -0.140625,0.1289062 -0.140625,0.1640625 0,0.058594 0.04687,0.1054687 0.105468,0.1054687 0.09375,0 0.996094,-0.6796875 1.582032,-1.94531245 0.503906,-1.1015625 0.632812,-2.20312505 0.632812,-3.04687505 z m 0,0"
         style="fill:#000000;fill-opacity:1;fill-rule:nonzero;stroke:none" />
    </g>
    <path
       id="path28"
       d="m 52.31851,0 h 14.1734"
       style="fill:none;stroke:#000000;stroke-width:0.79701;stroke-linecap:butt;stroke-linejoin:miter;stroke-miterlimit:10;stroke-dasharray:none;stroke-opacity:1"
       transform="matrix(1.3333333,0,0,-1.3333333,69.757333,12.46)" />
    <path
       id="path29"
       d="m 185.63152,0 h 14.1734"
       style="fill:none;stroke:#000000;stroke-width:0.79701;stroke-linecap:butt;stroke-linejoin:miter;stroke-miterlimit:10;stroke-dasharray:none;stroke-opacity:1"
       transform="matrix(1.3333333,0,0,-1.3333333,69.757333,12.46)" />
  </g>
</svg>
