<?xml version="1.0" encoding="UTF-8" standalone="no"?>
<!-- Created with Inkscape (http://www.inkscape.org/) -->

<svg
   version="1.1"
   id="svg1"
   width="384.57422"
   height="55.632812"
   viewBox="0 0 384.57422 55.632812"
   xmlns="http://www.w3.org/2000/svg"
   xmlns:svg="http://www.w3.org/2000/svg">
  <defs
     id="defs1" />
  <g
     id="g1"
     transform="translate(-5.1718748,-3.9648434)">
    <path
       id="path1"
       d="M 8.21222,10.20477 H -8.21219 c -1.10048,0 -1.99255,-0.89207 -1.99255,-1.99255 V -8.21219 c 0,-1.10048 0.89207,-1.99255 1.99255,-1.99255 H 8.21222 c 1.10048,0 1.99255,0.89207 1.99255,1.99255 V 8.21222 c 0,1.10048 -0.89207,1.99255 -1.99255,1.99255 z"
       style="fill:#ccccff;fill-opacity:1;fill-rule:nonzero;stroke:#000000;stroke-width:0.3985;stroke-linecap:butt;stroke-linejoin:miter;stroke-miterlimit:10;stroke-dasharray:none;stroke-opacity:1"
       transform="matrix(1.3333333,0,0,-1.3333333,37.448,18.417333)" />
    <path
       id="path2"
       d="m 4.6614063,-3.7107812 c 0,-0.5338542 -0.2604167,-0.6901042 -0.4427084,-0.6901042 -0.2473958,0 -0.4817708,0.2604167 -0.4817708,0.4817708 0,0.1302084 0.052083,0.1822917 0.15625,0.2994792 0.2083333,0.1953125 0.3385417,0.4557292 0.3385417,0.8072917 0,0.4166666 -0.6119792,2.70833328 -1.7708334,2.70833328 -0.5078125,0 -0.7421875,-0.3515625 -0.7421875,-0.87239583 0,-0.55989585 0.2734375,-1.28906245 0.5859375,-2.10937495 0.065104,-0.1692709 0.1171875,-0.3125 0.1171875,-0.4947917 0,-0.4557292 -0.3255208,-0.8203125 -0.8203125,-0.8203125 -0.93749998,0 -1.31510415,1.4453125 -1.31510415,1.5364583 0,0.091146 0.10416667,0.091146 0.1171875,0.091146 0.10416667,0 0.1171875,-0.013021 0.16927083,-0.1692709 0.28645834,-1.015625 0.71614582,-1.2369791 1.00260422,-1.2369791 0.078125,0 0.2473958,0 0.2473958,0.3125 0,0.2473958 -0.1041667,0.5208333 -0.1692708,0.703125 -0.4427084,1.1458333 -0.5729167,1.6145833 -0.5729167,2.0442708 0,1.06770832 0.8854167,1.22395832 1.3411458,1.22395832 1.6666667,0 2.2395834,-3.29427082 2.2395834,-3.81510422 z m 0,0"
       style="fill:#000000;fill-opacity:1;fill-rule:nonzero;stroke:none"
       aria-label="v"
       transform="matrix(1.2,0,0,1.2,34.336,20.992)" />
    <path
       id="path3"
       d="M 10.38403,0 H 28.24234"
       style="fill:none;stroke:#000000;stroke-width:0.3985;stroke-linecap:butt;stroke-linejoin:miter;stroke-miterlimit:10;stroke-dasharray:none;stroke-opacity:1"
       transform="matrix(1.3333333,0,0,-1.3333333,37.448,18.417333)" />
    <path
       id="path4"
       d="m 2.825625,-6.2244792 c 0,-0.1953125 -0.1302083,-0.3645833 -0.3645833,-0.3645833 -0.2734375,0 -0.5338542,0.2604167 -0.5338542,0.5338542 0,0.1822916 0.1302083,0.3515625 0.3776042,0.3515625 0.2213541,0 0.5208333,-0.2213542 0.5208333,-0.5208334 z m -0.7552083,3.75 c 0.1171875,-0.2994791 0.1171875,-0.3125 0.2213541,-0.5859375 0.078125,-0.1953125 0.1302084,-0.3385416 0.1302084,-0.5208333 0,-0.4557292 -0.3255209,-0.8203125 -0.8203125,-0.8203125 -0.93750003,0 -1.3151042,1.4453125 -1.3151042,1.5364583 0,0.091146 0.10416667,0.091146 0.1171875,0.091146 0.10416667,0 0.1171875,-0.013021 0.16927083,-0.1692709 0.26041667,-0.9375 0.66406247,-1.2369791 1.00260417,-1.2369791 0.078125,0 0.2473958,0 0.2473958,0.3125 0,0.2083333 -0.065104,0.4166666 -0.1041666,0.5208333 C 1.6277083,-3.0864583 1.185,-1.9276042 1.02875,-1.5109375 c -0.10416667,0.2604167 -0.234375,0.59895833 -0.234375,0.80729167 0,0.46875 0.3385417,0.80729166 0.8203125,0.80729166 0.9375,0 1.3020833,-1.44531253 1.3020833,-1.52343753 0,-0.1041666 -0.091146,-0.1041666 -0.1171875,-0.1041666 -0.1041666,0 -0.1041666,0.026042 -0.15625,0.1822916 -0.1692708,0.62500003 -0.5078125,1.2369792 -1.015625,1.2369792 -0.1692708,0 -0.234375,-0.10416667 -0.234375,-0.33854167 0,-0.24739583 0.065104,-0.37760416 0.2864584,-0.98958333 z m 0,0"
       style="fill:#000000;fill-opacity:1;fill-rule:nonzero;stroke:none"
       aria-label="i"
       transform="matrix(1.2,0,0,1.2,79.328,22.36)" />
    <g
       id="g4"
       aria-label="(a)Vectorv&#10;i"
       transform="matrix(1.2,0,0,1.2,3.984,55.422667)">
      <path
         id="path5"
         d="m 3.2945833,2.3951736 c 0,-0.039063 0,-0.052083 -0.1692708,-0.2213542 -1.2369792,-1.26302079 -1.5625,-3.13802079 -1.5625,-4.6614583 0,-1.7317708 0.3776042,-3.4635417 1.6015625,-4.7135417 0.1302083,-0.1171875 0.1302083,-0.1432291 0.1302083,-0.1692708 0,-0.065104 -0.039063,-0.1041667 -0.091146,-0.1041667 -0.1041667,0 -1.0026042,0.6770834 -1.5885417,1.9401042 -0.5078125,1.1067708 -0.62499997,2.2005208 -0.62499997,3.046875 0,0.7682292 0.10416667,1.97916668 0.65104167,3.09895834 0.5989583,1.23697916 1.4583333,1.87499996 1.5625,1.87499996 0.052083,0 0.091146,-0.026042 0.091146,-0.091146 z m 3.8997396,-3.15104166 c 0.039063,0.390625 0.2994792,0.8203125 0.7682292,0.8203125 0.2083333,0 0.8203125,-0.14322916 0.8203125,-0.95052083 V -1.4459722 H 8.5354688 v 0.55989581 c 0,0.57291667 -0.2473959,0.63802083 -0.3645834,0.63802083 -0.3255208,0 -0.3645833,-0.45572916 -0.3645833,-0.49479166 V -2.7350347 c 0,-0.4296875 0,-0.8072917 -0.3515625,-1.1848959 -0.390625,-0.3776041 -0.8854167,-0.546875 -1.3671875,-0.546875 -0.8203125,0 -1.5104167,0.46875 -1.5104167,1.1328125 0,0.2994792 0.2083334,0.46875 0.46875,0.46875 0.2734375,0 0.4557292,-0.2083333 0.4557292,-0.46875 0,-0.1171875 -0.052083,-0.4427083 -0.5078125,-0.4557291 0.2604167,-0.3385417 0.7552083,-0.4557292 1.0677083,-0.4557292 0.4947917,0 1.0546875,0.390625 1.0546875,1.2760417 v 0.3645833 c -0.5078125,0.039063 -1.1979166,0.065104 -1.8229166,0.3645833 -0.7552084,0.3385417 -1.0026042,0.859375 -1.0026042,1.28906254 0,0.80729167 0.9635417,1.0546875 1.6015625,1.0546875 0.6510417,0 1.1067708,-0.390625 1.3020833,-0.859375 z M 7.1161979,-2.3964931 v 1.0026042 c 0,0.95052084 -0.7161458,1.28906251 -1.1588541,1.28906251 -0.4947917,0 -0.8984375,-0.3515625 -0.8984375,-0.84635417 0,-0.55989584 0.4166666,-1.38020834 2.0572916,-1.44531254 z m 4.6158851,-0.091146 c 0,-0.78125 -0.104166,-1.9791667 -0.651041,-3.1119792 -0.598959,-1.2239583 -1.4583337,-1.875 -1.5625003,-1.875 -0.052083,0 -0.091146,0.039063 -0.091146,0.1041667 0,0.026042 0,0.052083 0.1822917,0.2213542 0.9765626,0.9895833 1.5494796,2.578125 1.5494796,4.6614583 0,1.70572918 -0.377604,3.45052084 -1.6015629,4.7135417 -0.1302084,0.1171875 -0.1302084,0.1302083 -0.1302084,0.1692708 0,0.052083 0.039063,0.091146 0.091146,0.091146 0.1041666,0 1.0026043,-0.6770833 1.5885413,-1.94010412 0.507813,-1.09375 0.625,-2.20052088 0.625,-3.03385438 z m 10.501302,-3.3463542 c 0.14323,-0.3645833 0.403646,-0.6510416 1.08073,-0.6640625 v -0.2994791 c -0.29948,0.013021 -0.703125,0.026042 -0.963542,0.026042 -0.299479,0 -0.872396,-0.026042 -1.132813,-0.026042 v 0.2994791 c 0.520834,0.013021 0.729167,0.2734375 0.729167,0.4947917 0,0.091146 -0.02604,0.1432292 -0.05208,0.2083333 L 20.07193,-0.99024326 18.170888,-6.0293058 c -0.0651,-0.1432291 -0.0651,-0.15625 -0.0651,-0.1822916 0,-0.2864584 0.572917,-0.2864584 0.820313,-0.2864584 v -0.2994791 c -0.351563,0.026042 -1.041667,0.026042 -1.419271,0.026042 -0.481771,0 -0.911458,-0.026042 -1.263021,-0.026042 v 0.2994791 c 0.638021,0 0.833333,0 0.976563,0.3776042 l 2.304687,6.11979167778 C 19.590156,0.19465278 19.64224,0.22069444 19.772448,0.22069444 c 0.169271,0 0.195312,-0.0520833 0.234375,-0.1953125 z m 1.578776,3.3203125 c 0.05208,-1.484375 0.898438,-1.7317708 1.23698,-1.7317708 1.015625,0 1.119791,1.3411458 1.119791,1.7317708 z m -0.01302,0.2083334 h 2.773437 c 0.221354,0 0.247396,0 0.247396,-0.2083334 0,-0.9895833 -0.533854,-1.953125 -1.770833,-1.953125 -1.158855,0 -2.083334,1.0286459 -2.083334,2.2786459 0,1.32812498 1.054688,2.29166664 2.200521,2.29166664 1.210938,0 1.653646,-1.09375 1.653646,-1.28906254 0,-0.1041666 -0.07813,-0.1171875 -0.117188,-0.1171875 -0.09115,0 -0.117187,0.052083 -0.130208,0.1302084 -0.351562,1.02864581 -1.25,1.02864581 -1.354167,1.02864581 -0.494791,0 -0.898437,-0.29947917 -1.119791,-0.6640625 C 23.799141,-1.2897222 23.799141,-1.9407639 23.799141,-2.3053474 Z m 4.492187,0.1302083 c 0,-1.6145833 0.807292,-2.0442708 1.341146,-2.0442708 0.09115,0 0.716146,0.013021 1.067708,0.3776041 -0.416666,0.026042 -0.46875,0.3255209 -0.46875,0.4557292 0,0.2604167 0.169271,0.4557292 0.455729,0.4557292 0.260417,0 0.45573,-0.1692709 0.45573,-0.46875 0,-0.6770834 -0.755209,-1.0677084 -1.523438,-1.0677084 -1.25,0 -2.161458,1.0807292 -2.161458,2.3177084 0,1.27604164 0.989583,2.25260414 2.135416,2.25260414 1.341146,0 1.653646,-1.18489584 1.653646,-1.28906254 0,-0.1041666 -0.09115,-0.1041666 -0.117187,-0.1041666 -0.09115,0 -0.117188,0.039063 -0.130209,0.1041666 -0.299479,0.92447921 -0.9375,1.04166671 -1.315104,1.04166671 -0.520833,0 -1.393229,-0.4296875 -1.393229,-2.03125001 z m 4.973958,-1.8098958 h 1.432292 v -0.3125 h -1.432292 v -1.8229167 h -0.247395 c -0.01302,0.8072917 -0.29948,1.875 -1.276042,1.9140625 v 0.2213542 h 0.846354 v 2.7473958 c 0,1.22395834 0.924479,1.34114584 1.276042,1.34114584 0.716146,0 0.989583,-0.703125 0.989583,-1.34114584 v -0.5598958 h -0.247396 v 0.546875 c 0,0.72916664 -0.299479,1.10677081 -0.664062,1.10677081 -0.677084,0 -0.677084,-0.89843751 -0.677084,-1.06770831 z m 6.845704,1.8489583 c 0,-1.2760417 -0.989584,-2.3307292 -2.200521,-2.3307292 -1.236979,0 -2.213542,1.09375 -2.213542,2.3307292 0,1.28906251 1.041667,2.23958334 2.200521,2.23958334 1.210937,0 2.213542,-0.9765625 2.213542,-2.23958334 z m -2.200521,1.99218751 c -0.429688,0 -0.859375,-0.20833333 -1.132813,-0.6640625 C 36.53026,-1.2506597 36.53026,-1.8496181 36.53026,-2.2142014 c 0,-0.390625 0,-0.9244792 0.234375,-1.3671875 0.273438,-0.4557292 0.742188,-0.6640625 1.132813,-0.6640625 0.442708,0 0.872396,0.2213542 1.132812,0.6510417 0.260417,0.4296875 0.260417,1.0026041 0.260417,1.3802083 0,0.3645833 0,0.8984375 -0.221354,1.34114584 -0.221354,0.44270834 -0.664063,0.72916667 -1.158854,0.72916647 z m 4.160156,-3.16406251 v -1.09375 l -1.393229,0.1041667 v 0.3125 c 0.703125,0 0.78125,0.065104 0.78125,0.5598958 v 2.66927084 c 0,0.44270834 -0.104167,0.44270834 -0.78125,0.44270834 V -6.5972222e-4 C 41.068021,-0.01368056 41.536771,-0.02670139 41.823229,-0.02670139 c 0.390625,0 0.859375,0 1.263021,0.0260416678 V -0.31315972 h -0.208333 c -0.742188,0 -0.755209,-0.10416667 -0.755209,-0.46875 V -2.3053472 c 0,-0.9895834 0.416667,-1.875 1.171875,-1.875 0.0651,0 0.09115,0 0.104167,0 -0.02604,0.013021 -0.221354,0.1302083 -0.221354,0.390625 0,0.2864583 0.208333,0.4296875 0.429687,0.4296875 0.169271,0 0.416667,-0.1171875 0.416667,-0.4296875 0,-0.3255209 -0.299479,-0.6119792 -0.729167,-0.6119792 -0.729166,0 -1.09375,0.6640625 -1.223958,1.0937498 z m 0,0"
         style="fill:#000000;fill-opacity:1;fill-rule:nonzero;stroke:none" />
      <path
         id="path6"
         d="m 52.288724,-3.7115972 c 0,-0.5338542 -0.260417,-0.6901042 -0.442708,-0.6901042 -0.247396,0 -0.481771,0.2604167 -0.481771,0.4817708 0,0.1302084 0.05208,0.1822917 0.15625,0.2994792 0.208333,0.1953125 0.338541,0.4557292 0.338541,0.8072917 0,0.4166666 -0.611979,2.70833331 -1.770833,2.70833331 -0.507812,0 -0.742187,-0.3515625 -0.742187,-0.87239583 0,-0.55989588 0.273437,-1.28906248 0.585937,-2.10937498 0.0651,-0.1692709 0.117188,-0.3125 0.117188,-0.4947917 0,-0.4557292 -0.325521,-0.8203125 -0.820313,-0.8203125 -0.9375,0 -1.315104,1.4453125 -1.315104,1.5364583 0,0.091146 0.104167,0.091146 0.117187,0.091146 0.104167,0 0.117188,-0.013021 0.169271,-0.1692709 0.286459,-1.015625 0.716146,-1.2369791 1.002604,-1.2369791 0.07813,0 0.247396,0 0.247396,0.3125 0,0.2473958 -0.104166,0.5208333 -0.169271,0.703125 -0.442708,1.1458333 -0.572916,1.6145833 -0.572916,2.0442708 0,1.06770834 0.885416,1.22395834 1.341146,1.22395834 1.666666,0 2.239583,-3.29427084 2.239583,-3.81510424 z m 0,0"
         style="fill:#000000;fill-opacity:1;fill-rule:nonzero;stroke:none" />
      <path
         id="path7"
         d="m 54.72362,-2.8684983 c 0,-0.1171875 -0.09115,-0.2604166 -0.286459,-0.2604166 -0.182291,0 -0.390625,0.1822916 -0.390625,0.3776041 0,0.1171875 0.09115,0.2604167 0.286459,0.2604167 0.195312,0 0.390625,-0.1953125 0.390625,-0.3776042 z m -1.432292,3.5416667 c -0.02604,0.0911458 -0.0651,0.18229167 -0.0651,0.29947917 0,0.32552083 0.286458,0.58593753 0.664062,0.58593753 0.703125,0 1.015625,-0.9635417 1.015625,-1.06770836 0,-0.0911458 -0.09115,-0.0911458 -0.117187,-0.0911458 -0.09115,0 -0.104167,0.0520833 -0.130208,0.1171875 -0.15625,0.55989576 -0.46875,0.84635416 -0.742188,0.84635416 -0.143229,0 -0.169271,-0.091146 -0.169271,-0.234375 0,-0.16927082 0.03906,-0.29947916 0.104167,-0.45572916 0.07813,-0.18229166 0.143229,-0.37760416 0.221354,-0.55989583 0.0651,-0.15625 0.3125,-0.79427083 0.351563,-0.88541667 0.01302,-0.0651042 0.03906,-0.14322916 0.03906,-0.22135416 0,-0.32552088 -0.286458,-0.58593758 -0.664062,-0.58593758 -0.690105,0 -1.015625,0.95052091 -1.015625,1.06770841 0,0.0911458 0.104166,0.0911458 0.117187,0.0911458 0.104167,0 0.104167,-0.0390625 0.130208,-0.1171875 0.182292,-0.59895831 0.481771,-0.84635421 0.742188,-0.84635421 0.117187,0 0.182292,0.052083 0.182292,0.234375 0,0.16927088 -0.05208,0.27343755 -0.221355,0.70312505 z m 0,0"
         style="fill:#000000;fill-opacity:1;fill-rule:nonzero;stroke:none" />
    </g>
    <path
       id="path8"
       d="M 110.26004,10.20476 H 93.8356 c -1.10046,0 -1.99255,-0.89208 -1.99255,-1.99256 V -8.2122 c 0,-1.10048 0.89209,-1.99256 1.99255,-1.99256 h 16.42444 c 1.10046,0 1.99256,0.89208 1.99256,1.99256 V 8.2122 c 0,1.10048 -0.8921,1.99256 -1.99256,1.99256 z"
       style="fill:#ccccff;fill-opacity:1;fill-rule:nonzero;stroke:#000000;stroke-width:0.3985;stroke-linecap:butt;stroke-linejoin:miter;stroke-miterlimit:10;stroke-dasharray:none;stroke-opacity:1"
       transform="matrix(1.3333333,0,0,-1.3333333,37.448,18.417333)" />
    <path
       id="path9"
       d="m 9.2186892,-6.0406337 c 0.091146,-0.3515625 0.1171875,-0.4557291 0.8593748,-0.4557291 0.234375,0 0.325521,0 0.325521,-0.1953125 0,-0.1041667 -0.104167,-0.1041667 -0.273437,-0.1041667 H 8.8150434 c -0.2604167,0 -0.2734375,0 -0.390625,0.1822917 L 4.7916059,-0.93646701 4.0103559,-6.5744878 C 3.9843142,-6.795842 3.9582726,-6.795842 3.7108767,-6.795842 H 2.3436892 c -0.1953125,0 -0.2994791,0 -0.2994791,0.1822917 0,0.1171875 0.091146,0.1171875 0.2864583,0.1171875 0.1302083,0 0.3125,0.013021 0.4296875,0.026042 0.15625,0.013021 0.2213542,0.052083 0.2213542,0.15625 0,0.039063 -0.013021,0.065104 -0.039063,0.1953125 l -1.2630209,5.0651042 c -0.1041666,0.40364582 -0.2734375,0.71614582 -1.08072913,0.74218749 -0.0520833,0 -0.18229167,0.0130208 -0.18229167,0.1953125 0,0.09114583 0.0651042,0.1171875 0.14322917,0.1171875 0.3125,0 0.66406253,-0.02604167 0.98958333,-0.02604167 0.3385417,0 0.703125,0.02604167 1.0286458,0.02604167 0.052083,0 0.1822917,0 0.1822917,-0.1953125 0,-0.1171875 -0.1171875,-0.1171875 -0.1822917,-0.1171875 -0.5598958,0 -0.6770833,-0.20833334 -0.6770833,-0.4296875 0,-0.078125 0.013021,-0.13020834 0.039063,-0.234375 L 3.2942101,-6.405217 h 0.013021 l 0.859375,6.17187499 c 0.013021,0.13020833 0.026042,0.234375 0.1432292,0.234375 0.1171875,0 0.1692708,-0.10416667 0.2213541,-0.18229167 L 8.5546267,-6.483342 h 0.013021 l -1.4192709,5.70312499 c -0.1041666,0.390625 -0.1302083,0.46875 -0.9114583,0.46875 -0.1692708,0 -0.2864583,0 -0.2864583,0.1953125 0,0.1171875 0.1302083,0.1171875 0.15625,0.1171875 0.2734375,0 0.9505208,-0.02604167 1.2369791,-0.02604167 0.4036459,0 0.8333334,0.02604167 1.2369792,0.02604167 0.065104,0 0.1953125,0 0.1953125,-0.1953125 0,-0.1171875 -0.091146,-0.1171875 -0.2734375,-0.1171875 -0.3776042,0 -0.6510417,0 -0.6510417,-0.16927084 0,-0.0520833 0,-0.0651042 0.052083,-0.24739583 z m 0,0"
       style="fill:#000000;fill-opacity:1;fill-rule:nonzero;stroke:none"
       aria-label="M"
       transform="matrix(1.2,0,0,1.2,167.05867,22.502667)" />
    <path
       id="path10"
       d="M 91.66336,0 H 73.80508"
       style="fill:none;stroke:#000000;stroke-width:0.3985;stroke-linecap:butt;stroke-linejoin:miter;stroke-miterlimit:10;stroke-dasharray:none;stroke-opacity:1"
       transform="matrix(1.3333333,0,0,-1.3333333,37.448,18.417333)" />
    <path
       id="path11"
       d="m 2.8263976,-6.2244792 c 0,-0.1953125 -0.1302084,-0.3645833 -0.3645834,-0.3645833 -0.2734375,0 -0.5338541,0.2604167 -0.5338541,0.5338542 0,0.1822916 0.1302083,0.3515625 0.3776041,0.3515625 0.2213542,0 0.5208334,-0.2213542 0.5208334,-0.5208334 z m -0.7552084,3.75 c 0.1171875,-0.2994791 0.1171875,-0.3125 0.2213542,-0.5859375 0.078125,-0.1953125 0.1302083,-0.3385416 0.1302083,-0.5208333 0,-0.4557292 -0.3255208,-0.8203125 -0.8203125,-0.8203125 -0.93749996,0 -1.31510413,1.4453125 -1.31510413,1.5364583 0,0.091146 0.10416667,0.091146 0.1171875,0.091146 0.10416667,0 0.1171875,-0.013021 0.16927083,-0.1692709 0.26041667,-0.9375 0.6640625,-1.2369791 1.0026042,-1.2369791 0.078125,0 0.2473958,0 0.2473958,0.3125 0,0.2083333 -0.065104,0.4166666 -0.1041667,0.5208333 -0.091146,0.2604167 -0.5338541,1.4192708 -0.6901041,1.8359375 -0.1041667,0.2604167 -0.23437503,0.59895833 -0.23437503,0.80729167 0,0.46875 0.33854163,0.80729166 0.82031253,0.80729166 0.9375,0 1.3020833,-1.44531253 1.3020833,-1.52343753 0,-0.1041666 -0.091146,-0.1041666 -0.1171875,-0.1041666 -0.1041667,0 -0.1041667,0.026042 -0.15625,0.1822916 -0.1692708,0.62500003 -0.5078125,1.2369792 -1.015625,1.2369792 -0.1692708,0 -0.234375,-0.10416667 -0.234375,-0.33854167 0,-0.24739583 0.065104,-0.37760416 0.2864583,-0.98958333 z m 0,0"
       style="fill:#000000;fill-opacity:1;fill-rule:nonzero;stroke:none"
       aria-label="i"
       transform="matrix(1.2,0,0,1.2,127.51067,22.36)" />
    <path
       id="path12"
       d="m 112.43147,0 h 17.85828"
       style="fill:none;stroke:#000000;stroke-width:0.3985;stroke-linecap:butt;stroke-linejoin:miter;stroke-miterlimit:10;stroke-dasharray:none;stroke-opacity:1"
       transform="matrix(1.3333333,0,0,-1.3333333,37.448,18.417333)" />
    <path
       id="path13"
       d="m 3.9594097,-6.2223872 c 0,-0.1953125 -0.1432291,-0.3645833 -0.3776041,-0.3645833 -0.234375,0 -0.5338542,0.234375 -0.5338542,0.5338542 0,0.1953125 0.1432292,0.3515625 0.3645833,0.3515625 0.2734375,0 0.546875,-0.2473959 0.546875,-0.5208334 z M 1.9542014,0.49636285 C 1.7588889,1.2515712 1.2901389,1.8244878 0.73024306,1.8244878 c -0.0651042,0 -0.20833334,0 -0.390625,-0.091146 0.29947916,-0.065104 0.44270833,-0.3255208 0.44270833,-0.5208333 0,-0.1692709 -0.10416667,-0.35156252 -0.37760417,-0.35156252 -0.24739583,0 -0.53385416,0.20833332 -0.53385416,0.55989582 0,0.4036458 0.40364583,0.625 0.87239583,0.625 0.70312501,0 1.62760421,-0.5338542 1.87500001,-1.51041665 L 3.5427431,-3.110408 c 0.039063,-0.2083333 0.039063,-0.3385417 0.039063,-0.3776042 0,-0.5598958 -0.4166667,-0.9114583 -0.9114584,-0.9114583 -1.015625,0 -1.5885416,1.4453125 -1.5885416,1.5364583 0,0.091146 0.1041666,0.091146 0.1302083,0.091146 0.078125,0 0.091146,0 0.1692708,-0.1953125 0.2473959,-0.6119792 0.7161459,-1.2109375 1.2630209,-1.2109375 0.1302083,0 0.3125,0.039063 0.3125,0.4557291 0,0.2213542 -0.026042,0.3385417 -0.065104,0.5078125 z m 0,0"
       style="fill:#000000;fill-opacity:1;fill-rule:nonzero;stroke:none"
       aria-label="j"
       transform="matrix(1.2,0,0,1.2,215.38933,21.197333)" />
    <g
       id="g13"
       aria-label="(b)MatrixM&#10;ij"
       transform="matrix(1.2,0,0,1.2,133.59733,55.206667)">
      <path
         id="path14"
         d="m 3.2945399,2.3961372 c 0,-0.039063 0,-0.052083 -0.1692708,-0.2213542 -1.2369792,-1.26302085 -1.5625,-3.13802085 -1.5625,-4.6614583 0,-1.7317709 0.3776042,-3.4635417 1.6015625,-4.7135417 0.1302083,-0.1171875 0.1302083,-0.1432292 0.1302083,-0.1692708 0,-0.065104 -0.039063,-0.1041667 -0.091146,-0.1041667 -0.1041667,0 -1.0026042,0.6770833 -1.5885417,1.9401042 -0.5078125,1.1067708 -0.62499997,2.2005208 -0.62499997,3.046875 0,0.7682291 0.10416667,1.97916662 0.65104167,3.09895829 0.5989583,1.23697921 1.4583333,1.87500001 1.5625,1.87500001 0.052083,0 0.091146,-0.026042 0.091146,-0.091146 z M 5.592717,-3.7496962 v -3.1640625 l -1.4453125,0.1171875 v 0.2994792 c 0.703125,0 0.78125,0.078125 0.78125,0.5598958 V 3.0381944e-4 H 5.1760503 C 5.1890712,-0.01271701 5.2671962,-0.14292535 5.5406337,-0.61167535 c 0.1432291,0.22135417 0.5598958,0.71614584 1.3020833,0.71614584 1.1848958,0 2.2265625,-0.9765625 2.2265625,-2.25260419 0,-1.2630208 -0.9765625,-2.2526041 -2.1223958,-2.2526041 -0.7682292,0 -1.1979167,0.46875 -1.3541667,0.6510416 z m 0.026042,2.6171875 v -2.0572916 c 0,-0.1822917 0,-0.1953125 0.1041666,-0.3515625 0.390625,-0.5598959 0.9375,-0.6380209 1.1848959,-0.6380209 0.4427083,0 0.8072916,0.2604167 1.0416666,0.6380209 0.2604167,0.4036458 0.2864584,0.9765625 0.2864584,1.3802083 0,0.3645833 -0.013021,0.9635417 -0.3125,1.41927082 -0.2083334,0.29947917 -0.5859375,0.63802083 -1.1197917,0.63802083 -0.4557292,0 -0.8072917,-0.24739583 -1.0416667,-0.61197916 C 5.618759,-0.92417535 5.618759,-0.95021701 5.618759,-1.1325087 Z m 6.669922,-1.3541666 c 0,-0.78125 -0.104167,-1.9791667 -0.651042,-3.1119792 -0.598958,-1.2239583 -1.458333,-1.875 -1.5625,-1.875 -0.05208,0 -0.091146,0.039063 -0.091146,0.1041667 0,0.026042 0,0.052083 0.182292,0.2213541 0.976562,0.9895834 1.549479,2.578125 1.549479,4.6614584 0,1.70572912 -0.377604,3.45052079 -1.601563,4.7135416 -0.130208,0.1171875 -0.130208,0.1302084 -0.130208,0.1692709 0,0.052083 0.039063,0.091146 0.091146,0.091146 0.104167,0 1.002604,-0.6770833 1.588542,-1.94010418 0.507812,-1.09375 0.625,-2.20052082 0.625,-3.03385432 z m 6.708984,-4.1015625 c -0.09115,-0.2083334 -0.117188,-0.2083334 -0.338542,-0.2083334 h -1.692708 v 0.2994792 h 0.247396 c 0.768229,0 0.78125,0.1171875 0.78125,0.46875 v 4.9869792 c 0,0.26041662 0,0.72916662 -1.028646,0.72916662 V 3.0381944e-4 C 17.317977,-0.01271701 17.812769,-0.02573785 18.13829,-0.02573785 c 0.325521,0 0.820312,0.01302084 1.158854,0.0260416694 V -0.31219618 c -1.015625,0 -1.015625,-0.46875 -1.015625,-0.72916662 V -6.418967 l 2.408854,6.19791665 c 0.03906,0.13020834 0.09115,0.22135416944 0.195313,0.22135416944 0.104166,0 0.143229,-0.0781249994 0.182291,-0.19531249944 L 23.515894,-6.497092 h 0.01302 v 5.71614582 c 0,0.36458333 -0.02604,0.46875 -0.794271,0.46875 H 22.500269 V 3.0381944e-4 C 22.864852,-0.02573785 23.541936,-0.02573785 23.932561,-0.02573785 c 0.390625,0 1.054687,0 1.419271,0.0260416694 V -0.31219618 h -0.234375 c -0.76823,0 -0.78125,-0.10416667 -0.78125,-0.46875 V -6.028342 c 0,-0.3515625 0.01302,-0.46875 0.78125,-0.46875 h 0.234375 v -0.2994792 h -1.679688 c -0.260417,0 -0.260417,0 -0.325521,0.1822917 l -2.1875,5.6119792 z m 10.058594,5.83333329 c 0.03906,0.390625 0.299479,0.8203125 0.768229,0.8203125 0.208333,0 0.820312,-0.14322917 0.820312,-0.95052084 V -1.4450087 h -0.247395 v 0.55989585 c 0,0.57291667 -0.247396,0.63802084 -0.364584,0.63802084 -0.325521,0 -0.364583,-0.45572917 -0.364583,-0.49479167 V -2.7340712 c 0,-0.4296875 0,-0.8072916 -0.351563,-1.1848958 -0.390625,-0.3776042 -0.885416,-0.546875 -1.367187,-0.546875 -0.820313,0 -1.510417,0.46875 -1.510417,1.1328125 0,0.2994792 0.208334,0.46875 0.46875,0.46875 0.273438,0 0.455729,-0.2083333 0.455729,-0.46875 0,-0.1171875 -0.05208,-0.4427083 -0.507812,-0.4557292 0.260417,-0.3385416 0.755208,-0.4557291 1.067708,-0.4557291 0.494792,0 1.054688,0.390625 1.054688,1.2760416 v 0.3645834 c -0.507813,0.039063 -1.197917,0.065104 -1.822917,0.3645833 -0.755208,0.3385417 -1.002604,0.859375 -1.002604,1.28906249 0,0.80729166 0.963542,1.0546875 1.601562,1.0546875 0.651042,0 1.106771,-0.390625 1.302084,-0.859375 z m -0.07813,-1.64062499 v 1.0026042 c 0,0.95052079 -0.716146,1.28906245 -1.158854,1.28906245 -0.494792,0 -0.898438,-0.3515625 -0.898438,-0.84635416 0,-0.55989579 0.416667,-1.38020829 2.057292,-1.44531249 z m 3.457031,-1.5885417 h 1.432292 v -0.3125 H 32.43516 v -1.8229166 h -0.247396 c -0.01302,0.8072916 -0.299479,1.875 -1.276042,1.9140625 v 0.2213541 h 0.846355 v 2.7473959 c 0,1.22395829 0.924479,1.34114579 1.276041,1.34114579 0.716146,0 0.989584,-0.703125 0.989584,-1.34114579 v -0.5598959 h -0.247396 v 0.546875 c 0,0.72916669 -0.299479,1.10677085 -0.664063,1.10677085 -0.677083,0 -0.677083,-0.89843745 -0.677083,-1.06770835 z m 3.821615,0.6770834 v -1.09375 l -1.39323,0.1041666 v 0.3125 c 0.703125,0 0.78125,0.065104 0.78125,0.5598959 v 2.66927079 c 0,0.44270833 -0.104166,0.44270833 -0.78125,0.44270833 V 3.0381944e-4 c 0.39063,-0.0130208294 0.85938,-0.0260416694 1.145839,-0.0260416694 0.390625,0 0.859375,0 1.263021,0.0260416694 V -0.31219618 h -0.208334 c -0.742187,0 -0.755208,-0.10416667 -0.755208,-0.46875 V -2.3043837 c 0,-0.9895833 0.416667,-1.875 1.171875,-1.875 0.0651,0 0.09115,0 0.104167,0 -0.02604,0.013021 -0.221355,0.1302084 -0.221355,0.390625 0,0.2864584 0.208334,0.4296875 0.429688,0.4296875 0.169271,0 0.416667,-0.1171875 0.416667,-0.4296875 0,-0.3255208 -0.29948,-0.6119791 -0.729167,-0.6119791 -0.729167,0 -1.09375,0.6640625 -1.223958,1.09375 z m 3.99414,-1.09375 -1.393229,0.1041666 v 0.3125 c 0.651042,0 0.742187,0.065104 0.742187,0.546875 v 2.68229169 c 0,0.44270833 -0.117187,0.44270833 -0.78125,0.44270833 V 3.0381944e-4 c 0.325521,-0.0130208294 0.859375,-0.0260416694 1.09375,-0.0260416694 0.351563,0 0.703125,0.01302084 1.041667,0.0260416694 V -0.31219618 c -0.664062,0 -0.703125,-0.0520833 -0.703125,-0.4296875 z m 0.03906,-1.7317709 c 0,-0.3255208 -0.247396,-0.5338541 -0.520834,-0.5338541 -0.3125,0 -0.533854,0.2734375 -0.533854,0.5338541 0,0.2604167 0.221354,0.5208334 0.533854,0.5208334 0.273438,0 0.520834,-0.2083334 0.520834,-0.5208334 z m 3.834635,3.7890625 c 0.299479,-0.3776041 0.677083,-0.859375 0.911458,-1.1197916 0.3125,-0.3645834 0.716146,-0.5078125 1.184896,-0.5208334 v -0.3125 c -0.260416,0.026042 -0.559896,0.039063 -0.820312,0.039063 -0.299479,0 -0.820313,-0.026042 -0.950521,-0.039063 v 0.3125 c 0.208333,0.026042 0.286458,0.1432292 0.286458,0.3125 0,0.15625 -0.104166,0.2864584 -0.143229,0.3385417 l -0.625,0.78125 -0.78125,-1.0026042 c -0.07813,-0.1041666 -0.07813,-0.1171875 -0.07813,-0.1822916 0,-0.1432292 0.143229,-0.234375 0.338542,-0.2473959 v -0.3125 c -0.260417,0.013021 -0.911459,0.039063 -1.067709,0.039063 -0.208333,0 -0.677083,-0.013021 -0.95052,-0.039063 v 0.3125 c 0.703125,0 0.703125,0.013021 1.171875,0.6119792 l 0.989583,1.2760417 -0.9375,1.18489579 c -0.481771,0.5859375 -1.067708,0.59895833 -1.276042,0.59895833 V 3.0381944e-4 c 0.26043,-0.0260416694 0.57293,-0.0260416694 0.833347,-0.0260416694 0.286458,0 0.703125,0.01302084 0.9375,0.0260416694 V -0.31219618 c -0.208334,-0.0260417 -0.286459,-0.15625 -0.286459,-0.29947917 0,-0.22135416 0.286459,-0.55989585 0.898438,-1.27604165 l 0.755208,1.00260415 c 0.07813,0.10416667 0.208333,0.2734375 0.208333,0.32552084 0,0.0911458 -0.09115,0.24739583 -0.351562,0.24739583 V 3.0381944e-4 C 44.671493,-0.01271701 45.218368,-0.02573785 45.439722,-0.02573785 c 0.273438,0 0.664063,0 0.963542,0.0260416694 V -0.31219618 c -0.546875,0 -0.716146,-0.0130208 -0.950521,-0.29947917 z m 0,0"
         style="fill:#000000;fill-opacity:1;fill-rule:nonzero;stroke:none" />
      <path
         id="path15"
         d="m 59.059514,-6.0413628 c 0.09115,-0.3515625 0.117187,-0.4557292 0.859375,-0.4557292 0.234375,0 0.325521,0 0.325521,-0.1953125 0,-0.1041667 -0.104167,-0.1041667 -0.273438,-0.1041667 h -1.315104 c -0.260417,0 -0.273437,0 -0.390625,0.1822917 l -3.632812,5.67708332 -0.78125,-5.63802082 c -0.02604,-0.2213542 -0.05208,-0.2213542 -0.29948,-0.2213542 h -1.367187 c -0.195313,0 -0.299479,0 -0.299479,0.1822917 0,0.1171875 0.09115,0.1171875 0.286458,0.1171875 0.130208,0 0.3125,0.013021 0.429688,0.026042 0.15625,0.013021 0.221354,0.052083 0.221354,0.15625 0,0.039063 -0.01302,0.065104 -0.03906,0.1953125 l -1.263021,5.0651041 c -0.104166,0.40364585 -0.273437,0.71614585 -1.080729,0.74218752 -0.05208,0 -0.182291,0.0130208 -0.182291,0.1953125 0,0.09114583 0.0651,0.11718749944 0.143229,0.11718749944 0.3125,0 0.664062,-0.0260416694 0.989583,-0.0260416694 0.338542,0 0.703125,0.0260416694 1.028646,0.0260416694 0.05208,0 0.182292,0 0.182292,-0.19531249944 0,-0.1171875 -0.117188,-0.1171875 -0.182292,-0.1171875 -0.559896,0 -0.677083,-0.20833333 -0.677083,-0.4296875 0,-0.078125 0.01302,-0.13020833 0.03906,-0.234375 l 1.354167,-5.42968752 h 0.01302 l 0.859375,6.17187502 c 0.01302,0.13020833 0.02604,0.23437499944 0.143229,0.23437499944 0.117187,0 0.169271,-0.10416666944 0.221354,-0.18229166944 l 4.023437,-6.30208335 h 0.01302 L 56.9892,-0.78094588 c -0.104166,0.390625 -0.130208,0.46875 -0.911458,0.46875 -0.169271,0 -0.286458,0 -0.286458,0.1953125 0,0.11718749944 0.130208,0.11718749944 0.15625,0.11718749944 0.273437,0 0.950521,-0.0260416694 1.236979,-0.0260416694 0.403646,0 0.833333,0.0260416694 1.236979,0.0260416694 0.0651,0 0.195313,0 0.195313,-0.19531249944 0,-0.1171875 -0.09115,-0.1171875 -0.273438,-0.1171875 -0.377604,0 -0.651042,0 -0.651042,-0.16927083 0,-0.0520833 0,-0.0651042 0.05208,-0.24739584 z m 0,0"
         style="fill:#000000;fill-opacity:1;fill-rule:nonzero;stroke:none" />
      <path
         id="path16"
         d="m 61.771102,-2.8675347 c 0,-0.1171875 -0.09114,-0.2604167 -0.286458,-0.2604167 -0.182292,0 -0.390625,0.1822917 -0.390625,0.3776042 0,0.1171875 0.09115,0.2604166 0.286458,0.2604166 0.195313,0 0.390625,-0.1953125 0.390625,-0.3776041 z m -1.432291,3.54166664 c -0.02604,0.0911458 -0.0651,0.18229167 -0.0651,0.29947917 0,0.32552079 0.286458,0.58593749 0.664062,0.58593749 0.703125,0 1.015625,-0.96354166 1.015625,-1.06770832 0,-0.0911458 -0.09115,-0.0911458 -0.117187,-0.0911458 -0.09115,0 -0.104167,0.0520833 -0.130209,0.1171875 -0.15625,0.55989582 -0.46875,0.84635412 -0.742187,0.84635412 -0.143229,0 -0.169271,-0.091146 -0.169271,-0.234375 0,-0.16927078 0.03906,-0.29947912 0.104167,-0.45572912 0.07813,-0.18229166 0.143229,-0.37760416 0.221354,-0.55989583 0.0651,-0.15625 0.3125,-0.79427083 0.351562,-0.88541667 0.01302,-0.0651042 0.03906,-0.14322916 0.03906,-0.22135416 0,-0.32552092 -0.286459,-0.58593752 -0.664063,-0.58593752 -0.690104,0 -1.015625,0.95052085 -1.015625,1.06770835 0,0.0911458 0.104167,0.0911458 0.117188,0.0911458 0.104166,0 0.104166,-0.0390625 0.130208,-0.1171875 0.182292,-0.59895835 0.481771,-0.84635415 0.742188,-0.84635415 0.117187,0 0.182291,0.052083 0.182291,0.234375 0,0.16927082 -0.05208,0.27343749 -0.221354,0.70312499 z m 5.045573,-3.54166664 c 0,-0.1171875 -0.09115,-0.2604167 -0.273438,-0.2604167 -0.208333,0 -0.390625,0.1953125 -0.390625,0.3776042 0,0.1171875 0.07813,0.2604166 0.273438,0.2604166 0.195312,0 0.390625,-0.1692708 0.390625,-0.3776041 z M 63.91303,1.8329861 c -0.117188,0.4817708 -0.494792,0.8854167 -0.898438,0.8854167 -0.09115,0 -0.182292,-0.013021 -0.260417,-0.039063 0.182292,-0.078125 0.234375,-0.2473959 0.234375,-0.3515625 0,-0.1692709 -0.130208,-0.2604167 -0.260416,-0.2604167 -0.221354,0 -0.403646,0.1822917 -0.403646,0.4166667 0,0.2604166 0.273437,0.4296875 0.690104,0.4296875 0.416667,0 1.236979,-0.2473959 1.458333,-1.09375 l 0.625,-2.50000002 c 0.01302,-0.078125 0.02604,-0.14322917 0.02604,-0.24739584 0,-0.37760414 -0.325521,-0.65104164 -0.742187,-0.65104164 -0.76823,0 -1.223959,0.96354164 -1.223959,1.06770831 0,0.0911458 0.104167,0.0911458 0.117188,0.0911458 0.09115,0 0.09115,-0.0260417 0.143229,-0.13020833 0.182292,-0.40364583 0.533854,-0.83333328 0.950521,-0.83333328 0.169271,0 0.234375,0.1171875 0.234375,0.3385416 0,0.078125 -0.01302,0.16927085 -0.02604,0.20833335 z m 0,0"
         style="fill:#000000;fill-opacity:1;fill-rule:nonzero;stroke:none" />
    </g>
    <path
       id="path17"
       d="m 212.30786,10.20476 h -16.42444 c -1.10046,0 -1.99255,-0.89208 -1.99255,-1.99256 V -8.2122 c 0,-1.10048 0.89209,-1.99256 1.99255,-1.99256 h 16.42444 c 1.10047,0 1.99256,0.89208 1.99256,1.99256 V 8.2122 c 0,1.10048 -0.89209,1.99256 -1.99256,1.99256 z"
       style="fill:#ccccff;fill-opacity:1;fill-rule:nonzero;stroke:#000000;stroke-width:0.3985;stroke-linecap:butt;stroke-linejoin:miter;stroke-miterlimit:10;stroke-dasharray:none;stroke-opacity:1"
       transform="matrix(1.3333333,0,0,-1.3333333,37.448,18.417333)" />
    <path
       id="path18"
       d="m 9.2185503,-6.0406337 c 0.091146,-0.3515625 0.1171875,-0.4557291 0.8593747,-0.4557291 0.234375,0 0.325521,0 0.325521,-0.1953125 0,-0.1041667 -0.104166,-0.1041667 -0.273437,-0.1041667 H 8.8149045 c -0.2604167,0 -0.2734375,0 -0.390625,0.1822917 L 4.791467,-0.93646701 4.010217,-6.5744878 C 3.9841753,-6.795842 3.9581337,-6.795842 3.7107378,-6.795842 H 2.3435503 c -0.1953125,0 -0.2994791,0 -0.2994791,0.1822917 0,0.1171875 0.091146,0.1171875 0.2864583,0.1171875 0.1302083,0 0.3125,0.013021 0.4296875,0.026042 0.15625,0.013021 0.2213542,0.052083 0.2213542,0.15625 0,0.039063 -0.013021,0.065104 -0.039063,0.1953125 l -1.2630209,5.0651042 c -0.1041666,0.40364582 -0.2734375,0.71614582 -1.08072912,0.74218749 -0.0520833,0 -0.18229167,0.0130208 -0.18229167,0.1953125 0,0.09114583 0.0651042,0.1171875 0.14322917,0.1171875 0.3125,0 0.66406252,-0.02604167 0.98958332,-0.02604167 0.3385417,0 0.703125,0.02604167 1.0286458,0.02604167 0.052083,0 0.1822917,0 0.1822917,-0.1953125 0,-0.1171875 -0.1171875,-0.1171875 -0.1822917,-0.1171875 -0.5598958,0 -0.6770833,-0.20833334 -0.6770833,-0.4296875 0,-0.078125 0.013021,-0.13020834 0.039063,-0.234375 L 3.2940712,-6.405217 h 0.013021 l 0.859375,6.17187499 c 0.013021,0.13020833 0.026042,0.234375 0.1432292,0.234375 0.1171875,0 0.1692708,-0.10416667 0.2213541,-0.18229167 L 8.5544878,-6.483342 h 0.013021 l -1.4192709,5.70312499 c -0.1041666,0.390625 -0.1302083,0.46875 -0.9114583,0.46875 -0.1692708,0 -0.2864583,0 -0.2864583,0.1953125 0,0.1171875 0.1302083,0.1171875 0.15625,0.1171875 0.2734375,0 0.9505208,-0.02604167 1.2369791,-0.02604167 0.4036459,0 0.8333334,0.02604167 1.2369792,0.02604167 0.065104,0 0.1953125,0 0.1953125,-0.1953125 0,-0.1171875 -0.091146,-0.1171875 -0.2734375,-0.1171875 -0.3776042,0 -0.6510417,0 -0.6510417,-0.16927084 0,-0.0520833 0,-0.0651042 0.052083,-0.24739583 z m 0,0"
       style="fill:#000000;fill-opacity:1;fill-rule:nonzero;stroke:none"
       aria-label="M"
       transform="matrix(1.2,0,0,1.2,303.12133,22.502667)" />
    <path
       id="path19"
       d="M 248.02443,10.20477 H 231.6 c -1.10047,0 -1.99255,-0.89207 -1.99255,-1.99255 V -8.21219 c 0,-1.10048 0.89208,-1.99255 1.99255,-1.99255 h 16.42443 c 1.10048,0 1.99255,0.89207 1.99255,1.99255 V 8.21222 c 0,1.10048 -0.89207,1.99255 -1.99255,1.99255 z"
       style="fill:#ccccff;fill-opacity:1;fill-rule:nonzero;stroke:#000000;stroke-width:0.3985;stroke-linecap:butt;stroke-linejoin:miter;stroke-miterlimit:10;stroke-dasharray:none;stroke-opacity:1"
       transform="matrix(1.3333333,0,0,-1.3333333,37.448,18.417333)" />
    <path
       id="path20"
       d="m 4.6620399,-3.7107812 c 0,-0.5338542 -0.2604166,-0.6901042 -0.4427083,-0.6901042 -0.2473958,0 -0.4817708,0.2604167 -0.4817708,0.4817708 0,0.1302084 0.052083,0.1822917 0.15625,0.2994792 0.2083333,0.1953125 0.3385416,0.4557292 0.3385416,0.8072917 0,0.4166666 -0.6119791,2.70833328 -1.7708333,2.70833328 -0.5078125,0 -0.7421875,-0.3515625 -0.7421875,-0.87239583 0,-0.55989585 0.2734375,-1.28906245 0.5859375,-2.10937495 0.065104,-0.1692709 0.1171875,-0.3125 0.1171875,-0.4947917 0,-0.4557292 -0.3255208,-0.8203125 -0.8203125,-0.8203125 -0.9375,0 -1.31510417,1.4453125 -1.31510417,1.5364583 0,0.091146 0.10416667,0.091146 0.1171875,0.091146 0.10416667,0 0.1171875,-0.013021 0.16927083,-0.1692709 0.28645834,-1.015625 0.71614584,-1.2369791 1.00260414,-1.2369791 0.078125,0 0.2473959,0 0.2473959,0.3125 0,0.2473958 -0.1041667,0.5208333 -0.1692709,0.703125 -0.4427083,1.1458333 -0.5729166,1.6145833 -0.5729166,2.0442708 0,1.06770832 0.8854166,1.22395832 1.3411458,1.22395832 1.6666667,0 2.2395833,-3.29427082 2.2395833,-3.81510422 z m 0,0"
       style="fill:#000000;fill-opacity:1;fill-rule:nonzero;stroke:none"
       aria-label="v"
       transform="matrix(1.2,0,0,1.2,354.08133,20.992)" />
    <path
       id="path21"
       d="M 193.71082,0 H 175.85254"
       style="fill:none;stroke:#000000;stroke-width:0.3985;stroke-linecap:butt;stroke-linejoin:miter;stroke-miterlimit:10;stroke-dasharray:none;stroke-opacity:1"
       transform="matrix(1.3333333,0,0,-1.3333333,37.448,18.417333)" />
    <path
       id="path22"
       d="m 2.8262587,-6.2244792 c 0,-0.1953125 -0.1302084,-0.3645833 -0.3645834,-0.3645833 -0.2734375,0 -0.5338541,0.2604167 -0.5338541,0.5338542 0,0.1822916 0.1302083,0.3515625 0.3776041,0.3515625 0.2213542,0 0.5208334,-0.2213542 0.5208334,-0.5208334 z m -0.7552084,3.75 c 0.1171875,-0.2994791 0.1171875,-0.3125 0.2213542,-0.5859375 0.078125,-0.1953125 0.1302083,-0.3385416 0.1302083,-0.5208333 0,-0.4557292 -0.3255208,-0.8203125 -0.8203125,-0.8203125 -0.93749995,0 -1.31510412,1.4453125 -1.31510412,1.5364583 0,0.091146 0.10416667,0.091146 0.1171875,0.091146 0.10416667,0 0.1171875,-0.013021 0.16927083,-0.1692709 0.26041667,-0.9375 0.66406249,-1.2369791 1.00260419,-1.2369791 0.078125,0 0.2473958,0 0.2473958,0.3125 0,0.2083333 -0.065104,0.4166666 -0.1041667,0.5208333 -0.091146,0.2604167 -0.5338541,1.4192708 -0.6901041,1.8359375 -0.10416669,0.2604167 -0.23437502,0.59895833 -0.23437502,0.80729167 0,0.46875 0.33854162,0.80729166 0.82031252,0.80729166 0.9375,0 1.3020833,-1.44531253 1.3020833,-1.52343753 0,-0.1041666 -0.091146,-0.1041666 -0.1171875,-0.1041666 -0.1041667,0 -0.1041667,0.026042 -0.15625,0.1822916 -0.1692708,0.62500003 -0.5078125,1.2369792 -1.015625,1.2369792 -0.1692708,0 -0.234375,-0.10416667 -0.234375,-0.33854167 0,-0.24739583 0.065104,-0.37760416 0.2864583,-0.98958333 z m 0,0"
       style="fill:#000000;fill-opacity:1;fill-rule:nonzero;stroke:none"
       aria-label="i"
       transform="matrix(1.2,0,0,1.2,263.57333,22.36)" />
    <path
       id="path23"
       d="m 214.47893,0 h 14.94833"
       style="fill:none;stroke:#000000;stroke-width:0.3985;stroke-linecap:butt;stroke-linejoin:miter;stroke-miterlimit:10;stroke-dasharray:none;stroke-opacity:1"
       transform="matrix(1.3333333,0,0,-1.3333333,37.448,18.417333)" />
    <path
       id="path24"
       d="m 3.9589931,-6.2224913 c 0,-0.1953125 -0.1432292,-0.3645834 -0.3776042,-0.3645834 -0.234375,0 -0.5338542,0.234375 -0.5338542,0.5338542 0,0.1953125 0.1432292,0.3515625 0.3645834,0.3515625 0.2734375,0 0.546875,-0.2473958 0.546875,-0.5208333 z M 1.9537847,0.49625868 C 1.7584722,1.251467 1.2897222,1.8243837 0.72982639,1.8243837 c -0.0651042,0 -0.20833333,0 -0.390625,-0.091146 0.29947917,-0.065104 0.44270833,-0.3255208 0.44270833,-0.5208333 0,-0.1692708 -0.10416666,-0.35156249 -0.37760416,-0.35156249 -0.24739584,0 -0.53385417,0.20833329 -0.53385417,0.55989579 0,0.4036459 0.40364583,0.625 0.87239583,0.625 0.70312498,0 1.62760418,-0.5338541 1.87499998,-1.51041662 L 3.5423264,-3.1105122 c 0.039063,-0.2083333 0.039063,-0.3385416 0.039063,-0.3776041 0,-0.5598959 -0.4166667,-0.9114584 -0.9114583,-0.9114584 -1.015625,0 -1.5885417,1.4453125 -1.5885417,1.5364584 0,0.091146 0.1041667,0.091146 0.1302083,0.091146 0.078125,0 0.091146,0 0.1692709,-0.1953125 0.2473958,-0.6119792 0.7161458,-1.2109375 1.2630208,-1.2109375 0.1302083,0 0.3125,0.039063 0.3125,0.4557292 0,0.2213541 -0.026042,0.3385416 -0.065104,0.5078125 z m 0,0"
       style="fill:#000000;fill-opacity:1;fill-rule:nonzero;stroke:none"
       aria-label="j"
       transform="matrix(1.2,0,0,1.2,330.57733,11.869333)" />
    <g
       id="g24"
       aria-label="(c)Product&#10;P&#10;j&#10;M&#10;ij&#10;v&#10;j"
       transform="matrix(1.2,0,0,1.2,275.65467,54.309333)">
      <path
         id="path25"
         d="m 3.2955903,2.395217 c 0,-0.039063 0,-0.052083 -0.1692709,-0.2213542 -1.2369791,-1.26302079 -1.5625,-3.13802079 -1.5625,-4.6614583 0,-1.7317708 0.3776042,-3.4635417 1.6015625,-4.7135417 0.1302084,-0.1171875 0.1302084,-0.1432291 0.1302084,-0.1692708 0,-0.065104 -0.039063,-0.1041667 -0.091146,-0.1041667 -0.1041666,0 -1.0026041,0.6770834 -1.5885416,1.9401042 -0.5078125,1.1067708 -0.62500002,2.2005208 -0.62500002,3.046875 0,0.7682292 0.10416662,1.97916668 0.65104162,3.09895835 0.5989584,1.23697915 1.4583334,1.87499995 1.5625,1.87499995 0.052083,0 0.091146,-0.026042 0.091146,-0.091146 z m 1.7513021,-4.5703125 c 0,-1.6145833 0.8072916,-2.0442708 1.3411458,-2.0442708 0.091146,0 0.7161458,0.013021 1.0677083,0.3776041 -0.4166666,0.026042 -0.46875,0.3255209 -0.46875,0.4557292 0,0.2604167 0.1692709,0.4557292 0.4557292,0.4557292 0.2604167,0 0.4557292,-0.1692709 0.4557292,-0.46875 0,-0.6770834 -0.7552084,-1.0677084 -1.5234375,-1.0677084 -1.25,0 -2.1614584,1.0807292 -2.1614584,2.3177084 0,1.27604165 0.9895834,2.25260415 2.1354167,2.25260415 1.3411458,0 1.6536458,-1.18489585 1.6536458,-1.28906255 0,-0.1041666 -0.091146,-0.1041666 -0.1171875,-0.1041666 -0.091146,0 -0.1171875,0.039063 -0.1302083,0.1041666 -0.2994792,0.92447921 -0.9375,1.04166671 -1.3151042,1.04166671 -0.5208333,0 -1.3932291,-0.4296875 -1.3932291,-2.03125001 z m 6.1328126,-0.3125 c 0,-0.78125 -0.104167,-1.9791667 -0.651042,-3.1119792 -0.5989581,-1.2239583 -1.4583331,-1.875 -1.5624998,-1.875 -0.052083,0 -0.091146,0.039063 -0.091146,0.1041667 0,0.026042 0,0.052083 0.1822916,0.2213542 0.9765632,0.9895833 1.5494792,2.578125 1.5494792,4.6614583 0,1.70572918 -0.377604,3.45052085 -1.6015625,4.7135417 -0.1302083,0.1171875 -0.1302083,0.1302083 -0.1302083,0.1692708 0,0.052083 0.039063,0.091146 0.091146,0.091146 0.1041667,0 1.0026042,-0.6770833 1.5885418,-1.94010412 0.507812,-1.09375 0.625,-2.20052088 0.625,-3.03385438 z m 6.578776,-0.6640625 h 1.679687 c 1.197917,0 2.265625,-0.8072917 2.265625,-1.796875 0,-0.9765625 -0.976562,-1.8489583 -2.34375,-1.8489583 h -3.515625 v 0.2994791 h 0.234375 c 0.76823,0 0.794271,0.1171875 0.794271,0.46875 v 5.24739588 c 0,0.36458333 -0.02604,0.46875 -0.794271,0.46875 h -0.234375 v 0.31250000056 c 0.351563,-0.0260416706 1.08073,-0.0260416706 1.458334,-0.0260416706 0.377604,0 1.132812,0 1.471354,0.0260416706 V -0.31311632 h -0.234375 c -0.768229,0 -0.78125,-0.10416667 -0.78125,-0.46875 z m -0.03906,-0.2604167 v -2.6822916 c 0,-0.3255209 0.02604,-0.4036459 0.494792,-0.4036459 h 0.885417 c 1.588541,0 1.588541,1.0546875 1.588541,1.5494792 0,0.46875 0,1.5364583 -1.588541,1.5364583 z m 6.220704,0.1041667 v -1.09375 l -1.39323,0.1041667 v 0.3125 c 0.703125,0 0.78125,0.065104 0.78125,0.5598958 v 2.66927085 c 0,0.44270833 -0.104166,0.44270833 -0.78125,0.44270833 V -6.1631944e-4 C 22.937517,-0.01363715 23.406267,-0.02665799 23.692726,-0.02665799 c 0.390625,0 0.859375,0 1.263021,0.0260416706 V -0.31311632 h -0.208334 c -0.742187,0 -0.755208,-0.10416667 -0.755208,-0.46875 V -2.3053038 c 0,-0.9895834 0.416667,-1.875 1.171875,-1.875 0.0651,0 0.09115,0 0.104167,0 -0.02604,0.013021 -0.221355,0.1302083 -0.221355,0.390625 0,0.2864583 0.208334,0.4296875 0.429688,0.4296875 0.169271,0 0.416667,-0.1171875 0.416667,-0.4296875 0,-0.3255209 -0.29948,-0.6119792 -0.729167,-0.6119792 -0.729167,0 -1.09375,0.6640625 -1.223958,1.09375 z m 6.923828,1.171875 c 0,-1.2760417 -0.989584,-2.3307292 -2.200521,-2.3307292 -1.236979,0 -2.213542,1.09375 -2.213542,2.3307292 0,1.28906251 1.041667,2.23958335 2.200521,2.23958335 1.210937,0 2.213542,-0.9765625 2.213542,-2.23958335 z m -2.200521,1.99218751 c -0.429688,0 -0.859375,-0.20833333 -1.132813,-0.6640625 C 27.28322,-1.2506163 27.28322,-1.8495747 27.28322,-2.214158 c 0,-0.390625 0,-0.9244792 0.234375,-1.3671875 0.273438,-0.4557292 0.742188,-0.6640625 1.132813,-0.6640625 0.442708,0 0.872396,0.2213542 1.132812,0.6510417 0.260417,0.4296875 0.260417,1.0026041 0.260417,1.3802083 0,0.3645833 0,0.8984375 -0.221354,1.34114585 -0.221354,0.44270833 -0.664063,0.72916666 -1.158854,0.72916666 z m 6.5625,-0.40364583 v 0.65104167 l 1.45833,-0.10416666944 V -0.31311632 c -0.690104,0 -0.78125,-0.0651042 -0.78125,-0.55989583 V -6.9146788 l -1.432292,0.1171875 v 0.2994791 c 0.703125,0 0.78125,0.078125 0.78125,0.5598959 v 2.1484375 c -0.286458,-0.3515625 -0.716145,-0.6119792 -1.25,-0.6119792 -1.184895,0 -2.226562,0.9765625 -2.226562,2.265625 0,1.26302085 0.976562,2.23958335 2.109375,2.23958335 0.638021,0 1.09375,-0.33854167 1.341146,-0.65104167 z m 0,-2.66927088 v 2.0442709 c 0,0.18229165 0,0.19531248 -0.117188,0.36458331 -0.299479,0.48177084 -0.742187,0.703125 -1.171875,0.703125 -0.442708,0 -0.807291,-0.26041666 -1.041666,-0.63802083 -0.260417,-0.41666668 -0.286459,-0.97656248 -0.286459,-1.39322918 0,-0.3645833 0.01302,-0.9635417 0.299479,-1.40625 0.208334,-0.3125 0.585938,-0.6380208 1.132813,-0.6380208 0.338542,0 0.768229,0.1432291 1.067708,0.5989583 0.117188,0.1692708 0.117188,0.1822917 0.117188,0.3645833 z m 5.638021,2.43489588 V 0.10355035 L 42.296241,-6.1631944e-4 V -0.31311632 c -0.690104,0 -0.768229,-0.0651042 -0.768229,-0.55989583 V -4.401658 l -1.471354,0.1041667 v 0.3125 c 0.703125,0 0.78125,0.065104 0.78125,0.5598958 v 1.7708333 c 0,0.87239588 -0.481771,1.54947921 -1.210938,1.54947921 -0.833333,0 -0.872395,-0.46875 -0.872395,-0.98958331 V -4.401658 l -1.471355,0.1041667 v 0.3125 c 0.78125,0 0.78125,0.026042 0.78125,0.9114583 v 1.4973958 c 0,0.78125005 0,1.67968755 1.510417,1.67968755 0.559896,0 1.002604,-0.2734375 1.289063,-0.88541667 z m 2.815755,-1.39322918 c 0,-1.6145833 0.807292,-2.0442708 1.341146,-2.0442708 0.09115,0 0.716146,0.013021 1.067708,0.3776041 -0.416667,0.026042 -0.46875,0.3255209 -0.46875,0.4557292 0,0.2604167 0.169271,0.4557292 0.455729,0.4557292 0.260417,0 0.455729,-0.1692709 0.455729,-0.46875 0,-0.6770834 -0.755208,-1.0677084 -1.523437,-1.0677084 -1.25,0 -2.161458,1.0807292 -2.161458,2.3177084 0,1.27604165 0.989583,2.25260415 2.135416,2.25260415 1.341146,0 1.653646,-1.18489585 1.653646,-1.28906255 0,-0.1041666 -0.09115,-0.1041666 -0.117187,-0.1041666 -0.09115,0 -0.117188,0.039063 -0.130209,0.1041666 -0.299479,0.92447921 -0.9375,1.04166671 -1.315104,1.04166671 -0.520833,0 -1.393229,-0.4296875 -1.393229,-2.03125001 z m 4.973958,-1.8098958 h 1.432292 v -0.3125 H 48.653663 V -6.120408 h -0.247396 c -0.01302,0.8072917 -0.299479,1.875 -1.276041,1.9140625 v 0.2213542 h 0.846354 v 2.7473958 c 0,1.22395835 0.924479,1.34114585 1.276042,1.34114585 0.716145,0 0.989583,-0.703125 0.989583,-1.34114585 v -0.5598958 h -0.247396 v 0.546875 c 0,0.72916665 -0.299479,1.10677081 -0.664062,1.10677081 -0.677084,0 -0.677084,-0.89843751 -0.677084,-1.06770831 z m 0,0"
         style="fill:#000000;fill-opacity:1;fill-rule:nonzero;stroke:none" />
      <path
         id="path26"
         d="M 58.324887,-2.1457986 54.78322,2.2161806 c -0.07813,0.1041666 -0.07813,0.1302083 -0.07813,0.1692708 0,0.1041667 0.07813,0.1041667 0.260417,0.1041667 H 63.22072 L 64.080095,0.01565972 H 63.8327 c -0.247396,0.7421875 -0.911459,1.35416668 -1.757813,1.64062498 -0.169271,0.052083 -0.846354,0.2864584 -2.317708,0.2864584 h -4.231771 l 3.463542,-4.2708334 c 0.0651,-0.091146 0.07813,-0.1171875 0.07813,-0.1692708 0,-0.039063 0,-0.039063 -0.06511,-0.1302083 l -3.242187,-4.4401042 h 3.945312 c 1.145834,0 3.4375,0.065104 4.127605,1.9270833 h 0.247395 L 63.22072,-7.4713194 h -8.255208 c -0.260417,0 -0.273437,0.013021 -0.273437,0.3125 z m 0,0"
         style="fill:#000000;fill-opacity:1;fill-rule:nonzero;stroke:none" />
      <path
         id="path27"
         d="m 67.706398,-1.3743142 c 0,-0.1171875 -0.09115,-0.2604167 -0.273438,-0.2604167 -0.208333,0 -0.390625,0.1953125 -0.390625,0.3776042 0,0.1171875 0.07813,0.26041663 0.273438,0.26041663 0.195312,0 0.390625,-0.16927083 0.390625,-0.37760413 z m -1.471355,4.7005208 c -0.117187,0.4817708 -0.494791,0.8854167 -0.898437,0.8854167 -0.09115,0 -0.182292,-0.013021 -0.260417,-0.039063 0.182292,-0.078125 0.234375,-0.2473959 0.234375,-0.3515625 0,-0.1692709 -0.130208,-0.2604167 -0.260416,-0.2604167 -0.221355,0 -0.403646,0.1822917 -0.403646,0.4166667 0,0.2604166 0.273437,0.4296875 0.690104,0.4296875 0.416667,0 1.236979,-0.2473959 1.458333,-1.09375 l 0.625,-2.50000004 c 0.01302,-0.078125 0.02604,-0.14322916 0.02604,-0.24739583 0,-0.37760417 -0.325521,-0.65104167 -0.742188,-0.65104167 -0.768229,0 -1.223958,0.96354167 -1.223958,1.06770834 0,0.0911458 0.104167,0.0911458 0.117188,0.0911458 0.09115,0 0.09115,-0.026042 0.143229,-0.1302083 0.182291,-0.40364584 0.533854,-0.83333334 0.950521,-0.83333334 0.16927,0 0.234375,0.1171875 0.234375,0.33854167 0,0.078125 -0.01302,0.16927083 -0.02604,0.20833333 z m 0,0"
         style="fill:#000000;fill-opacity:1;fill-rule:nonzero;stroke:none" />
      <path
         id="path28"
         d="m 79.724627,-6.042283 c 0.09115,-0.3515625 0.117187,-0.4557292 0.859375,-0.4557292 0.234375,0 0.325521,0 0.325521,-0.1953125 0,-0.1041666 -0.104167,-0.1041666 -0.273438,-0.1041666 h -1.315104 c -0.260417,0 -0.273438,0 -0.390625,0.1822916 l -3.632813,5.67708338 -0.78125,-5.63802088 c -0.02604,-0.2213541 -0.05208,-0.2213541 -0.299479,-0.2213541 h -1.367187 c -0.195313,0 -0.299479,0 -0.299479,0.1822916 0,0.1171875 0.09115,0.1171875 0.286458,0.1171875 0.130208,0 0.3125,0.013021 0.429687,0.026042 0.15625,0.013021 0.221355,0.052083 0.221355,0.15625 0,0.039063 -0.01302,0.065104 -0.03906,0.1953125 l -1.263021,5.0651042 c -0.104166,0.40364581 -0.273437,0.71614581 -1.080729,0.74218748 -0.05208,0 -0.182292,0.0130208 -0.182292,0.1953125 0,0.09114583 0.0651,0.11718750056 0.14323,0.11718750056 0.3125,0 0.664062,-0.0260416706 0.989583,-0.0260416706 0.338542,0 0.703125,0.0260416706 1.028646,0.0260416706 0.05208,0 0.182291,0 0.182291,-0.19531250056 0,-0.1171875 -0.117187,-0.1171875 -0.182291,-0.1171875 -0.559896,0 -0.677084,-0.20833333 -0.677084,-0.4296875 0,-0.078125 0.01302,-0.13020833 0.03906,-0.234375 L 73.800148,-6.406866 h 0.01302 l 0.859375,6.17187498 c 0.01302,0.13020833 0.02604,0.23437500056 0.14323,0.23437500056 0.117187,0 0.16927,-0.10416667056 0.221354,-0.18229167056 L 79.060564,-6.484991 h 0.01302 l -1.419271,5.70312498 c -0.104166,0.390625 -0.130208,0.46875 -0.911458,0.46875 -0.169271,0 -0.286458,0 -0.286458,0.1953125 0,0.11718750056 0.130208,0.11718750056 0.15625,0.11718750056 0.273437,0 0.95052,-0.0260416706 1.236979,-0.0260416706 0.403646,0 0.833333,0.0260416706 1.236979,0.0260416706 0.0651,0 0.195312,0 0.195312,-0.19531250056 0,-0.1171875 -0.09115,-0.1171875 -0.273437,-0.1171875 -0.377604,0 -0.651042,0 -0.651042,-0.16927083 0,-0.0520833 0,-0.0651042 0.05208,-0.24739584 z m 0,0"
         style="fill:#000000;fill-opacity:1;fill-rule:nonzero;stroke:none" />
      <path
         id="path29"
         d="m 82.436215,-2.8684549 c 0,-0.1171875 -0.09115,-0.2604166 -0.286458,-0.2604166 -0.182292,0 -0.390625,0.1822916 -0.390625,0.3776041 0,0.1171875 0.09115,0.2604167 0.286458,0.2604167 0.195313,0 0.390625,-0.1953125 0.390625,-0.3776042 z m -1.432291,3.54166671 c -0.02604,0.0911458 -0.06511,0.18229166 -0.06511,0.29947916 0,0.32552083 0.286459,0.58593753 0.664063,0.58593753 0.703125,0 1.015625,-0.96354169 1.015625,-1.06770836 0,-0.0911458 -0.09115,-0.0911458 -0.117188,-0.0911458 -0.09114,0 -0.104166,0.0520833 -0.130208,0.1171875 -0.15625,0.55989576 -0.46875,0.84635416 -0.742187,0.84635416 -0.14323,0 -0.169271,-0.091146 -0.169271,-0.234375 0,-0.16927083 0.03906,-0.29947916 0.104166,-0.45572916 0.07813,-0.18229167 0.14323,-0.37760417 0.221355,-0.55989584 0.0651,-0.15625 0.3125,-0.79427083 0.351562,-0.88541666 0.01302,-0.0651042 0.03906,-0.14322917 0.03906,-0.22135417 0,-0.32552087 -0.286459,-0.58593757 -0.664063,-0.58593757 -0.690104,0 -1.015625,0.9505209 -1.015625,1.0677084 0,0.0911458 0.104167,0.0911458 0.117188,0.0911458 0.104166,0 0.104166,-0.0390625 0.130208,-0.1171875 0.182292,-0.5989583 0.481771,-0.8463542 0.742187,-0.8463542 0.117188,0 0.182292,0.052083 0.182292,0.234375 0,0.16927086 -0.05208,0.27343753 -0.221354,0.70312503 z m 5.045573,-3.54166671 c 0,-0.1171875 -0.09115,-0.2604166 -0.273438,-0.2604166 -0.208333,0 -0.390625,0.1953125 -0.390625,0.3776041 0,0.1171875 0.07813,0.2604167 0.273438,0.2604167 0.195312,0 0.390625,-0.1692708 0.390625,-0.3776042 z M 84.578142,1.832066 c -0.117187,0.4817708 -0.494791,0.8854166 -0.898437,0.8854166 -0.09115,0 -0.182292,-0.013021 -0.260417,-0.039063 0.182292,-0.078125 0.234375,-0.2473958 0.234375,-0.3515625 0,-0.1692708 -0.130208,-0.2604166 -0.260416,-0.2604166 -0.221355,0 -0.403646,0.1822916 -0.403646,0.4166666 0,0.2604167 0.273437,0.4296875 0.690104,0.4296875 0.416667,0 1.236979,-0.2473958 1.458333,-1.09375 l 0.625,-2.49999996 c 0.01302,-0.078125 0.02604,-0.14322917 0.02604,-0.24739583 0,-0.37760421 -0.325521,-0.65104171 -0.742188,-0.65104171 -0.768229,0 -1.223958,0.96354171 -1.223958,1.06770837 0,0.0911458 0.104167,0.0911458 0.117188,0.0911458 0.09114,0 0.09114,-0.0260417 0.143229,-0.13020834 0.182291,-0.40364583 0.533854,-0.83333333 0.950521,-0.83333333 0.16927,0 0.234375,0.1171875 0.234375,0.3385417 0,0.078125 -0.01302,0.1692708 -0.02604,0.2083333 z m 0,0"
         style="fill:#000000;fill-opacity:1;fill-rule:nonzero;stroke:none" />
      <path
         id="path30"
         d="m 91.847023,-3.7115538 c 0,-0.5338542 -0.260417,-0.6901042 -0.442709,-0.6901042 -0.247396,0 -0.481771,0.2604167 -0.481771,0.4817708 0,0.1302084 0.05208,0.1822917 0.15625,0.2994792 0.208334,0.1953125 0.338542,0.4557292 0.338542,0.8072917 0,0.4166666 -0.611979,2.70833331 -1.770833,2.70833331 -0.507813,0 -0.742188,-0.3515625 -0.742188,-0.87239583 0,-0.55989588 0.273438,-1.28906248 0.585938,-2.10937498 0.0651,-0.1692709 0.117187,-0.3125 0.117187,-0.4947917 0,-0.4557292 -0.325521,-0.8203125 -0.820312,-0.8203125 -0.9375,0 -1.315104,1.4453125 -1.315104,1.5364583 0,0.091146 0.104166,0.091146 0.117187,0.091146 0.104167,0 0.117188,-0.013021 0.169271,-0.1692709 0.286458,-1.015625 0.716146,-1.2369791 1.002604,-1.2369791 0.07813,0 0.247396,0 0.247396,0.3125 0,0.2473958 -0.104167,0.5208333 -0.169271,0.703125 -0.442708,1.1458333 -0.572917,1.6145833 -0.572917,2.0442708 0,1.06770835 0.885417,1.22395835 1.341146,1.22395835 1.666667,0 2.239584,-3.29427085 2.239584,-3.81510425 z m 0,0"
         style="fill:#000000;fill-opacity:1;fill-rule:nonzero;stroke:none" />
      <path
         id="path31"
         d="m 95.076189,-2.8684549 c 0,-0.1171875 -0.09115,-0.2604166 -0.273437,-0.2604166 -0.208334,0 -0.390625,0.1953125 -0.390625,0.3776041 0,0.1171875 0.07813,0.2604167 0.273437,0.2604167 0.195313,0 0.390625,-0.1692708 0.390625,-0.3776042 z M 93.604835,1.832066 c -0.117187,0.4817708 -0.494792,0.8854166 -0.898437,0.8854166 -0.09115,0 -0.182292,-0.013021 -0.260417,-0.039063 0.182292,-0.078125 0.234375,-0.2473958 0.234375,-0.3515625 0,-0.1692708 -0.130208,-0.2604166 -0.260417,-0.2604166 -0.221354,0 -0.403646,0.1822916 -0.403646,0.4166666 0,0.2604167 0.273438,0.4296875 0.690105,0.4296875 0.416666,0 1.236979,-0.2473958 1.458333,-1.09375 l 0.625,-2.49999996 c 0.01302,-0.078125 0.02604,-0.14322917 0.02604,-0.24739583 0,-0.37760421 -0.325521,-0.65104171 -0.742188,-0.65104171 -0.768229,0 -1.223958,0.96354171 -1.223958,1.06770837 0,0.0911458 0.104166,0.0911458 0.117187,0.0911458 0.09115,0 0.09115,-0.0260417 0.143229,-0.13020834 0.182292,-0.40364583 0.533855,-0.83333333 0.950521,-0.83333333 0.169271,0 0.234375,0.1171875 0.234375,0.3385417 0,0.078125 -0.01302,0.1692708 -0.02604,0.2083333 z m 0,0"
         style="fill:#000000;fill-opacity:1;fill-rule:nonzero;stroke:none" />
    </g>
  </g>
</svg>
