<?xml version="1.0" encoding="UTF-8" standalone="no"?>
<!-- Created with Inkscape (http://www.inkscape.org/) -->

<svg
   version="1.1"
   id="svg1"
   width="158.18668"
   height="380.51999"
   viewBox="0 0 158.18668 380.51999"
   sodipodi:docname="legend.eps"
   xmlns:inkscape="http://www.inkscape.org/namespaces/inkscape"
   xmlns:sodipodi="http://sodipodi.sourceforge.net/DTD/sodipodi-0.dtd"
   xmlns="http://www.w3.org/2000/svg"
   xmlns:svg="http://www.w3.org/2000/svg">
  <defs
     id="defs1">
    <clipPath
       clipPathUnits="userSpaceOnUse"
       id="clipPath2">
      <path
         d="M 0,2849 H 1186 V 0 H 0 Z"
         id="path2" />
    </clipPath>
    <clipPath
       clipPathUnits="userSpaceOnUse"
       id="clipPath4">
      <path
         d="M 0,2849 H 1186 V 0 H 0 Z"
         id="path4" />
    </clipPath>
    <clipPath
       clipPathUnits="userSpaceOnUse"
       id="clipPath6">
      <path
         d="M 0,2849 H 1186 V 0 H 0 Z"
         id="path6" />
    </clipPath>
    <clipPath
       clipPathUnits="userSpaceOnUse"
       id="clipPath8">
      <path
         d="M 0,2849 H 1186 V 0 H 0 Z"
         id="path8" />
    </clipPath>
    <clipPath
       clipPathUnits="userSpaceOnUse"
       id="clipPath10">
      <path
         d="M 0,2849 H 1186 V 0 H 0 Z"
         id="path10" />
    </clipPath>
    <clipPath
       clipPathUnits="userSpaceOnUse"
       id="clipPath12">
      <path
         d="M 0,2849 H 1186 V 0 H 0 Z"
         id="path12" />
    </clipPath>
    <clipPath
       clipPathUnits="userSpaceOnUse"
       id="clipPath14">
      <path
         d="M 0,2849 H 1186 V 0 H 0 Z"
         id="path14" />
    </clipPath>
    <clipPath
       clipPathUnits="userSpaceOnUse"
       id="clipPath16">
      <path
         d="M 0,2849 H 1186 V 0 H 0 Z"
         id="path16" />
    </clipPath>
    <clipPath
       clipPathUnits="userSpaceOnUse"
       id="clipPath18">
      <path
         d="M 0,2849 H 1186 V 0 H 0 Z"
         id="path18" />
    </clipPath>
    <clipPath
       clipPathUnits="userSpaceOnUse"
       id="clipPath20">
      <path
         d="M 0,2849 H 1186 V 0 H 0 Z"
         id="path20" />
    </clipPath>
    <clipPath
       clipPathUnits="userSpaceOnUse"
       id="clipPath22">
      <path
         d="M 0,2849 H 1186 V 0 H 0 Z"
         id="path22" />
    </clipPath>
    <clipPath
       clipPathUnits="userSpaceOnUse"
       id="clipPath24">
      <path
         d="M 0,2849 H 1186 V 0 H 0 Z"
         id="path24" />
    </clipPath>
    <clipPath
       clipPathUnits="userSpaceOnUse"
       id="clipPath26">
      <path
         d="M 0,2849 H 1186 V 0 H 0 Z"
         id="path26" />
    </clipPath>
    <clipPath
       clipPathUnits="userSpaceOnUse"
       id="clipPath28">
      <path
         d="M 0,2849 H 1186 V 0 H 0 Z"
         id="path28" />
    </clipPath>
    <clipPath
       clipPathUnits="userSpaceOnUse"
       id="clipPath30">
      <path
         d="M 0,2849 H 1186 V 0 H 0 Z"
         id="path30" />
    </clipPath>
    <clipPath
       clipPathUnits="userSpaceOnUse"
       id="clipPath32">
      <path
         d="M 0,2849 H 1186 V 0 H 0 Z"
         id="path32" />
    </clipPath>
    <clipPath
       clipPathUnits="userSpaceOnUse"
       id="clipPath34">
      <path
         d="M 0,2849 H 1186 V 0 H 0 Z"
         id="path34" />
    </clipPath>
    <clipPath
       clipPathUnits="userSpaceOnUse"
       id="clipPath36">
      <path
         d="M 0,2849 H 1186 V 0 H 0 Z"
         id="path36" />
    </clipPath>
    <clipPath
       clipPathUnits="userSpaceOnUse"
       id="clipPath38">
      <path
         d="M 0,2849 H 1186 V 0 H 0 Z"
         id="path38" />
    </clipPath>
    <clipPath
       clipPathUnits="userSpaceOnUse"
       id="clipPath40">
      <path
         d="M 0,2849 H 1186 V 0 H 0 Z"
         id="path40" />
    </clipPath>
    <clipPath
       clipPathUnits="userSpaceOnUse"
       id="clipPath42">
      <path
         d="M 0,2849 H 1186 V 0 H 0 Z"
         id="path42" />
    </clipPath>
    <clipPath
       clipPathUnits="userSpaceOnUse"
       id="clipPath44">
      <path
         d="M 0,2849 H 1186 V 0 H 0 Z"
         id="path44" />
    </clipPath>
    <clipPath
       clipPathUnits="userSpaceOnUse"
       id="clipPath46">
      <path
         d="M 0,2849 H 1186 V 0 H 0 Z"
         id="path46" />
    </clipPath>
    <clipPath
       clipPathUnits="userSpaceOnUse"
       id="clipPath48">
      <path
         d="M 0,2849 H 1186 V 0 H 0 Z"
         id="path48" />
    </clipPath>
    <clipPath
       clipPathUnits="userSpaceOnUse"
       id="clipPath50">
      <path
         d="M 0,2849 H 1186 V 0 H 0 Z"
         id="path50" />
    </clipPath>
    <clipPath
       clipPathUnits="userSpaceOnUse"
       id="clipPath52">
      <path
         d="M 0,2849 H 1186 V 0 H 0 Z"
         id="path52" />
    </clipPath>
    <clipPath
       clipPathUnits="userSpaceOnUse"
       id="clipPath54">
      <path
         d="M 0,2849 H 1186 V 0 H 0 Z"
         id="path54" />
    </clipPath>
    <clipPath
       clipPathUnits="userSpaceOnUse"
       id="clipPath56">
      <path
         d="M 0,2849 H 1186 V 0 H 0 Z"
         id="path56" />
    </clipPath>
    <clipPath
       clipPathUnits="userSpaceOnUse"
       id="clipPath58">
      <path
         d="M 0,2849 H 1186 V 0 H 0 Z"
         id="path58" />
    </clipPath>
    <clipPath
       clipPathUnits="userSpaceOnUse"
       id="clipPath60">
      <path
         d="M 0,2849 H 1186 V 0 H 0 Z"
         id="path60" />
    </clipPath>
    <clipPath
       clipPathUnits="userSpaceOnUse"
       id="clipPath61">
      <path
         d=""
         transform="matrix(0.00112461,0,0,0.20833333,0.99878543,-248.55)"
         id="path61" />
    </clipPath>
  </defs>
  <sodipodi:namedview
     id="namedview1"
     pagecolor="#ffffff"
     bordercolor="#000000"
     borderopacity="0.25"
     inkscape:showpageshadow="2"
     inkscape:pageopacity="0.0"
     inkscape:pagecheckerboard="0"
     inkscape:deskcolor="#d1d1d1">
    <inkscape:page
       x="0"
       y="0"
       inkscape:label="1"
       id="page1"
       width="158.18668"
       height="380.51999"
       margin="0"
       bleed="0" />
  </sodipodi:namedview>
  <g
     id="g1"
     inkscape:groupmode="layer"
     inkscape:label="1">
    <path
       id="path1"
       d="M 136,2656.31 H 488"
       style="fill:none;stroke:#8000ff;stroke-width:20;stroke-linecap:butt;stroke-linejoin:round;stroke-miterlimit:10;stroke-dasharray:20, 33;stroke-dashoffset:0;stroke-opacity:1"
       transform="matrix(0.13333333,0,0,-0.13333333,0,380.52)"
       clip-path="url(#clipPath2)" />
    <path
       id="path3"
       d="m 312,2636.32 c 5.305,0 10.391,2.1 14.141,5.85 3.754,3.75 5.859,8.83 5.859,14.14 0,5.3 -2.105,10.39 -5.859,14.15 -3.75,3.74 -8.836,5.85 -14.141,5.85 -5.305,0 -10.391,-2.11 -14.141,-5.85 -3.754,-3.76 -5.859,-8.85 -5.859,-14.15 0,-5.31 2.105,-10.39 5.859,-14.14 3.75,-3.75 8.836,-5.85 14.141,-5.85"
       style="fill:#8000ff;fill-opacity:1;fill-rule:nonzero;stroke:none"
       transform="matrix(0.13333333,0,0,-0.13333333,0,380.52)"
       clip-path="url(#clipPath4)" />
    <path
       id="path5"
       d="m 312,2636.32 c 5.305,0 10.391,2.1 14.141,5.85 3.754,3.75 5.859,8.83 5.859,14.14 0,5.3 -2.105,10.39 -5.859,14.15 -3.75,3.74 -8.836,5.85 -14.141,5.85 -5.305,0 -10.391,-2.11 -14.141,-5.85 -3.754,-3.76 -5.859,-8.85 -5.859,-14.15 0,-5.31 2.105,-10.39 5.859,-14.14 3.75,-3.75 8.836,-5.85 14.141,-5.85 z"
       style="fill:none;stroke:#8000ff;stroke-width:10;stroke-linecap:butt;stroke-linejoin:round;stroke-miterlimit:10;stroke-dasharray:none;stroke-opacity:1"
       transform="matrix(0.13333333,0,0,-0.13333333,0,380.52)"
       clip-path="url(#clipPath6)" />
    <path
       id="path7"
       d="M 136,2385.31 H 488"
       style="fill:none;stroke:#4756fb;stroke-width:20;stroke-linecap:butt;stroke-linejoin:round;stroke-miterlimit:10;stroke-dasharray:20, 33;stroke-dashoffset:0;stroke-opacity:1"
       transform="matrix(0.13333333,0,0,-0.13333333,0,380.52)"
       clip-path="url(#clipPath8)" />
    <path
       id="path9"
       d="m 312,2365.31 c 5.305,0 10.391,2.11 14.141,5.85 3.754,3.76 5.859,8.85 5.859,14.15 0,5.31 -2.105,10.39 -5.859,14.14 -3.75,3.75 -8.836,5.87 -14.141,5.87 -5.305,0 -10.391,-2.12 -14.141,-5.87 -3.754,-3.75 -5.859,-8.83 -5.859,-14.14 0,-5.3 2.105,-10.39 5.859,-14.15 3.75,-3.74 8.836,-5.85 14.141,-5.85"
       style="fill:#4756fb;fill-opacity:1;fill-rule:nonzero;stroke:none"
       transform="matrix(0.13333333,0,0,-0.13333333,0,380.52)"
       clip-path="url(#clipPath10)" />
    <path
       id="path11"
       d="m 312,2365.31 c 5.305,0 10.391,2.11 14.141,5.85 3.754,3.76 5.859,8.85 5.859,14.15 0,5.31 -2.105,10.39 -5.859,14.14 -3.75,3.75 -8.836,5.87 -14.141,5.87 -5.305,0 -10.391,-2.12 -14.141,-5.87 -3.754,-3.75 -5.859,-8.83 -5.859,-14.14 0,-5.3 2.105,-10.39 5.859,-14.15 3.75,-3.74 8.836,-5.85 14.141,-5.85 z"
       style="fill:none;stroke:#4756fb;stroke-width:10;stroke-linecap:butt;stroke-linejoin:round;stroke-miterlimit:10;stroke-dasharray:none;stroke-opacity:1"
       transform="matrix(0.13333333,0,0,-0.13333333,0,380.52)"
       clip-path="url(#clipPath12)" />
    <path
       id="path13"
       d="M 136,2114.32 H 488"
       style="fill:none;stroke:#10a2f0;stroke-width:20;stroke-linecap:butt;stroke-linejoin:round;stroke-miterlimit:10;stroke-dasharray:20, 33;stroke-dashoffset:0;stroke-opacity:1"
       transform="matrix(0.13333333,0,0,-0.13333333,0,380.52)"
       clip-path="url(#clipPath14)" />
    <path
       id="path15"
       d="m 312,2094.32 c 5.305,0 10.391,2.11 14.141,5.86 3.754,3.75 5.859,8.83 5.859,14.14 0,5.3 -2.105,10.39 -5.859,14.14 -3.75,3.75 -8.836,5.86 -14.141,5.86 -5.305,0 -10.391,-2.11 -14.141,-5.86 -3.754,-3.75 -5.859,-8.84 -5.859,-14.14 0,-5.31 2.105,-10.39 5.859,-14.14 3.75,-3.75 8.836,-5.86 14.141,-5.86"
       style="fill:#10a2f0;fill-opacity:1;fill-rule:nonzero;stroke:none"
       transform="matrix(0.13333333,0,0,-0.13333333,0,380.52)"
       clip-path="url(#clipPath16)" />
    <path
       id="path17"
       d="m 312,2094.32 c 5.305,0 10.391,2.11 14.141,5.86 3.754,3.75 5.859,8.83 5.859,14.14 0,5.3 -2.105,10.39 -5.859,14.14 -3.75,3.75 -8.836,5.86 -14.141,5.86 -5.305,0 -10.391,-2.11 -14.141,-5.86 -3.754,-3.75 -5.859,-8.84 -5.859,-14.14 0,-5.31 2.105,-10.39 5.859,-14.14 3.75,-3.75 8.836,-5.86 14.141,-5.86 z"
       style="fill:none;stroke:#10a2f0;stroke-width:10;stroke-linecap:butt;stroke-linejoin:round;stroke-miterlimit:10;stroke-dasharray:none;stroke-opacity:1"
       transform="matrix(0.13333333,0,0,-0.13333333,0,380.52)"
       clip-path="url(#clipPath18)" />
    <path
       id="path19"
       d="M 136,1843.32 H 488"
       style="fill:none;stroke:#2bdddd;stroke-width:20;stroke-linecap:butt;stroke-linejoin:round;stroke-miterlimit:10;stroke-dasharray:20, 33;stroke-dashoffset:0;stroke-opacity:1"
       transform="matrix(0.13333333,0,0,-0.13333333,0,380.52)"
       clip-path="url(#clipPath20)" />
    <path
       id="path21"
       d="m 312,1823.32 c 5.305,0 10.391,2.11 14.141,5.85 3.754,3.76 5.859,8.85 5.859,14.15 0,5.31 -2.105,10.39 -5.859,14.15 -3.75,3.74 -8.836,5.85 -14.141,5.85 -5.305,0 -10.391,-2.11 -14.141,-5.85 -3.754,-3.76 -5.859,-8.84 -5.859,-14.15 0,-5.3 2.105,-10.39 5.859,-14.15 3.75,-3.74 8.836,-5.85 14.141,-5.85"
       style="fill:#2bdddd;fill-opacity:1;fill-rule:nonzero;stroke:none"
       transform="matrix(0.13333333,0,0,-0.13333333,0,380.52)"
       clip-path="url(#clipPath22)" />
    <path
       id="path23"
       d="m 312,1823.32 c 5.305,0 10.391,2.11 14.141,5.85 3.754,3.76 5.859,8.85 5.859,14.15 0,5.31 -2.105,10.39 -5.859,14.15 -3.75,3.74 -8.836,5.85 -14.141,5.85 -5.305,0 -10.391,-2.11 -14.141,-5.85 -3.754,-3.76 -5.859,-8.84 -5.859,-14.15 0,-5.3 2.105,-10.39 5.859,-14.15 3.75,-3.74 8.836,-5.85 14.141,-5.85 z"
       style="fill:none;stroke:#2bdddd;stroke-width:10;stroke-linecap:butt;stroke-linejoin:round;stroke-miterlimit:10;stroke-dasharray:none;stroke-opacity:1"
       transform="matrix(0.13333333,0,0,-0.13333333,0,380.52)"
       clip-path="url(#clipPath24)" />
    <path
       id="path25"
       d="M 136,1572.32 H 488"
       style="fill:none;stroke:#62fbc4;stroke-width:20;stroke-linecap:butt;stroke-linejoin:round;stroke-miterlimit:10;stroke-dasharray:20, 33;stroke-dashoffset:0;stroke-opacity:1"
       transform="matrix(0.13333333,0,0,-0.13333333,0,380.52)"
       clip-path="url(#clipPath26)" />
    <path
       id="path27"
       d="m 312,1552.33 c 5.305,0 10.391,2.1 14.141,5.86 3.754,3.76 5.859,8.84 5.859,14.15 0,5.29 -2.105,10.37 -5.859,14.13 -3.75,3.76 -8.836,5.86 -14.141,5.86 -5.305,0 -10.391,-2.1 -14.141,-5.86 -3.754,-3.76 -5.859,-8.84 -5.859,-14.13 0,-5.31 2.105,-10.39 5.859,-14.15 3.75,-3.76 8.836,-5.86 14.141,-5.86"
       style="fill:#62fbc4;fill-opacity:1;fill-rule:nonzero;stroke:none"
       transform="matrix(0.13333333,0,0,-0.13333333,0,380.52)"
       clip-path="url(#clipPath28)" />
    <path
       id="path29"
       d="m 312,1552.33 c 5.305,0 10.391,2.1 14.141,5.86 3.754,3.76 5.859,8.84 5.859,14.15 0,5.29 -2.105,10.37 -5.859,14.13 -3.75,3.76 -8.836,5.86 -14.141,5.86 -5.305,0 -10.391,-2.1 -14.141,-5.86 -3.754,-3.76 -5.859,-8.84 -5.859,-14.13 0,-5.31 2.105,-10.39 5.859,-14.15 3.75,-3.76 8.836,-5.86 14.141,-5.86 z"
       style="fill:none;stroke:#62fbc4;stroke-width:10;stroke-linecap:butt;stroke-linejoin:round;stroke-miterlimit:10;stroke-dasharray:none;stroke-opacity:1"
       transform="matrix(0.13333333,0,0,-0.13333333,0,380.52)"
       clip-path="url(#clipPath30)" />
    <path
       id="path31"
       d="M 136,1301.33 H 488"
       style="fill:none;stroke:#9cfba3;stroke-width:20;stroke-linecap:butt;stroke-linejoin:round;stroke-miterlimit:10;stroke-dasharray:20, 33;stroke-dashoffset:0;stroke-opacity:1"
       transform="matrix(0.13333333,0,0,-0.13333333,0,380.52)"
       clip-path="url(#clipPath32)" />
    <path
       id="path33"
       d="m 312,1281.34 c 5.305,0 10.391,2.1 14.141,5.85 3.754,3.75 5.859,8.83 5.859,14.14 0,5.3 -2.105,10.39 -5.859,14.15 -3.75,3.74 -8.836,5.85 -14.141,5.85 -5.305,0 -10.391,-2.11 -14.141,-5.85 -3.754,-3.76 -5.859,-8.85 -5.859,-14.15 0,-5.31 2.105,-10.39 5.859,-14.14 3.75,-3.75 8.836,-5.85 14.141,-5.85"
       style="fill:#9cfba3;fill-opacity:1;fill-rule:nonzero;stroke:none"
       transform="matrix(0.13333333,0,0,-0.13333333,0,380.52)"
       clip-path="url(#clipPath34)" />
    <path
       id="path35"
       d="m 312,1281.34 c 5.305,0 10.391,2.1 14.141,5.85 3.754,3.75 5.859,8.83 5.859,14.14 0,5.3 -2.105,10.39 -5.859,14.15 -3.75,3.74 -8.836,5.85 -14.141,5.85 -5.305,0 -10.391,-2.11 -14.141,-5.85 -3.754,-3.76 -5.859,-8.85 -5.859,-14.15 0,-5.31 2.105,-10.39 5.859,-14.14 3.75,-3.75 8.836,-5.85 14.141,-5.85 z"
       style="fill:none;stroke:#9cfba3;stroke-width:10;stroke-linecap:butt;stroke-linejoin:round;stroke-miterlimit:10;stroke-dasharray:none;stroke-opacity:1"
       transform="matrix(0.13333333,0,0,-0.13333333,0,380.52)"
       clip-path="url(#clipPath36)" />
    <path
       id="path37"
       d="M 136,1030.34 H 488"
       style="fill:none;stroke:#d4dd80;stroke-width:20;stroke-linecap:butt;stroke-linejoin:round;stroke-miterlimit:10;stroke-dasharray:20, 33;stroke-dashoffset:0;stroke-opacity:1"
       transform="matrix(0.13333333,0,0,-0.13333333,0,380.52)"
       clip-path="url(#clipPath38)" />
    <path
       id="path39"
       d="m 312,1010.34 c 5.305,0 10.391,2.11 14.141,5.86 3.754,3.75 5.859,8.84 5.859,14.14 0,5.3 -2.105,10.39 -5.859,14.14 -3.75,3.75 -8.836,5.86 -14.141,5.86 -5.305,0 -10.391,-2.11 -14.141,-5.86 -3.754,-3.75 -5.859,-8.84 -5.859,-14.14 0,-5.3 2.105,-10.39 5.859,-14.14 3.75,-3.75 8.836,-5.86 14.141,-5.86"
       style="fill:#d4dd80;fill-opacity:1;fill-rule:nonzero;stroke:none"
       transform="matrix(0.13333333,0,0,-0.13333333,0,380.52)"
       clip-path="url(#clipPath40)" />
    <path
       id="path41"
       d="m 312,1010.34 c 5.305,0 10.391,2.11 14.141,5.86 3.754,3.75 5.859,8.84 5.859,14.14 0,5.3 -2.105,10.39 -5.859,14.14 -3.75,3.75 -8.836,5.86 -14.141,5.86 -5.305,0 -10.391,-2.11 -14.141,-5.86 -3.754,-3.75 -5.859,-8.84 -5.859,-14.14 0,-5.3 2.105,-10.39 5.859,-14.14 3.75,-3.75 8.836,-5.86 14.141,-5.86 z"
       style="fill:none;stroke:#d4dd80;stroke-width:10;stroke-linecap:butt;stroke-linejoin:round;stroke-miterlimit:10;stroke-dasharray:none;stroke-opacity:1"
       transform="matrix(0.13333333,0,0,-0.13333333,0,380.52)"
       clip-path="url(#clipPath42)" />
    <path
       id="path43"
       d="M 136,759.344 H 488"
       style="fill:none;stroke:#ffa256;stroke-width:20;stroke-linecap:butt;stroke-linejoin:round;stroke-miterlimit:10;stroke-dasharray:20, 33;stroke-dashoffset:0;stroke-opacity:1"
       transform="matrix(0.13333333,0,0,-0.13333333,0,380.52)"
       clip-path="url(#clipPath44)" />
    <path
       id="path45"
       d="m 312,739.344 c 5.305,0 10.391,2.109 14.141,5.859 3.754,3.75 5.859,8.836 5.859,14.141 0,5.304 -2.105,10.39 -5.859,14.144 -3.75,3.75 -8.836,5.856 -14.141,5.856 -5.305,0 -10.391,-2.106 -14.141,-5.856 -3.754,-3.754 -5.859,-8.84 -5.859,-14.144 0,-5.305 2.105,-10.391 5.859,-14.141 3.75,-3.75 8.836,-5.859 14.141,-5.859"
       style="fill:#ffa256;fill-opacity:1;fill-rule:nonzero;stroke:none"
       transform="matrix(0.13333333,0,0,-0.13333333,0,380.52)"
       clip-path="url(#clipPath46)" />
    <path
       id="path47"
       d="m 312,739.344 c 5.305,0 10.391,2.109 14.141,5.859 3.754,3.75 5.859,8.836 5.859,14.141 0,5.304 -2.105,10.39 -5.859,14.144 -3.75,3.75 -8.836,5.856 -14.141,5.856 -5.305,0 -10.391,-2.106 -14.141,-5.856 -3.754,-3.754 -5.859,-8.84 -5.859,-14.144 0,-5.305 2.105,-10.391 5.859,-14.141 3.75,-3.75 8.836,-5.859 14.141,-5.859 z"
       style="fill:none;stroke:#ffa256;stroke-width:10;stroke-linecap:butt;stroke-linejoin:round;stroke-miterlimit:10;stroke-dasharray:none;stroke-opacity:1"
       transform="matrix(0.13333333,0,0,-0.13333333,0,380.52)"
       clip-path="url(#clipPath48)" />
    <path
       id="path49"
       d="M 136,488.352 H 488"
       style="fill:none;stroke:#ff562c;stroke-width:20;stroke-linecap:butt;stroke-linejoin:round;stroke-miterlimit:10;stroke-dasharray:20, 33;stroke-dashoffset:0;stroke-opacity:1"
       transform="matrix(0.13333333,0,0,-0.13333333,0,380.52)"
       clip-path="url(#clipPath50)" />
    <path
       id="path51"
       d="m 312,468.352 c 5.305,0 10.391,2.105 14.141,5.855 3.754,3.75 5.859,8.84 5.859,14.145 0,5.304 -2.105,10.39 -5.859,14.14 -3.75,3.75 -8.836,5.86 -14.141,5.86 -5.305,0 -10.391,-2.11 -14.141,-5.86 -3.754,-3.75 -5.859,-8.836 -5.859,-14.14 0,-5.305 2.105,-10.395 5.859,-14.145 3.75,-3.75 8.836,-5.855 14.141,-5.855"
       style="fill:#ff562c;fill-opacity:1;fill-rule:nonzero;stroke:none"
       transform="matrix(0.13333333,0,0,-0.13333333,0,380.52)"
       clip-path="url(#clipPath52)" />
    <path
       id="path53"
       d="m 312,468.352 c 5.305,0 10.391,2.105 14.141,5.855 3.754,3.75 5.859,8.84 5.859,14.145 0,5.304 -2.105,10.39 -5.859,14.14 -3.75,3.75 -8.836,5.86 -14.141,5.86 -5.305,0 -10.391,-2.11 -14.141,-5.86 -3.754,-3.75 -5.859,-8.836 -5.859,-14.14 0,-5.305 2.105,-10.395 5.859,-14.145 3.75,-3.75 8.836,-5.855 14.141,-5.855 z"
       style="fill:none;stroke:#ff562c;stroke-width:10;stroke-linecap:butt;stroke-linejoin:round;stroke-miterlimit:10;stroke-dasharray:none;stroke-opacity:1"
       transform="matrix(0.13333333,0,0,-0.13333333,0,380.52)"
       clip-path="url(#clipPath54)" />
    <path
       id="path55"
       d="M 136,217.355 H 488"
       style="fill:none;stroke:#ff0000;stroke-width:20;stroke-linecap:butt;stroke-linejoin:round;stroke-miterlimit:10;stroke-dasharray:20, 33;stroke-dashoffset:0;stroke-opacity:1"
       transform="matrix(0.13333333,0,0,-0.13333333,0,380.52)"
       clip-path="url(#clipPath56)" />
    <path
       id="path57"
       d="m 312,197.355 c 5.305,0 10.391,2.106 14.141,5.856 3.754,3.754 5.859,8.84 5.859,14.144 0,5.305 -2.105,10.391 -5.859,14.141 -3.75,3.75 -8.836,5.859 -14.141,5.859 -5.305,0 -10.391,-2.109 -14.141,-5.859 -3.754,-3.75 -5.859,-8.836 -5.859,-14.141 0,-5.304 2.105,-10.39 5.859,-14.144 3.75,-3.75 8.836,-5.856 14.141,-5.856"
       style="fill:#ff0000;fill-opacity:1;fill-rule:nonzero;stroke:none"
       transform="matrix(0.13333333,0,0,-0.13333333,0,380.52)"
       clip-path="url(#clipPath58)" />
    <path
       id="path59"
       d="m 312,197.355 c 5.305,0 10.391,2.106 14.141,5.856 3.754,3.754 5.859,8.84 5.859,14.144 0,5.305 -2.105,10.391 -5.859,14.141 -3.75,3.75 -8.836,5.859 -14.141,5.859 -5.305,0 -10.391,-2.109 -14.141,-5.859 -3.754,-3.75 -5.859,-8.836 -5.859,-14.141 0,-5.304 2.105,-10.39 5.859,-14.144 3.75,-3.75 8.836,-5.856 14.141,-5.856 z"
       style="fill:none;stroke:#ff0000;stroke-width:10;stroke-linecap:butt;stroke-linejoin:round;stroke-miterlimit:10;stroke-dasharray:none;stroke-opacity:1"
       transform="matrix(0.13333333,0,0,-0.13333333,0,380.52)"
       clip-path="url(#clipPath60)" />
    <rect
       id="rect60"
       x="0"
       y="0"
       width="1"
       height="1"
       style="fill:#231f20;fill-opacity:1;fill-rule:nonzero"
       transform="matrix(118.56,0,0,-0.64,-118.416,221.448)"
       clip-path="url(#clipPath61)" />
    <path
       id="path62"
       d="m 4.5933594,-10.218375 c 0,-0.363281 0,-0.375 -0.328125,-0.375 -0.375,0.421875 -1.171875,1.0195312 -2.8125,1.0195312 v 0.4570313 c 0.3632812,0 1.1601562,0 2.0390625,-0.4101563 v 8.296875 c 0,0.5742188 -0.046875,0.77343755 -1.453125,0.77343755 H 1.5464844 V 3.75e-4 c 0.4335937,-0.03515625 1.9804687,-0.03515625 2.4960937,-0.03515625 0.5273438,0 2.0625,0 2.4960938,0.03515625 V -0.45665625 H 6.0347656 c -1.3945312,0 -1.4414062,-0.19921875 -1.4414062,-0.77343755 z m 5.2470703,1.0898437 c 0.6914063,0.2226563 1.2421873,0.234375 1.4179683,0.234375 1.804688,0 2.953125,-1.3242187 2.953125,-1.5468747 0,-0.05859 -0.03516,-0.140625 -0.128906,-0.140625 -0.03516,0 -0.07031,0 -0.210937,0.05859 -0.890625,0.386719 -1.652344,0.433594 -2.074219,0.433594 -1.042969,0 -1.792969,-0.316406 -2.0976563,-0.445312 -0.1171875,-0.04687 -0.140625,-0.04687 -0.1640625,-0.04687 -0.1289063,0 -0.1289063,0.09375 -0.1289063,0.351562 v 4.7343752 c 0,0.28125 0,0.375 0.1992188,0.375 0.070312,0 0.09375,-0.011719 0.2460937,-0.1992187 0.4570316,-0.65625 1.1953126,-1.0429688 1.9921876,-1.0429688 0.855469,0 1.265625,0.7851563 1.394531,1.0546875 0.269531,0.6210938 0.28125,1.40625 0.28125,2.0039063 0,0.609375 0,1.5234375 -0.445312,2.2382812 -0.351563,0.5742188 -0.972657,0.9726563 -1.675782,0.9726563 -1.042968,0 -2.0859371,-0.71484375 -2.3671871,-1.8867188 0.082031,0.035156 0.1757813,0.046875 0.2460938,0.046875 0.28125,0 0.703125,-0.1523437 0.703125,-0.6914062 0,-0.4453125 -0.3046875,-0.703125 -0.703125,-0.703125 -0.28125,0 -0.6914063,0.140625 -0.6914063,0.7617187 0,1.359375 1.078125,2.90625005 2.8476566,2.90625005 1.804687,0 3.375,-1.52343755 3.375,-3.53906255 0,-1.8984375 -1.265625,-3.4804687 -2.941407,-3.4804687 -0.914062,0 -1.617187,0.3984375 -2.0273433,0.84375 z m 18.0087893,5.2617188 c 0,-1.4882813 0,-1.9335938 -0.363281,-2.4492188 -0.46875,-0.6210937 -1.207032,-0.7148437 -1.757813,-0.7148437 -1.546875,0 -2.144531,1.3242187 -2.273437,1.640625 H 23.43125 V -7.030875 L 21.275,-6.8550938 v 0.46875 c 1.078125,0 1.207031,0.1054688 1.207031,0.890625 v 4.3125 c 0,0.72656255 -0.175781,0.72656255 -1.207031,0.72656255 V 3.75e-4 c 0.410156,-0.03515625 1.265625,-0.03515625 1.710938,-0.03515625 0.46875,0 1.324218,0 1.746093,0.03515625 v -0.45703125 c -1.019531,0 -1.21875,0 -1.21875,-0.72656255 v -2.9648437 c 0,-1.6640625 1.101563,-2.5664063 2.085938,-2.5664063 0.996094,0 1.21875,0.8203125 1.21875,1.7929688 v 3.7382812 c 0,0.72656255 -0.175781,0.72656255 -1.21875,0.72656255 V 3.75e-4 c 0.421875,-0.03515625 1.277344,-0.03515625 1.722656,-0.03515625 0.46875,0 1.324219,0 1.746094,0.03515625 v -0.45703125 c -0.796875,0 -1.195313,0 -1.21875,-0.48046875 z m 6.776367,-2.8710938 c 0,-0.2929687 0,-0.375 -0.164063,-0.375 -0.117187,0 -0.421875,0.3515625 -0.539062,0.5039063 -0.492188,-0.3984375 -0.984375,-0.5039063 -1.5,-0.5039063 -1.921875,0 -2.496094,1.0546875 -2.496094,1.9335938 0,0.1757812 0,0.7382812 0.609375,1.2890625 0.503906,0.4453125 1.042969,0.5625 1.78125,0.703125 0.878906,0.1757812 1.078125,0.2226562 1.476563,0.5390625 0.292968,0.2460937 0.503906,0.5976562 0.503906,1.0429687 0,0.67968755 -0.398438,1.4414063 -1.804688,1.4414063 -1.054687,0 -1.816406,-0.59765625 -2.167968,-2.1914063 -0.07031,-0.2929687 -0.07031,-0.3046875 -0.08203,-0.3164062 -0.03516,-0.070312 -0.09375,-0.070312 -0.140625,-0.070312 -0.175781,0 -0.175781,0.082031 -0.175781,0.3632812 v 2.1679688 c 0,0.29296875 0,0.375 0.152344,0.375 0.08203,0 0.105469,-0.0234375 0.375,-0.3515625 0.08203,-0.1171875 0.08203,-0.15234375 0.316406,-0.3984375 0.609375,0.75 1.464844,0.75 1.734375,0.75 1.675781,0 2.507813,-0.92578125 2.507813,-2.1914063 0,-0.8554687 -0.527344,-1.3710937 -0.667969,-1.5117187 -0.574219,-0.4921875 -1.007813,-0.5859375 -2.0625,-0.7851563 -0.480469,-0.09375 -1.640625,-0.3164062 -1.640625,-1.265625 0,-0.5039062 0.339844,-1.2304687 1.769531,-1.2304687 1.734375,0 1.828125,1.4765625 1.863281,1.9804687 0.02344,0.1171875 0.128907,0.1171875 0.175782,0.1171875 0.175781,0 0.175781,-0.070312 0.175781,-0.3632812 z M 2.9292969,21.381234 c -0.2695313,0.01172 -0.328125,0.02344 -0.328125,0.175782 0,0.152343 0.070312,0.152343 0.3632812,0.152343 h 0.7382813 c 1.3476562,0 1.9570312,1.125 1.9570312,2.648438 0,2.085937 -1.0898437,2.648437 -1.8632812,2.648437 -0.7734375,0 -2.0742188,-0.363281 -2.5429688,-1.417968 0.515625,0.08203 0.9726563,-0.210938 0.9726563,-0.785157 0,-0.457031 -0.328125,-0.773437 -0.7734375,-0.773437 -0.3867188,0 -0.79687502,0.222656 -0.79687502,0.820312 0,1.417969 1.41796872,2.589844 3.18750002,2.589844 1.8984375,0 3.2929687,-1.453125 3.2929687,-3.070312 0,-1.464844 -1.171875,-2.613282 -2.7070312,-2.882813 1.3828125,-0.398437 2.2851562,-1.558594 2.2851562,-2.800781 0,-1.265625 -1.3125,-2.179688 -2.859375,-2.179688 -1.59375,0 -2.7773437,0.972657 -2.7773437,2.132813 0,0.632812 0.5039062,0.761719 0.7382812,0.761719 0.3398438,0 0.7148438,-0.234375 0.7148438,-0.714844 0,-0.515625 -0.375,-0.738281 -0.7265625,-0.738281 -0.09375,0 -0.1289063,0 -0.1757813,0.02344 0.5976563,-1.089844 2.0976563,-1.089844 2.1796875,-1.089844 0.5273438,0 1.5585938,0.246094 1.5585938,1.804688 0,0.304687 -0.046875,1.195312 -0.5039063,1.875 -0.4804687,0.703125 -1.0195312,0.75 -1.453125,0.773437 z m 12.0087891,0.621094 c 0,-1.324219 -0.08203,-2.613281 -0.644531,-3.832031 -0.65625,-1.3125 -1.804688,-1.664063 -2.589844,-1.664063 -0.925781,0 -2.0507813,0.457032 -2.6484376,1.78125 -0.4453125,1.007813 -0.5976562,1.992188 -0.5976562,3.714844 0,1.546875 0.1054687,2.707031 0.6796875,3.84375 0.6210937,1.207031 1.7226563,1.59375 2.5546873,1.59375 1.382813,0 2.179688,-0.832031 2.648438,-1.757812 0.574218,-1.195313 0.597656,-2.753907 0.597656,-3.679688 z m -3.246094,5.109375 c -0.515625,0 -1.546875,-0.28125 -1.8515623,-2.015625 -0.1757813,-0.960937 -0.1757813,-2.167969 -0.1757813,-3.292969 0,-1.300781 0,-2.484375 0.2578125,-3.421875 0.2695311,-1.066406 1.0781251,-1.558593 1.7695311,-1.558593 0.609375,0 1.523438,0.363281 1.828125,1.734375 0.210938,0.914062 0.210938,2.167968 0.210938,3.246093 0,1.078125 0,2.285157 -0.175782,3.257813 -0.304687,1.757812 -1.3125,2.050781 -1.863281,2.050781 z m 16.157227,-3.878906 c 0,-1.488281 0,-1.933594 -0.363281,-2.449219 -0.46875,-0.621094 -1.207032,-0.714844 -1.757813,-0.714844 -1.546875,0 -2.144531,1.324219 -2.273437,1.640625 H 23.43125 V 20.068734 L 21.275,20.244516 v 0.46875 c 1.078125,0 1.207031,0.105468 1.207031,0.890625 v 4.3125 c 0,0.726562 -0.175781,0.726562 -1.207031,0.726562 v 0.457031 c 0.410156,-0.03516 1.265625,-0.03516 1.710938,-0.03516 0.46875,0 1.324218,0 1.746093,0.03516 v -0.457031 c -1.019531,0 -1.21875,0 -1.21875,-0.726562 v -2.964844 c 0,-1.664063 1.101563,-2.566406 2.085938,-2.566406 0.996094,0 1.21875,0.820312 1.21875,1.792968 v 3.738282 c 0,0.726562 -0.175781,0.726562 -1.21875,0.726562 v 0.457031 c 0.421875,-0.03516 1.277344,-0.03516 1.722656,-0.03516 0.46875,0 1.324219,0 1.746094,0.03516 v -0.457031 c -0.796875,0 -1.195313,0 -1.21875,-0.480469 z m 6.776367,-2.871094 c 0,-0.292969 0,-0.375 -0.164063,-0.375 -0.117187,0 -0.421875,0.351563 -0.539062,0.503906 -0.492188,-0.398437 -0.984375,-0.503906 -1.5,-0.503906 -1.921875,0 -2.496094,1.054688 -2.496094,1.933594 0,0.175781 0,0.738281 0.609375,1.289062 0.503906,0.445313 1.042969,0.5625 1.78125,0.703125 0.878906,0.175782 1.078125,0.222657 1.476563,0.539063 0.292968,0.246094 0.503906,0.597656 0.503906,1.042969 0,0.679687 -0.398438,1.441406 -1.804688,1.441406 -1.054687,0 -1.816406,-0.597656 -2.167968,-2.191406 -0.07031,-0.292969 -0.07031,-0.304688 -0.08203,-0.316407 -0.03516,-0.07031 -0.09375,-0.07031 -0.140625,-0.07031 -0.175781,0 -0.175781,0.08203 -0.175781,0.363281 v 2.167969 c 0,0.292969 0,0.375 0.152344,0.375 0.08203,0 0.105469,-0.02344 0.375,-0.351563 0.08203,-0.117187 0.08203,-0.152343 0.316406,-0.398437 0.609375,0.75 1.464844,0.75 1.734375,0.75 1.675781,0 2.507813,-0.925781 2.507813,-2.191406 0,-0.855469 -0.527344,-1.371094 -0.667969,-1.511719 -0.574219,-0.492188 -1.007813,-0.585938 -2.0625,-0.785156 -0.480469,-0.09375 -1.640625,-0.316407 -1.640625,-1.265625 0,-0.503907 0.339844,-1.230469 1.769531,-1.230469 1.734375,0 1.828125,1.476562 1.863281,1.980469 0.02344,0.117187 0.128907,0.117187 0.175782,0.117187 0.175781,0 0.175781,-0.07031 0.175781,-0.363281 z M 5.7535156,43.8285 c 0,-0.304688 0,-0.386719 -0.2226562,-0.386719 -0.1289063,0 -0.1757813,0 -0.3046875,0.1875 l -4.79296877,7.441406 v 0.46875 H 4.6167969 v 1.453125 c 0,0.585938 -0.023437,0.75 -1.1953125,0.75 H 3.1050781 v 0.457032 c 0.3632813,-0.03516 1.6289063,-0.03516 2.0742188,-0.03516 0.4453125,0 1.7226562,0 2.0859375,0.03516 V 53.742562 H 6.9488281 c -1.1484375,0 -1.1953125,-0.164062 -1.1953125,-0.75 v -1.453125 h 1.6054688 v -0.46875 H 5.7535156 Z m -1.0546875,1.242187 v 6 H 0.83164063 Z m 5.1416016,0 c 0.6914063,0.222657 1.2421873,0.234375 1.4179683,0.234375 1.804688,0 2.953125,-1.324218 2.953125,-1.546875 0,-0.05859 -0.03516,-0.140625 -0.128906,-0.140625 -0.03516,0 -0.07031,0 -0.210937,0.05859 -0.890625,0.386719 -1.652344,0.433594 -2.074219,0.433594 -1.042969,0 -1.792969,-0.316406 -2.0976563,-0.445313 -0.1171875,-0.04687 -0.140625,-0.04687 -0.1640625,-0.04687 -0.1289063,0 -0.1289063,0.09375 -0.1289063,0.351563 V 48.7035 c 0,0.28125 0,0.375 0.1992188,0.375 0.070312,0 0.09375,-0.01172 0.2460937,-0.199219 0.4570316,-0.65625 1.1953126,-1.042969 1.9921876,-1.042969 0.855469,0 1.265625,0.785157 1.394531,1.054688 0.269531,0.621094 0.28125,1.40625 0.28125,2.003906 0,0.609375 0,1.523438 -0.445312,2.238281 -0.351563,0.574219 -0.972657,0.972657 -1.675782,0.972657 -1.042968,0 -2.0859371,-0.714844 -2.3671871,-1.886719 0.082031,0.03516 0.1757813,0.04687 0.2460938,0.04687 0.28125,0 0.703125,-0.152344 0.703125,-0.691406 0,-0.445313 -0.3046875,-0.703125 -0.703125,-0.703125 -0.28125,0 -0.6914063,0.140625 -0.6914063,0.761718 0,1.359375 1.078125,2.90625 2.8476566,2.90625 1.804687,0 3.375,-1.523437 3.375,-3.539062 0,-1.898438 -1.265625,-3.480469 -2.941407,-3.480469 -0.914062,0 -1.617187,0.398438 -2.0273433,0.84375 z m 18.0087893,5.261719 c 0,-1.488281 0,-1.933594 -0.363281,-2.449219 -0.46875,-0.621093 -1.207032,-0.714843 -1.757813,-0.714843 -1.546875,0 -2.144531,1.324218 -2.273437,1.640625 H 23.43125 V 47.168344 L 21.275,47.344125 v 0.46875 c 1.078125,0 1.207031,0.105469 1.207031,0.890625 v 4.3125 c 0,0.726562 -0.175781,0.726562 -1.207031,0.726562 v 0.457032 c 0.410156,-0.03516 1.265625,-0.03516 1.710938,-0.03516 0.46875,0 1.324218,0 1.746093,0.03516 v -0.457032 c -1.019531,0 -1.21875,0 -1.21875,-0.726562 v -2.964844 c 0,-1.664062 1.101563,-2.566406 2.085938,-2.566406 0.996094,0 1.21875,0.820312 1.21875,1.792969 V 53.016 c 0,0.726562 -0.175781,0.726562 -1.21875,0.726562 v 0.457032 c 0.421875,-0.03516 1.277344,-0.03516 1.722656,-0.03516 0.46875,0 1.324219,0 1.746094,0.03516 v -0.457032 c -0.796875,0 -1.195313,0 -1.21875,-0.480468 z m 6.776367,-2.871094 c 0,-0.292968 0,-0.375 -0.164063,-0.375 -0.117187,0 -0.421875,0.351563 -0.539062,0.503907 -0.492188,-0.398438 -0.984375,-0.503907 -1.5,-0.503907 -1.921875,0 -2.496094,1.054688 -2.496094,1.933594 0,0.175781 0,0.738281 0.609375,1.289063 0.503906,0.445312 1.042969,0.5625 1.78125,0.703125 0.878906,0.175781 1.078125,0.222656 1.476563,0.539062 0.292968,0.246094 0.503906,0.597656 0.503906,1.042969 0,0.679687 -0.398438,1.441406 -1.804688,1.441406 -1.054687,0 -1.816406,-0.597656 -2.167968,-2.191406 -0.07031,-0.292969 -0.07031,-0.304688 -0.08203,-0.316406 -0.03516,-0.07031 -0.09375,-0.07031 -0.140625,-0.07031 -0.175781,0 -0.175781,0.08203 -0.175781,0.363281 v 2.167969 c 0,0.292969 0,0.375 0.152344,0.375 0.08203,0 0.105469,-0.02344 0.375,-0.351562 0.08203,-0.117188 0.08203,-0.152344 0.316406,-0.398438 0.609375,0.75 1.464844,0.75 1.734375,0.75 1.675781,0 2.507813,-0.925781 2.507813,-2.191406 0,-0.855469 -0.527344,-1.371094 -0.667969,-1.511719 -0.574219,-0.492187 -1.007813,-0.585937 -2.0625,-0.785156 -0.480469,-0.09375 -1.640625,-0.316406 -1.640625,-1.265625 0,-0.503906 0.339844,-1.230469 1.769531,-1.230469 1.734375,0 1.828125,1.476563 1.863281,1.980469 0.02344,0.117187 0.128907,0.117187 0.175782,0.117187 0.175781,0 0.175781,-0.07031 0.175781,-0.363281 z M 1.9566406,75.756234 c 0,-4.03125 1.96875,-4.675781 2.8242188,-4.675781 0.5742187,0 1.1484375,0.175781 1.453125,0.65625 -0.1992188,0 -0.796875,0 -0.796875,0.65625 0,0.351563 0.234375,0.65625 0.65625,0.65625 0.3984375,0 0.6679687,-0.246094 0.6679687,-0.703125 0,-0.832031 -0.609375,-1.640625 -1.9921875,-1.640625 -2.015625,0 -4.11328122,2.050781 -4.11328122,5.554688 0,4.382812 1.91015622,5.378906 3.26953122,5.378906 1.734375,0 3.2109375,-1.523438 3.2109375,-3.585938 0,-2.121093 -1.4765625,-3.539062 -3.0703125,-3.539062 -1.4179687,0 -1.9453125,1.21875 -2.109375,1.664062 z m 1.96875,5.449219 c -1.0078125,0 -1.4882812,-0.890625 -1.6289062,-1.230469 -0.140625,-0.410156 -0.3046875,-1.195312 -0.3046875,-2.308593 0,-1.265625 0.5742187,-2.835938 2.0039062,-2.835938 0.8789063,0 1.3476563,0.585938 1.5820313,1.125 0.2578125,0.597656 0.2578125,1.394531 0.2578125,2.074219 0,0.820312 0,1.535156 -0.3046875,2.132812 -0.3984375,0.773438 -0.9726563,1.042969 -1.6054688,1.042969 z M 14.938086,76.201547 c 0,-1.324219 -0.08203,-2.613281 -0.644531,-3.832031 -0.65625,-1.3125 -1.804688,-1.664063 -2.589844,-1.664063 -0.925781,0 -2.0507813,0.457031 -2.6484376,1.78125 -0.4453125,1.007813 -0.5976562,1.992188 -0.5976562,3.714844 0,1.546875 0.1054687,2.707031 0.6796875,3.84375 0.6210937,1.207031 1.7226563,1.59375 2.5546873,1.59375 1.382813,0 2.179688,-0.832031 2.648438,-1.757813 0.574218,-1.195312 0.597656,-2.753906 0.597656,-3.679687 z m -3.246094,5.109375 c -0.515625,0 -1.546875,-0.28125 -1.8515623,-2.015625 -0.1757813,-0.960938 -0.1757813,-2.167969 -0.1757813,-3.292969 0,-1.300781 0,-2.484375 0.2578125,-3.421875 0.2695311,-1.066406 1.0781251,-1.558594 1.7695311,-1.558594 0.609375,0 1.523438,0.363282 1.828125,1.734375 0.210938,0.914063 0.210938,2.167969 0.210938,3.246094 0,1.078125 0,2.285156 -0.175782,3.257813 -0.304687,1.757812 -1.3125,2.050781 -1.863281,2.050781 z m 16.157227,-3.878906 c 0,-1.488282 0,-1.933594 -0.363281,-2.449219 -0.46875,-0.621094 -1.207032,-0.714844 -1.757813,-0.714844 -1.546875,0 -2.144531,1.324219 -2.273437,1.640625 H 23.43125 V 74.267953 L 21.275,74.443734 v 0.46875 c 1.078125,0 1.207031,0.105469 1.207031,0.890625 v 4.3125 c 0,0.726563 -0.175781,0.726563 -1.207031,0.726563 v 0.457031 c 0.410156,-0.03516 1.265625,-0.03516 1.710938,-0.03516 0.46875,0 1.324218,0 1.746093,0.03516 v -0.457031 c -1.019531,0 -1.21875,0 -1.21875,-0.726563 v -2.964843 c 0,-1.664063 1.101563,-2.566407 2.085938,-2.566407 0.996094,0 1.21875,0.820313 1.21875,1.792969 v 3.738281 c 0,0.726563 -0.175781,0.726563 -1.21875,0.726563 v 0.457031 c 0.421875,-0.03516 1.277344,-0.03516 1.722656,-0.03516 0.46875,0 1.324219,0 1.746094,0.03516 v -0.457031 c -0.796875,0 -1.195313,0 -1.21875,-0.480469 z m 6.776367,-2.871094 c 0,-0.292969 0,-0.375 -0.164063,-0.375 -0.117187,0 -0.421875,0.351562 -0.539062,0.503906 -0.492188,-0.398437 -0.984375,-0.503906 -1.5,-0.503906 -1.921875,0 -2.496094,1.054687 -2.496094,1.933594 0,0.175781 0,0.738281 0.609375,1.289062 0.503906,0.445313 1.042969,0.5625 1.78125,0.703125 0.878906,0.175781 1.078125,0.222656 1.476563,0.539063 0.292968,0.246093 0.503906,0.597656 0.503906,1.042968 0,0.679688 -0.398438,1.441407 -1.804688,1.441407 -1.054687,0 -1.816406,-0.597657 -2.167968,-2.191407 -0.07031,-0.292968 -0.07031,-0.304687 -0.08203,-0.316406 -0.03516,-0.07031 -0.09375,-0.07031 -0.140625,-0.07031 -0.175781,0 -0.175781,0.08203 -0.175781,0.363281 v 2.167969 c 0,0.292968 0,0.375 0.152344,0.375 0.08203,0 0.105469,-0.02344 0.375,-0.351563 0.08203,-0.117187 0.08203,-0.152344 0.316406,-0.398437 0.609375,0.75 1.464844,0.75 1.734375,0.75 1.675781,0 2.507813,-0.925782 2.507813,-2.191407 0,-0.855468 -0.527344,-1.371093 -0.667969,-1.511718 -0.574219,-0.492188 -1.007813,-0.585938 -2.0625,-0.785157 -0.480469,-0.09375 -1.640625,-0.316406 -1.640625,-1.265625 0,-0.503906 0.339844,-1.230468 1.769531,-1.230468 1.734375,0 1.828125,1.476562 1.863281,1.980468 0.02344,0.117188 0.128907,0.117188 0.175782,0.117188 0.175781,0 0.175781,-0.07031 0.175781,-0.363281 z M 7.5699219,98.496469 v -0.363282 h -3.84375 c -1.921875,0 -1.9570313,-0.210937 -2.015625,-0.503906 H 1.3589844 L 0.85507813,100.81678 H 1.2066406 c 0.046875,-0.29297 0.1992188,-1.277343 0.3984375,-1.453124 0.1289063,-0.09375 1.3242188,-0.09375 1.546875,-0.09375 h 3.3867188 l -1.6992188,2.414064 c -0.421875,0.62109 -2.0390625,3.24609 -2.0390625,6.23437 0,0.17578 0,0.82032 0.65625,0.82032 0.6679688,0 0.6679688,-0.6211 0.6679688,-0.83204 v -0.79687 c 0,-2.37891 0.3867187,-4.23047 1.1367187,-5.29688 z m 2.2705078,0.773437 c 0.6914063,0.222656 1.2421873,0.234375 1.4179683,0.234375 1.804688,0 2.953125,-1.324219 2.953125,-1.546875 0,-0.05859 -0.03516,-0.140625 -0.128906,-0.140625 -0.03516,0 -0.07031,0 -0.210937,0.05859 -0.890625,0.386719 -1.652344,0.433594 -2.074219,0.433594 -1.042969,0 -1.792969,-0.316407 -2.0976563,-0.445313 -0.1171875,-0.04687 -0.140625,-0.04687 -0.1640625,-0.04687 -0.1289063,0 -0.1289063,0.09375 -0.1289063,0.351563 v 4.734375 c 0,0.28125 0,0.375 0.1992188,0.375 0.070312,0 0.09375,-0.0117 0.2460937,-0.19922 0.4570316,-0.65625 1.1953126,-1.04297 1.9921876,-1.04297 0.855469,0 1.265625,0.78516 1.394531,1.05469 0.269531,0.62109 0.28125,1.40625 0.28125,2.0039 0,0.60938 0,1.52344 -0.445312,2.23829 -0.351563,0.57421 -0.972657,0.97265 -1.675782,0.97265 -1.042968,0 -2.0859371,-0.71484 -2.3671871,-1.88672 0.082031,0.0352 0.1757813,0.0469 0.2460938,0.0469 0.28125,0 0.703125,-0.15235 0.703125,-0.69141 0,-0.44531 -0.3046875,-0.70312 -0.703125,-0.70312 -0.28125,0 -0.6914063,0.14062 -0.6914063,0.76172 0,1.35937 1.078125,2.90625 2.8476566,2.90625 1.804687,0 3.375,-1.52344 3.375,-3.53907 0,-1.89843 -1.265625,-3.48047 -2.941407,-3.48047 -0.914062,0 -1.617187,0.39844 -2.0273433,0.84375 z m 18.0087893,5.261714 c 0,-1.48828 0,-1.93359 -0.363281,-2.44921 -0.46875,-0.6211 -1.207032,-0.71485 -1.757813,-0.71485 -1.546875,0 -2.144531,1.32422 -2.273437,1.64063 h -0.02344 v -1.64063 l -2.15625,0.17578 v 0.46875 c 1.078125,0 1.207031,0.10547 1.207031,0.89063 v 4.3125 c 0,0.72656 -0.175781,0.72656 -1.207031,0.72656 v 0.45703 c 0.410156,-0.0352 1.265625,-0.0352 1.710938,-0.0352 0.46875,0 1.324218,0 1.746093,0.0352 v -0.45703 c -1.019531,0 -1.21875,0 -1.21875,-0.72656 v -2.96485 c 0,-1.66406 1.101563,-2.5664 2.085938,-2.5664 0.996094,0 1.21875,0.82031 1.21875,1.79297 v 3.73828 c 0,0.72656 -0.175781,0.72656 -1.21875,0.72656 v 0.45703 c 0.421875,-0.0352 1.277344,-0.0352 1.722656,-0.0352 0.46875,0 1.324219,0 1.746094,0.0352 v -0.45703 c -0.796875,0 -1.195313,0 -1.21875,-0.48047 z m 6.776367,-2.87109 c 0,-0.29297 0,-0.375 -0.164063,-0.375 -0.117187,0 -0.421875,0.35156 -0.539062,0.50391 -0.492188,-0.39844 -0.984375,-0.50391 -1.5,-0.50391 -1.921875,0 -2.496094,1.05469 -2.496094,1.93359 0,0.17579 0,0.73829 0.609375,1.28907 0.503906,0.44531 1.042969,0.5625 1.78125,0.70312 0.878906,0.17578 1.078125,0.22266 1.476563,0.53906 0.292968,0.2461 0.503906,0.59766 0.503906,1.04297 0,0.67969 -0.398438,1.44141 -1.804688,1.44141 -1.054687,0 -1.816406,-0.59766 -2.167968,-2.19141 -0.07031,-0.29297 -0.07031,-0.30468 -0.08203,-0.3164 -0.03516,-0.0703 -0.09375,-0.0703 -0.140625,-0.0703 -0.175781,0 -0.175781,0.082 -0.175781,0.36329 v 2.16796 c 0,0.29297 0,0.375 0.152344,0.375 0.08203,0 0.105469,-0.0234 0.375,-0.35156 0.08203,-0.11719 0.08203,-0.15234 0.316406,-0.39844 0.609375,0.75 1.464844,0.75 1.734375,0.75 1.675781,0 2.507813,-0.92578 2.507813,-2.1914 0,-0.85547 -0.527344,-1.3711 -0.667969,-1.51172 -0.574219,-0.49219 -1.007813,-0.58594 -2.0625,-0.78516 -0.480469,-0.0937 -1.640625,-0.3164 -1.640625,-1.26562 0,-0.50391 0.339844,-1.23047 1.769531,-1.23047 1.734375,0 1.828125,1.47656 1.863281,1.98047 0.02344,0.11719 0.128907,0.11719 0.175782,0.11719 0.175781,0 0.175781,-0.0703 0.175781,-0.36329 z M 5.8355469,130.8578 c 0,3.76172 -1.6757813,4.54687 -2.6367188,4.54687 -0.375,0 -1.21875,-0.0469 -1.6171875,-0.60937 h 0.09375 c 0.1054688,0.0352 0.6796875,-0.0586 0.6796875,-0.65625 0,-0.35157 -0.234375,-0.64453 -0.6445312,-0.64453 -0.421875,0 -0.6796875,0.26953 -0.6796875,0.67968 0,0.98438 0.796875,1.66407 2.1914062,1.66407 1.9921875,0 3.9140625,-2.1211 3.9140625,-5.57813 0,-4.28906 -1.78125,-5.35547 -3.1875,-5.35547 -1.7460937,0 -3.29296872,1.46485 -3.29296872,3.5625 0,2.10938 1.47656252,3.53906 3.07031252,3.53906 1.1835937,0 1.7929687,-0.85546 2.109375,-1.67578 z m -2.0390625,0.83203 c -1.0078125,0 -1.4414063,-0.8086 -1.5820313,-1.11328 -0.2578125,-0.60938 -0.2578125,-1.3711 -0.2578125,-2.08594 0,-0.90234 0,-1.66406 0.421875,-2.32031 0.28125,-0.42188 0.7148438,-0.89063 1.5703125,-0.89063 0.9140625,0 1.3710938,0.79688 1.5351563,1.17188 0.3164062,0.77343 0.3164062,2.13281 0.3164062,2.36718 0,1.33594 -0.609375,2.8711 -2.0039062,2.8711 z m 11.1416016,-1.28906 c 0,-1.32422 -0.08203,-2.61329 -0.644531,-3.83204 -0.65625,-1.3125 -1.804688,-1.66406 -2.589844,-1.66406 -0.925781,0 -2.0507813,0.45703 -2.6484376,1.78125 -0.4453125,1.00781 -0.5976562,1.99219 -0.5976562,3.71485 0,1.54687 0.1054687,2.70703 0.6796875,3.84375 0.6210937,1.20703 1.7226563,1.59375 2.5546873,1.59375 1.382813,0 2.179688,-0.83204 2.648438,-1.75782 0.574218,-1.19531 0.597656,-2.7539 0.597656,-3.67968 z m -3.246094,5.10937 c -0.515625,0 -1.546875,-0.28125 -1.8515623,-2.01562 -0.1757813,-0.96094 -0.1757813,-2.16797 -0.1757813,-3.29297 0,-1.30078 0,-2.48438 0.2578125,-3.42188 0.2695311,-1.0664 1.0781251,-1.55859 1.7695311,-1.55859 0.609375,0 1.523438,0.36328 1.828125,1.73437 0.210938,0.91407 0.210938,2.16797 0.210938,3.2461 0,1.07812 0,2.28515 -0.175782,3.25781 -0.304687,1.75781 -1.3125,2.05078 -1.863281,2.05078 z m 16.157227,-3.87891 c 0,-1.48828 0,-1.93359 -0.363281,-2.44921 -0.46875,-0.6211 -1.207032,-0.71485 -1.757813,-0.71485 -1.546875,0 -2.144531,1.32422 -2.273437,1.64063 h -0.02344 v -1.64063 l -2.15625,0.17578 v 0.46875 c 1.078125,0 1.207031,0.10547 1.207031,0.89063 v 4.3125 c 0,0.72656 -0.175781,0.72656 -1.207031,0.72656 v 0.45703 c 0.410156,-0.0352 1.265625,-0.0352 1.710938,-0.0352 0.46875,0 1.324218,0 1.746093,0.0352 v -0.45703 c -1.019531,0 -1.21875,0 -1.21875,-0.72656 v -2.96485 c 0,-1.66406 1.101563,-2.5664 2.085938,-2.5664 0.996094,0 1.21875,0.82031 1.21875,1.79297 v 3.73828 c 0,0.72656 -0.175781,0.72656 -1.21875,0.72656 v 0.45703 c 0.421875,-0.0352 1.277344,-0.0352 1.722656,-0.0352 0.46875,0 1.324219,0 1.746094,0.0352 v -0.45703 c -0.796875,0 -1.195313,0 -1.21875,-0.48047 z m 6.776367,-2.87109 c 0,-0.29297 0,-0.375 -0.164063,-0.375 -0.117187,0 -0.421875,0.35156 -0.539062,0.50391 -0.492188,-0.39844 -0.984375,-0.50391 -1.5,-0.50391 -1.921875,0 -2.496094,1.05469 -2.496094,1.93359 0,0.17579 0,0.73829 0.609375,1.28907 0.503906,0.44531 1.042969,0.5625 1.78125,0.70312 0.878906,0.17578 1.078125,0.22266 1.476563,0.53906 0.292968,0.2461 0.503906,0.59766 0.503906,1.04297 0,0.67969 -0.398438,1.44141 -1.804688,1.44141 -1.054687,0 -1.816406,-0.59766 -2.167968,-2.19141 -0.07031,-0.29297 -0.07031,-0.30468 -0.08203,-0.3164 -0.03516,-0.0703 -0.09375,-0.0703 -0.140625,-0.0703 -0.175781,0 -0.175781,0.082 -0.175781,0.36329 v 2.16796 c 0,0.29297 0,0.375 0.152344,0.375 0.08203,0 0.105469,-0.0234 0.375,-0.35156 0.08203,-0.11719 0.08203,-0.15234 0.316406,-0.39844 0.609375,0.75 1.464844,0.75 1.734375,0.75 1.675781,0 2.507813,-0.92578 2.507813,-2.1914 0,-0.85547 -0.527344,-1.3711 -0.667969,-1.51172 -0.574219,-0.49219 -1.007813,-0.58594 -2.0625,-0.78516 -0.480469,-0.0937 -1.640625,-0.3164 -1.640625,-1.26562 0,-0.50391 0.339844,-1.23047 1.769531,-1.23047 1.734375,0 1.828125,1.47656 1.863281,1.98047 0.02344,0.11719 0.128907,0.11719 0.175782,0.11719 0.175781,0 0.175781,-0.0703 0.175781,-0.36329 z M 4.5933594,152.37928 c 0,-0.36328 0,-0.375 -0.328125,-0.375 -0.375,0.42188 -1.171875,1.01953 -2.8125,1.01953 v 0.45703 c 0.3632812,0 1.1601562,0 2.0390625,-0.41015 v 8.29687 c 0,0.57422 -0.046875,0.77344 -1.453125,0.77344 H 1.5464844 v 0.45703 c 0.4335937,-0.0352 1.9804687,-0.0352 2.4960937,-0.0352 0.5273438,0 2.0625,0 2.4960938,0.0352 V 162.141 H 6.0347656 c -1.3945312,0 -1.4414062,-0.19922 -1.4414062,-0.77344 z m 10.3447266,5.12109 c 0,-1.32421 -0.08203,-2.61328 -0.644531,-3.83203 -0.65625,-1.3125 -1.804688,-1.66406 -2.589844,-1.66406 -0.925781,0 -2.0507813,0.45703 -2.6484376,1.78125 -0.4453125,1.00781 -0.5976562,1.99219 -0.5976562,3.71484 0,1.54688 0.1054687,2.70704 0.6796875,3.84375 0.6210937,1.20704 1.7226563,1.59375 2.5546873,1.59375 1.382813,0 2.179688,-0.83203 2.648438,-1.75781 0.574218,-1.19531 0.597656,-2.7539 0.597656,-3.67969 z m -3.246094,5.10938 c -0.515625,0 -1.546875,-0.28125 -1.8515623,-2.01563 -0.1757813,-0.96093 -0.1757813,-2.16796 -0.1757813,-3.29296 0,-1.30079 0,-2.48438 0.2578125,-3.42188 0.2695311,-1.06641 1.0781251,-1.55859 1.7695311,-1.55859 0.609375,0 1.523438,0.36328 1.828125,1.73437 0.210938,0.91406 0.210938,2.16797 0.210938,3.2461 0,1.07812 0,2.28515 -0.175782,3.25781 -0.304687,1.75781 -1.3125,2.05078 -1.863281,2.05078 z m 5.947266,-9.14063 c 0.691406,0.22266 1.242187,0.23438 1.417969,0.23438 1.804687,0 2.953125,-1.32422 2.953125,-1.54688 0,-0.0586 -0.03516,-0.14062 -0.128907,-0.14062 -0.03516,0 -0.07031,0 -0.210937,0.0586 -0.890625,0.38672 -1.652344,0.4336 -2.074219,0.4336 -1.042969,0 -1.792969,-0.31641 -2.097656,-0.44532 -0.117188,-0.0469 -0.140625,-0.0469 -0.164063,-0.0469 -0.128906,0 -0.128906,0.0937 -0.128906,0.35156 v 4.73438 c 0,0.28125 0,0.375 0.199219,0.375 0.07031,0 0.09375,-0.0117 0.246094,-0.19922 0.457031,-0.65625 1.195312,-1.04297 1.992187,-1.04297 0.855469,0 1.265625,0.78516 1.394531,1.05469 0.269532,0.62109 0.28125,1.40625 0.28125,2.0039 0,0.60938 0,1.52344 -0.445312,2.23828 -0.351563,0.57422 -0.972656,0.97266 -1.675781,0.97266 -1.042969,0 -2.085938,-0.71484 -2.367188,-1.88672 0.08203,0.0352 0.175781,0.0469 0.246094,0.0469 0.28125,0 0.703125,-0.15235 0.703125,-0.69141 0,-0.44531 -0.304688,-0.70312 -0.703125,-0.70312 -0.28125,0 -0.691406,0.14062 -0.691406,0.76171 0,1.35938 1.078125,2.90625 2.847656,2.90625 1.804687,0 3.375,-1.52343 3.375,-3.53906 0,-1.89844 -1.265625,-3.48047 -2.941406,-3.48047 -0.914063,0 -1.617188,0.39844 -2.027344,0.84375 z m 18.011719,5.26172 c 0,-1.48828 0,-1.93359 -0.363282,-2.44922 -0.46875,-0.62109 -1.207031,-0.71484 -1.757812,-0.71484 -1.546875,0 -2.144531,1.32422 -2.273438,1.64063 h -0.02344 v -1.64063 l -2.15625,0.17578 v 0.46875 c 1.078125,0 1.207031,0.10547 1.207031,0.89063 v 4.3125 c 0,0.72656 -0.175781,0.72656 -1.207031,0.72656 v 0.45703 c 0.410156,-0.0352 1.265625,-0.0352 1.710937,-0.0352 0.46875,0 1.324219,0 1.746094,0.0352 V 162.141 c -1.019531,0 -1.21875,0 -1.21875,-0.72656 v -2.96485 c 0,-1.66406 1.101563,-2.5664 2.085938,-2.5664 0.996093,0 1.21875,0.82031 1.21875,1.79297 v 3.73828 c 0,0.72656 -0.175782,0.72656 -1.21875,0.72656 v 0.45703 c 0.421875,-0.0352 1.277343,-0.0352 1.722656,-0.0352 0.46875,0 1.324219,0 1.746094,0.0352 V 162.141 c -0.796875,0 -1.195313,0 -1.21875,-0.48047 z m 6.776367,-2.87109 c 0,-0.29297 0,-0.375 -0.164063,-0.375 -0.117187,0 -0.421875,0.35156 -0.539062,0.50391 -0.492188,-0.39844 -0.984375,-0.50391 -1.5,-0.50391 -1.921875,0 -2.496094,1.05469 -2.496094,1.93359 0,0.17578 0,0.73828 0.609375,1.28907 0.503906,0.44531 1.042969,0.5625 1.78125,0.70312 0.878906,0.17578 1.078125,0.22266 1.476563,0.53906 0.292968,0.2461 0.503906,0.59766 0.503906,1.04297 0,0.67969 -0.398438,1.44141 -1.804688,1.44141 -1.054687,0 -1.816406,-0.59766 -2.167968,-2.19141 -0.07031,-0.29297 -0.07031,-0.30469 -0.08203,-0.3164 -0.03516,-0.0703 -0.09375,-0.0703 -0.140625,-0.0703 -0.175781,0 -0.175781,0.082 -0.175781,0.36328 v 2.16797 c 0,0.29297 0,0.375 0.152344,0.375 0.08203,0 0.105469,-0.0234 0.375,-0.35156 0.08203,-0.11719 0.08203,-0.15234 0.316406,-0.39844 0.609375,0.75 1.464844,0.75 1.734375,0.75 1.675781,0 2.507813,-0.92578 2.507813,-2.1914 0,-0.85547 -0.527344,-1.3711 -0.667969,-1.51172 -0.574219,-0.49219 -1.007813,-0.58594 -2.0625,-0.78516 -0.480469,-0.0937 -1.640625,-0.3164 -1.640625,-1.26562 0,-0.50391 0.339844,-1.23047 1.769531,-1.23047 1.734375,0 1.828125,1.47656 1.863281,1.98047 0.02344,0.11718 0.128907,0.11718 0.175782,0.11718 0.175781,0 0.175781,-0.0703 0.175781,-0.36328 z M 4.5933594,179.47889 c 0,-0.36328 0,-0.375 -0.328125,-0.375 -0.375,0.42188 -1.171875,1.01953 -2.8125,1.01953 v 0.45703 c 0.3632812,0 1.1601562,0 2.0390625,-0.41015 v 8.29687 c 0,0.57422 -0.046875,0.77344 -1.453125,0.77344 H 1.5464844 v 0.45703 c 0.4335937,-0.0352 1.9804687,-0.0352 2.4960937,-0.0352 0.5273438,0 2.0625,0 2.4960938,0.0352 v -0.45703 H 6.0347656 c -1.3945312,0 -1.4414062,-0.19922 -1.4414062,-0.77344 z m 10.2158206,7.54688 h -0.351563 c -0.04687,0.26953 -0.164062,1.13671 -0.328125,1.39453 -0.117187,0.14062 -1.019531,0.14062 -1.5,0.14062 H 9.6763672 c 0.4335938,-0.36328 1.4062498,-1.38281 1.8281248,-1.76953 2.414063,-2.22656 3.304688,-3.05859 3.304688,-4.62891 0,-1.83984 -1.441407,-3.05859 -3.292969,-3.05859 -1.8515626,0 -2.9296876,1.57031 -2.9296876,2.94141 0,0.82031 0.6914063,0.82031 0.75,0.82031 0.328125,0 0.7382816,-0.24609 0.7382816,-0.75 0,-0.44531 -0.2929691,-0.75 -0.7382816,-0.75 -0.1523437,0 -0.1757812,0 -0.2226562,0.0117 0.2929687,-1.07813 1.1601558,-1.81641 2.1914058,-1.81641 1.359375,0 2.191407,1.13672 2.191407,2.60156 0,1.34766 -0.785157,2.53125 -1.699219,3.55079 l -3.2109376,3.59765 v 0.38672 h 5.8124996 z m 7.927734,-2.42579 c 0,-1.32421 -0.08203,-2.61328 -0.644531,-3.83203 -0.65625,-1.3125 -1.804688,-1.66406 -2.589844,-1.66406 -0.925781,0 -2.050781,0.45703 -2.648437,1.78125 -0.445313,1.00781 -0.597657,1.99219 -0.597657,3.71484 0,1.54688 0.105469,2.70704 0.679688,3.84375 0.621094,1.20704 1.722656,1.59375 2.554687,1.59375 1.382813,0 2.179688,-0.83203 2.648438,-1.75781 0.574219,-1.19531 0.597656,-2.7539 0.597656,-3.67969 z m -3.246094,5.10938 c -0.515625,0 -1.546875,-0.28125 -1.851562,-2.01563 -0.175781,-0.96093 -0.175781,-2.16796 -0.175781,-3.29296 0,-1.30079 0,-2.48438 0.257812,-3.42188 0.269531,-1.06641 1.078125,-1.55859 1.769531,-1.55859 0.609375,0 1.523438,0.36328 1.828125,1.73437 0.210938,0.91406 0.210938,2.16797 0.210938,3.2461 0,1.07812 0,2.28515 -0.175781,3.25781 -0.304688,1.75781 -1.3125,2.05078 -1.863282,2.05078 z m 16.160157,-3.87891 c 0,-1.48828 0,-1.93359 -0.363282,-2.44922 -0.46875,-0.62109 -1.207031,-0.71484 -1.757812,-0.71484 -1.546875,0 -2.144531,1.32422 -2.273438,1.64063 h -0.02344 v -1.64063 l -2.15625,0.17578 v 0.46875 c 1.078125,0 1.207031,0.10547 1.207031,0.89063 v 4.3125 c 0,0.72656 -0.175781,0.72656 -1.207031,0.72656 v 0.45703 c 0.410156,-0.0352 1.265625,-0.0352 1.710937,-0.0352 0.46875,0 1.324219,0 1.746094,0.0352 v -0.45703 c -1.019531,0 -1.21875,0 -1.21875,-0.72656 v -2.96485 c 0,-1.66406 1.101563,-2.5664 2.085938,-2.5664 0.996093,0 1.21875,0.82031 1.21875,1.79297 v 3.73828 c 0,0.72656 -0.175782,0.72656 -1.21875,0.72656 v 0.45703 c 0.421875,-0.0352 1.277343,-0.0352 1.722656,-0.0352 0.46875,0 1.324219,0 1.746094,0.0352 v -0.45703 c -0.796875,0 -1.195313,0 -1.21875,-0.48047 z m 6.776367,-2.87109 c 0,-0.29297 0,-0.375 -0.164063,-0.375 -0.117187,0 -0.421875,0.35156 -0.539062,0.50391 -0.492188,-0.39844 -0.984375,-0.50391 -1.5,-0.50391 -1.921875,0 -2.496094,1.05469 -2.496094,1.93359 0,0.17578 0,0.73828 0.609375,1.28907 0.503906,0.44531 1.042969,0.5625 1.78125,0.70312 0.878906,0.17578 1.078125,0.22266 1.476563,0.53906 0.292968,0.2461 0.503906,0.59766 0.503906,1.04297 0,0.67969 -0.398438,1.44141 -1.804688,1.44141 -1.054687,0 -1.816406,-0.59766 -2.167968,-2.19141 -0.07031,-0.29297 -0.07031,-0.30469 -0.08203,-0.3164 -0.03516,-0.0703 -0.09375,-0.0703 -0.140625,-0.0703 -0.175781,0 -0.175781,0.082 -0.175781,0.36328 v 2.16797 c 0,0.29297 0,0.375 0.152344,0.375 0.08203,0 0.105469,-0.0234 0.375,-0.35156 0.08203,-0.11719 0.08203,-0.15234 0.316406,-0.39844 0.609375,0.75 1.464844,0.75 1.734375,0.75 1.675781,0 2.507813,-0.92578 2.507813,-2.1914 0,-0.85547 -0.527344,-1.3711 -0.667969,-1.51172 -0.574219,-0.49219 -1.007813,-0.58594 -2.0625,-0.78516 -0.480469,-0.0937 -1.640625,-0.3164 -1.640625,-1.26562 0,-0.50391 0.339844,-1.23047 1.769531,-1.23047 1.734375,0 1.828125,1.47656 1.863281,1.98047 0.02344,0.11718 0.128907,0.11718 0.175782,0.11718 0.175781,0 0.175781,-0.0703 0.175781,-0.36328 z M 4.5933594,206.57557 c 0,-0.36328 0,-0.375 -0.328125,-0.375 -0.375,0.42188 -1.171875,1.01953 -2.8125,1.01953 v 0.45703 c 0.3632812,0 1.1601562,0 2.0390625,-0.41015 v 8.29687 c 0,0.57422 -0.046875,0.77344 -1.453125,0.77344 H 1.5464844 v 0.45703 c 0.4335937,-0.0352 1.9804687,-0.0352 2.4960937,-0.0352 0.5273438,0 2.0625,0 2.4960938,0.0352 v -0.45703 H 6.0347656 c -1.3945312,0 -1.4414062,-0.19922 -1.4414062,-0.77344 z m 6.1376956,4.5 c -0.269532,0.0117 -0.328125,0.0234 -0.328125,0.17578 0,0.15235 0.07031,0.15235 0.363281,0.15235 h 0.738281 c 1.347656,0 1.957031,1.125 1.957031,2.64843 0,2.08594 -1.089843,2.64844 -1.863281,2.64844 -0.773437,0 -2.0742186,-0.36328 -2.5429686,-1.41797 0.515625,0.082 0.9726566,-0.21094 0.9726566,-0.78515 0,-0.45704 -0.3281253,-0.77344 -0.7734378,-0.77344 -0.3867188,0 -0.796875,0.22265 -0.796875,0.82031 0,1.41797 1.4179687,2.58984 3.1874998,2.58984 1.898438,0 3.292969,-1.45312 3.292969,-3.07031 0,-1.46484 -1.171875,-2.61328 -2.707031,-2.88281 1.382812,-0.39844 2.285156,-1.55859 2.285156,-2.80078 0,-1.26563 -1.3125,-2.17969 -2.859375,-2.17969 -1.59375,0 -2.7773438,0.97266 -2.7773438,2.13281 0,0.63282 0.5039062,0.76172 0.7382812,0.76172 0.3398438,0 0.7148436,-0.23437 0.7148436,-0.71484 0,-0.51563 -0.3749998,-0.73828 -0.7265623,-0.73828 -0.09375,0 -0.1289063,0 -0.1757813,0.0234 0.5976566,-1.08984 2.0976566,-1.08984 2.1796876,-1.08984 0.527344,0 1.558594,0.24609 1.558594,1.80469 0,0.30469 -0.04687,1.19531 -0.503907,1.875 -0.480468,0.70312 -1.019531,0.75 -1.453125,0.77344 z m 6.908203,-3.41016 c 0.691406,0.22266 1.242187,0.23438 1.417969,0.23438 1.804687,0 2.953125,-1.32422 2.953125,-1.54688 0,-0.0586 -0.03516,-0.14062 -0.128907,-0.14062 -0.03516,0 -0.07031,0 -0.210937,0.0586 -0.890625,0.38672 -1.652344,0.4336 -2.074219,0.4336 -1.042969,0 -1.792969,-0.31641 -2.097656,-0.44532 -0.117188,-0.0469 -0.140625,-0.0469 -0.164063,-0.0469 -0.128906,0 -0.128906,0.0937 -0.128906,0.35156 v 4.73438 c 0,0.28125 0,0.375 0.199219,0.375 0.07031,0 0.09375,-0.0117 0.246094,-0.19922 0.457031,-0.65625 1.195312,-1.04297 1.992187,-1.04297 0.855469,0 1.265625,0.78516 1.394531,1.05469 0.269532,0.62109 0.28125,1.40625 0.28125,2.0039 0,0.60938 0,1.52344 -0.445312,2.23828 -0.351563,0.57422 -0.972656,0.97266 -1.675781,0.97266 -1.042969,0 -2.085938,-0.71484 -2.367188,-1.88672 0.08203,0.0352 0.175781,0.0469 0.246094,0.0469 0.28125,0 0.703125,-0.15235 0.703125,-0.69141 0,-0.44531 -0.304688,-0.70312 -0.703125,-0.70312 -0.28125,0 -0.691406,0.14062 -0.691406,0.76171 0,1.35938 1.078125,2.90625 2.847656,2.90625 1.804687,0 3.375,-1.52343 3.375,-3.53906 0,-1.89844 -1.265625,-3.48047 -2.941406,-3.48047 -0.914063,0 -1.617188,0.39844 -2.027344,0.84375 z m 18.011719,5.26172 c 0,-1.48828 0,-1.93359 -0.363282,-2.44922 -0.46875,-0.62109 -1.207031,-0.71484 -1.757812,-0.71484 -1.546875,0 -2.144531,1.32422 -2.273438,1.64063 h -0.02344 v -1.64063 l -2.15625,0.17578 v 0.46875 c 1.078125,0 1.207031,0.10547 1.207031,0.89063 v 4.3125 c 0,0.72656 -0.175781,0.72656 -1.207031,0.72656 v 0.45703 c 0.410156,-0.0352 1.265625,-0.0352 1.710937,-0.0352 0.46875,0 1.324219,0 1.746094,0.0352 v -0.45703 c -1.019531,0 -1.21875,0 -1.21875,-0.72656 v -2.96485 c 0,-1.66406 1.101563,-2.5664 2.085938,-2.5664 0.996093,0 1.21875,0.82031 1.21875,1.79297 v 3.73828 c 0,0.72656 -0.175782,0.72656 -1.21875,0.72656 v 0.45703 c 0.421875,-0.0352 1.277343,-0.0352 1.722656,-0.0352 0.46875,0 1.324219,0 1.746094,0.0352 v -0.45703 c -0.796875,0 -1.195313,0 -1.21875,-0.48047 z m 6.776367,-2.87109 c 0,-0.29297 0,-0.375 -0.164063,-0.375 -0.117187,0 -0.421875,0.35156 -0.539062,0.50391 -0.492188,-0.39844 -0.984375,-0.50391 -1.5,-0.50391 -1.921875,0 -2.496094,1.05469 -2.496094,1.93359 0,0.17578 0,0.73828 0.609375,1.28907 0.503906,0.44531 1.042969,0.5625 1.78125,0.70312 0.878906,0.17578 1.078125,0.22266 1.476563,0.53906 0.292968,0.2461 0.503906,0.59766 0.503906,1.04297 0,0.67969 -0.398438,1.44141 -1.804688,1.44141 -1.054687,0 -1.816406,-0.59766 -2.167968,-2.19141 -0.07031,-0.29297 -0.07031,-0.30469 -0.08203,-0.3164 -0.03516,-0.0703 -0.09375,-0.0703 -0.140625,-0.0703 -0.175781,0 -0.175781,0.082 -0.175781,0.36328 v 2.16797 c 0,0.29297 0,0.375 0.152344,0.375 0.08203,0 0.105469,-0.0234 0.375,-0.35156 0.08203,-0.11719 0.08203,-0.15234 0.316406,-0.39844 0.609375,0.75 1.464844,0.75 1.734375,0.75 1.675781,0 2.507813,-0.92578 2.507813,-2.1914 0,-0.85547 -0.527344,-1.3711 -0.667969,-1.51172 -0.574219,-0.49219 -1.007813,-0.58594 -2.0625,-0.78516 -0.480469,-0.0937 -1.640625,-0.3164 -1.640625,-1.26562 0,-0.50391 0.339844,-1.23047 1.769531,-1.23047 1.734375,0 1.828125,1.47656 1.863281,1.98047 0.02344,0.11718 0.128907,0.11718 0.175782,0.11718 0.175781,0 0.175781,-0.0703 0.175781,-0.36328 z M 4.5933594,233.67811 c 0,-0.36328 0,-0.375 -0.328125,-0.375 -0.375,0.42187 -1.171875,1.01953 -2.8125,1.01953 v 0.45703 c 0.3632812,0 1.1601562,0 2.0390625,-0.41015 v 8.29687 c 0,0.57422 -0.046875,0.77344 -1.453125,0.77344 H 1.5464844 v 0.45703 c 0.4335937,-0.0352 1.9804687,-0.0352 2.4960937,-0.0352 0.5273438,0 2.0625,0 2.4960938,0.0352 v -0.45703 H 6.0347656 c -1.3945312,0 -1.4414062,-0.19922 -1.4414062,-0.77344 z m 5.2470703,1.08984 c 0.6914063,0.22266 1.2421873,0.23438 1.4179683,0.23438 1.804688,0 2.953125,-1.32422 2.953125,-1.54688 0,-0.0586 -0.03516,-0.14062 -0.128906,-0.14062 -0.03516,0 -0.07031,0 -0.210937,0.0586 -0.890625,0.38672 -1.652344,0.4336 -2.074219,0.4336 -1.042969,0 -1.792969,-0.31641 -2.0976563,-0.44532 -0.1171875,-0.0469 -0.140625,-0.0469 -0.1640625,-0.0469 -0.1289063,0 -0.1289063,0.0937 -0.1289063,0.35156 v 4.73438 c 0,0.28125 0,0.375 0.1992188,0.375 0.070312,0 0.09375,-0.0117 0.2460937,-0.19922 0.4570316,-0.65625 1.1953126,-1.04297 1.9921876,-1.04297 0.855469,0 1.265625,0.78515 1.394531,1.05469 0.269531,0.62109 0.28125,1.40625 0.28125,2.0039 0,0.60938 0,1.52344 -0.445312,2.23828 -0.351563,0.57422 -0.972657,0.97266 -1.675782,0.97266 -1.042968,0 -2.0859371,-0.71484 -2.3671871,-1.88672 0.082031,0.0352 0.1757813,0.0469 0.2460938,0.0469 0.28125,0 0.703125,-0.15235 0.703125,-0.69141 0,-0.44531 -0.3046875,-0.70313 -0.703125,-0.70313 -0.28125,0 -0.6914063,0.14063 -0.6914063,0.76172 0,1.35938 1.078125,2.90625 2.8476566,2.90625 1.804687,0 3.375,-1.52343 3.375,-3.53906 0,-1.89844 -1.265625,-3.48047 -2.941407,-3.48047 -0.914062,0 -1.617187,0.39844 -2.0273433,0.84375 z m 12.8964843,4.03125 c 0,-1.32422 -0.08203,-2.61328 -0.644531,-3.83203 -0.65625,-1.3125 -1.804688,-1.66406 -2.589844,-1.66406 -0.925781,0 -2.050781,0.45703 -2.648437,1.78125 -0.445313,1.00781 -0.597657,1.99219 -0.597657,3.71484 0,1.54688 0.105469,2.70703 0.679688,3.84375 0.621094,1.20703 1.722656,1.59375 2.554687,1.59375 1.382813,0 2.179688,-0.83203 2.648438,-1.75781 0.574219,-1.19531 0.597656,-2.75391 0.597656,-3.67969 z m -3.246094,5.10938 c -0.515625,0 -1.546875,-0.28125 -1.851562,-2.01563 -0.175781,-0.96093 -0.175781,-2.16797 -0.175781,-3.29297 0,-1.30078 0,-2.48437 0.257812,-3.42187 0.269531,-1.06641 1.078125,-1.55859 1.769531,-1.55859 0.609375,0 1.523438,0.36328 1.828125,1.73437 0.210938,0.91406 0.210938,2.16797 0.210938,3.24609 0,1.07813 0,2.28516 -0.175781,3.25782 -0.304688,1.75781 -1.3125,2.05078 -1.863282,2.05078 z m 16.160157,-3.87891 c 0,-1.48828 0,-1.93359 -0.363282,-2.44922 -0.46875,-0.62109 -1.207031,-0.71484 -1.757812,-0.71484 -1.546875,0 -2.144531,1.32422 -2.273438,1.64062 h -0.02344 v -1.64062 l -2.15625,0.17578 v 0.46875 c 1.078125,0 1.207031,0.10547 1.207031,0.89063 v 4.3125 c 0,0.72656 -0.175781,0.72656 -1.207031,0.72656 v 0.45703 c 0.410156,-0.0352 1.265625,-0.0352 1.710937,-0.0352 0.46875,0 1.324219,0 1.746094,0.0352 v -0.45703 c -1.019531,0 -1.21875,0 -1.21875,-0.72656 v -2.96485 c 0,-1.66406 1.101563,-2.5664 2.085938,-2.5664 0.996093,0 1.21875,0.82031 1.21875,1.79296 v 3.73829 c 0,0.72656 -0.175782,0.72656 -1.21875,0.72656 v 0.45703 c 0.421875,-0.0352 1.277343,-0.0352 1.722656,-0.0352 0.46875,0 1.324219,0 1.746094,0.0352 v -0.45703 c -0.796875,0 -1.195313,0 -1.21875,-0.48047 z m 6.776367,-2.87109 c 0,-0.29297 0,-0.375 -0.164063,-0.375 -0.117187,0 -0.421875,0.35156 -0.539062,0.5039 -0.492188,-0.39843 -0.984375,-0.5039 -1.5,-0.5039 -1.921875,0 -2.496094,1.05469 -2.496094,1.93359 0,0.17578 0,0.73828 0.609375,1.28906 0.503906,0.44532 1.042969,0.5625 1.78125,0.70313 0.878906,0.17578 1.078125,0.22266 1.476563,0.53906 0.292968,0.2461 0.503906,0.59766 0.503906,1.04297 0,0.67969 -0.398438,1.44141 -1.804688,1.44141 -1.054687,0 -1.816406,-0.59766 -2.167968,-2.19141 -0.07031,-0.29297 -0.07031,-0.30469 -0.08203,-0.31641 -0.03516,-0.0703 -0.09375,-0.0703 -0.140625,-0.0703 -0.175781,0 -0.175781,0.082 -0.175781,0.36328 v 2.16797 c 0,0.29297 0,0.375 0.152344,0.375 0.08203,0 0.105469,-0.0234 0.375,-0.35156 0.08203,-0.11719 0.08203,-0.15234 0.316406,-0.39844 0.609375,0.75 1.464844,0.75 1.734375,0.75 1.675781,0 2.507813,-0.92578 2.507813,-2.1914 0,-0.85547 -0.527344,-1.3711 -0.667969,-1.51172 -0.574219,-0.49219 -1.007813,-0.58594 -2.0625,-0.78516 -0.480469,-0.0937 -1.640625,-0.31641 -1.640625,-1.26562 0,-0.50391 0.339844,-1.23047 1.769531,-1.23047 1.734375,0 1.828125,1.47656 1.863281,1.98047 0.02344,0.11718 0.128907,0.11718 0.175782,0.11718 0.175781,0 0.175781,-0.0703 0.175781,-0.36328 z m 0,0"
       style="fill:#000000;fill-opacity:1;fill-rule:nonzero;stroke:none"
       aria-label="15ns&#10;30ns&#10;45ns&#10;60ns&#10;75ns&#10;90ns&#10;105ns&#10;120ns&#10;135ns&#10;150ns"
       transform="matrix(1.3333333,0,0,1.3333333,82.133333,33.812)" />
  </g>
</svg>
