<?xml version="1.0" encoding="UTF-8" standalone="no"?>
<!-- Created with Inkscape (http://www.inkscape.org/) -->

<svg
   version="1.1"
   id="svg1"
   width="282.85547"
   height="87.148438"
   viewBox="0 0 282.85547 87.148438"
   xmlns="http://www.w3.org/2000/svg"
   xmlns:svg="http://www.w3.org/2000/svg">
  <defs
     id="defs1" />
  <g
     id="g1"
     transform="translate(-5.1640627,-3.9882811)">
    <path
       id="path1"
       d="m 2.8606406,-6.8095469 c 0,0 0,-0.1054687 -0.1289062,-0.1054687 -0.234375,0 -0.9609375,0.082031 -1.21875,0.1054687 -0.082031,0 -0.1875,0.011719 -0.1875,0.1992188 0,0.1171875 0.09375,0.1171875 0.234375,0.1171875 0.4804687,0 0.5039062,0.070312 0.5039062,0.1640625 l -0.035156,0.1992187 -1.44140628,5.74218753 c -0.0351563,0.140625 -0.0351563,0.15234375 -0.0351563,0.22265625 0,0.22265625 0.19921875,0.26953125 0.28125,0.26953125 0.1640625,0 0.32812498,-0.1171875 0.37499998,-0.2578125 l 0.1875,-0.75 0.2226562,-0.90234373 c 0.058594,-0.2226563 0.1171875,-0.4335938 0.1640625,-0.6679688 0.023437,-0.058594 0.1054688,-0.3867187 0.1171875,-0.4453125 0.023437,-0.09375 0.3281251,-0.6445312 0.6679688,-0.9140625 0.2226562,-0.1640625 0.5273437,-0.3515625 0.9609375,-0.3515625 0.421875,0 0.5390625,0.3398438 0.5390625,0.6914063 0,0.5390625 -0.375,1.6289062 -0.6210938,2.2382812 -0.082031,0.2226563 -0.1289062,0.35156253 -0.1289062,0.55078128 0,0.46875 0.3515625,0.80859375 0.8203125,0.80859375 0.9375,0 1.3007812,-1.45312503 1.3007812,-1.53515623 0,-0.09375 -0.09375,-0.09375 -0.1171875,-0.09375 -0.1054687,0 -0.1054687,0.023437 -0.1523437,0.1757812 -0.1523438,0.52734378 -0.46875,1.24218753 -1.0195313,1.24218753 -0.1640624,0 -0.2343749,-0.10546875 -0.2343749,-0.328125 0,-0.2578125 0.09375,-0.4921875 0.1757812,-0.71484373 0.1640625,-0.421875 0.609375,-1.6054688 0.609375,-2.1914063 0,-0.6445312 -0.3984375,-1.0664062 -1.1484375,-1.0664062 -0.6210938,0 -1.1015625,0.3164062 -1.4648437,0.7734375 z m 5.1064453,2.5195313 c 0,-0.011719 0,-0.1171875 -0.1289062,-0.1171875 -0.2226563,0 -0.9492188,0.082031 -1.2070313,0.1054687 -0.082031,0.011719 -0.1875,0.011719 -0.1875,0.1992188 0,0.1171875 0.082031,0.1171875 0.234375,0.1171875 0.4804688,0 0.4921875,0.070312 0.4921875,0.1640625 0,0.070312 -0.1171875,0.5390625 -0.1875,0.8085937 l -0.609375,2.44921878 c -0.035156,0.140625 -0.1054687,0.421875 -0.1054687,0.4453125 0,0.10546875 0.1054687,0.117187495 0.1640625,0.117187495 h 0.140625 c 0.6914062,-0.117187495 1.78125,-0.503906245 2.8007812,-1.464843775 1.3125001,-1.2304687 1.5820311,-2.578125 1.5820311,-2.671875 0,-0.1640625 -0.117187,-0.2695312 -0.28125,-0.2695312 -0.08203,0 -0.316406,0.046875 -0.386719,0.328125 -0.6445308,2.2617187 -2.1562496,3.37499998 -3.2929683,3.74999998 z m 0,0"
       style="fill:#000000;fill-opacity:1;fill-rule:nonzero;stroke:none"
       aria-label="hν"
       transform="matrix(1.3333333,0,0,1.3333333,4.428,52.665333)" />
    <path
       id="path2"
       d="m 0.35033594,-6.8085547 v 0.3164063 h 0.234375 c 0.77343746,0 0.78515626,0.1054687 0.78515626,0.46875 v 5.24999996 c 0,0.3515625 -0.011719,0.46875 -0.78515626,0.46875 h -0.234375 V 3.90625e-5 H 3.9948672 c 1.6757812,0 3.046875,-1.4765624625 3.046875,-3.3515624625 0,-1.8867188 -1.3476563,-3.4570313 -3.046875,-3.4570313 z m 2.36718746,6.50390626 c -0.46875,0 -0.4921875,-0.0703125 -0.4921875,-0.3984375 V -6.0937109 c 0,-0.328125 0.023437,-0.3984375 0.4921875,-0.3984375 h 0.9960938 c 0.6210937,0 1.3007812,0.2109375 1.8164062,0.9257812 0.421875,0.5859375 0.515625,1.4414063 0.515625,2.2148438 0,1.1132812 -0.1875,1.7109375 -0.5507812,2.1914062 -0.1992188,0.26953126 -0.7617188,0.85546876 -1.7695313,0.85546876 z M 12.297602,-2.1327734 c 0,-1.2773438 -0.996094,-2.3320313 -2.191407,-2.3320313 -1.2539059,0 -2.2148434,1.0898438 -2.2148434,2.3320313 0,1.28906246 1.03125,2.23828121 2.2031254,2.23828121 1.207031,0 2.203125,-0.97265625 2.203125,-2.23828121 z m -2.191407,1.99218746 c -0.4335934,0 -0.8671872,-0.2109375 -1.1367184,-0.66796875 C 8.7116641,-1.2421484 8.7116641,-1.8515234 8.7116641,-2.2148047 c 0,-0.3867187 0,-0.9257812 0.2460937,-1.359375 0.2695313,-0.4570312 0.7382813,-0.6679687 1.1367192,-0.6679687 0.433593,0 0.867187,0.2226562 1.125,0.6445312 0.257812,0.4335938 0.257812,1.0078125 0.257812,1.3828125 0,0.3632813 0,0.9023438 -0.222656,1.33593751 -0.222656,0.4453125 -0.65625,0.73828125 -1.148438,0.73828125 z m 3.585938,-3.28124996 v 2.66015621 c 0,0.45703125 -0.117188,0.45703125 -0.785156,0.45703125 V 3.90625e-5 c 0.351562,-0.0117187525 0.855468,-0.0351562525 1.125,-0.0351562525 0.257812,0 0.785156,0.0234375 1.113281,0.0351562525 V -0.30464844 c -0.65625,0 -0.773438,0 -0.773438,-0.45703125 V -2.5898047 c 0,-1.03125 0.714844,-1.59375 1.347657,-1.59375 0.621093,0 0.738281,0.5390625 0.738281,1.1015625 v 2.32031251 c 0,0.45703125 -0.117188,0.45703125 -0.773438,0.45703125 V 3.90625e-5 c 0.339844,-0.0117187525 0.855469,-0.0351562525 1.125,-0.0351562525 0.257813,0 0.773438,0.0234375 1.113282,0.0351562525 V -0.30464844 c -0.515625,0 -0.773438,0 -0.785157,-0.3046875 V -2.5077734 c 0,-0.8554688 0,-1.171875 -0.304687,-1.5234375 -0.140625,-0.1757813 -0.46875,-0.375 -1.042969,-0.375 -0.726562,0 -1.195312,0.4335937 -1.476562,1.0546875 v -1.0546875 l -1.40625,0.1171875 v 0.3046875 c 0.703125,0 0.785156,0.070312 0.785156,0.5625 z m 9.123047,1.2890625 c 0,-1.2773438 -0.996094,-2.3320313 -2.191407,-2.3320313 -1.253906,0 -2.214843,1.0898438 -2.214843,2.3320313 0,1.28906246 1.03125,2.23828121 2.203125,2.23828121 1.207031,0 2.203125,-0.97265625 2.203125,-2.23828121 z m -2.191407,1.99218746 c -0.433593,0 -0.867187,-0.2109375 -1.136718,-0.66796875 -0.257813,-0.43359371 -0.257813,-1.04296871 -0.257813,-1.40625001 0,-0.3867187 0,-0.9257812 0.246094,-1.359375 0.269531,-0.4570312 0.738281,-0.6679687 1.136719,-0.6679687 0.433593,0 0.867187,0.2226562 1.125,0.6445312 0.257812,0.4335938 0.257812,1.0078125 0.257812,1.3828125 0,0.3632813 0,0.9023438 -0.222656,1.33593751 -0.222656,0.4453125 -0.65625,0.73828125 -1.148438,0.73828125 z m 4.148438,-3.16406246 v -1.1015625 l -1.382813,0.1171875 v 0.3046875 c 0.691407,0 0.773438,0.070312 0.773438,0.5625 v 2.66015621 c 0,0.45703125 -0.105469,0.45703125 -0.773438,0.45703125 V 3.90625e-5 C 23.776117,-0.01167969 24.244867,-0.03511719 24.526117,-0.03511719 c 0.398438,0 0.867188,0 1.265625,0.0351562525 V -0.30464844 h -0.210937 c -0.738282,0 -0.761719,-0.1171875 -0.761719,-0.46875 V -2.3085547 c 0,-0.984375 0.421875,-1.875 1.183594,-1.875 0.05859,0 0.08203,0 0.105468,0.011719 -0.03516,0.011719 -0.234375,0.1289062 -0.234375,0.3867187 0,0.28125 0.210938,0.4335938 0.433594,0.4335938 0.175781,0 0.421875,-0.1289063 0.421875,-0.4453125 0,-0.3164063 -0.304687,-0.609375 -0.726562,-0.609375 -0.738282,0 -1.089844,0.6679687 -1.230469,1.1015623 z m 5.90625,-3.5039063 v 0.3164063 h 0.234375 c 0.773437,0 0.785156,0.1054687 0.785156,0.46875 v 5.24999996 c 0,0.3515625 -0.01172,0.46875 -0.785156,0.46875 H 30.678461 V 3.90625e-5 h 3.644531 c 1.675781,0 3.046875,-1.4765624625 3.046875,-3.3515624625 0,-1.8867188 -1.347656,-3.4570313 -3.046875,-3.4570313 z m 2.367187,6.50390626 c -0.46875,0 -0.492187,-0.0703125 -0.492187,-0.3984375 V -6.0937109 c 0,-0.328125 0.02344,-0.3984375 0.492187,-0.3984375 h 0.996094 c 0.621094,0 1.300781,0.2109375 1.816406,0.9257812 0.421875,0.5859375 0.515625,1.4414063 0.515625,2.2148438 0,1.1132812 -0.1875,1.7109375 -0.550781,2.1914062 -0.199219,0.26953126 -0.761719,0.85546876 -1.769531,0.85546876 z m 0,0"
       style="fill:#000000;fill-opacity:1;fill-rule:nonzero;stroke:none"
       aria-label="DonorD"
       transform="matrix(1.3333333,0,0,1.3333333,24.458667,90.386667)" />
    <path
       id="path3"
       d="m 3.9595156,-6.9385703 c -0.046875,-0.1289063 -0.070312,-0.1992188 -0.2226562,-0.1992188 -0.1640625,0 -0.1875,0.058594 -0.2460938,0.1992188 l -2.0625,5.96484374 c -0.1757812,0.50390625 -0.57421872,0.65625 -1.11328122,0.66796875 v 0.3046875 c 0.234375,-0.01171875 0.65625,-0.03515625 1.01953122,-0.03515625 0.3046875,0 0.8203125,0.0234375 1.1484375,0.03515625 v -0.3046875 c -0.5039062,0 -0.75,-0.2578125 -0.75,-0.515625 0,-0.0234375 0.011719,-0.12890625 0.023437,-0.140625 L 2.2134219,-2.2745078 h 2.4609375 l 0.5273437,1.52343749 c 0.011719,0.046875 0.023437,0.10546875 0.023437,0.140625 0,0.3046875 -0.5507812,0.3046875 -0.8203125,0.3046875 v 0.3046875 c 0.3515625,-0.03515625 1.0546875,-0.03515625 1.4296875,-0.03515625 0.4335938,0 0.890625,0.01171875 1.3007813,0.03515625 v -0.3046875 H 6.9595156 c -0.5976562,0 -0.7382812,-0.0703125 -0.84375,-0.3984375 z m -0.5273437,1.125 1.125,3.234375 H 2.3188906 Z m 5.2001953,3.6445312 c 0,-1.6289062 0.8203125,-2.0507812 1.3476562,-2.0507812 0.09375,0 0.7148436,0.011719 1.0664066,0.375 -0.410157,0.023437 -0.46875,0.328125 -0.46875,0.4570312 0,0.2578125 0.1875,0.4570313 0.457031,0.4570313 0.257812,0 0.457031,-0.1640625 0.457031,-0.46875 0,-0.6796875 -0.75,-1.0664063 -1.5234373,-1.0664063 -1.2421875,0 -2.15625,1.078125 -2.15625,2.3085938 0,1.27734374 0.984375,2.26171874 2.1445312,2.26171874 1.3359371,0 1.6523441,-1.19531254 1.6523441,-1.28906254 0,-0.1054687 -0.105469,-0.1054687 -0.128907,-0.1054687 -0.09375,0 -0.117187,0.046875 -0.128906,0.1054687 -0.292969,0.92578129 -0.9375,1.04296879 -1.3125,1.04296879 -0.5273436,0 -1.4062498,-0.421875 -1.4062498,-2.02734379 z m 4.4267578,0 c 0,-1.6289062 0.820313,-2.0507812 1.347656,-2.0507812 0.09375,0 0.714844,0.011719 1.066407,0.375 -0.410157,0.023437 -0.46875,0.328125 -0.46875,0.4570312 0,0.2578125 0.1875,0.4570313 0.457031,0.4570313 0.257812,0 0.457031,-0.1640625 0.457031,-0.46875 0,-0.6796875 -0.75,-1.0664063 -1.523437,-1.0664063 -1.242188,0 -2.15625,1.078125 -2.15625,2.3085938 0,1.27734374 0.984375,2.26171874 2.144531,2.26171874 1.335937,0 1.652344,-1.19531254 1.652344,-1.28906254 0,-0.1054687 -0.105469,-0.1054687 -0.128907,-0.1054687 -0.09375,0 -0.117187,0.046875 -0.128906,0.1054687 -0.292969,0.92578129 -0.9375,1.04296879 -1.3125,1.04296879 -0.527344,0 -1.40625,-0.421875 -1.40625,-2.02734379 z m 4.379883,-0.3398437 c 0.05859,-1.4882813 0.902344,-1.734375 1.242187,-1.734375 1.019532,0 1.125,1.3476562 1.125,1.734375 z m -0.01172,0.2109375 h 2.789063 c 0.210937,0 0.246093,0 0.246093,-0.2109375 0,-0.984375 -0.539062,-1.9570313 -1.78125,-1.9570313 -1.160156,0 -2.074218,1.03125 -2.074218,2.2734375 0,1.33593754 1.042968,2.29687504 2.191406,2.29687504 1.21875,0 1.664062,-1.1015625 1.664062,-1.28906254 0,-0.1054687 -0.08203,-0.1171875 -0.128906,-0.1171875 -0.09375,0 -0.117187,0.058594 -0.128906,0.140625 -0.351563,1.01953129 -1.253906,1.01953129 -1.347656,1.01953129 -0.503907,0 -0.902344,-0.29296875 -1.125,-0.66796875 C 17.427289,-1.2901328 17.427289,-1.9463828 17.427288,-2.2979453 Z m 5.039063,-1.453125 v -0.65625 l -1.429688,0.1171875 v 0.3046875 c 0.703125,0 0.773438,0.058594 0.773438,0.4921875 v 4.6640625 c 0,0.4570312 -0.105469,0.4570312 -0.773438,0.4570312 v 0.3046875 c 0.339844,-0.011719 0.855469,-0.035156 1.113281,-0.035156 0.269532,0 0.773438,0.023437 1.125,0.035156 V 1.6278359 c -0.667968,0 -0.773437,0 -0.773437,-0.4570312 v -1.75781251 c 0.04687,0.15234375 0.46875,0.69140625 1.21875,0.69140625 1.183594,0 2.226562,-0.97265625 2.226562,-2.26171874 0,-1.265625 -0.972656,-2.25 -2.085937,-2.25 -0.773438,0 -1.195313,0.4453125 -1.394531,0.65625 z m 0.03516,2.6132812 v -2.2148437 c 0.28125,-0.515625 0.773437,-0.796875 1.277344,-0.796875 0.726562,0 1.335937,0.8671875 1.335937,1.9921875 0,1.20703124 -0.691406,2.05078124 -1.429687,2.05078124 -0.398438,0 -0.773438,-0.19921875 -1.042969,-0.609375 -0.140625,-0.2109375 -0.140625,-0.22265625 -0.140625,-0.42187504 z m 5.510742,-2.8476562 h 1.429688 V -4.2901328 H 28.01225 v -1.8398438 h -0.246094 c -0.01172,0.8203125 -0.316406,1.8867188 -1.289062,1.921875 v 0.2226563 h 0.84375 v 2.7539062 c 0,1.21875004 0.925781,1.33593754 1.289062,1.33593754 0.703125,0 0.984375,-0.703125 0.984375,-1.33593754 v -0.5742187 h -0.246093 v 0.5507812 c 0,0.73828129 -0.304688,1.11328129 -0.667969,1.11328129 -0.667969,0 -0.667969,-0.90234379 -0.667969,-1.07812499 z m 6.837891,1.8515625 c 0,-1.2773438 -0.996094,-2.3320313 -2.191407,-2.3320313 -1.253906,0 -2.214843,1.0898438 -2.214843,2.3320313 0,1.28906249 1.03125,2.23828124 2.203125,2.23828124 1.207031,0 2.203125,-0.97265625 2.203125,-2.23828124 z m -2.191407,1.99218749 c -0.433593,0 -0.867187,-0.2109375 -1.136718,-0.66796875 -0.257813,-0.43359374 -0.257813,-1.04296874 -0.257813,-1.40625004 0,-0.3867187 0,-0.9257812 0.246094,-1.359375 0.269531,-0.4570312 0.738281,-0.6679687 1.136719,-0.6679687 0.433593,0 0.867187,0.2226562 1.125,0.6445312 0.257812,0.4335938 0.257812,1.0078125 0.257812,1.3828125 0,0.3632813 0,0.9023438 -0.222656,1.33593754 -0.222656,0.4453125 -0.65625,0.73828125 -1.148438,0.73828125 z m 4.151368,-3.16406249 v -1.1015625 l -1.382813,0.1171875 v 0.3046875 c 0.691406,0 0.773438,0.070312 0.773438,0.5625 v 2.66015624 c 0,0.45703125 -0.105469,0.45703125 -0.773438,0.45703125 v 0.3046875 c 0.386719,-0.01171875 0.855469,-0.03515625 1.136719,-0.03515625 0.398437,0 0.867187,0 1.265625,0.03515625 v -0.3046875 h -0.210938 c -0.738281,0 -0.761718,-0.1171875 -0.761718,-0.46875 V -2.3096641 c 0,-0.984375 0.421875,-1.875 1.183593,-1.875 0.05859,0 0.08203,0 0.105469,0.011719 -0.03516,0.011719 -0.234375,0.1289062 -0.234375,0.3867187 0,0.28125 0.210938,0.4335938 0.433594,0.4335938 0.175781,0 0.421875,-0.1289063 0.421875,-0.4453125 0,-0.3164063 -0.304688,-0.609375 -0.726563,-0.609375 -0.738281,0 -1.089843,0.6679687 -1.230468,1.1015623 z m 9.515625,-3.6328125 c -0.04687,-0.1289063 -0.07031,-0.1992188 -0.222657,-0.1992188 -0.164062,0 -0.1875,0.058594 -0.246093,0.1992188 l -2.0625,5.96484374 c -0.175782,0.50390625 -0.574219,0.65625 -1.113282,0.66796875 v 0.3046875 c 0.234375,-0.01171875 0.65625,-0.03515625 1.019532,-0.03515625 0.304687,0 0.820312,0.0234375 1.148437,0.03515625 v -0.3046875 c -0.503906,0 -0.75,-0.2578125 -0.75,-0.515625 0,-0.0234375 0.01172,-0.12890625 0.02344,-0.140625 l 0.457031,-1.31249999 h 2.460937 l 0.527344,1.52343749 c 0.01172,0.046875 0.02344,0.10546875 0.02344,0.140625 0,0.3046875 -0.550782,0.3046875 -0.820313,0.3046875 v 0.3046875 c 0.351563,-0.03515625 1.054688,-0.03515625 1.429688,-0.03515625 0.433593,0 0.890625,0.01171875 1.300781,0.03515625 v -0.3046875 h -0.175781 c -0.597657,0 -0.738282,-0.0703125 -0.84375,-0.3984375 z m -0.527344,1.125 1.125,3.234375 h -2.238281 z m 0,0"
       style="fill:#000000;fill-opacity:1;fill-rule:nonzero;stroke:none"
       aria-label="AcceptorA"
       transform="matrix(1.3333333,0,0,1.3333333,16.525333,13.505333)" />
    <path
       id="path4"
       d="m 6.97931,35.32591 c 0.61642,0.61637 -0.20245,2.05173 0.41399,2.66811 0.44627,0.44626 1.38095,0.28081 2.35993,0.10556 0.97895,-0.17523 1.91364,-0.34068 2.35994,0.10557 0.44629,0.44625 0.2809,1.38092 0.10576,2.35993 -0.17515,0.97896 -0.34054,1.91366 0.10576,2.35992 0.44629,0.44625 1.38095,0.2808 2.35994,0.10556 0.97894,-0.17523 1.91364,-0.34069 2.35994,0.10556 0.44629,0.44626 0.2809,1.38094 0.10576,2.35993 -0.17516,0.97895 -0.34053,1.91366 0.10576,2.35992 0.61648,0.61643 2.05179,-0.20256 2.66823,0.41382 l -0.77913,-0.7792"
       style="fill:none;stroke:#000000;stroke-width:0.3985;stroke-linecap:butt;stroke-linejoin:miter;stroke-miterlimit:10;stroke-dasharray:none;stroke-opacity:1"
       transform="matrix(1.3333333,0,0,-1.3333333,11.957333,85.848)" />
    <path
       id="path5"
       d="M 2.42136,0 0.64343,0.67325 1.235,0 0.64343,-0.67325 Z"
       style="fill:#000000;fill-opacity:1;fill-rule:nonzero;stroke:#000000;stroke-width:0.3985;stroke-linecap:butt;stroke-linejoin:miter;stroke-miterlimit:10;stroke-dasharray:none;stroke-opacity:1"
       transform="matrix(0.94274667,-0.94285333,-0.94285333,-0.94274667,36.41384,23.597733)" />
    <path
       id="path6"
       d="m 28.3468,6.92375 v 41.8775"
       style="fill:none;stroke:#000000;stroke-width:0.79701;stroke-linecap:butt;stroke-linejoin:miter;stroke-miterlimit:10;stroke-dasharray:none;stroke-opacity:1"
       transform="matrix(1.3333333,0,0,-1.3333333,11.957333,85.848)" />
    <path
       id="path7"
       d="M 56.69362,28.3468 H 84.24341"
       style="fill:none;stroke:#000000;stroke-width:0.79701;stroke-linecap:butt;stroke-linejoin:miter;stroke-miterlimit:10;stroke-dasharray:none;stroke-opacity:1"
       transform="matrix(1.3333333,0,0,-1.3333333,11.957333,85.848)" />
    <path
       id="path8"
       d="M -2.55046,3.11095 C -2.0845,1.24435 -1.04614,0.36295 0,0 -1.04614,-0.36295 -2.0845,-1.24435 -2.55046,-3.11095"
       style="fill:none;stroke:#000000;stroke-width:0.79701;stroke-linecap:round;stroke-linejoin:round;stroke-miterlimit:10;stroke-dasharray:none;stroke-opacity:1"
       transform="matrix(1.3333333,0,0,-1.3333333,124.81323,48.052267)" />
    <path
       id="path9"
       d="m 0.35236719,-6.8085547 v 0.3164063 h 0.234375 c 0.77343751,0 0.78515621,0.1054687 0.78515621,0.46875 v 5.24999996 c 0,0.3515625 -0.011719,0.46875 -0.78515621,0.46875 h -0.234375 V 3.90625e-5 H 3.9968984 c 1.6757813,0 3.046875,-1.4765624625 3.046875,-3.3515624625 0,-1.8867188 -1.3476562,-3.4570313 -3.046875,-3.4570313 z m 2.36718751,6.50390626 c -0.46875,0 -0.4921875,-0.0703125 -0.4921875,-0.3984375 V -6.0937109 c 0,-0.328125 0.023437,-0.3984375 0.4921875,-0.3984375 h 0.9960937 c 0.6210938,0 1.3007813,0.2109375 1.8164063,0.9257812 0.421875,0.5859375 0.515625,1.4414063 0.515625,2.2148438 0,1.1132812 -0.1875,1.7109375 -0.5507813,2.1914062 -0.1992187,0.26953126 -0.7617187,0.85546876 -1.7695312,0.85546876 z m 0,0"
       style="fill:#000000;fill-opacity:1;fill-rule:nonzero;stroke:none"
       aria-label="D"
       transform="matrix(1.3333333,0,0,1.3333333,158.06533,90.386667)" />
    <g
       id="g9"
       aria-label="A&#10;∗"
       transform="matrix(1.3333333,0,0,1.3333333,155.104,14.830667)">
      <path
         id="path10"
         d="m 3.9620391,-6.9364766 c -0.046875,-0.1289062 -0.070312,-0.1992187 -0.2226563,-0.1992187 -0.1640625,0 -0.1875,0.058594 -0.2460937,0.1992187 l -2.0625,5.96484379 c -0.1757813,0.50390625 -0.57421879,0.65625 -1.11328129,0.66796875 v 0.3046875 c 0.234375,-0.01171875 0.65625,-0.03515625 1.01953129,-0.03515625 0.3046875,0 0.8203125,0.0234375 1.1484375,0.03515625 v -0.3046875 c -0.5039063,0 -0.75,-0.2578125 -0.75,-0.515625 0,-0.0234375 0.011719,-0.12890625 0.023437,-0.140625 L 2.2159453,-2.2724141 h 2.4609375 l 0.5273438,1.52343754 c 0.011719,0.046875 0.023437,0.10546875 0.023437,0.140625 0,0.3046875 -0.5507813,0.3046875 -0.8203125,0.3046875 v 0.3046875 c 0.3515625,-0.03515625 1.0546875,-0.03515625 1.4296875,-0.03515625 0.4335937,0 0.890625,0.01171875 1.3007812,0.03515625 v -0.3046875 H 6.9620391 c -0.5976563,0 -0.7382813,-0.0703125 -0.84375,-0.3984375 z m -0.5273438,1.125 1.125,3.234375 H 2.3214141 Z m 0,0"
         style="fill:#000000;fill-opacity:1;fill-rule:nonzero;stroke:none" />
      <path
         id="path11"
         d="m 9.7218047,-5.3485859 c 0.5742183,-0.2578125 0.8320313,-0.3515625 1.0078123,-0.4335938 0.128906,-0.058594 0.199219,-0.082031 0.199219,-0.2109375 0,-0.1289062 -0.09375,-0.234375 -0.222656,-0.234375 -0.04687,0 -0.05859,0 -0.140625,0.070312 l -0.9492191,0.6328125 0.1054688,-1.03125 c 0.011719,-0.1289062 0,-0.3046875 -0.2109375,-0.3046875 -0.082031,0 -0.2226563,0.058594 -0.2226563,0.2109375 0,0.070312 0.035156,0.2695313 0.035156,0.3398438 0.011719,0.1171875 0.070312,0.6210937 0.082031,0.7851562 l -0.9492182,-0.632812 c -0.058594,-0.046875 -0.082031,-0.070312 -0.1523438,-0.070312 -0.1171875,0 -0.2109375,0.1054688 -0.2109375,0.234375 0,0.1289063 0.082031,0.1640625 0.140625,0.1992188 l 1.0546875,0.4335937 c -0.5625,0.2578125 -0.8320312,0.3515625 -0.9960937,0.4335938 -0.140625,0.058594 -0.1992188,0.082031 -0.1992188,0.2226562 0,0.1171875 0.09375,0.2226563 0.2109375,0.2226563 0.058594,0 0.070312,0 0.1523438,-0.070312 l 0.9492187,-0.6328125 -0.1171875,1.125 c 0,0.1523437 0.140625,0.2109375 0.2226563,0.2109375 0.082031,0 0.2109375,-0.058594 0.2109375,-0.2109375 0,-0.058594 -0.023437,-0.2695313 -0.035156,-0.3398438 -0.011719,-0.1171875 -0.058594,-0.6210937 -0.070312,-0.7851562 l 0.8320313,0.5625 c 0.1875,0.140625 0.199219,0.140625 0.257813,0.140625 0.128906,0 0.222656,-0.1054688 0.222656,-0.2226563 0,-0.140625 -0.09375,-0.1757812 -0.152344,-0.2109375 z m 0,0"
         style="fill:#000000;fill-opacity:1;fill-rule:nonzero;stroke:none" />
    </g>
    <path
       id="path12"
       d="M 113.38724,6.92375 V 49.74368"
       style="fill:none;stroke:#000000;stroke-width:0.79701;stroke-linecap:butt;stroke-linejoin:miter;stroke-miterlimit:10;stroke-dasharray:none;stroke-opacity:1"
       transform="matrix(1.3333333,0,0,-1.3333333,11.957333,85.848)" />
    <path
       id="path13"
       d="m 109.69806,8.28877 c -6.18758,13.88774 -6.19133,26.19864 -0.49692,38.9973"
       style="fill:none;stroke:#000000;stroke-width:1.19553;stroke-linecap:butt;stroke-linejoin:miter;stroke-miterlimit:10;stroke-dasharray:none;stroke-opacity:1"
       transform="matrix(1.3333333,0,0,-1.3333333,11.957333,85.848)" />
    <path
       id="path14"
       d="M -3.02867,3.83081 C -2.47534,1.53229 -1.24231,0.44691 0,0 -1.24231,-0.44691 -2.47534,-1.53229 -3.02867,-3.83081"
       style="fill:none;stroke:#000000;stroke-width:1.19553;stroke-linecap:round;stroke-linejoin:round;stroke-miterlimit:10;stroke-dasharray:none;stroke-opacity:1"
       transform="matrix(0.542,-1.2181867,-1.2181867,-0.542,157.88283,22.071733)" />
    <path
       id="path15"
       d="m 98.52835,29.9264 h 13.35635 v 9.92516 H 98.52835 Z"
       style="fill:#ffffff;fill-opacity:1;fill-rule:nonzero;stroke:none"
       transform="matrix(1.3333333,0,0,-1.3333333,11.957333,85.848)" />
    <g
       id="g15"
       aria-label="e&#10;−"
       transform="matrix(1.3333333,0,0,1.3333333,144.656,44.618667)">
      <path
         id="path16"
         d="m 1.8634687,-2.2979844 c 0.2929688,0 1.03125,-0.023437 1.5234375,-0.234375 0.703125,-0.2929687 0.75,-0.890625 0.75,-1.0195312 0,-0.4453125 -0.3867187,-0.8554688 -1.0664062,-0.8554688 -1.1132813,0 -2.61328125,0.9726563 -2.61328125,2.7070313 0,1.01953123 0.58593745,1.80468748 1.57031245,1.80468748 1.4179688,0 2.2617188,-1.0546875 2.2617188,-1.17187498 0,-0.058594 -0.070312,-0.1289063 -0.1289063,-0.1289063 -0.046875,0 -0.070312,0.023437 -0.1289062,0.09375 -0.7851563,0.99609378 -1.875,0.99609378 -1.9921875,0.99609378 -0.7734375,0 -0.8671875,-0.84375 -0.8671875,-1.16015628 0,-0.1171875 0.011719,-0.4335937 0.1640625,-1.03125 z m -0.46875,-0.2226562 C 1.7814375,-4.0323594 2.8126875,-4.1847031 3.0705,-4.1847031 c 0.46875,0 0.7382812,0.2929687 0.7382812,0.6328125 0,1.03125 -1.59375,1.03125 -2.0039062,1.03125 z m 0,0"
         style="fill:#000000;fill-opacity:1;fill-rule:nonzero;stroke:none" />
      <path
         id="path17"
         d="m 9.8292891,-5.1866562 c 0.1054687,0 0.2695309,0 0.2695309,-0.1757813 0,-0.1757812 -0.1523434,-0.1757812 -0.2695309,-0.1757812 H 5.6691328 c -0.1054687,0 -0.28125,0 -0.28125,0.1757812 0,0.1757813 0.1640625,0.1757813 0.28125,0.1757813 z m 0,0"
         style="fill:#000000;fill-opacity:1;fill-rule:nonzero;stroke:none" />
    </g>
    <g
       id="g17"
       aria-label="D&#10;•+"
       transform="matrix(1.3333333,0,0,1.3333333,263.71067,91.136)">
      <path
         id="path18"
         d="m 1.5822344,-0.77289844 c -0.09375,0.38671875 -0.1171875,0.46875 -0.90234378,0.46875 -0.17578125,0 -0.28125,0 -0.28125,0.1875 0,0.1171875025 0.09375,0.1171875025 0.28125,0.1171875025 H 3.9728594 c 2.0742187,0 4.03125,-2.0976562625 4.03125,-4.2890624625 0,-1.3945313 -0.84375,-2.5195313 -2.3320313,-2.5195313 H 2.3205156 c -0.1875,0 -0.2929687,0 -0.2929687,0.1992188 0,0.1171875 0.082031,0.1171875 0.28125,0.1171875 0.1289062,0 0.3164062,0.011719 0.4335937,0.011719 0.1523438,0.023437 0.2109375,0.058594 0.2109375,0.1640625 0,0.035156 0,0.070312 -0.035156,0.1875 z m 2.15625,-5.34374996 c 0.082031,-0.3515625 0.1054687,-0.375 0.5390625,-0.375 h 1.0664062 c 0.9726563,0 1.7929688,0.5273437 1.7929688,1.8398437 0,0.4921875 -0.1992188,2.1210938 -1.0429688,3.2226563 -0.28125,0.3632812 -1.078125,1.12499996 -2.296875,1.12499996 h -1.125 c -0.140625,0 -0.1640625,0 -0.2226562,-0.0117188 -0.09375,-0.0117188 -0.1289063,-0.0234375 -0.1289063,-0.10546875 0,-0.0234375 0,-0.046875 0.046875,-0.22265625 z m 0,0"
         style="fill:#000000;fill-opacity:1;fill-rule:nonzero;stroke:none" />
      <path
         id="path19"
         d="m 12.064656,-5.3607891 c 0,-0.84375 -0.679687,-1.5 -1.5,-1.5 -0.8437498,0 -1.4999998,0.6796875 -1.4999998,1.5 0,0.84375 0.6796875,1.5 1.4999998,1.5 0.832031,0 1.5,-0.6796875 1.5,-1.5 z m 0,0"
         style="fill:#000000;fill-opacity:1;fill-rule:nonzero;stroke:none" />
      <path
         id="path20"
         d="m 15.829305,-5.1850078 h 2.144531 c 0.08203,0 0.257812,0 0.257812,-0.1757813 0,-0.1757812 -0.164062,-0.1757812 -0.257812,-0.1757812 h -2.144531 v -2.1328125 c 0,-0.09375 0,-0.2578125 -0.164063,-0.2578125 -0.175781,0 -0.175781,0.1523437 -0.175781,0.2578125 v 2.1328125 h -2.132813 c -0.09375,0 -0.257812,0 -0.257812,0.1757812 0,0.1757813 0.152344,0.1757813 0.257812,0.1757813 h 2.132813 v 2.1328125 c 0,0.09375 0,0.2578125 0.175781,0.2578125 0.164063,0 0.164063,-0.1523438 0.164063,-0.2578125 z m 0,0"
         style="fill:#000000;fill-opacity:1;fill-rule:nonzero;stroke:none" />
    </g>
    <g
       id="g20"
       aria-label="A&#10;•−"
       transform="matrix(1.3333333,0,0,1.3333333,264.33867,15.546667)">
      <path
         id="path21"
         d="m 1.7821328,-1.1482812 c -0.3984375,0.6679687 -0.78515624,0.8085937 -1.21874999,0.84374995 -0.12890625,0 -0.2109375,0 -0.2109375,0.19921875 0,0.05859375 0.046875,0.10546875 0.12890625,0.10546875 0.26953125,0 0.57421874,-0.03515625 0.85546874,-0.03515625 0.328125,0 0.6796875,0.03515625 0.9960938,0.03515625 0.058594,0 0.1875,0 0.1875,-0.1875 0,-0.1171875 -0.09375,-0.1171875 -0.1640625,-0.1171875 C 2.1336953,-0.32796875 1.8993203,-0.41 1.8993203,-0.65609375 c 0,-0.1171875 0.058594,-0.234375 0.1289063,-0.37499995 l 0.7617187,-1.265625 h 2.4960938 c 0.023437,0.1992187 0.1640625,1.5585937 0.1640625,1.66406245 0,0.29296875 -0.515625,0.328125 -0.7148438,0.328125 -0.140625,0 -0.2460937,0 -0.2460937,0.19921875 0,0.10546875 0.1289062,0.10546875 0.140625,0.10546875 0.4101562,0 0.84375,-0.03515625 1.2539062,-0.03515625 0.2460938,0 0.8671875,0.03515625 1.125,0.03515625 0.058594,0 0.1757813,0 0.1757813,-0.19921875 0,-0.10546875 -0.1054688,-0.10546875 -0.234375,-0.10546875 -0.609375,0 -0.609375,-0.0703125 -0.6445313,-0.36328125 l -0.609375,-6.2226562 c -0.011719,-0.1992188 -0.011719,-0.2460938 -0.1875,-0.2460938 -0.1640625,0 -0.1992187,0.070312 -0.2578125,0.1757813 z m 1.1953125,-1.4648438 1.96875,-3.28125 0.3164063,3.28125 z m 0,0"
         style="fill:#000000;fill-opacity:1;fill-rule:nonzero;stroke:none" />
      <path
         id="path22"
         d="m 11.010648,-5.3611719 c 0,-0.84375 -0.679687,-1.5 -1.4999996,-1.5 -0.84375,0 -1.5,0.6796875 -1.5,1.5 0,0.84375 0.6796875,1.5 1.5,1.5 0.8320316,0 1.4999996,-0.6796875 1.4999996,-1.5 z m 5.733399,0.1757813 c 0.105469,0 0.269531,0 0.269531,-0.1757813 0,-0.1757812 -0.152344,-0.1757812 -0.269531,-0.1757812 h -4.160156 c -0.105469,0 -0.28125,0 -0.28125,0.1757812 0,0.1757813 0.164062,0.1757813 0.28125,0.1757813 z m 0,0"
         style="fill:#000000;fill-opacity:1;fill-rule:nonzero;stroke:none" />
    </g>
    <path
       id="path23"
       d="M 198.42766,7.48611 V 49.20749"
       style="fill:none;stroke:#000000;stroke-width:0.79701;stroke-linecap:butt;stroke-linejoin:miter;stroke-miterlimit:10;stroke-dasharray:none;stroke-opacity:1"
       transform="matrix(1.3333333,0,0,-1.3333333,11.957333,85.848)" />
    <path
       id="path24"
       d="m 141.73404,28.3468 h 27.5498"
       style="fill:none;stroke:#000000;stroke-width:0.79701;stroke-linecap:butt;stroke-linejoin:miter;stroke-miterlimit:10;stroke-dasharray:none;stroke-opacity:1"
       transform="matrix(1.3333333,0,0,-1.3333333,11.957333,85.848)" />
    <path
       id="path25"
       d="M -2.55046,3.11095 C -2.0845,1.24435 -1.04614,0.36295 0,0 -1.04614,-0.36295 -2.0845,-1.24435 -2.55046,-3.11095"
       style="fill:none;stroke:#000000;stroke-width:0.79701;stroke-linecap:round;stroke-linejoin:round;stroke-miterlimit:10;stroke-dasharray:none;stroke-opacity:1"
       transform="matrix(1.3333333,0,0,-1.3333333,238.20045,48.052267)" />
  </g>
</svg>
