<?xml version="1.0" encoding="UTF-8" standalone="no"?>
<!-- Created with Inkscape (http://www.inkscape.org/) -->

<svg
   version="1.1"
   id="svg1"
   width="388.26562"
   height="189.67188"
   viewBox="0 0 388.26563 189.67188"
   xmlns="http://www.w3.org/2000/svg"
   xmlns:svg="http://www.w3.org/2000/svg">
  <defs
     id="defs1" />
  <g
     id="g1"
     transform="translate(-4.8789063,-4.4726561)">
    <path
       id="path1"
       d="M 0,0 V 126.79102"
       style="fill:none;stroke:#000000;stroke-width:0.89664;stroke-linecap:butt;stroke-linejoin:miter;stroke-miterlimit:10;stroke-dasharray:none;stroke-opacity:1"
       transform="matrix(1.3333333,0,0,-1.3333333,23.470667,190.02533)" />
    <path
       id="path2"
       d="M -1.64381,2.19176 C -1.50682,1.36984 0,0.13698 0.41095,0 0,-0.13698 -1.50682,-1.36984 -1.64381,-2.19176"
       style="fill:none;stroke:#000000;stroke-width:0.7173;stroke-linecap:round;stroke-linejoin:round;stroke-miterlimit:10;stroke-dasharray:none;stroke-opacity:1"
       transform="matrix(0,-1.3333333,-1.3333333,0,23.470667,20.97064)" />
    <path
       id="path3"
       d="M 5.4954297,-6.0935078 H 0.33917969 v 0.28125 h 0.2109375 c 0.69140621,0 0.70312501,0.09375 0.70312501,0.421875 v 4.68749999 c 0,0.328125 -0.011719,0.421875 -0.70312501,0.421875 H 0.33917969 V 2.421875e-4 H 5.6126172 L 5.9993359,-2.3083516 H 5.7415234 c -0.2226562,1.38281254 -0.4570312,2.02734379 -1.9804687,2.02734379 h -1.265625 c -0.421875,0 -0.4335938,-0.0585938 -0.4335938,-0.36328125 V -3.0349141 h 0.8320313 c 0.8789062,0 0.984375,0.28125 0.984375,1.0546875 H 4.1360547 V -4.3591328 H 3.8782422 c 0,0.7734375 -0.1054688,1.0546875 -0.984375,1.0546875 H 2.0618359 v -2.1445313 c 0,-0.3046875 0.011719,-0.3632812 0.4335938,-0.3632812 h 1.2070312 c 1.3945313,0 1.6523438,0.4804687 1.7929688,1.734375 h 0.2460937 z m 2.4404297,3.7734375 c 0,-0.9492188 0.6796875,-1.4179688 1.2421875,-1.4179688 0.5273437,0 0.6445312,0.4335938 0.6445312,0.9726563 v 2.07421874 c 0,0.41015625 -0.09375,0.41015625 -0.6914062,0.41015625 V 2.421875e-4 C 9.5530469,-0.02319531 9.7288281,-0.02319531 10.150703,-0.02319531 c 0.433594,0 0.550781,0 1.019531,0.0234374975 V -0.28100781 c -0.457031,0 -0.679687,0 -0.679687,-0.26953125 V -2.2731953 c 0,-0.75 0,-1.0078125 -0.257813,-1.3242188 -0.199218,-0.2460937 -0.5507809,-0.3632812 -0.9960934,-0.3632812 -0.8320312,0 -1.21875,0.6210937 -1.3476562,0.8671875 v -0.8671875 l -1.3007813,0.09375 v 0.28125 c 0.609375,0 0.6914063,0.058594 0.6914063,0.5039062 v 2.39062504 c 0,0.41015625 -0.1054688,0.41015625 -0.6914063,0.41015625 V 2.421875e-4 C 7.0100781,-0.02319531 7.1741406,-0.02319531 7.6077344,-0.02319531 c 0.4335937,0 0.5507812,0 1.0195312,0.0234374975 V -0.28100781 c -0.5859375,0 -0.6914062,0 -0.6914062,-0.41015625 z m 7.0400386,0.2695312 c 0.199219,0 0.246094,0 0.246094,-0.1875 0,-0.9257812 -0.503906,-1.78125 -1.652344,-1.78125 -1.078125,0 -1.921875,0.9375 -1.921875,2.0507813 0,1.17187499 0.949219,2.06249999 2.039063,2.06249999 1.089844,0 1.535156,-0.94921875 1.535156,-1.16015629 0,-0.058594 -0.04687,-0.1171875 -0.128906,-0.1171875 -0.09375,0 -0.117188,0.058594 -0.128906,0.09375 -0.304688,0.91406254 -1.101563,0.93750004 -1.230469,0.93750004 -0.433594,0 -0.796875,-0.24609375 -1.007813,-0.55078125 C 12.43293,-1.1364766 12.421211,-1.6755391 12.421211,-2.0505391 Z M 12.43293,-2.2731953 c 0.08203,-1.3710938 0.878906,-1.5234375 1.136718,-1.5234375 0.492188,0 1.03125,0.3867187 1.042969,1.5234375 z m 4.652343,0.2226562 c 0,-0.375 0.105469,-1.6875 1.125,-1.6875 v 0.011719 c -0.02344,0.011719 -0.164062,0.1171875 -0.164062,0.328125 0,0.2460937 0.1875,0.3984375 0.398437,0.3984375 0.1875,0 0.386719,-0.140625 0.386719,-0.4101563 0,-0.28125 -0.269531,-0.5507812 -0.667969,-0.5507812 -0.539062,0 -0.914062,0.375 -1.125,0.9257812 v -0.9257812 l -1.277343,0.09375 v 0.28125 c 0.609375,0 0.691406,0.058594 0.691406,0.5039062 v 2.39062504 c 0,0.41015625 -0.105469,0.41015625 -0.691406,0.41015625 V 2.421875e-4 c 0.46875,-0.0234374975 0.585937,-0.0234374975 1.042968,-0.0234374975 0.363282,0 0.574219,0 1.148438,0.0234374975 V -0.28100781 h -0.1875 c -0.65625,0 -0.679688,-0.09375 -0.679688,-0.421875 z m 3.134766,0.4453125 c 0.222656,0.140625 0.492188,0.28125 0.914063,0.28125 0.84375,0 1.488281,-0.609375 1.488281,-1.3242187 0,-0.4335938 -0.246094,-0.7382813 -0.363281,-0.8671875 0.363281,-0.3164063 0.785156,-0.3164063 0.890625,-0.3164063 -0.04687,0.023437 -0.117188,0.070312 -0.117188,0.2226563 0,0.1054687 0.05859,0.2695312 0.269531,0.2695312 0.117188,0 0.269532,-0.082031 0.269532,-0.2695312 0,-0.1757813 -0.128907,-0.4570313 -0.492188,-0.4570313 -0.257812,0 -0.65625,0.1054688 -0.972656,0.421875 -0.246094,-0.1875 -0.585938,-0.3164062 -0.972656,-0.3164062 -0.84375,0 -1.488282,0.609375 -1.488282,1.3125 0,0.4570312 0.269532,0.7851562 0.410157,0.9140625 -0.02344,0.023437 -0.269532,0.3398437 -0.269532,0.74999999 0,0.3046875 0.140625,0.62109375 0.386719,0.78515625 -0.457031,0.140625 -0.820312,0.48046875 -0.820312,0.90234375 0,0.63281251 0.890625,1.14843751 2.039062,1.14843751 1.101563,0 2.039063,-0.4804688 2.039063,-1.17187501 0,-0.36328125 -0.164063,-0.76171875 -0.503907,-0.97265625 -0.492187,-0.31640625 -1.019531,-0.31640625 -1.863281,-0.31640625 -0.1875,0 -0.46875,0 -0.539062,-0.0234375 -0.269532,-0.046875 -0.433594,-0.29296875 -0.433594,-0.57421879 0,-0.1523437 0.04687,-0.28125 0.128906,-0.3984375 z m 0.914063,0.035156 c -0.796875,0 -0.796875,-0.8789063 -0.796875,-1.078125 0,-0.234375 0.01172,-0.5390625 0.164062,-0.7617188 0.140625,-0.1757812 0.375,-0.3046875 0.632813,-0.3046875 0.808593,0 0.808593,0.8671875 0.808593,1.0664063 0,0.2109375 0,1.078125 -0.808593,1.078125 z m 0.410156,1.52343749 c 0.28125,0 1.382812,0.01171875 1.382812,0.73828125 0,0.51562496 -0.679687,0.91406246 -1.523437,0.91406246 -0.878906,0 -1.546875,-0.421875 -1.546875,-0.91406246 0,-0.140625 0.09375,-0.73828125 0.855469,-0.73828125 z m 3.788086,-3.11718749 c -0.04687,-0.1289063 -0.04687,-0.1757813 -0.04687,-0.1875 0,-0.234375 0.304687,-0.234375 0.492187,-0.234375 v -0.28125 c -0.445312,0.023437 -0.621094,0.035156 -0.996094,0.035156 -0.02344,0 -0.539062,0 -0.890625,-0.035156 v 0.28125 c 0.398438,0 0.574219,0.023437 0.679688,0.2578125 L 25.988594,2.421875e-4 25.765937,0.52758594 C 25.566719,1.0080547 25.308906,1.6174297 24.722969,1.6174297 c -0.222657,0 -0.375,-0.1171875 -0.398438,-0.140625 0.07031,-0.011719 0.316406,-0.082031 0.316406,-0.3867188 0,-0.23437496 -0.164062,-0.37499996 -0.375,-0.37499996 -0.222656,0 -0.386718,0.140625 -0.386718,0.38671876 0,0.4101562 0.375,0.7382812 0.84375,0.7382812 0.585937,0 0.972656,-0.5273437 1.183593,-1.01953121 l 1.628907,-3.78515629 c 0.09375,-0.234375 0.257812,-0.5976562 0.832031,-0.6210937 v -0.28125 c -0.292969,0.035156 -0.5625,0.035156 -0.679688,0.035156 -0.257812,0 -0.527343,-0.011719 -0.785156,-0.035156 v 0.28125 c 0.410156,0.023437 0.410156,0.3398437 0.410156,0.375 0,0.1054687 -0.03516,0.1875 -0.07031,0.2578125 l -0.902344,2.13281249 z m 0,0"
       style="fill:#000000;fill-opacity:1;fill-rule:nonzero;stroke:none"
       aria-label="Energy"
       transform="matrix(1.3333333,0,0,1.3333333,4.4266667,12.597333)" />
    <path
       id="path4"
       d="M 24.09451,99.21382 H 55.27618"
       style="fill:none;stroke:#000000;stroke-width:0.59776;stroke-linecap:butt;stroke-linejoin:miter;stroke-miterlimit:10;stroke-dasharray:none;stroke-opacity:1"
       transform="matrix(1.3333333,0,0,-1.3333333,23.470667,190.02533)" />
    <g
       id="g4"
       aria-label="S&#10;1"
       transform="matrix(1.3333333,0,0,1.3333333,69.332,51.056)">
      <path
         id="path5"
         d="m 6.4218984,-6.9267656 c 0,-0.023437 -0.011719,-0.09375 -0.1054687,-0.09375 -0.046875,0 -0.058594,0.011719 -0.1757813,0.140625 l -0.4804687,0.5742187 c -0.2578125,-0.46875 -0.7734375,-0.7148437 -1.4296875,-0.7148437 -1.265625,0 -2.4609375,1.1367187 -2.4609375,2.34375 0,0.8085937 0.5273437,1.265625 1.0429687,1.4179687 l 1.0664063,0.28125 c 0.3632812,0.082031 0.9140625,0.234375 0.9140625,1.0546875 0,0.890625 -0.8203125,1.82812503 -1.7929688,1.82812503 -0.6445312,0 -1.7460937,-0.2109375 -1.7460937,-1.45312503 0,-0.234375 0.046875,-0.4804687 0.058594,-0.5390625 0.011719,-0.035156 0.023437,-0.046875 0.023437,-0.070312 0,-0.09375 -0.070312,-0.1054687 -0.1171875,-0.1054687 -0.058594,0 -0.070312,0.011719 -0.1054687,0.035156 -0.035156,0.046875 -0.59765626,2.32031253 -0.59765626,2.34375003 0,0.0585937 0.046875,0.10546875 0.1171875,0.10546875 0.046875,0 0.0585938,-0.0117188 0.17578125,-0.15234375 L 1.3008047,-0.50489062 c 0.421875,0.5859375 1.1015625,0.7265625 1.6757812,0.7265625 1.359375,0 2.53125,-1.32421878 2.53125,-2.56640628 0,-0.6796875 -0.3398437,-1.0195312 -0.4921875,-1.1601562 -0.2226562,-0.234375 -0.375,-0.2695313 -1.265625,-0.5039063 -0.2109375,-0.058594 -0.5742187,-0.1523437 -0.65625,-0.1757812 -0.2695312,-0.09375 -0.609375,-0.375 -0.609375,-0.9023438 0,-0.8085937 0.796875,-1.6523437 1.734375,-1.6523437 0.8320313,0 1.4414063,0.421875 1.4414063,1.5351562 0,0.3164063 -0.046875,0.5039063 -0.046875,0.5625 0,0.011719 0,0.09375 0.1289062,0.09375 0.09375,0 0.1054688,-0.023437 0.140625,-0.1992187 z m 0,0"
         style="fill:#000000;fill-opacity:1;fill-rule:nonzero;stroke:none" />
      <path
         id="path6"
         d="m 8.4404531,-2.9336016 c 0,-0.1875 -0.011719,-0.1992187 -0.2109375,-0.1992187 -0.4453125,0.4335937 -1.078125,0.4453125 -1.359375,0.4453125 v 0.2460937 c 0.1640625,0 0.6210938,0 1.0078125,-0.1875 v 3.55078129 c 0,0.23437501 0,0.32812501 -0.6914062,0.32812501 H 6.9170156 v 0.2460937 c 0.1289063,-0.011719 0.984375,-0.023437 1.2421875,-0.023437 0.2109375,0 1.0898438,0.011719 1.2421875,0.023437 V 1.2499922 H 9.1435781 c -0.703125,0 -0.703125,-0.09375 -0.703125,-0.32812501 z m 0,0"
         style="fill:#000000;fill-opacity:1;fill-rule:nonzero;stroke:none" />
    </g>
    <path
       id="path7"
       d="m 92.1271,99.21382 h 31.18169"
       style="fill:none;stroke:#000000;stroke-width:0.59776;stroke-linecap:butt;stroke-linejoin:miter;stroke-miterlimit:10;stroke-dasharray:none;stroke-opacity:1"
       transform="matrix(1.3333333,0,0,-1.3333333,23.470667,190.02533)" />
    <path
       id="path8"
       d="m 92.1271,109.13538 h 31.18169"
       style="fill:none;stroke:#000000;stroke-width:0.59776;stroke-linecap:butt;stroke-linejoin:miter;stroke-miterlimit:10;stroke-dasharray:none;stroke-opacity:1"
       transform="matrix(1.3333333,0,0,-1.3333333,23.470667,190.02533)" />
    <path
       id="path9"
       d="m 92.1271,119.05693 h 31.18169"
       style="fill:none;stroke:#000000;stroke-width:0.59776;stroke-linecap:butt;stroke-linejoin:miter;stroke-miterlimit:10;stroke-dasharray:none;stroke-opacity:1"
       transform="matrix(1.3333333,0,0,-1.3333333,23.470667,190.02533)" />
    <path
       id="path10"
       d="M 55.27618,99.21382 H 92.1271"
       style="fill:none;stroke:#000000;stroke-width:0.59776;stroke-linecap:butt;stroke-linejoin:miter;stroke-miterlimit:10;stroke-dasharray:2.98883, 2.98883;stroke-dashoffset:0;stroke-opacity:1"
       transform="matrix(1.3333333,0,0,-1.3333333,23.470667,190.02533)" />
    <path
       id="path11"
       d="m 55.27618,99.21382 36.85092,9.92156"
       style="fill:none;stroke:#000000;stroke-width:0.59776;stroke-linecap:butt;stroke-linejoin:miter;stroke-miterlimit:10;stroke-dasharray:2.98883, 2.98883;stroke-dashoffset:0;stroke-opacity:1"
       transform="matrix(1.3333333,0,0,-1.3333333,23.470667,190.02533)" />
    <path
       id="path12"
       d="M 55.27618,99.21382 92.1271,119.05693"
       style="fill:none;stroke:#000000;stroke-width:0.59776;stroke-linecap:butt;stroke-linejoin:miter;stroke-miterlimit:10;stroke-dasharray:2.98883, 2.98883;stroke-dashoffset:0;stroke-opacity:1"
       transform="matrix(1.3333333,0,0,-1.3333333,23.470667,190.02533)" />
    <path
       id="path13"
       d="M 24.09451,79.37114 H 55.27618"
       style="fill:none;stroke:#000000;stroke-width:0.59776;stroke-linecap:butt;stroke-linejoin:miter;stroke-miterlimit:10;stroke-dasharray:none;stroke-opacity:1"
       transform="matrix(1.3333333,0,0,-1.3333333,23.470667,190.02533)" />
    <g
       id="g13"
       aria-label="T&#10;1"
       transform="matrix(1.3333333,0,0,1.3333333,69.522667,77.513333)">
      <path
         id="path14"
         d="m 4.2544844,-6.0480859 c 0.070312,-0.28125 0.1054687,-0.3398438 0.234375,-0.3632813 0.082031,-0.023437 0.4101562,-0.023437 0.6210937,-0.023437 1.0078125,0 1.453125,0.035156 1.453125,0.8203125 0,0.140625 -0.035156,0.5273438 -0.082031,0.796875 0,0.035156 -0.023437,0.1523438 -0.023437,0.1875 0,0.058594 0.023437,0.1289063 0.1171875,0.1289063 0.1054687,0 0.1289062,-0.082031 0.1523437,-0.234375 l 0.2695313,-1.734375 c 0.011719,-0.035156 0.011719,-0.140625 0.011719,-0.1640625 0,-0.1054688 -0.09375,-0.1054688 -0.2695312,-0.1054688 H 1.2193281 c -0.24609372,0 -0.25781247,0 -0.31640622,0.1992188 l -0.59765625,1.7460937 c -0.0117188,0.023437 -0.0703125,0.1640625 -0.0703125,0.1757813 0,0.070312 0.0585938,0.1171875 0.12890625,0.1171875 0.09375,0 0.10546875,-0.046875 0.1640625,-0.2109375 0.53906252,-1.546875 0.79687502,-1.7226563 2.27343752,-1.7226563 h 0.3867187 c 0.28125,0 0.28125,0.035156 0.28125,0.1171875 0,0.058594 -0.035156,0.1757813 -0.046875,0.2109375 l -1.3242187,5.32031251 c -0.09375,0.36328125 -0.1289063,0.48046875 -1.19531252,0.48046875 -0.3515625,0 -0.41015625,0 -0.41015625,0.1875 0,0.1171875 0.10546875,0.1171875 0.1640625,0.1171875 0.26953125,0 0.55078127,-0.0234375 0.82031247,-0.0234375 0.28125,0 0.5625,-0.01171875 0.84375,-0.01171875 0.28125,0 0.5625,0.01171875 0.8320313,0.01171875 0.28125,0 0.5859375,0.0234375 0.8671875,0.0234375 0.09375,0 0.2109375,0 0.2109375,-0.19921875 0,-0.10546875 -0.082031,-0.10546875 -0.3398438,-0.10546875 -0.2460937,0 -0.375,0 -0.6328125,-0.0234375 -0.2929687,-0.0351563 -0.3632812,-0.0585938 -0.3632812,-0.22265625 0,-0.0117188 0,-0.0585938 0.035156,-0.2109375 z m 0,0"
         style="fill:#000000;fill-opacity:1;fill-rule:nonzero;stroke:none" />
      <path
         id="path15"
         d="m 8.1538984,-2.9367578 c 0,-0.1875 -0.011719,-0.1992188 -0.2109375,-0.1992188 -0.4453125,0.4335938 -1.078125,0.4453125 -1.359375,0.4453125 v 0.2460938 c 0.1640625,0 0.6210938,0 1.0078125,-0.1875 v 3.55078124 c 0,0.23437496 0,0.32812496 -0.6914062,0.32812496 H 6.6304609 v 0.2460938 c 0.1289063,-0.011719 0.984375,-0.023437 1.2421875,-0.023437 0.2109375,0 1.0898438,0.011719 1.2421875,0.023437 V 1.2468359 H 8.8570234 c -0.703125,0 -0.703125,-0.09375 -0.703125,-0.32812496 z m 0,0"
         style="fill:#000000;fill-opacity:1;fill-rule:nonzero;stroke:none" />
    </g>
    <path
       id="path16"
       d="m 92.1271,79.37114 h 31.18169"
       style="fill:none;stroke:#000000;stroke-width:0.59776;stroke-linecap:butt;stroke-linejoin:miter;stroke-miterlimit:10;stroke-dasharray:none;stroke-opacity:1"
       transform="matrix(1.3333333,0,0,-1.3333333,23.470667,190.02533)" />
    <path
       id="path17"
       d="m 92.1271,89.2927 h 31.18169"
       style="fill:none;stroke:#000000;stroke-width:0.59776;stroke-linecap:butt;stroke-linejoin:miter;stroke-miterlimit:10;stroke-dasharray:none;stroke-opacity:1"
       transform="matrix(1.3333333,0,0,-1.3333333,23.470667,190.02533)" />
    <path
       id="path18"
       d="M 55.27618,79.37114 H 92.1271"
       style="fill:none;stroke:#000000;stroke-width:0.59776;stroke-linecap:butt;stroke-linejoin:miter;stroke-miterlimit:10;stroke-dasharray:2.98883, 2.98883;stroke-dashoffset:0;stroke-opacity:1"
       transform="matrix(1.3333333,0,0,-1.3333333,23.470667,190.02533)" />
    <path
       id="path19"
       d="M 55.27618,79.37114 92.1271,89.2927"
       style="fill:none;stroke:#000000;stroke-width:0.59776;stroke-linecap:butt;stroke-linejoin:miter;stroke-miterlimit:10;stroke-dasharray:2.98883, 2.98883;stroke-dashoffset:0;stroke-opacity:1"
       transform="matrix(1.3333333,0,0,-1.3333333,23.470667,190.02533)" />
    <path
       id="path20"
       d="m 157.32487,76.53629 h 31.18166"
       style="fill:none;stroke:#000000;stroke-width:0.59776;stroke-linecap:butt;stroke-linejoin:miter;stroke-miterlimit:10;stroke-dasharray:none;stroke-opacity:1"
       transform="matrix(1.3333333,0,0,-1.3333333,23.470667,190.02533)" />
    <path
       id="path21"
       d="m 157.32487,79.37114 h 31.18166"
       style="fill:none;stroke:#000000;stroke-width:0.59776;stroke-linecap:butt;stroke-linejoin:miter;stroke-miterlimit:10;stroke-dasharray:none;stroke-opacity:1"
       transform="matrix(1.3333333,0,0,-1.3333333,23.470667,190.02533)" />
    <path
       id="path22"
       d="m 157.32487,82.206 h 31.18166"
       style="fill:none;stroke:#000000;stroke-width:0.59776;stroke-linecap:butt;stroke-linejoin:miter;stroke-miterlimit:10;stroke-dasharray:none;stroke-opacity:1"
       transform="matrix(1.3333333,0,0,-1.3333333,23.470667,190.02533)" />
    <path
       id="path23"
       d="m 123.30879,79.37114 34.01608,-2.83485"
       style="fill:none;stroke:#000000;stroke-width:0.59776;stroke-linecap:butt;stroke-linejoin:miter;stroke-miterlimit:10;stroke-dasharray:2.98883, 2.98883;stroke-dashoffset:0;stroke-opacity:1"
       transform="matrix(1.3333333,0,0,-1.3333333,23.470667,190.02533)" />
    <path
       id="path24"
       d="m 123.30879,79.37114 h 34.01608"
       style="fill:none;stroke:#000000;stroke-width:0.59776;stroke-linecap:butt;stroke-linejoin:miter;stroke-miterlimit:10;stroke-dasharray:2.98883, 2.98883;stroke-dashoffset:0;stroke-opacity:1"
       transform="matrix(1.3333333,0,0,-1.3333333,23.470667,190.02533)" />
    <path
       id="path25"
       d="M 123.30879,79.37114 157.32487,82.206"
       style="fill:none;stroke:#000000;stroke-width:0.59776;stroke-linecap:butt;stroke-linejoin:miter;stroke-miterlimit:10;stroke-dasharray:2.98883, 2.98883;stroke-dashoffset:0;stroke-opacity:1"
       transform="matrix(1.3333333,0,0,-1.3333333,23.470667,190.02533)" />
    <path
       id="path26"
       d="m 228.1919,77.10335 h 31.18165"
       style="fill:none;stroke:#000000;stroke-width:0.59776;stroke-linecap:butt;stroke-linejoin:miter;stroke-miterlimit:10;stroke-dasharray:none;stroke-opacity:1"
       transform="matrix(1.3333333,0,0,-1.3333333,23.470667,190.02533)" />
    <path
       id="path27"
       d="m 228.1919,79.37114 h 31.18165"
       style="fill:none;stroke:#000000;stroke-width:0.59776;stroke-linecap:butt;stroke-linejoin:miter;stroke-miterlimit:10;stroke-dasharray:none;stroke-opacity:1"
       transform="matrix(1.3333333,0,0,-1.3333333,23.470667,190.02533)" />
    <path
       id="path28"
       d="m 228.1919,81.63893 h 31.18165"
       style="fill:none;stroke:#000000;stroke-width:0.59776;stroke-linecap:butt;stroke-linejoin:miter;stroke-miterlimit:10;stroke-dasharray:none;stroke-opacity:1"
       transform="matrix(1.3333333,0,0,-1.3333333,23.470667,190.02533)" />
    <path
       id="path29"
       d="M 188.50653,79.37114 228.1919,77.10335"
       style="fill:none;stroke:#000000;stroke-width:0.59776;stroke-linecap:butt;stroke-linejoin:miter;stroke-miterlimit:10;stroke-dasharray:2.98883, 2.98883;stroke-dashoffset:0;stroke-opacity:1"
       transform="matrix(1.3333333,0,0,-1.3333333,23.470667,190.02533)" />
    <path
       id="path30"
       d="M 188.50653,79.37114 H 228.1919"
       style="fill:none;stroke:#000000;stroke-width:0.59776;stroke-linecap:butt;stroke-linejoin:miter;stroke-miterlimit:10;stroke-dasharray:2.98883, 2.98883;stroke-dashoffset:0;stroke-opacity:1"
       transform="matrix(1.3333333,0,0,-1.3333333,23.470667,190.02533)" />
    <path
       id="path31"
       d="m 188.50653,79.37114 39.68537,2.26779"
       style="fill:none;stroke:#000000;stroke-width:0.59776;stroke-linecap:butt;stroke-linejoin:miter;stroke-miterlimit:10;stroke-dasharray:2.98883, 2.98883;stroke-dashoffset:0;stroke-opacity:1"
       transform="matrix(1.3333333,0,0,-1.3333333,23.470667,190.02533)" />
    <path
       id="path32"
       d="M 24.09451,8.50412 H 55.27618"
       style="fill:none;stroke:#000000;stroke-width:0.59776;stroke-linecap:butt;stroke-linejoin:miter;stroke-miterlimit:10;stroke-dasharray:none;stroke-opacity:1"
       transform="matrix(1.3333333,0,0,-1.3333333,23.470667,190.02533)" />
    <g
       id="g32"
       aria-label="S&#10;0"
       transform="matrix(1.3333333,0,0,1.3333333,69.332,172.00133)">
      <path
         id="path33"
         d="m 6.4218984,-6.9267812 c 0,-0.023437 -0.011719,-0.09375 -0.1054687,-0.09375 -0.046875,0 -0.058594,0.011719 -0.1757813,0.140625 l -0.4804687,0.5742187 c -0.2578125,-0.46875 -0.7734375,-0.7148437 -1.4296875,-0.7148437 -1.265625,0 -2.4609375,1.1367187 -2.4609375,2.34375 0,0.8085937 0.5273437,1.265625 1.0429687,1.4179687 l 1.0664063,0.28125 c 0.3632812,0.082031 0.9140625,0.234375 0.9140625,1.0546875 0,0.890625 -0.8203125,1.828125 -1.7929688,1.828125 -0.6445312,0 -1.7460937,-0.2109375 -1.7460937,-1.453125 0,-0.234375 0.046875,-0.4804687 0.058594,-0.5390625 0.011719,-0.035156 0.023437,-0.046875 0.023437,-0.070312 0,-0.09375 -0.070312,-0.1054687 -0.1171875,-0.1054687 -0.058594,0 -0.070312,0.011719 -0.1054687,0.035156 -0.035156,0.046875 -0.59765626,2.3203125 -0.59765626,2.34375 0,0.0585938 0.046875,0.10546875 0.1171875,0.10546875 0.046875,0 0.0585938,-0.0117188 0.17578125,-0.15234375 L 1.3008047,-0.50490625 c 0.421875,0.5859375 1.1015625,0.7265625 1.6757812,0.7265625 1.359375,0 2.53125,-1.32421875 2.53125,-2.56640625 0,-0.6796875 -0.3398437,-1.0195312 -0.4921875,-1.1601562 -0.2226562,-0.234375 -0.375,-0.2695313 -1.265625,-0.5039063 -0.2109375,-0.058594 -0.5742187,-0.1523437 -0.65625,-0.1757812 -0.2695312,-0.09375 -0.609375,-0.375 -0.609375,-0.9023438 0,-0.8085937 0.796875,-1.6523437 1.734375,-1.6523437 0.8320313,0 1.4414063,0.421875 1.4414063,1.5351562 0,0.3164063 -0.046875,0.5039063 -0.046875,0.5625 0,0.011719 0,0.09375 0.1289062,0.09375 0.09375,0 0.1054688,-0.023437 0.140625,-0.1992187 z m 0,0"
         style="fill:#000000;fill-opacity:1;fill-rule:nonzero;stroke:none" />
      <path
         id="path34"
         d="m 9.7060781,-0.73342187 c 0,-0.76171873 -0.09375,-1.31250003 -0.4101562,-1.80468753 -0.2226563,-0.3164062 -0.6445313,-0.5976562 -1.2070313,-0.5976562 -1.6171875,0 -1.6171875,1.8984375 -1.6171875,2.40234373 0,0.50390625 0,2.36718747 1.6171875,2.36718747 1.6171875,0 1.6171875,-1.86328122 1.6171875,-2.36718747 z M 8.0888906,1.4345469 c -0.3164062,0 -0.75,-0.1875 -0.890625,-0.76171877 -0.09375,-0.41015625 -0.09375,-0.984375 -0.09375,-1.5 0,-0.50390623 0,-1.03125003 0.1054688,-1.41796873 0.1523437,-0.5507813 0.5976562,-0.6914063 0.8789062,-0.6914063 0.375,0 0.7382813,0.2226563 0.8671875,0.6328125 0.1054688,0.375 0.1171875,0.8789063 0.1171875,1.47656253 0,0.515625 0,1.04296875 -0.09375,1.4765625 C 8.8388906,1.2822031 8.3701406,1.4345469 8.0888906,1.4345469 Z m 0,0"
         style="fill:#000000;fill-opacity:1;fill-rule:nonzero;stroke:none" />
    </g>
    <path
       id="path35"
       d="m 92.1271,8.50412 h 31.18169"
       style="fill:none;stroke:#000000;stroke-width:0.59776;stroke-linecap:butt;stroke-linejoin:miter;stroke-miterlimit:10;stroke-dasharray:none;stroke-opacity:1"
       transform="matrix(1.3333333,0,0,-1.3333333,23.470667,190.02533)" />
    <path
       id="path36"
       d="m 92.1271,18.42567 h 31.18169"
       style="fill:none;stroke:#000000;stroke-width:0.59776;stroke-linecap:butt;stroke-linejoin:miter;stroke-miterlimit:10;stroke-dasharray:none;stroke-opacity:1"
       transform="matrix(1.3333333,0,0,-1.3333333,23.470667,190.02533)" />
    <path
       id="path37"
       d="m 92.1271,28.34723 h 31.18169"
       style="fill:none;stroke:#000000;stroke-width:0.59776;stroke-linecap:butt;stroke-linejoin:miter;stroke-miterlimit:10;stroke-dasharray:none;stroke-opacity:1"
       transform="matrix(1.3333333,0,0,-1.3333333,23.470667,190.02533)" />
    <path
       id="path38"
       d="m 92.1271,38.26878 h 31.18169"
       style="fill:none;stroke:#000000;stroke-width:0.59776;stroke-linecap:butt;stroke-linejoin:miter;stroke-miterlimit:10;stroke-dasharray:none;stroke-opacity:1"
       transform="matrix(1.3333333,0,0,-1.3333333,23.470667,190.02533)" />
    <path
       id="path39"
       d="M 55.27618,8.50412 H 92.1271"
       style="fill:none;stroke:#000000;stroke-width:0.59776;stroke-linecap:butt;stroke-linejoin:miter;stroke-miterlimit:10;stroke-dasharray:2.98883, 2.98883;stroke-dashoffset:0;stroke-opacity:1"
       transform="matrix(1.3333333,0,0,-1.3333333,23.470667,190.02533)" />
    <path
       id="path40"
       d="M 55.27618,8.50412 92.1271,18.42567"
       style="fill:none;stroke:#000000;stroke-width:0.59776;stroke-linecap:butt;stroke-linejoin:miter;stroke-miterlimit:10;stroke-dasharray:2.98883, 2.98883;stroke-dashoffset:0;stroke-opacity:1"
       transform="matrix(1.3333333,0,0,-1.3333333,23.470667,190.02533)" />
    <path
       id="path41"
       d="M 55.27618,8.50412 92.1271,28.34723"
       style="fill:none;stroke:#000000;stroke-width:0.59776;stroke-linecap:butt;stroke-linejoin:miter;stroke-miterlimit:10;stroke-dasharray:2.98883, 2.98883;stroke-dashoffset:0;stroke-opacity:1"
       transform="matrix(1.3333333,0,0,-1.3333333,23.470667,190.02533)" />
    <path
       id="path42"
       d="M 55.27618,8.50412 92.1271,38.26878"
       style="fill:none;stroke:#000000;stroke-width:0.59776;stroke-linecap:butt;stroke-linejoin:miter;stroke-miterlimit:10;stroke-dasharray:2.98883, 2.98883;stroke-dashoffset:0;stroke-opacity:1"
       transform="matrix(1.3333333,0,0,-1.3333333,23.470667,190.02533)" />
    <path
       id="path43"
       d="m 157.32487,5.66927 h 31.18166"
       style="fill:none;stroke:#000000;stroke-width:0.59776;stroke-linecap:butt;stroke-linejoin:miter;stroke-miterlimit:10;stroke-dasharray:none;stroke-opacity:1"
       transform="matrix(1.3333333,0,0,-1.3333333,23.470667,190.02533)" />
    <path
       id="path44"
       d="m 157.32487,8.50412 h 31.18166"
       style="fill:none;stroke:#000000;stroke-width:0.59776;stroke-linecap:butt;stroke-linejoin:miter;stroke-miterlimit:10;stroke-dasharray:none;stroke-opacity:1"
       transform="matrix(1.3333333,0,0,-1.3333333,23.470667,190.02533)" />
    <path
       id="path45"
       d="m 157.32487,11.33896 h 31.18166"
       style="fill:none;stroke:#000000;stroke-width:0.59776;stroke-linecap:butt;stroke-linejoin:miter;stroke-miterlimit:10;stroke-dasharray:none;stroke-opacity:1"
       transform="matrix(1.3333333,0,0,-1.3333333,23.470667,190.02533)" />
    <path
       id="path46"
       d="m 157.32487,15.59082 h 31.18166"
       style="fill:none;stroke:#000000;stroke-width:0.59776;stroke-linecap:butt;stroke-linejoin:miter;stroke-miterlimit:10;stroke-dasharray:none;stroke-opacity:1"
       transform="matrix(1.3333333,0,0,-1.3333333,23.470667,190.02533)" />
    <path
       id="path47"
       d="m 157.32487,18.42567 h 31.18166"
       style="fill:none;stroke:#000000;stroke-width:0.59776;stroke-linecap:butt;stroke-linejoin:miter;stroke-miterlimit:10;stroke-dasharray:none;stroke-opacity:1"
       transform="matrix(1.3333333,0,0,-1.3333333,23.470667,190.02533)" />
    <path
       id="path48"
       d="m 157.32487,21.26053 h 31.18166"
       style="fill:none;stroke:#000000;stroke-width:0.59776;stroke-linecap:butt;stroke-linejoin:miter;stroke-miterlimit:10;stroke-dasharray:none;stroke-opacity:1"
       transform="matrix(1.3333333,0,0,-1.3333333,23.470667,190.02533)" />
    <path
       id="path49"
       d="M 123.30879,8.50412 157.32487,5.66927"
       style="fill:none;stroke:#000000;stroke-width:0.59776;stroke-linecap:butt;stroke-linejoin:miter;stroke-miterlimit:10;stroke-dasharray:2.98883, 2.98883;stroke-dashoffset:0;stroke-opacity:1"
       transform="matrix(1.3333333,0,0,-1.3333333,23.470667,190.02533)" />
    <path
       id="path50"
       d="m 123.30879,8.50412 h 34.01608"
       style="fill:none;stroke:#000000;stroke-width:0.59776;stroke-linecap:butt;stroke-linejoin:miter;stroke-miterlimit:10;stroke-dasharray:2.98883, 2.98883;stroke-dashoffset:0;stroke-opacity:1"
       transform="matrix(1.3333333,0,0,-1.3333333,23.470667,190.02533)" />
    <path
       id="path51"
       d="m 123.30879,8.50412 34.01608,2.83484"
       style="fill:none;stroke:#000000;stroke-width:0.59776;stroke-linecap:butt;stroke-linejoin:miter;stroke-miterlimit:10;stroke-dasharray:2.98883, 2.98883;stroke-dashoffset:0;stroke-opacity:1"
       transform="matrix(1.3333333,0,0,-1.3333333,23.470667,190.02533)" />
    <path
       id="path52"
       d="m 123.30879,18.42567 34.01608,-2.83485"
       style="fill:none;stroke:#000000;stroke-width:0.59776;stroke-linecap:butt;stroke-linejoin:miter;stroke-miterlimit:10;stroke-dasharray:2.98883, 2.98883;stroke-dashoffset:0;stroke-opacity:1"
       transform="matrix(1.3333333,0,0,-1.3333333,23.470667,190.02533)" />
    <path
       id="path53"
       d="m 123.30879,18.42567 h 34.01608"
       style="fill:none;stroke:#000000;stroke-width:0.59776;stroke-linecap:butt;stroke-linejoin:miter;stroke-miterlimit:10;stroke-dasharray:2.98883, 2.98883;stroke-dashoffset:0;stroke-opacity:1"
       transform="matrix(1.3333333,0,0,-1.3333333,23.470667,190.02533)" />
    <path
       id="path54"
       d="m 123.30879,18.42567 34.01608,2.83486"
       style="fill:none;stroke:#000000;stroke-width:0.59776;stroke-linecap:butt;stroke-linejoin:miter;stroke-miterlimit:10;stroke-dasharray:2.98883, 2.98883;stroke-dashoffset:0;stroke-opacity:1"
       transform="matrix(1.3333333,0,0,-1.3333333,23.470667,190.02533)" />
    <path
       id="path55"
       d="M 5.0742813,-1.8276953 H 4.8399063 C 4.6524063,-0.78472656 4.5000625,-0.24566406 3.211,-0.24566406 H 2.1094375 c -0.328125,0 -0.3398437,-0.0585938 -0.3398437,-0.28125 V -2.3316016 h 0.703125 c 0.703125,0 0.8085937,0.2109375 0.8085937,0.8085938 h 0.234375 v -1.875 h -0.234375 c 0,0.5976562 -0.1054687,0.8085937 -0.8085937,0.8085937 h -0.703125 v -1.6171875 c 0,-0.2226562 0.011719,-0.28125 0.3398437,-0.28125 h 1.0429688 c 1.1484375,0 1.3476562,0.3867188 1.4648437,1.359375 H 4.8633438 L 4.6524063,-4.7339453 H 0.38678125 v 0.2460937 H 0.5625625 c 0.5273438,0 0.5507813,0.070312 0.5507813,0.3164063 v 3.60937499 c 0,0.234375 -0.023437,0.31640625 -0.5507813,0.31640625 H 0.38678125 V 4.296875e-4 H 4.757875 Z M 6.7969375,-4.8394141 5.74225,-4.7573828 v 0.2460937 c 0.46875,0 0.5273438,0.046875 0.5273438,0.3867188 v 3.57421874 c 0,0.3046875 -0.070312,0.3046875 -0.5273438,0.3046875 V 4.296875e-4 c 0.023437,0 0.5039063,-0.0234374975 0.7851563,-0.0234374975 0.2695312,0 0.5273437,0 0.7851562,0.0234374975 V -0.24566406 c -0.4453125,0 -0.515625,0 -0.515625,-0.3046875 z m 3.8847655,3.2460938 c 0.140625,0 0.1875,0 0.1875,-0.1523438 0,-0.609375 -0.339844,-1.359375 -1.3710936,-1.359375 -0.9140625,0 -1.6171875,0.7265625 -1.6171875,1.5820313 0,0.87890624 0.7734375,1.59374999 1.6992187,1.59374999 0.9492184,0 1.2890624,-0.75 1.2890624,-0.90234375 0,-0.0351563 -0.01172,-0.10546875 -0.117187,-0.10546875 -0.08203,0 -0.105469,0.046875 -0.117188,0.1171875 -0.222656,0.5625 -0.7499999,0.66796875 -0.9960936,0.66796875 -0.328125,0 -0.6445313,-0.15234375 -0.8554688,-0.41015625 C 8.5254531,-0.89019531 8.5137344,-1.3120703 8.5137344,-1.5933203 Z M 8.5254531,-1.7691016 c 0.070312,-0.984375 0.703125,-1.1484375 0.9726563,-1.1484375 0.8554686,0 0.8789066,0.9726563 0.8906246,1.1484375 z m 5.3349609,-1.0078125 c -0.117187,0.046875 -0.1875,0.1640625 -0.1875,0.3046875 0,0.1875 0.128906,0.328125 0.328125,0.328125 0.1875,0 0.328125,-0.1171875 0.328125,-0.3398437 0,-0.6210938 -0.960937,-0.6210938 -1.160156,-0.6210938 -1.042969,0 -1.699219,0.796875 -1.699219,1.59375 0,0.87890629 0.75,1.58203129 1.664063,1.58203129 1.042968,0 1.277343,-0.8203125 1.277343,-0.90234375 0,-0.09375 -0.08203,-0.09375 -0.117187,-0.09375 -0.08203,0 -0.09375,0.0234375 -0.128906,0.12890625 -0.152344,0.421875 -0.527344,0.64453125 -0.949219,0.64453125 -0.480469,0 -1.101563,-0.3515625 -1.101563,-1.35937504 0,-0.890625 0.421875,-1.3710937 1.078125,-1.3710937 0.08203,0 0.421875,0 0.667969,0.1054687 z m 2.241211,0.023437 h 1.078125 v -0.2460937 h -1.078125 v -1.2890625 h -0.246094 c 0,0.6328125 -0.292968,1.3242187 -0.960937,1.3359375 v 0.1992187 h 0.65625 v 1.88671879 c 0,0.7734375 0.585937,0.9375 0.972656,0.9375 0.46875,0 0.785156,-0.3984375 0.785156,-0.94921875 V -1.2651953 h -0.234375 v 0.37499999 c 0,0.48046875 -0.222656,0.73828125 -0.492187,0.73828125 -0.480469,0 -0.480469,-0.5859375 -0.480469,-0.71484375 z m 3.087891,1.1601563 c 0,-0.5859375 0.28125,-1.2890625 0.9375,-1.2890625 -0.05859,0.046875 -0.117188,0.140625 -0.117188,0.2578125 0,0.2226562 0.175781,0.3164062 0.316406,0.3164062 0.164063,0 0.316407,-0.1054687 0.316407,-0.3164062 0,-0.2460938 -0.222657,-0.4453125 -0.550782,-0.4453125 -0.351562,0 -0.726562,0.2109375 -0.9375,0.7382812 h -0.01172 v -0.7382812 l -0.996094,0.070312 v 0.2578125 c 0.46875,0 0.527344,0.046875 0.527344,0.3867187 v 1.80468754 c 0,0.3046875 -0.07031,0.3046875 -0.527344,0.3046875 V 4.296875e-4 c 0.03516,0 0.515625,-0.0234374975 0.796875,-0.0234374975 0.304687,0 0.609375,0.01171875 0.902344,0.0234374975 V -0.24566406 h -0.140625 c -0.515625,0 -0.515625,-0.0820313 -0.515625,-0.31640625 z m 5.422851,0.1054687 c 0,-0.8671875 -0.75,-1.6171875 -1.710937,-1.6171875 -0.960938,0 -1.710938,0.75 -1.710938,1.6171875 0,0.86718754 0.773438,1.55859379 1.710938,1.55859379 0.9375,0 1.710937,-0.69140625 1.710937,-1.55859379 z m -1.710937,1.33593754 c -0.257813,0 -0.632813,-0.0820313 -0.867188,-0.421875 -0.1875,-0.29296875 -0.210937,-0.65625004 -0.210937,-0.97265624 0,-0.3046875 0.01172,-0.7148438 0.257812,-1.0078125 0.175781,-0.2109375 0.46875,-0.3632813 0.820313,-0.3632813 0.410156,0 0.703125,0.1992188 0.855468,0.4101563 0.199219,0.28125 0.222657,0.6210937 0.222657,0.9609375 0,0.328125 -0.02344,0.70312499 -0.222657,0.98437499 -0.1875,0.26953125 -0.515625,0.41015625 -0.855468,0.41015625 z m 5.578125,-1.95703124 c 0,-0.609375 -0.292969,-0.9609375 -1.042969,-0.9609375 -0.574219,0 -0.9375,0.3046875 -1.136719,0.6679687 v -0.6679687 l -1.03125,0.070312 v 0.2578125 c 0.46875,0 0.527344,0.046875 0.527344,0.3867187 v 1.80468754 c 0,0.3046875 -0.07031,0.3046875 -0.527344,0.3046875 V 4.296875e-4 c 0.01172,0 0.503906,-0.0234374975 0.796875,-0.0234374975 0.257813,0 0.738281,0.01171875 0.796875,0.0234374975 V -0.24566406 c -0.445312,0 -0.515625,0 -0.515625,-0.3046875 V -1.8042578 c 0,-0.7382813 0.574219,-1.078125 1.03125,-1.078125 0.492188,0 0.550781,0.3867187 0.550781,0.7382812 v 1.59375004 c 0,0.3046875 -0.07031,0.3046875 -0.515625,0.3046875 V 4.296875e-4 c 0.01172,0 0.503907,-0.0234374975 0.796875,-0.0234374975 0.257813,0 0.738282,0.01171875 0.796875,0.0234374975 V -0.24566406 c -0.457031,0 -0.527343,0 -0.527343,-0.3046875 z m 2.291015,-2.1914063 c 0,-0.1992187 -0.175781,-0.3984375 -0.410156,-0.3984375 -0.210937,0 -0.398437,0.1640625 -0.398437,0.3984375 0,0.2460938 0.199218,0.3984375 0.398437,0.3984375 0.222656,0 0.410156,-0.1640625 0.410156,-0.3984375 z m -1.066406,1.3007813 v 0.2578125 c 0.445313,0 0.503906,0.035156 0.503906,0.375 v 1.81640624 c 0,0.3046875 -0.07031,0.3046875 -0.527343,0.3046875 V 4.296875e-4 c 0.02344,0 0.503906,-0.0234374975 0.785156,-0.0234374975 0.246094,0 0.492187,0 0.738281,0.0234374975 V -0.24566406 c -0.398437,0 -0.46875,0 -0.46875,-0.29296875 V -3.0698828 Z m 4.549805,0.2226562 c -0.117188,0.046875 -0.1875,0.1640625 -0.1875,0.3046875 0,0.1875 0.128906,0.328125 0.328125,0.328125 0.1875,0 0.328125,-0.1171875 0.328125,-0.3398437 0,-0.6210938 -0.960938,-0.6210938 -1.160157,-0.6210938 -1.042968,0 -1.699218,0.796875 -1.699218,1.59375 0,0.87890629 0.75,1.58203129 1.664062,1.58203129 1.042969,0 1.277344,-0.8203125 1.277344,-0.90234375 0,-0.09375 -0.08203,-0.09375 -0.117188,-0.09375 -0.08203,0 -0.09375,0.0234375 -0.128906,0.12890625 -0.152344,0.421875 -0.527344,0.64453125 -0.949219,0.64453125 -0.480468,0 -1.101562,-0.3515625 -1.101562,-1.35937504 0,-0.890625 0.421875,-1.3710937 1.078125,-1.3710937 0.08203,0 0.421875,0 0.667969,0.1054687 z m 4.96289,-2.0625 -1.054687,0.082031 v 0.2460937 c 0.46875,0 0.527344,0.046875 0.527344,0.3867188 v 3.57421874 c 0,0.3046875 -0.07031,0.3046875 -0.527344,0.3046875 V 4.296875e-4 c 0.02344,0 0.503906,-0.0234374975 0.785156,-0.0234374975 0.269531,0 0.527344,0 0.785156,0.0234374975 V -0.24566406 c -0.445312,0 -0.515625,0 -0.515625,-0.3046875 z m 3.884766,3.2460938 c 0.140625,0 0.1875,0 0.1875,-0.1523438 0,-0.609375 -0.339844,-1.359375 -1.371094,-1.359375 -0.914062,0 -1.617187,0.7265625 -1.617187,1.5820313 0,0.87890624 0.773437,1.59374999 1.699218,1.59374999 0.949219,0 1.289063,-0.75 1.289063,-0.90234375 0,-0.0351563 -0.01172,-0.10546875 -0.117188,-0.10546875 -0.08203,0 -0.105468,0.046875 -0.117187,0.1171875 -0.222656,0.5625 -0.75,0.66796875 -0.996094,0.66796875 -0.328125,0 -0.644531,-0.15234375 -0.855469,-0.41015625 -0.257812,-0.328125 -0.269531,-0.74999999 -0.269531,-1.03124999 z m -2.15625,-0.1757813 c 0.07031,-0.984375 0.703125,-1.1484375 0.972656,-1.1484375 0.855469,0 0.878906,0.9726563 0.890625,1.1484375 z m 5.932617,-0.5507812 c 0.199219,-0.421875 0.539063,-0.4335938 0.65625,-0.4335938 v -0.2460937 c -0.175781,0.011719 -0.351562,0.023437 -0.527344,0.023437 -0.1875,0 -0.445312,-0.011719 -0.632812,-0.023437 v 0.2460937 c 0.292969,0.011719 0.292969,0.2460938 0.292969,0.2695313 0,0.035156 -0.01172,0.1054687 -0.05859,0.1992187 l -0.785156,1.72265629 -0.867188,-1.89843749 c 0,-0.011719 -0.04687,-0.082031 -0.04687,-0.1289063 0,-0.1640625 0.234375,-0.1640625 0.363281,-0.1640625 v -0.2460937 c -0.02344,0 -0.515625,0.023437 -0.796875,0.023437 -0.210937,0 -0.480468,-0.011719 -0.691406,-0.023437 v 0.2460937 c 0.386719,0 0.46875,0.011719 0.574219,0.2460938 l 1.101562,2.42578124 c 0.03516,0.09375 0.08203,0.15234375 0.199219,0.15234375 0.128906,0 0.164063,-0.05859375 0.199219,-0.140625 z m 3.735352,0.7265625 c 0.140625,0 0.1875,0 0.1875,-0.1523438 0,-0.609375 -0.339844,-1.359375 -1.371094,-1.359375 -0.914063,0 -1.617188,0.7265625 -1.617188,1.5820313 0,0.87890624 0.773438,1.59374999 1.699219,1.59374999 0.949219,0 1.289063,-0.75 1.289063,-0.90234375 0,-0.0351563 -0.01172,-0.10546875 -0.117188,-0.10546875 -0.08203,0 -0.105469,0.046875 -0.117187,0.1171875 -0.222657,0.5625 -0.75,0.66796875 -0.996094,0.66796875 -0.328125,0 -0.644531,-0.15234375 -0.855469,-0.41015625 -0.257812,-0.328125 -0.269531,-0.74999999 -0.269531,-1.03124999 z m -2.15625,-0.1757813 c 0.07031,-0.984375 0.703125,-1.1484375 0.972656,-1.1484375 0.855469,0 0.878906,0.9726563 0.890625,1.1484375 z m 4.069336,-3.0703125 -1.054688,0.082031 v 0.2460937 c 0.46875,0 0.527344,0.046875 0.527344,0.3867188 v 3.57421874 c 0,0.3046875 -0.07031,0.3046875 -0.527344,0.3046875 V 4.296875e-4 c 0.02344,0 0.503906,-0.0234374975 0.785156,-0.0234374975 0.269532,0 0.527344,0 0.785157,0.0234374975 V -0.24566406 c -0.445313,0 -0.515625,0 -0.515625,-0.3046875 z m 3.459961,1.9101563 c 0,-0.1171875 0,-0.1757813 -0.105469,-0.1757813 -0.03516,0 -0.04687,0 -0.140625,0.082031 -0.01172,0 -0.08203,0.070312 -0.117188,0.1054687 -0.210937,-0.1523437 -0.480468,-0.1875 -0.738281,-0.1875 -0.996094,0 -1.230469,0.515625 -1.230469,0.8671875 0,0.2226563 0.09375,0.4101563 0.257813,0.5390625 0.269531,0.234375 0.539062,0.28125 0.960937,0.3515625 0.351563,0.070312 0.914063,0.1640625 0.914063,0.63281254 0,0.26953125 -0.1875,0.5859375 -0.855469,0.5859375 -0.667969,0 -0.914062,-0.43359375 -1.03125,-0.91406254 -0.02344,-0.082031 -0.03516,-0.1171875 -0.128906,-0.1171875 -0.117188,0 -0.117188,0.046875 -0.117188,0.18750004 v 0.85546875 c 0,0.12890625 0,0.1875 0.09375,0.1875 0.05859,0 0.199219,-0.15234375 0.339844,-0.3046875 0.304688,0.29296875 0.679688,0.3046875 0.84375,0.3046875 0.914063,0 1.242188,-0.4921875 1.242188,-0.984375 0,-0.26953129 -0.117188,-0.46874999 -0.292969,-0.64453129 -0.269531,-0.2460937 -0.585938,-0.2929687 -0.832031,-0.3398437 -0.5625,-0.09375 -1.007813,-0.1757813 -1.007813,-0.5507813 0,-0.2226562 0.1875,-0.4921875 0.84375,-0.4921875 0.808594,0 0.84375,0.5625 0.855469,0.7617188 0.01172,0.082031 0.09375,0.082031 0.117187,0.082031 0.128907,0 0.128907,-0.046875 0.128907,-0.1875 z m 0,0"
       style="fill:#000000;fill-opacity:1;fill-rule:nonzero;stroke:none"
       aria-label="Electroniclevels"
       transform="matrix(1.3333333,0,0,1.3333333,38.718667,193.25333)" />
    <path
       id="path56"
       d="m 4.8635469,-4.0542578 c 0.09375,-0.2109375 0.2578125,-0.4453125 0.796875,-0.4570313 v -0.2460937 c -0.2109375,0.011719 -0.4804688,0.023437 -0.6796875,0.023437 -0.28125,0 -0.796875,-0.023437 -0.84375,-0.023437 v 0.2460937 c 0.2578125,0 0.4804687,0.1171875 0.4804687,0.328125 0,0.046875 -0.011719,0.09375 -0.023437,0.140625 l -1.453125,3.37500004 -1.5,-3.53906254 c -0.046875,-0.082031 -0.046875,-0.09375 -0.046875,-0.1171875 0,-0.1875 0.3632813,-0.1875 0.5507813,-0.1875 v -0.2460937 c -0.3398438,0.011719 -0.796875,0.023437 -1.03125,0.023437 -0.35156253,0 -0.87890628,-0.023437 -0.90234378,-0.023437 v 0.2460937 h 0.12890625 c 0.375,0 0.4921875,0.035156 0.5859375,0.2460938 l 1.80468753,4.24218749 c 0.046875,0.1171875 0.070312,0.1640625 0.1992187,0.1640625 0.070312,0 0.140625,0 0.2109375,-0.15234375 z m 2.493164,-0.2460938 c 0,-0.1992187 -0.1757812,-0.3984375 -0.4101562,-0.3984375 -0.2109375,0 -0.3984375,0.1640625 -0.3984375,0.3984375 0,0.2460938 0.1992187,0.3984375 0.3984375,0.3984375 0.2226562,0 0.4101562,-0.1640625 0.4101562,-0.3984375 z m -1.0664062,1.3007813 v 0.2578125 c 0.4453125,0 0.5039062,0.035156 0.5039062,0.375 v 1.81640624 c 0,0.3046875 -0.070312,0.3046875 -0.5273437,0.3046875 V 4.296875e-4 c 0.023437,0 0.5039062,-0.0234374975 0.7851562,-0.0234374975 0.2460938,0 0.4921875,0 0.7382813,0.0234374975 V -0.24566406 c -0.3984375,0 -0.46875,0 -0.46875,-0.29296875 V -3.0698828 Z m 3.2285156,-1.8398438 -1.0429687,0.082031 v 0.2460937 c 0.4804687,0 0.5273437,0.058594 0.5273437,0.4101563 V 4.296875e-4 h 0.234375 L 9.4836641,-0.42144531 c 0.2578125,0.33984375 0.6445309,0.4921875 1.0195309,0.4921875 0.914063,0 1.699219,-0.69140625 1.699219,-1.58203129 0,-0.84375 -0.714844,-1.5585937 -1.628906,-1.5585937 -0.410156,0 -0.7968752,0.1640625 -1.0546877,0.4101562 z m 0.035156,2.5078125 c 0.1875,-0.328125 0.5742187,-0.5507812 0.9843757,-0.5507812 0.398437,0 0.667968,0.2226562 0.808593,0.4335937 0.140625,0.1992188 0.222657,0.4804688 0.222657,0.9375 0,0.1640625 0,0.67968754 -0.28125,1.00781254 -0.28125,0.31640625 -0.621094,0.375 -0.820313,0.375 -0.5625002,0 -0.8437502,-0.43359375 -0.9140627,-0.5859375 z m 4.3652347,0.7382813 c 0,-0.5859375 0.28125,-1.2890625 0.9375,-1.2890625 -0.05859,0.046875 -0.117188,0.140625 -0.117188,0.2578125 0,0.2226562 0.175782,0.3164062 0.316407,0.3164062 0.164062,0 0.316406,-0.1054687 0.316406,-0.3164062 0,-0.2460938 -0.222656,-0.4453125 -0.550781,-0.4453125 -0.351563,0 -0.726563,0.2109375 -0.9375,0.7382812 h -0.01172 v -0.7382812 l -0.996094,0.070312 v 0.2578125 c 0.46875,0 0.527344,0.046875 0.527344,0.3867187 v 1.80468754 c 0,0.3046875 -0.07031,0.3046875 -0.527344,0.3046875 V 4.296875e-4 c 0.03516,0 0.515625,-0.0234374975 0.796875,-0.0234374975 0.304688,0 0.609375,0.01171875 0.902344,0.0234374975 V -0.24566406 h -0.140625 c -0.515625,0 -0.515625,-0.0820313 -0.515625,-0.31640625 z m 4.836914,-0.2695313 c 0,-0.375 0,-0.6445312 -0.316406,-0.9023437 -0.28125,-0.234375 -0.621094,-0.3398438 -1.03125,-0.3398438 -0.667969,0 -1.125,0.2460938 -1.125,0.6679688 0,0.2226562 0.152343,0.3398437 0.328125,0.3398437 0.1875,0 0.328125,-0.1289062 0.328125,-0.3164062 0,-0.1289063 -0.05859,-0.2695313 -0.246094,-0.328125 0.257812,-0.1757813 0.65625,-0.1757813 0.703125,-0.1757813 0.386719,0 0.808594,0.2578125 0.808594,0.84375 v 0.2226563 c -0.375,0.011719 -0.84375,0.035156 -1.347657,0.2226562 -0.632812,0.2226563 -0.820312,0.609375 -0.820312,0.92578129 0,0.59765625 0.726562,0.7734375 1.21875,0.7734375 0.550781,0 0.878906,-0.31640625 1.03125,-0.5859375 0.02344,0.28125 0.210937,0.55078125 0.539062,0.55078125 0.01172,0 0.691407,0 0.691407,-0.66796875 V -1.0073828 H 19.27175 v 0.37499999 c 0,0.0703125 0,0.3984375 -0.257813,0.3984375 -0.257812,0 -0.257812,-0.328125 -0.257812,-0.41015625 z m -0.550781,0.87890629 c 0,0.66796875 -0.585938,0.85546875 -0.890625,0.85546875 -0.363282,0 -0.691407,-0.234375 -0.691407,-0.57421875 0,-0.38671879 0.328125,-0.92578129 1.582032,-0.97265629 z m 2.821289,-1.76953129 h 1.078125 v -0.2460937 h -1.078125 v -1.2890625 h -0.246094 c 0,0.6328125 -0.292969,1.3242187 -0.960937,1.3359375 v 0.1992187 h 0.65625 v 1.88671879 c 0,0.7734375 0.585937,0.9375 0.972656,0.9375 0.46875,0 0.785156,-0.3984375 0.785156,-0.94921875 V -1.2651953 h -0.234375 v 0.37499999 c 0,0.48046875 -0.222656,0.73828125 -0.492187,0.73828125 -0.480469,0 -0.480469,-0.5859375 -0.480469,-0.71484375 z m 3.18457,-1.546875 c 0,-0.1992187 -0.175781,-0.3984375 -0.410156,-0.3984375 -0.210938,0 -0.398438,0.1640625 -0.398438,0.3984375 0,0.2460938 0.199219,0.3984375 0.398438,0.3984375 0.222656,0 0.410156,-0.1640625 0.410156,-0.3984375 z m -1.066406,1.3007813 v 0.2578125 c 0.445312,0 0.503906,0.035156 0.503906,0.375 v 1.81640624 c 0,0.3046875 -0.07031,0.3046875 -0.527344,0.3046875 V 4.296875e-4 c 0.02344,0 0.503907,-0.0234374975 0.785157,-0.0234374975 0.246093,0 0.492187,0 0.738281,0.0234374975 V -0.24566406 c -0.398438,0 -0.46875,0 -0.46875,-0.29296875 V -3.0698828 Z m 5.537109,1.5117187 c 0,-0.8671875 -0.75,-1.6171875 -1.710937,-1.6171875 -0.960938,0 -1.710938,0.75 -1.710938,1.6171875 0,0.86718754 0.773438,1.55859379 1.710938,1.55859379 0.9375,0 1.710937,-0.69140625 1.710937,-1.55859379 z m -1.710937,1.33593754 c -0.257813,0 -0.632813,-0.0820313 -0.867188,-0.421875 -0.1875,-0.29296875 -0.210937,-0.65625004 -0.210937,-0.97265624 0,-0.3046875 0.01172,-0.7148438 0.257812,-1.0078125 0.175781,-0.2109375 0.46875,-0.3632813 0.820313,-0.3632813 0.410156,0 0.703125,0.1992188 0.855468,0.4101563 0.199219,0.28125 0.222657,0.6210937 0.222657,0.9609375 0,0.328125 -0.02344,0.70312499 -0.222657,0.98437499 -0.1875,0.26953125 -0.515625,0.41015625 -0.855468,0.41015625 z m 5.575195,-1.95703124 c 0,-0.609375 -0.292969,-0.9609375 -1.042969,-0.9609375 -0.574218,0 -0.9375,0.3046875 -1.136718,0.6679687 v -0.6679687 l -1.03125,0.070312 v 0.2578125 c 0.46875,0 0.527343,0.046875 0.527343,0.3867187 v 1.80468754 c 0,0.3046875 -0.07031,0.3046875 -0.527343,0.3046875 V 4.296875e-4 c 0.01172,0 0.503906,-0.0234374975 0.796875,-0.0234374975 0.257812,0 0.738281,0.01171875 0.796875,0.0234374975 V -0.24566406 c -0.445313,0 -0.515625,0 -0.515625,-0.3046875 V -1.8042578 c 0,-0.7382813 0.574218,-1.078125 1.03125,-1.078125 0.492187,0 0.550781,0.3867187 0.550781,0.7382812 v 1.59375004 c 0,0.3046875 -0.07031,0.3046875 -0.515625,0.3046875 V 4.296875e-4 c 0.01172,0 0.503906,-0.0234374975 0.796875,-0.0234374975 0.257812,0 0.738281,0.01171875 0.796875,0.0234374975 V -0.24566406 c -0.457031,0 -0.527344,0 -0.527344,-0.3046875 z m 3.919922,0.2460937 c 0,-0.375 0,-0.6445312 -0.316406,-0.9023437 -0.28125,-0.234375 -0.621094,-0.3398438 -1.03125,-0.3398438 -0.667969,0 -1.125,0.2460938 -1.125,0.6679688 0,0.2226562 0.152343,0.3398437 0.328125,0.3398437 0.1875,0 0.328125,-0.1289062 0.328125,-0.3164062 0,-0.1289063 -0.05859,-0.2695313 -0.246094,-0.328125 0.257812,-0.1757813 0.65625,-0.1757813 0.703125,-0.1757813 0.386719,0 0.808594,0.2578125 0.808594,0.84375 v 0.2226563 c -0.375,0.011719 -0.84375,0.035156 -1.347657,0.2226562 -0.632812,0.2226563 -0.820312,0.609375 -0.820312,0.92578129 0,0.59765625 0.726562,0.7734375 1.21875,0.7734375 0.550781,0 0.878906,-0.31640625 1.03125,-0.5859375 0.02344,0.28125 0.210937,0.55078125 0.539062,0.55078125 0.01172,0 0.691407,0 0.691407,-0.66796875 V -1.0073828 h -0.246094 v 0.37499999 c 0,0.0703125 0,0.3984375 -0.257813,0.3984375 -0.257812,0 -0.257812,-0.328125 -0.257812,-0.41015625 z m -0.550781,0.87890629 c 0,0.66796875 -0.585938,0.85546875 -0.890625,0.85546875 -0.363282,0 -0.691407,-0.234375 -0.691407,-0.57421875 0,-0.38671879 0.328125,-0.92578129 1.582032,-0.97265629 z m 2.859375,-3.85546879 -1.054688,0.082031 v 0.2460937 c 0.46875,0 0.527344,0.046875 0.527344,0.3867188 v 3.57421874 c 0,0.3046875 -0.07031,0.3046875 -0.527344,0.3046875 V 4.296875e-4 c 0.02344,0 0.503906,-0.0234374975 0.785156,-0.0234374975 0.269532,0 0.527344,0 0.785157,0.0234374975 V -0.24566406 c -0.445313,0 -0.515625,0 -0.515625,-0.3046875 z m 4.939453,0 -1.054688,0.082031 v 0.2460937 c 0.46875,0 0.527344,0.046875 0.527344,0.3867188 v 3.57421874 c 0,0.3046875 -0.07031,0.3046875 -0.527344,0.3046875 V 4.296875e-4 c 0.02344,0 0.503907,-0.0234374975 0.785157,-0.0234374975 0.269531,0 0.527343,0 0.785156,0.0234374975 V -0.24566406 c -0.445313,0 -0.515625,0 -0.515625,-0.3046875 z m 3.884765,3.2460938 c 0.140625,0 0.1875,0 0.1875,-0.1523438 0,-0.609375 -0.339843,-1.359375 -1.371093,-1.359375 -0.914063,0 -1.617188,0.7265625 -1.617188,1.5820313 0,0.87890624 0.773438,1.59374999 1.699219,1.59374999 0.949219,0 1.289062,-0.75 1.289062,-0.90234375 0,-0.0351563 -0.01172,-0.10546875 -0.117187,-0.10546875 -0.08203,0 -0.105469,0.046875 -0.117188,0.1171875 -0.222656,0.5625 -0.75,0.66796875 -0.996093,0.66796875 -0.328125,0 -0.644532,-0.15234375 -0.855469,-0.41015625 -0.257813,-0.328125 -0.269531,-0.74999999 -0.269531,-1.03124999 z m -2.15625,-0.1757813 c 0.07031,-0.984375 0.703125,-1.1484375 0.972657,-1.1484375 0.855468,0 0.878906,0.9726563 0.890625,1.1484375 z m 5.932618,-0.5507812 c 0.199218,-0.421875 0.539062,-0.4335938 0.65625,-0.4335938 v -0.2460937 c -0.175782,0.011719 -0.351563,0.023437 -0.527344,0.023437 -0.1875,0 -0.445313,-0.011719 -0.632813,-0.023437 v 0.2460937 c 0.292969,0.011719 0.292969,0.2460938 0.292969,0.2695313 0,0.035156 -0.01172,0.1054687 -0.05859,0.1992187 l -0.785156,1.72265629 -0.867187,-1.89843749 c 0,-0.011719 -0.04687,-0.082031 -0.04687,-0.1289063 0,-0.1640625 0.234375,-0.1640625 0.363281,-0.1640625 v -0.2460937 c -0.02344,0 -0.515625,0.023437 -0.796875,0.023437 -0.210938,0 -0.480469,-0.011719 -0.691406,-0.023437 v 0.2460937 c 0.386718,0 0.46875,0.011719 0.574218,0.2460938 l 1.101563,2.42578124 c 0.03516,0.09375 0.08203,0.15234375 0.199219,0.15234375 0.128906,0 0.164062,-0.05859375 0.199218,-0.140625 z m 3.735351,0.7265625 c 0.140625,0 0.1875,0 0.1875,-0.1523438 0,-0.609375 -0.339844,-1.359375 -1.371094,-1.359375 -0.914062,0 -1.617187,0.7265625 -1.617187,1.5820313 0,0.87890624 0.773437,1.59374999 1.699219,1.59374999 0.949218,0 1.289062,-0.75 1.289062,-0.90234375 0,-0.0351563 -0.01172,-0.10546875 -0.117187,-0.10546875 -0.08203,0 -0.105469,0.046875 -0.117188,0.1171875 -0.222656,0.5625 -0.75,0.66796875 -0.996094,0.66796875 -0.328125,0 -0.644531,-0.15234375 -0.855468,-0.41015625 -0.257813,-0.328125 -0.269532,-0.74999999 -0.269532,-1.03124999 z m -2.15625,-0.1757813 c 0.07031,-0.984375 0.703125,-1.1484375 0.972656,-1.1484375 0.855469,0 0.878907,0.9726563 0.890625,1.1484375 z m 4.069336,-3.0703125 -1.054687,0.082031 v 0.2460937 c 0.46875,0 0.527343,0.046875 0.527343,0.3867188 v 3.57421874 c 0,0.3046875 -0.07031,0.3046875 -0.527343,0.3046875 V 4.296875e-4 c 0.02344,0 0.503906,-0.0234374975 0.785156,-0.0234374975 0.269531,0 0.527344,0 0.785156,0.0234374975 V -0.24566406 c -0.445312,0 -0.515625,0 -0.515625,-0.3046875 z m 3.462891,1.9101563 c 0,-0.1171875 0,-0.1757813 -0.105469,-0.1757813 -0.03516,0 -0.04687,0 -0.140625,0.082031 -0.01172,0 -0.08203,0.070312 -0.117188,0.1054687 -0.210937,-0.1523437 -0.480468,-0.1875 -0.738281,-0.1875 -0.996094,0 -1.230469,0.515625 -1.230469,0.8671875 0,0.2226563 0.09375,0.4101563 0.257813,0.5390625 0.269531,0.234375 0.539062,0.28125 0.960937,0.3515625 0.351563,0.070312 0.914063,0.1640625 0.914063,0.63281254 0,0.26953125 -0.1875,0.5859375 -0.855469,0.5859375 -0.667969,0 -0.914062,-0.43359375 -1.03125,-0.91406254 -0.02344,-0.082031 -0.03516,-0.1171875 -0.128906,-0.1171875 -0.117188,0 -0.117188,0.046875 -0.117188,0.18750004 v 0.85546875 c 0,0.12890625 0,0.1875 0.09375,0.1875 0.05859,0 0.199219,-0.15234375 0.339844,-0.3046875 0.304688,0.29296875 0.679688,0.3046875 0.84375,0.3046875 0.914063,0 1.242188,-0.4921875 1.242188,-0.984375 0,-0.26953129 -0.117188,-0.46874999 -0.292969,-0.64453129 -0.269531,-0.2460937 -0.585938,-0.2929687 -0.832031,-0.3398437 -0.5625,-0.09375 -1.007813,-0.1757813 -1.007813,-0.5507813 0,-0.2226562 0.1875,-0.4921875 0.84375,-0.4921875 0.808594,0 0.84375,0.5625 0.855469,0.7617188 0.01172,0.082031 0.09375,0.082031 0.117187,0.082031 0.128907,0 0.128907,-0.046875 0.128907,-0.1875 z m 0,0"
       style="fill:#000000;fill-opacity:1;fill-rule:nonzero;stroke:none"
       aria-label="Vibrationallevels"
       transform="matrix(1.3333333,0,0,1.3333333,126.42933,193.25333)" />
    <path
       id="path57"
       d="m 3.5050391,-2.3784766 c 0.6210937,-0.140625 1.2539062,-0.5507812 1.2539062,-1.125 0,-0.6914062 -0.9257812,-1.2539062 -2.0039062,-1.2539062 H 0.41128906 v 0.2460937 h 0.1640625 c 0.53906254,0 0.55078124,0.070312 0.55078124,0.3164063 v 3.63281249 c 0,0.234375 -0.011719,0.31640625 -0.55078124,0.31640625 H 0.41128906 V 4.296875e-4 c 0,0 0.73828124,-0.0234374975 1.03125004,-0.0234374975 0.2929687,0 0.6796875,0.01171875 1.03125,0.0234374975 V -0.24566406 H 2.3097266 c -0.5390625,0 -0.5507813,-0.0703125 -0.5507813,-0.31640625 V -2.2847266 h 0.9257813 c 0.1289062,0 0.4921875,0 0.796875,0.28125 0.2460937,0.2226563 0.2460937,0.3984375 0.2460937,0.8554688 0,0.45703124 0,0.73828124 0.3164063,1.00781249 0.3046875,0.24609375 0.7148437,0.28125 0.9023437,0.28125 0.5976563,0 0.75,-0.5625 0.75,-0.7734375 0,-0.046875 0,-0.12890625 -0.1171875,-0.12890625 -0.1054687,0 -0.1171875,0.0585938 -0.1171875,0.12890625 -0.035156,0.3984375 -0.2695312,0.57421875 -0.4804687,0.57421875 -0.3984375,0 -0.4570313,-0.41015625 -0.5390625,-1.04296874 -0.082031,-0.5625 -0.09375,-0.6679688 -0.3046875,-0.9023438 -0.070312,-0.070312 -0.2578125,-0.2578125 -0.6328125,-0.375 z m -0.84375,-0.1054687 H 1.7589453 v -1.7578125 c 0,-0.1875 0.011719,-0.2460938 0.1875,-0.2578125 0.058594,-0.011719 0.2929688,-0.011719 0.4335938,-0.011719 0.6796875,0 1.6289062,0 1.6289062,1.0078125 0,0.7851563 -0.609375,1.0195313 -1.3476562,1.0195315 z m 6.8144531,0.9960937 c 0,-0.8671875 -0.75,-1.6171875 -1.7109375,-1.6171875 -0.9609375,0 -1.7109375,0.75 -1.7109375,1.6171875 0,0.86718754 0.7734375,1.55859379 1.7109375,1.55859379 0.9375,0 1.7109375,-0.69140625 1.7109375,-1.55859379 z m -1.7109375,1.33593754 c -0.2578125,0 -0.6328125,-0.0820313 -0.8671875,-0.421875 -0.1875,-0.29296875 -0.2109375,-0.65625004 -0.2109375,-0.97265624 0,-0.3046875 0.011719,-0.7148438 0.2578125,-1.0078125 0.1757812,-0.2109375 0.46875,-0.3632813 0.8203125,-0.3632813 0.4101562,0 0.703125,0.1992188 0.8554687,0.4101563 0.1992188,0.28125 0.2226563,0.6210937 0.2226563,0.9609375 0,0.328125 -0.023437,0.70312499 -0.2226563,0.98437499 -0.1875,0.26953125 -0.515625,0.41015625 -0.8554687,0.41015625 z M 11.163242,-2.7534766 h 1.078125 v -0.2460937 h -1.078125 v -1.2890625 h -0.246094 c 0,0.6328125 -0.292968,1.3242187 -0.9609371,1.3359375 v 0.1992187 h 0.6562501 v 1.88671879 c 0,0.7734375 0.585937,0.9375 0.972656,0.9375 0.46875,0 0.785156,-0.3984375 0.785156,-0.94921875 V -1.2651953 h -0.234375 v 0.37499999 c 0,0.48046875 -0.222656,0.73828125 -0.492187,0.73828125 -0.480469,0 -0.480469,-0.5859375 -0.480469,-0.71484375 z m 4.810547,0.890625 c 0,-0.375 0,-0.6445312 -0.316406,-0.9023437 -0.28125,-0.234375 -0.621094,-0.3398438 -1.03125,-0.3398438 -0.667969,0 -1.125,0.2460938 -1.125,0.6679688 0,0.2226562 0.152344,0.3398437 0.328125,0.3398437 0.1875,0 0.328125,-0.1289062 0.328125,-0.3164062 0,-0.1289063 -0.05859,-0.2695313 -0.246094,-0.328125 0.257813,-0.1757813 0.65625,-0.1757813 0.703125,-0.1757813 0.386719,0 0.808594,0.2578125 0.808594,0.84375 v 0.2226563 c -0.375,0.011719 -0.84375,0.035156 -1.347656,0.2226562 -0.632813,0.2226563 -0.820313,0.609375 -0.820313,0.92578129 0,0.59765625 0.726563,0.7734375 1.21875,0.7734375 0.550781,0 0.878906,-0.31640625 1.03125,-0.5859375 0.02344,0.28125 0.210938,0.55078125 0.539063,0.55078125 0.01172,0 0.691406,0 0.691406,-0.66796875 V -1.0073828 h -0.246094 v 0.37499999 c 0,0.0703125 0,0.3984375 -0.257812,0.3984375 -0.257813,0 -0.257813,-0.328125 -0.257813,-0.41015625 z m -0.550781,0.87890629 c 0,0.66796875 -0.585938,0.85546875 -0.890625,0.85546875 -0.363281,0 -0.691406,-0.234375 -0.691406,-0.57421875 0,-0.38671879 0.328125,-0.92578129 1.582031,-0.97265629 z m 2.824219,-1.76953129 h 1.078125 v -0.2460937 h -1.078125 v -1.2890625 h -0.246094 c 0,0.6328125 -0.292969,1.3242187 -0.960938,1.3359375 v 0.1992187 h 0.65625 v 1.88671879 c 0,0.7734375 0.585938,0.9375 0.972657,0.9375 0.46875,0 0.785156,-0.3984375 0.785156,-0.94921875 V -1.2651953 h -0.234375 v 0.37499999 c 0,0.48046875 -0.222656,0.73828125 -0.492188,0.73828125 -0.480468,0 -0.480468,-0.5859375 -0.480468,-0.71484375 z m 3.18164,-1.546875 c 0,-0.1992187 -0.175781,-0.3984375 -0.410156,-0.3984375 -0.210938,0 -0.398438,0.1640625 -0.398438,0.3984375 0,0.2460938 0.199219,0.3984375 0.398438,0.3984375 0.222656,0 0.410156,-0.1640625 0.410156,-0.3984375 z m -1.066406,1.3007813 v 0.2578125 c 0.445312,0 0.503906,0.035156 0.503906,0.375 v 1.81640624 c 0,0.3046875 -0.07031,0.3046875 -0.527344,0.3046875 V 4.296875e-4 c 0.02344,0 0.503907,-0.0234374975 0.785157,-0.0234374975 0.246093,0 0.492187,0 0.738281,0.0234374975 V -0.24566406 c -0.398438,0 -0.46875,0 -0.46875,-0.29296875 V -3.0698828 Z m 5.537109,1.5117187 c 0,-0.8671875 -0.75,-1.6171875 -1.710937,-1.6171875 -0.960938,0 -1.710938,0.75 -1.710938,1.6171875 0,0.86718754 0.773438,1.55859379 1.710938,1.55859379 0.9375,0 1.710937,-0.69140625 1.710937,-1.55859379 z m -1.710937,1.33593754 c -0.257813,0 -0.632813,-0.0820313 -0.867188,-0.421875 -0.1875,-0.29296875 -0.210937,-0.65625004 -0.210937,-0.97265624 0,-0.3046875 0.01172,-0.7148438 0.257812,-1.0078125 0.175782,-0.2109375 0.46875,-0.3632813 0.820313,-0.3632813 0.410156,0 0.703125,0.1992188 0.855469,0.4101563 0.199218,0.28125 0.222656,0.6210937 0.222656,0.9609375 0,0.328125 -0.02344,0.70312499 -0.222656,0.98437499 -0.1875,0.26953125 -0.515625,0.41015625 -0.855469,0.41015625 z m 5.578125,-1.95703124 c 0,-0.609375 -0.292969,-0.9609375 -1.042969,-0.9609375 -0.574219,0 -0.9375,0.3046875 -1.136719,0.6679687 v -0.6679687 l -1.03125,0.070312 v 0.2578125 c 0.46875,0 0.527344,0.046875 0.527344,0.3867187 v 1.80468754 c 0,0.3046875 -0.07031,0.3046875 -0.527344,0.3046875 V 4.296875e-4 c 0.01172,0 0.503907,-0.0234374975 0.796875,-0.0234374975 0.257813,0 0.738282,0.01171875 0.796875,0.0234374975 V -0.24566406 c -0.445312,0 -0.515625,0 -0.515625,-0.3046875 V -1.8042578 c 0,-0.7382813 0.574219,-1.078125 1.03125,-1.078125 0.492188,0 0.550782,0.3867187 0.550782,0.7382812 v 1.59375004 c 0,0.3046875 -0.07031,0.3046875 -0.515625,0.3046875 V 4.296875e-4 c 0.01172,0 0.503906,-0.0234374975 0.796875,-0.0234374975 0.257812,0 0.738281,0.01171875 0.796875,0.0234374975 V -0.24566406 c -0.457032,0 -0.527344,0 -0.527344,-0.3046875 z m 3.919922,0.2460937 c 0,-0.375 0,-0.6445312 -0.316407,-0.9023437 -0.28125,-0.234375 -0.621093,-0.3398438 -1.03125,-0.3398438 -0.667968,0 -1.125,0.2460938 -1.125,0.6679688 0,0.2226562 0.152344,0.3398437 0.328125,0.3398437 0.1875,0 0.328125,-0.1289062 0.328125,-0.3164062 0,-0.1289063 -0.05859,-0.2695313 -0.246093,-0.328125 0.257812,-0.1757813 0.65625,-0.1757813 0.703125,-0.1757813 0.386718,0 0.808593,0.2578125 0.808593,0.84375 v 0.2226563 c -0.375,0.011719 -0.84375,0.035156 -1.347656,0.2226562 -0.632812,0.2226563 -0.820312,0.609375 -0.820312,0.92578129 0,0.59765625 0.726562,0.7734375 1.21875,0.7734375 0.550781,0 0.878906,-0.31640625 1.03125,-0.5859375 0.02344,0.28125 0.210937,0.55078125 0.539062,0.55078125 0.01172,0 0.691406,0 0.691406,-0.66796875 V -1.0073828 h -0.246093 v 0.37499999 c 0,0.0703125 0,0.3984375 -0.257813,0.3984375 -0.257812,0 -0.257812,-0.328125 -0.257812,-0.41015625 z m -0.550782,0.87890629 c 0,0.66796875 -0.585937,0.85546875 -0.890625,0.85546875 -0.363281,0 -0.691406,-0.234375 -0.691406,-0.57421875 0,-0.38671879 0.328125,-0.92578129 1.582031,-0.97265629 z m 2.856446,-3.85546879 -1.054688,0.082031 v 0.2460937 c 0.46875,0 0.527344,0.046875 0.527344,0.3867188 v 3.57421874 c 0,0.3046875 -0.07031,0.3046875 -0.527344,0.3046875 V 4.296875e-4 c 0.02344,0 0.503907,-0.0234374975 0.785157,-0.0234374975 0.269531,0 0.527343,0 0.785156,0.0234374975 V -0.24566406 c -0.445313,0 -0.515625,0 -0.515625,-0.3046875 z m 4.942383,0 -1.054688,0.082031 v 0.2460937 c 0.46875,0 0.527344,0.046875 0.527344,0.3867188 v 3.57421874 c 0,0.3046875 -0.07031,0.3046875 -0.527344,0.3046875 V 4.296875e-4 c 0.02344,0 0.503906,-0.0234374975 0.785156,-0.0234374975 0.269532,0 0.527344,0 0.785157,0.0234374975 V -0.24566406 c -0.445313,0 -0.515625,0 -0.515625,-0.3046875 z m 3.884765,3.2460938 c 0.140625,0 0.1875,0 0.1875,-0.1523438 0,-0.609375 -0.339844,-1.359375 -1.371094,-1.359375 -0.914062,0 -1.617187,0.7265625 -1.617187,1.5820313 0,0.87890624 0.773437,1.59374999 1.699219,1.59374999 0.949218,0 1.289062,-0.75 1.289062,-0.90234375 0,-0.0351563 -0.01172,-0.10546875 -0.117187,-0.10546875 -0.08203,0 -0.105469,0.046875 -0.117188,0.1171875 -0.222656,0.5625 -0.75,0.66796875 -0.996094,0.66796875 -0.328125,0 -0.644531,-0.15234375 -0.855468,-0.41015625 -0.257813,-0.328125 -0.269532,-0.74999999 -0.269532,-1.03124999 z m -2.15625,-0.1757813 c 0.07031,-0.984375 0.703125,-1.1484375 0.972656,-1.1484375 0.855469,0 0.878907,0.9726563 0.890625,1.1484375 z m 5.932617,-0.5507812 c 0.199219,-0.421875 0.539063,-0.4335938 0.65625,-0.4335938 v -0.2460937 c -0.175781,0.011719 -0.351562,0.023437 -0.527343,0.023437 -0.1875,0 -0.445313,-0.011719 -0.632813,-0.023437 v 0.2460937 c 0.292969,0.011719 0.292969,0.2460938 0.292969,0.2695313 0,0.035156 -0.01172,0.1054687 -0.05859,0.1992187 l -0.785156,1.72265629 -0.867188,-1.89843749 c 0,-0.011719 -0.04687,-0.082031 -0.04687,-0.1289063 0,-0.1640625 0.234375,-0.1640625 0.363282,-0.1640625 v -0.2460937 c -0.02344,0 -0.515625,0.023437 -0.796875,0.023437 -0.210938,0 -0.480469,-0.011719 -0.691407,-0.023437 v 0.2460937 c 0.386719,0 0.46875,0.011719 0.574219,0.2460938 l 1.101563,2.42578124 c 0.03516,0.09375 0.08203,0.15234375 0.199218,0.15234375 0.128907,0 0.164063,-0.05859375 0.199219,-0.140625 z m 3.735352,0.7265625 c 0.140625,0 0.1875,0 0.1875,-0.1523438 0,-0.609375 -0.339844,-1.359375 -1.371094,-1.359375 -0.914062,0 -1.617187,0.7265625 -1.617187,1.5820313 0,0.87890624 0.773437,1.59374999 1.699218,1.59374999 0.949219,0 1.289063,-0.75 1.289063,-0.90234375 0,-0.0351563 -0.01172,-0.10546875 -0.117188,-0.10546875 -0.08203,0 -0.105468,0.046875 -0.117187,0.1171875 -0.222656,0.5625 -0.75,0.66796875 -0.996094,0.66796875 -0.328125,0 -0.644531,-0.15234375 -0.855469,-0.41015625 -0.257812,-0.328125 -0.269531,-0.74999999 -0.269531,-1.03124999 z m -2.15625,-0.1757813 c 0.07031,-0.984375 0.703125,-1.1484375 0.972656,-1.1484375 0.855469,0 0.878906,0.9726563 0.890625,1.1484375 z m 4.069336,-3.0703125 -1.054688,0.082031 v 0.2460937 c 0.46875,0 0.527344,0.046875 0.527344,0.3867188 v 3.57421874 c 0,0.3046875 -0.07031,0.3046875 -0.527344,0.3046875 V 4.296875e-4 c 0.02344,0 0.503907,-0.0234374975 0.785157,-0.0234374975 0.269531,0 0.527343,0 0.785156,0.0234374975 V -0.24566406 c -0.445313,0 -0.515625,0 -0.515625,-0.3046875 z m 3.459961,1.9101563 c 0,-0.1171875 0,-0.1757813 -0.105469,-0.1757813 -0.03516,0 -0.04687,0 -0.140625,0.082031 -0.01172,0 -0.08203,0.070312 -0.117187,0.1054687 -0.210938,-0.1523437 -0.480469,-0.1875 -0.738282,-0.1875 -0.996093,0 -1.230468,0.515625 -1.230468,0.8671875 0,0.2226563 0.09375,0.4101563 0.257812,0.5390625 0.269531,0.234375 0.539063,0.28125 0.960938,0.3515625 0.351562,0.070312 0.914062,0.1640625 0.914062,0.63281254 0,0.26953125 -0.1875,0.5859375 -0.855469,0.5859375 -0.667968,0 -0.914062,-0.43359375 -1.03125,-0.91406254 -0.02344,-0.082031 -0.03516,-0.1171875 -0.128906,-0.1171875 -0.117187,0 -0.117187,0.046875 -0.117187,0.18750004 v 0.85546875 c 0,0.12890625 0,0.1875 0.09375,0.1875 0.05859,0 0.199218,-0.15234375 0.339843,-0.3046875 0.304688,0.29296875 0.679688,0.3046875 0.84375,0.3046875 0.914063,0 1.242188,-0.4921875 1.242188,-0.984375 0,-0.26953129 -0.117188,-0.46874999 -0.292969,-0.64453129 -0.269531,-0.2460937 -0.585937,-0.2929687 -0.832031,-0.3398437 -0.5625,-0.09375 -1.007813,-0.1757813 -1.007813,-0.5507813 0,-0.2226562 0.1875,-0.4921875 0.84375,-0.4921875 0.808594,0 0.84375,0.5625 0.855469,0.7617188 0.01172,0.082031 0.09375,0.082031 0.117188,0.082031 0.128906,0 0.128906,-0.046875 0.128906,-0.1875 z m 0,0"
       style="fill:#000000;fill-opacity:1;fill-rule:nonzero;stroke:none"
       aria-label="Rotationallevels"
       transform="matrix(1.3333333,0,0,1.3333333,215.21333,193.25333)" />
    <path
       id="path58"
       d="m 5.0742031,-1.8293828 h -0.234375 c -0.1875,1.04296874 -0.3398437,1.58203124 -1.6289062,1.58203124 H 2.1093594 c -0.328125,0 -0.3398438,-0.0585938 -0.3398438,-0.28125 V -2.3332891 h 0.703125 c 0.703125,0 0.8085938,0.2109375 0.8085938,0.8085938 h 0.234375 v -1.875 h -0.234375 c 0,0.5976562 -0.1054688,0.8085937 -0.8085938,0.8085937 h -0.703125 v -1.6171875 c 0,-0.2226562 0.011719,-0.28125 0.3398438,-0.28125 h 1.0429687 c 1.1484375,0 1.3476563,0.3867188 1.4648438,1.359375 H 4.8632656 L 4.6523281,-4.7356328 H 0.38670312 v 0.2460937 h 0.17578125 c 0.52734373,0 0.55078123,0.070312 0.55078123,0.3164063 v 3.60937499 c 0,0.234375 -0.023437,0.31640625 -0.55078123,0.31640625 H 0.38670312 v 0.24609375 H 4.7577969 Z m 1.7226563,-3.0117188 -1.0546875,0.082031 v 0.2460937 c 0.46875,0 0.5273437,0.046875 0.5273437,0.3867188 v 3.57421874 c 0,0.3046875 -0.070312,0.3046875 -0.5273437,0.3046875 v 0.24609375 c 0.023437,0 0.5039062,-0.0234375 0.7851562,-0.0234375 0.2695313,0 0.5273438,0 0.7851563,0.0234375 v -0.24609375 c -0.4453125,0 -0.515625,0 -0.515625,-0.3046875 z m 3.8847656,3.2460938 c 0.140625,0 0.1875,0 0.1875,-0.1523438 0,-0.609375 -0.339844,-1.359375 -1.3710938,-1.359375 -0.9140625,0 -1.6171875,0.7265625 -1.6171875,1.5820313 0,0.87890624 0.7734375,1.59374999 1.6992188,1.59374999 0.9492185,0 1.2890625,-0.75 1.2890625,-0.90234375 0,-0.0351563 -0.01172,-0.10546875 -0.117188,-0.10546875 -0.08203,0 -0.105468,0.046875 -0.117187,0.1171875 -0.222656,0.5625 -0.75,0.66796875 -0.9960938,0.66796875 -0.328125,0 -0.6445312,-0.15234375 -0.8554687,-0.41015625 C 8.525375,-0.89188281 8.5136562,-1.3137578 8.5136562,-1.5950078 Z m -2.15625,-0.1757813 c 0.070312,-0.984375 0.703125,-1.1484375 0.9726562,-1.1484375 0.8554688,0 0.8789058,0.9726563 0.8906248,1.1484375 z m 5.334961,-1.0078125 c -0.117188,0.046875 -0.1875,0.1640625 -0.1875,0.3046875 0,0.1875 0.128906,0.328125 0.328125,0.328125 0.1875,0 0.328125,-0.1171875 0.328125,-0.3398437 0,-0.6210938 -0.960938,-0.6210938 -1.160156,-0.6210938 -1.042969,0 -1.699219,0.796875 -1.699219,1.59375 0,0.87890629 0.75,1.58203129 1.664062,1.58203129 1.042969,0 1.277344,-0.8203125 1.277344,-0.90234375 0,-0.09375 -0.08203,-0.09375 -0.117187,-0.09375 -0.08203,0 -0.09375,0.0234375 -0.128907,0.12890625 -0.152343,0.421875 -0.527343,0.64453125 -0.949218,0.64453125 -0.480469,0 -1.101563,-0.3515625 -1.101563,-1.35937504 0,-0.890625 0.421875,-1.3710937 1.078125,-1.3710937 0.08203,0 0.421875,0 0.667969,0.1054687 z m 2.241211,0.023437 h 1.078125 v -0.2460937 h -1.078125 v -1.2890625 h -0.246094 c 0,0.6328125 -0.292969,1.3242187 -0.960937,1.3359375 v 0.1992187 h 0.65625 v 1.88671879 c 0,0.7734375 0.585937,0.9375 0.972656,0.9375 0.46875,0 0.785156,-0.3984375 0.785156,-0.94921875 V -1.2668828 h -0.234375 v 0.37499999 c 0,0.48046875 -0.222656,0.73828125 -0.492187,0.73828125 -0.480469,0 -0.480469,-0.5859375 -0.480469,-0.71484375 z m 3.08789,1.1601563 c 0,-0.5859375 0.28125,-1.2890625 0.9375,-1.2890625 -0.05859,0.046875 -0.117187,0.140625 -0.117187,0.2578125 0,0.2226562 0.175781,0.3164062 0.316406,0.3164062 0.164063,0 0.316406,-0.1054687 0.316406,-0.3164062 0,-0.2460938 -0.222656,-0.4453125 -0.550781,-0.4453125 -0.351562,0 -0.726562,0.2109375 -0.9375,0.7382812 h -0.01172 v -0.7382812 l -0.996093,0.070312 v 0.2578125 c 0.46875,0 0.527343,0.046875 0.527343,0.3867187 v 1.80468754 c 0,0.3046875 -0.07031,0.3046875 -0.527343,0.3046875 v 0.24609375 c 0.03516,0 0.515625,-0.0234375 0.796875,-0.0234375 0.304687,0 0.609375,0.01171875 0.902343,0.0234375 v -0.24609375 h -0.140625 c -0.515625,0 -0.515625,-0.0820313 -0.515625,-0.31640625 z m 5.422852,0.1054687 c 0,-0.8671875 -0.75,-1.6171875 -1.710937,-1.6171875 -0.960938,0 -1.710938,0.75 -1.710938,1.6171875 0,0.86718754 0.773438,1.55859379 1.710938,1.55859379 0.9375,0 1.710937,-0.69140625 1.710937,-1.55859379 z m -1.710937,1.33593754 c -0.257813,0 -0.632813,-0.0820313 -0.867188,-0.421875 -0.1875,-0.29296875 -0.210937,-0.65625004 -0.210937,-0.97265624 0,-0.3046875 0.01172,-0.7148438 0.257812,-1.0078125 0.175781,-0.2109375 0.46875,-0.3632813 0.820313,-0.3632813 0.410156,0 0.703125,0.1992188 0.855468,0.4101563 0.199219,0.28125 0.222657,0.6210937 0.222657,0.9609375 0,0.328125 -0.02344,0.70312499 -0.222657,0.98437499 -0.1875,0.26953125 -0.515625,0.41015625 -0.855468,0.41015625 z m 5.578125,-1.95703124 c 0,-0.609375 -0.292969,-0.9609375 -1.042969,-0.9609375 -0.574219,0 -0.9375,0.3046875 -1.136719,0.6679687 v -0.6679687 l -1.03125,0.070312 v 0.2578125 c 0.46875,0 0.527344,0.046875 0.527344,0.3867187 v 1.80468754 c 0,0.3046875 -0.07031,0.3046875 -0.527344,0.3046875 v 0.24609375 c 0.01172,0 0.503906,-0.0234375 0.796875,-0.0234375 0.257813,0 0.738281,0.01171875 0.796875,0.0234375 v -0.24609375 c -0.445312,0 -0.515625,0 -0.515625,-0.3046875 V -1.8059453 c 0,-0.7382813 0.574219,-1.078125 1.03125,-1.078125 0.492188,0 0.550781,0.3867187 0.550781,0.7382812 v 1.59375004 c 0,0.3046875 -0.07031,0.3046875 -0.515625,0.3046875 v 0.24609375 c 0.01172,0 0.503907,-0.0234375 0.796875,-0.0234375 0.257813,0 0.738282,0.01171875 0.796875,0.0234375 v -0.24609375 c -0.457031,0 -0.527343,0 -0.527343,-0.3046875 z m 3.005859,0.84375 v -0.46875 h -2.050781 v 0.46875 z m 3.140625,-1.6640625 c 0,-0.1171875 0,-0.1757813 -0.105469,-0.1757813 -0.03516,0 -0.04687,0 -0.140625,0.082031 -0.01172,0 -0.08203,0.070312 -0.117187,0.1054687 -0.210938,-0.1523437 -0.480469,-0.1875 -0.738282,-0.1875 -0.996093,0 -1.230468,0.515625 -1.230468,0.8671875 0,0.2226563 0.09375,0.4101563 0.257812,0.5390625 0.269531,0.234375 0.539063,0.28125 0.960938,0.3515625 0.351562,0.070312 0.914062,0.1640625 0.914062,0.63281254 0,0.26953125 -0.1875,0.5859375 -0.855469,0.5859375 -0.667968,0 -0.914062,-0.43359375 -1.03125,-0.91406254 -0.02344,-0.082031 -0.03516,-0.1171875 -0.128906,-0.1171875 -0.117187,0 -0.117187,0.046875 -0.117187,0.18750004 v 0.85546875 c 0,0.12890625 0,0.1875 0.09375,0.1875 0.05859,0 0.199218,-0.15234375 0.339843,-0.3046875 0.304688,0.29296875 0.679688,0.3046875 0.84375,0.3046875 0.914063,0 1.242188,-0.4921875 1.242188,-0.984375 0,-0.26953129 -0.117188,-0.46874999 -0.292969,-0.64453129 -0.269531,-0.2460937 -0.585937,-0.2929687 -0.832031,-0.3398437 -0.5625,-0.09375 -1.007813,-0.1757813 -1.007813,-0.5507813 0,-0.2226562 0.1875,-0.4921875 0.84375,-0.4921875 0.808594,0 0.84375,0.5625 0.855469,0.7617188 0.01172,0.082031 0.09375,0.082031 0.117188,0.082031 0.128906,0 0.128906,-0.046875 0.128906,-0.1875 z m 2.44043,4.03125 c -0.445313,0 -0.515625,0 -0.515625,-0.30468751 v -1.13671875 c 0.03516,0.0351563 0.363281,0.41015625 0.949218,0.41015625 0.914063,0 1.699219,-0.69140625 1.699219,-1.58203129 0,-0.8554687 -0.703125,-1.5585937 -1.59375,-1.5585937 -0.398437,0 -0.796875,0.140625 -1.089844,0.421875 v -0.421875 l -1.042968,0.070312 v 0.2578125 c 0.492187,0 0.527343,0.035156 0.527343,0.328125 v 3.21093749 c 0,0.30468751 -0.07031,0.30468751 -0.527343,0.30468751 v 0.2460937 c 0.01172,0 0.503906,-0.023437 0.796875,-0.023437 0.257812,0 0.738281,0.023437 0.796875,0.023437 z m -0.515625,-3.421875 c 0.210937,-0.3515625 0.609375,-0.5273438 0.984375,-0.5273438 0.585937,0 1.03125,0.609375 1.03125,1.3359375 0,0.79687504 -0.515625,1.38281254 -1.113282,1.38281254 -0.609375,0 -0.878906,-0.5390625 -0.902343,-0.57421875 z m 4.458984,-1.9804688 c 0,-0.1992187 -0.175781,-0.3984375 -0.410156,-0.3984375 -0.210938,0 -0.398438,0.1640625 -0.398438,0.3984375 0,0.2460938 0.199219,0.3984375 0.398438,0.3984375 0.222656,0 0.410156,-0.1640625 0.410156,-0.3984375 z m -1.066406,1.3007813 v 0.2578125 c 0.445312,0 0.503906,0.035156 0.503906,0.375 v 1.81640624 c 0,0.3046875 -0.07031,0.3046875 -0.527344,0.3046875 v 0.24609375 c 0.02344,0 0.503906,-0.0234375 0.785156,-0.0234375 0.246094,0 0.492188,0 0.738282,0.0234375 v -0.24609375 c -0.398438,0 -0.46875,0 -0.46875,-0.29296875 V -3.0715703 Z m 5.43164,0.890625 c 0,-0.609375 -0.292968,-0.9609375 -1.042968,-0.9609375 -0.574219,0 -0.9375,0.3046875 -1.136719,0.6679687 v -0.6679687 l -1.03125,0.070312 v 0.2578125 c 0.46875,0 0.527344,0.046875 0.527344,0.3867187 v 1.80468754 c 0,0.3046875 -0.07031,0.3046875 -0.527344,0.3046875 v 0.24609375 c 0.01172,0 0.503906,-0.0234375 0.796875,-0.0234375 0.257812,0 0.738281,0.01171875 0.796875,0.0234375 v -0.24609375 c -0.445313,0 -0.515625,0 -0.515625,-0.3046875 V -1.8059453 c 0,-0.7382813 0.574219,-1.078125 1.03125,-1.078125 0.492187,0 0.550781,0.3867187 0.550781,0.7382812 v 1.59375004 c 0,0.3046875 -0.07031,0.3046875 -0.515625,0.3046875 v 0.24609375 c 0.01172,0 0.503906,-0.0234375 0.796875,-0.0234375 0.257813,0 0.738281,0.01171875 0.796875,0.0234375 v -0.24609375 c -0.457031,0 -0.527344,0 -0.527344,-0.3046875 z m 4.939453,-2.7304688 -1.054687,0.082031 v 0.2460937 c 0.46875,0 0.527344,0.046875 0.527344,0.3867188 v 3.57421874 c 0,0.3046875 -0.07031,0.3046875 -0.527344,0.3046875 v 0.24609375 c 0.02344,0 0.503906,-0.0234375 0.785156,-0.0234375 0.269531,0 0.527344,0 0.785156,0.0234375 v -0.24609375 c -0.445312,0 -0.515625,0 -0.515625,-0.3046875 z m 3.884766,3.2460938 c 0.140625,0 0.1875,0 0.1875,-0.1523438 0,-0.609375 -0.339844,-1.359375 -1.371094,-1.359375 -0.914062,0 -1.617187,0.7265625 -1.617187,1.5820313 0,0.87890624 0.773437,1.59374999 1.699219,1.59374999 0.949218,0 1.289062,-0.75 1.289062,-0.90234375 0,-0.0351563 -0.01172,-0.10546875 -0.117187,-0.10546875 -0.08203,0 -0.105469,0.046875 -0.117188,0.1171875 -0.222656,0.5625 -0.75,0.66796875 -0.996094,0.66796875 -0.328125,0 -0.644531,-0.15234375 -0.855468,-0.41015625 -0.257813,-0.328125 -0.269532,-0.74999999 -0.269532,-1.03124999 z m -2.15625,-0.1757813 c 0.07031,-0.984375 0.703125,-1.1484375 0.972656,-1.1484375 0.855469,0 0.878907,0.9726563 0.890625,1.1484375 z m 5.932617,-0.5507812 c 0.199219,-0.421875 0.539063,-0.4335938 0.65625,-0.4335938 v -0.2460937 c -0.175781,0.011719 -0.351562,0.023437 -0.527343,0.023437 -0.1875,0 -0.445313,-0.011719 -0.632813,-0.023437 v 0.2460937 c 0.292969,0.011719 0.292969,0.2460938 0.292969,0.2695313 0,0.035156 -0.01172,0.1054687 -0.05859,0.1992187 l -0.785156,1.72265629 -0.867188,-1.89843749 c 0,-0.011719 -0.04687,-0.082031 -0.04687,-0.1289063 0,-0.1640625 0.234375,-0.1640625 0.363282,-0.1640625 v -0.2460937 c -0.02344,0 -0.515625,0.023437 -0.796875,0.023437 -0.210938,0 -0.480469,-0.011719 -0.691407,-0.023437 v 0.2460937 c 0.386719,0 0.46875,0.011719 0.574219,0.2460938 l 1.101563,2.42578124 c 0.03516,0.09375 0.08203,0.15234375 0.199218,0.15234375 0.128907,0 0.164063,-0.05859375 0.199219,-0.140625 z m 3.735352,0.7265625 c 0.140625,0 0.1875,0 0.1875,-0.1523438 0,-0.609375 -0.339844,-1.359375 -1.371094,-1.359375 -0.914062,0 -1.617187,0.7265625 -1.617187,1.5820313 0,0.87890624 0.773437,1.59374999 1.699218,1.59374999 0.949219,0 1.289063,-0.75 1.289063,-0.90234375 0,-0.0351563 -0.01172,-0.10546875 -0.117188,-0.10546875 -0.08203,0 -0.105468,0.046875 -0.117187,0.1171875 -0.222656,0.5625 -0.75,0.66796875 -0.996094,0.66796875 -0.328125,0 -0.644531,-0.15234375 -0.855469,-0.41015625 -0.257812,-0.328125 -0.269531,-0.74999999 -0.269531,-1.03124999 z m -2.15625,-0.1757813 c 0.07031,-0.984375 0.703125,-1.1484375 0.972656,-1.1484375 0.855469,0 0.878906,0.9726563 0.890625,1.1484375 z m 4.069336,-3.0703125 -1.054688,0.082031 v 0.2460937 c 0.46875,0 0.527344,0.046875 0.527344,0.3867188 v 3.57421874 c 0,0.3046875 -0.07031,0.3046875 -0.527344,0.3046875 v 0.24609375 c 0.02344,0 0.503907,-0.0234375 0.785157,-0.0234375 0.269531,0 0.527343,0 0.785156,0.0234375 v -0.24609375 c -0.445313,0 -0.515625,0 -0.515625,-0.3046875 z m 3.46289,1.9101563 c 0,-0.1171875 0,-0.1757813 -0.105468,-0.1757813 -0.03516,0 -0.04687,0 -0.140625,0.082031 -0.01172,0 -0.08203,0.070312 -0.117188,0.1054687 -0.210937,-0.1523437 -0.480469,-0.1875 -0.738281,-0.1875 -0.996094,0 -1.230469,0.515625 -1.230469,0.8671875 0,0.2226563 0.09375,0.4101563 0.257813,0.5390625 0.269531,0.234375 0.539062,0.28125 0.960937,0.3515625 0.351563,0.070312 0.914063,0.1640625 0.914063,0.63281254 0,0.26953125 -0.1875,0.5859375 -0.855469,0.5859375 -0.667969,0 -0.914063,-0.43359375 -1.03125,-0.91406254 -0.02344,-0.082031 -0.03516,-0.1171875 -0.128906,-0.1171875 -0.117188,0 -0.117188,0.046875 -0.117188,0.18750004 v 0.85546875 c 0,0.12890625 0,0.1875 0.09375,0.1875 0.05859,0 0.199219,-0.15234375 0.339844,-0.3046875 0.304687,0.29296875 0.679687,0.3046875 0.84375,0.3046875 0.914062,0 1.242187,-0.4921875 1.242187,-0.984375 0,-0.26953129 -0.117187,-0.46874999 -0.292968,-0.64453129 -0.269532,-0.2460937 -0.585938,-0.2929687 -0.832032,-0.3398437 -0.5625,-0.09375 -1.007812,-0.1757813 -1.007812,-0.5507813 0,-0.2226562 0.1875,-0.4921875 0.84375,-0.4921875 0.808594,0 0.84375,0.5625 0.855469,0.7617188 0.01172,0.082031 0.09375,0.082031 0.117187,0.082031 0.128906,0 0.128906,-0.046875 0.128906,-0.1875 z m 0,0"
       style="fill:#000000;fill-opacity:1;fill-rule:nonzero;stroke:none"
       aria-label="Electron-spinlevels"
       transform="matrix(1.3333333,0,0,1.3333333,303.44533,192.34933)" />
  </g>
</svg>
