<?xml version="1.0" encoding="UTF-8" standalone="no"?>
<!-- Created with Inkscape (http://www.inkscape.org/) -->

<svg
   version="1.1"
   id="svg1"
   width="296.11975"
   height="61.802258"
   viewBox="0 0 296.11975 61.802257"
   xmlns="http://www.w3.org/2000/svg"
   xmlns:svg="http://www.w3.org/2000/svg">
  <defs
     id="defs1" />
  <g
     id="g1"
     transform="translate(-4.9296875,-4.4296879)">
    <path
       id="path1"
       d="m -47.34746,11.33871 h -18.69232 c -1.10046,0 -1.99255,-0.89209 -1.99255,-1.99255 V -9.34616 c 0,-1.10046 0.89209,-1.99255 1.99255,-1.99255 h 18.69232 c 1.10048,0 1.99256,0.89209 1.99256,1.99255 V 9.34616 c 0,1.10046 -0.89208,1.99255 -1.99256,1.99255 z"
       style="fill:#ccccff;fill-opacity:1;fill-rule:nonzero;stroke:#000000;stroke-width:0.3985;stroke-linecap:butt;stroke-linejoin:miter;stroke-miterlimit:10;stroke-dasharray:none;stroke-opacity:1"
       transform="matrix(1.3333333,0,0,-1.3333333,124.588,50.848)" />
    <path
       id="path2"
       d="m 7.5693906,-6.9257422 c 0,-0.023437 -0.023437,-0.09375 -0.1054687,-0.09375 -0.035156,0 -0.046875,0.011719 -0.1523438,0.1171875 l -0.703125,0.7617188 c -0.082031,-0.140625 -0.5390625,-0.8789063 -1.6523437,-0.8789063 -2.2148438,0 -4.45312503,2.203125 -4.45312503,4.5117188 0,1.64062496 1.17187503,2.73046871 2.69531253,2.73046871 0.8671875,0 1.6171875,-0.3984375 2.1445312,-0.85546875 0.9375,-0.82031246 1.1015625,-1.72265626 1.1015625,-1.75781246 0,-0.1054688 -0.1054687,-0.1054688 -0.1171875,-0.1054688 -0.058594,0 -0.1171875,0.023437 -0.1289062,0.1054688 -0.09375,0.2929687 -0.3164063,0.9960937 -1.0078125,1.57031246 -0.6914063,0.5625 -1.3125,0.7265625 -1.8398438,0.7265625 -0.890625,0 -1.9453125,-0.515625 -1.9453125,-2.06249996 0,-0.5742188 0.2109375,-2.1914063 1.2070313,-3.3515625 0.609375,-0.703125 1.5351562,-1.2070313 2.4257812,-1.2070313 1.0195313,0 1.6054688,0.7734375 1.6054688,1.921875 0,0.3984375 -0.035156,0.4101563 -0.035156,0.5039063 0,0.1054687 0.1171875,0.1054687 0.1523438,0.1054687 0.1289062,0 0.1289062,-0.023437 0.1757812,-0.1992187 z m 0,0"
       style="fill:#000000;fill-opacity:1;fill-rule:nonzero;stroke:none"
       aria-label="C"
       transform="matrix(1.3333333,0,0,1.3333333,43.774667,55.386667)" />
    <path
       id="path3"
       d="M -68.22981,11.53796 -85.04042,28.3468"
       style="fill:none;stroke:#000000;stroke-width:0.3985;stroke-linecap:butt;stroke-linejoin:miter;stroke-miterlimit:10;stroke-dasharray:none;stroke-opacity:1"
       transform="matrix(1.3333333,0,0,-1.3333333,124.588,50.848)" />
    <g
       id="g3"
       aria-label="σ&#10;1"
       transform="matrix(1.3333333,0,0,1.3333333,4.428,10.146667)">
      <path
         id="path4"
         d="m 5.1575156,-3.7135156 c 0.1289063,0 0.4921875,0 0.4921875,-0.3398438 0,-0.234375 -0.2109375,-0.234375 -0.3867187,-0.234375 H 2.9895469 c -1.5,0 -2.61328128,1.640625 -2.61328128,2.8242188 0,0.87890622 0.5859375,1.57031247 1.49999998,1.57031247 1.171875,0 2.4960938,-1.20703127 2.4960938,-2.73046877 0,-0.1757812 0,-0.65625 -0.3046875,-1.0898437 z m -3.2695312,3.60937497 c -0.4921875,0 -0.89062503,-0.36328125 -0.89062503,-1.07812497 0,-0.3046875 0.11718753,-1.1132813 0.46875003,-1.7109375 0.421875,-0.6796875 1.0195312,-0.8203125 1.359375,-0.8203125 0.8320312,0 0.9140625,0.65625 0.9140625,0.9609375 0,0.46875 -0.1992188,1.2890625 -0.5390625,1.79296872 -0.3867188,0.59765625 -0.9257813,0.85546875 -1.3125,0.85546875 z m 0,0"
         style="fill:#000000;fill-opacity:1;fill-rule:nonzero;stroke:none" />
      <path
         id="path5"
         d="m 8.02275,-2.9342188 c 0,-0.1875 -0.011719,-0.1992187 -0.2109375,-0.1992187 C 7.3665,-2.6998438 6.7336875,-2.688125 6.4524375,-2.688125 v 0.2460937 c 0.1640625,0 0.6210937,0 1.0078125,-0.1875 V 0.92125 c 0,0.234375 0,0.328125 -0.6914063,0.328125 H 6.4993125 V 1.4954687 C 6.6282187,1.48375 7.4836875,1.4720312 7.7415,1.4720312 c 0.2109375,0 1.0898437,0.011719 1.2421875,0.023437 V 1.249375 H 8.725875 C 8.02275,1.249375 8.02275,1.155625 8.02275,0.92125 Z m 0,0"
         style="fill:#000000;fill-opacity:1;fill-rule:nonzero;stroke:none" />
    </g>
    <path
       id="path6"
       d="M -62.46172,11.53796 -70.867,28.3468"
       style="fill:none;stroke:#000000;stroke-width:0.3985;stroke-linecap:butt;stroke-linejoin:miter;stroke-miterlimit:10;stroke-dasharray:none;stroke-opacity:1"
       transform="matrix(1.3333333,0,0,-1.3333333,124.588,50.848)" />
    <g
       id="g6"
       aria-label="σ&#10;2"
       transform="matrix(1.3333333,0,0,1.3333333,23.325333,10.146667)">
      <path
         id="path7"
         d="m 5.1554141,-3.7135156 c 0.1289062,0 0.4921875,0 0.4921875,-0.3398438 0,-0.234375 -0.2109375,-0.234375 -0.3867188,-0.234375 H 2.9874453 c -1.5,0 -2.61328124,1.640625 -2.61328124,2.8242188 0,0.87890622 0.5859375,1.57031247 1.50000004,1.57031247 1.171875,0 2.4960937,-1.20703127 2.4960937,-2.73046877 0,-0.1757812 0,-0.65625 -0.3046875,-1.0898437 z m -3.2695313,3.60937497 c -0.4921875,0 -0.89062499,-0.36328125 -0.89062499,-1.07812497 0,-0.3046875 0.11718749,-1.1132813 0.46874999,-1.7109375 0.421875,-0.6796875 1.0195313,-0.8203125 1.359375,-0.8203125 0.8320313,0 0.9140625,0.65625 0.9140625,0.9609375 0,0.46875 -0.1992187,1.2890625 -0.5390625,1.79296872 -0.3867187,0.59765625 -0.9257812,0.85546875 -1.3125,0.85546875 z m 0,0"
         style="fill:#000000;fill-opacity:1;fill-rule:nonzero;stroke:none" />
      <path
         id="path8"
         d="m 9.2071719,0.22984375 h -0.234375 c -0.023437,0.15234375 -0.082031,0.5625 -0.1757813,0.6328125 C 8.7384219,0.8978125 8.1993594,0.8978125 8.1056094,0.8978125 H 6.8165469 c 0.7382812,-0.64453125 0.984375,-0.84375 1.3945312,-1.171875 0.515625,-0.41015625 0.9960938,-0.84375 0.9960938,-1.5 0,-0.84375 -0.7382813,-1.359375 -1.6289063,-1.359375 -0.8671875,0 -1.453125,0.609375 -1.453125,1.2421875 0,0.3632812 0.3046875,0.3984375 0.375,0.3984375 0.1640625,0 0.375,-0.1171875 0.375,-0.375 0,-0.1289063 -0.058594,-0.3632813 -0.421875,-0.3632813 0.2226563,-0.5039062 0.6914063,-0.65625 1.0195313,-0.65625 0.703125,0 1.0664062,0.5507813 1.0664062,1.1132813 0,0.609375 -0.4335937,1.08984375 -0.65625,1.3359375 l -1.6875,1.6640625 c -0.070312,0.058594 -0.070312,0.070312 -0.070312,0.2695312 h 2.8828125 z m 0,0"
         style="fill:#000000;fill-opacity:1;fill-rule:nonzero;stroke:none" />
    </g>
    <path
       id="path9"
       d="M -56.69362,11.53796 V 28.3468"
       style="fill:none;stroke:#000000;stroke-width:0.3985;stroke-linecap:butt;stroke-linejoin:miter;stroke-miterlimit:10;stroke-dasharray:none;stroke-opacity:1"
       transform="matrix(1.3333333,0,0,-1.3333333,124.588,50.848)" />
    <path
       id="path10"
       d="m 1.9106562,-2.495625 c 0,-0.28125 -0.234375,-0.5273438 -0.5273437,-0.5273438 -0.28125,0 -0.52734375,0.2460938 -0.52734375,0.5273438 0,0.2929687 0.24609375,0.5390625 0.52734375,0.5390625 0.2929687,0 0.5273437,-0.2460938 0.5273437,-0.5390625 z m 4.4296875,0 c 0,-0.28125 -0.234375,-0.5273438 -0.5273437,-0.5273438 -0.28125,0 -0.5273438,0.2460938 -0.5273438,0.5273438 0,0.2929687 0.2460938,0.5390625 0.5273438,0.5390625 0.2929687,0 0.5273437,-0.2460938 0.5273437,-0.5390625 z m 4.4238283,0 c 0,-0.28125 -0.234375,-0.5273438 -0.527344,-0.5273438 -0.2812499,0 -0.5273436,0.2460938 -0.5273436,0.5273438 0,0.2929687 0.2460937,0.5390625 0.5273436,0.5390625 0.292969,0 0.527344,-0.2460938 0.527344,-0.5390625 z m 0,0"
       style="fill:#000000;fill-opacity:1;fill-rule:nonzero;stroke:none"
       aria-label="···"
       transform="matrix(1.3333333,0,0,1.3333333,41.249333,12.14)" />
    <path
       id="path11"
       d="m -50.9255,11.53796 8.4053,16.80884"
       style="fill:none;stroke:#000000;stroke-width:0.3985;stroke-linecap:butt;stroke-linejoin:miter;stroke-miterlimit:10;stroke-dasharray:none;stroke-opacity:1"
       transform="matrix(1.3333333,0,0,-1.3333333,124.588,50.848)" />
    <g
       id="g11"
       aria-label="σ&#10;N"
       transform="matrix(1.3333333,0,0,1.3333333,59.062667,10.146667)">
      <path
         id="path12"
         d="m 5.156125,-3.7135156 c 0.1289062,0 0.4921875,0 0.4921875,-0.3398438 0,-0.234375 -0.2109375,-0.234375 -0.3867188,-0.234375 H 2.9881562 c -1.5,0 -2.6132812,1.640625 -2.6132812,2.8242188 0,0.87890622 0.5859375,1.57031247 1.5,1.57031247 1.171875,0 2.4960937,-1.20703127 2.4960937,-2.73046877 0,-0.1757812 0,-0.65625 -0.3046875,-1.0898437 z m -3.2695313,3.60937497 c -0.4921875,0 -0.89062495,-0.36328125 -0.89062495,-1.07812497 0,-0.3046875 0.11718745,-1.1132813 0.46874995,-1.7109375 0.421875,-0.6796875 1.0195313,-0.8203125 1.359375,-0.8203125 0.8320313,0 0.9140625,0.65625 0.9140625,0.9609375 0,0.46875 -0.1992187,1.2890625 -0.5390625,1.79296872 -0.3867187,0.59765625 -0.9257812,0.85546875 -1.3125,0.85546875 z m 0,0"
         style="fill:#000000;fill-opacity:1;fill-rule:nonzero;stroke:none" />
      <path
         id="path13"
         d="m 11.504758,-2.5123438 c 0.07031,-0.2578125 0.1875,-0.4921875 0.738281,-0.5039062 0.03516,0 0.140625,-0.011719 0.140625,-0.1523438 0,-0.046875 -0.03516,-0.09375 -0.105469,-0.09375 -0.222656,0 -0.480468,0.023437 -0.726562,0.023437 -0.164063,0 -0.5625,-0.023437 -0.738281,-0.023437 -0.03516,0 -0.140625,0 -0.140625,0.1523438 0,0.082031 0.09375,0.09375 0.164062,0.09375 0.316406,0.011719 0.445313,0.1171875 0.445313,0.28125 0,0.058594 -0.01172,0.09375 -0.03516,0.1757812 L 10.485227,0.4759375 8.7156953,-3.1451563 C 8.6571016,-3.2623438 8.6453828,-3.2623438 8.4813203,-3.2623438 H 7.5203828 c -0.1289062,0 -0.2226562,0 -0.2226562,0.1523438 0,0.09375 0.09375,0.09375 0.234375,0.09375 0.1523437,0 0.3046875,0.011719 0.4453125,0.035156 l -0.9375,3.72656255 C 6.9813203,1.015 6.8641328,1.2259375 6.3250703,1.249375 c -0.058594,0 -0.1523437,0 -0.1523437,0.140625 0,0.082031 0.058594,0.1054687 0.1054687,0.1054687 0.234375,0 0.4921875,-0.023437 0.7265625,-0.023437 0.1640625,0 0.5742188,0.023437 0.7382813,0.023437 0.070312,0 0.140625,-0.035156 0.140625,-0.140625 0,-0.1054687 -0.082031,-0.1054687 -0.1640625,-0.1054687 C 7.2860078,1.2259375 7.2860078,1.0501562 7.2860078,0.95640625 c 0,-0.0351563 0,-0.0703125 0.023437,-0.17578125 l 0.890625,-3.5742188 2.0390632,4.171875 c 0.05859,0.1054688 0.08203,0.1171875 0.152344,0.1171875 0.117187,0 0.117187,-0.023437 0.152343,-0.140625 z m 0,0"
         style="fill:#000000;fill-opacity:1;fill-rule:nonzero;stroke:none" />
    </g>
    <path
       id="path14"
       d="m 7.1940625,-4.2995156 c 0,-0.2226563 -0.070312,-0.3164063 -0.140625,-0.3164063 -0.046875,0 -0.1289063,0.046875 -0.140625,0.2695313 -0.035156,0.8320312 -0.7382813,1.3007812 -1.3828125,1.3007812 -0.5976563,0 -1.078125,-0.3515625 -1.59375,-0.75 -0.5273438,-0.421875 -1.0546875,-0.8203125 -1.7226563,-0.8203125 -0.984375,0 -1.66406245,0.8671875 -1.66406245,1.8046875 0,0.3046875 0.12890625,0.3164063 0.140625,0.3164063 0.10546875,0 0.140625,-0.1992188 0.140625,-0.234375 0.046875,-0.9726563 0.84374995,-1.3359375 1.38281245,-1.3359375 0.5976563,0 1.078125,0.3515625 1.59375,0.75 0.5273438,0.421875 1.0546875,0.8203125 1.7226563,0.8203125 0.9726562,0 1.6640625,-0.8671875 1.6640625,-1.8046875 z m -6.29296875,3.53906247 c -0.15234375,0 -0.3515625,0 -0.3515625,0.19921875 0,0.19921875 0.17578125,0.19921875 0.3515625,0.19921875 H 6.8425 c 0.1640625,0 0.3515625,0 0.3515625,-0.19921875 0,-0.19921875 -0.1875,-0.19921875 -0.3632813,-0.19921875 z m 0,0"
       style="fill:#000000;fill-opacity:1;fill-rule:nonzero;stroke:none"
       aria-label="≃"
       transform="matrix(1.3333333,0,0,1.3333333,81.626667,53.928)" />
    <path
       id="path15"
       d="M 9.55424,11.33871 H -9.55424 c -1.10047,0 -1.99256,-0.89209 -1.99256,-1.99255 V -9.34616 c 0,-1.10046 0.89209,-1.99255 1.99256,-1.99255 H 9.55424 c 1.10047,0 1.99256,0.89209 1.99256,1.99255 V 9.34616 c 0,1.10046 -0.89209,1.99255 -1.99256,1.99255 z"
       style="fill:#ccccff;fill-opacity:1;fill-rule:nonzero;stroke:#000000;stroke-width:0.3985;stroke-linecap:butt;stroke-linejoin:miter;stroke-miterlimit:10;stroke-dasharray:none;stroke-opacity:1"
       transform="matrix(1.3333333,0,0,-1.3333333,124.588,50.848)" />
    <g
       id="g15"
       aria-label="A&#10;[1]"
       transform="matrix(1.3333333,0,0,1.3333333,113.62,56.745333)">
      <path
         id="path16"
         d="m 1.7820703,-1.1478672 c -0.3984375,0.66796876 -0.78515624,0.80859376 -1.21874999,0.84375001 -0.12890625,0 -0.2109375,0 -0.2109375,0.19921875 0,0.05859375 0.046875,0.1054687525 0.12890625,0.1054687525 0.26953125,0 0.57421874,-0.0351562525 0.85546874,-0.0351562525 0.328125,0 0.6796875,0.0351562525 0.9960938,0.0351562525 0.058594,0 0.1875,0 0.1875,-0.1875000025 0,-0.1171875 -0.09375,-0.1171875 -0.1640625,-0.1171875 -0.2226563,-0.0234375 -0.4570313,-0.10546875 -0.4570313,-0.3515625 0,-0.1171875 0.058594,-0.234375 0.1289063,-0.37500001 l 0.7617187,-1.265625 h 2.4960938 c 0.023437,0.1992188 0.1640625,1.55859376 0.1640625,1.66406251 0,0.29296875 -0.515625,0.328125 -0.7148438,0.328125 -0.140625,0 -0.2460937,0 -0.2460937,0.19921875 0,0.1054687525 0.1289062,0.1054687525 0.140625,0.1054687525 0.4101562,0 0.84375,-0.0351562525 1.2539062,-0.0351562525 0.2460938,0 0.8671875,0.0351562525 1.125,0.0351562525 0.058594,0 0.1757813,0 0.1757813,-0.1992187525 0,-0.10546875 -0.1054688,-0.10546875 -0.234375,-0.10546875 -0.609375,0 -0.609375,-0.0703125 -0.6445313,-0.36328125 L 5.6961328,-6.8900547 c -0.011719,-0.1992187 -0.011719,-0.2460937 -0.1875,-0.2460937 -0.1640625,0 -0.1992187,0.070312 -0.2578125,0.1757812 z m 1.1953125,-1.4648437 1.96875,-3.28125 0.3164063,3.28125 z m 0,0"
         style="fill:#000000;fill-opacity:1;fill-rule:nonzero;stroke:none" />
      <path
         id="path17"
         d="M 9.4988672,-1.8685703 V -2.2084141 H 8.7605859 v -6.2929687 h 0.7382813 v -0.3398438 h -1.078125 v 6.9726563 z m 2.5605468,-6.1757813 c 0,-0.1875 -0.01172,-0.1992187 -0.210937,-0.1992187 -0.445313,0.4335937 -1.078125,0.4453125 -1.359375,0.4453125 v 0.2460937 c 0.164062,0 0.621093,0 1.007812,-0.1875 v 3.5507813 c 0,0.234375 0,0.328125 -0.691406,0.328125 h -0.269531 v 0.2460937 c 0.128906,-0.011719 0.984375,-0.023437 1.242187,-0.023437 0.210938,0 1.089844,0.011719 1.242188,0.023437 v -0.2460937 h -0.257813 c -0.703125,0 -0.703125,-0.09375 -0.703125,-0.328125 z m 2.941406,-0.796875 h -1.078125 v 0.3398438 h 0.738282 v 6.2929687 h -0.738282 v 0.3398438 h 1.078125 z m 0,0"
         style="fill:#000000;fill-opacity:1;fill-rule:nonzero;stroke:none" />
    </g>
    <path
       id="path18"
       d="M 60.57857,11.33871 H 41.47008 c -1.10047,0 -1.99256,-0.89209 -1.99256,-1.99255 V -9.34616 c 0,-1.10046 0.89209,-1.99255 1.99256,-1.99255 h 19.10849 c 1.10048,0 1.99255,0.89209 1.99255,1.99255 V 9.34616 c 0,1.10046 -0.89207,1.99255 -1.99255,1.99255 z"
       style="fill:#ccccff;fill-opacity:1;fill-rule:nonzero;stroke:#000000;stroke-width:0.3985;stroke-linecap:butt;stroke-linejoin:miter;stroke-miterlimit:10;stroke-dasharray:none;stroke-opacity:1"
       transform="matrix(1.3333333,0,0,-1.3333333,124.588,50.848)" />
    <g
       id="g18"
       aria-label="A&#10;[2]"
       transform="matrix(1.3333333,0,0,1.3333333,181.652,56.745333)">
      <path
         id="path19"
         d="m 1.7815078,-1.1478672 c -0.3984375,0.66796876 -0.78515624,0.80859376 -1.21874999,0.84375001 -0.12890625,0 -0.2109375,0 -0.2109375,0.19921875 0,0.05859375 0.046875,0.1054687525 0.12890625,0.1054687525 0.26953125,0 0.57421874,-0.0351562525 0.85546874,-0.0351562525 0.328125,0 0.6796875,0.0351562525 0.9960938,0.0351562525 0.058594,0 0.1875,0 0.1875,-0.1875000025 0,-0.1171875 -0.09375,-0.1171875 -0.1640625,-0.1171875 -0.2226563,-0.0234375 -0.4570313,-0.10546875 -0.4570313,-0.3515625 0,-0.1171875 0.058594,-0.234375 0.1289063,-0.37500001 l 0.7617187,-1.265625 h 2.4960938 c 0.023437,0.1992188 0.1640625,1.55859376 0.1640625,1.66406251 0,0.29296875 -0.515625,0.328125 -0.7148438,0.328125 -0.140625,0 -0.2460937,0 -0.2460937,0.19921875 0,0.1054687525 0.1289062,0.1054687525 0.140625,0.1054687525 0.4101562,0 0.84375,-0.0351562525 1.2539062,-0.0351562525 0.2460938,0 0.8671875,0.0351562525 1.125,0.0351562525 0.058594,0 0.1757813,0 0.1757813,-0.1992187525 0,-0.10546875 -0.1054688,-0.10546875 -0.234375,-0.10546875 -0.609375,0 -0.609375,-0.0703125 -0.6445313,-0.36328125 L 5.6955703,-6.8900547 c -0.011719,-0.1992187 -0.011719,-0.2460937 -0.1875,-0.2460937 -0.1640625,0 -0.1992187,0.070312 -0.2578125,0.1757812 z m 1.1953125,-1.4648437 1.96875,-3.28125 0.3164063,3.28125 z m 0,0"
         style="fill:#000000;fill-opacity:1;fill-rule:nonzero;stroke:none" />
      <path
         id="path20"
         d="M 9.4983047,-1.8685703 V -2.2084141 H 8.7600234 v -6.2929687 h 0.7382813 v -0.3398438 h -1.078125 v 6.9726563 z M 13.242445,-4.8802891 H 13.00807 c -0.02344,0.1523438 -0.08203,0.5625 -0.175781,0.6328125 -0.05859,0.035156 -0.597656,0.035156 -0.691406,0.035156 H 10.85182 c 0.738282,-0.6445313 0.984375,-0.84375 1.394532,-1.171875 0.515625,-0.4101563 0.996093,-0.84375 0.996093,-1.5 0,-0.84375 -0.738281,-1.359375 -1.628906,-1.359375 -0.867187,0 -1.453125,0.609375 -1.453125,1.2421875 0,0.3632812 0.304688,0.3984375 0.375,0.3984375 0.164063,0 0.375,-0.1171875 0.375,-0.375 0,-0.1289063 -0.05859,-0.3632813 -0.421875,-0.3632813 0.222656,-0.5039062 0.691406,-0.65625 1.019531,-0.65625 0.703125,0 1.066407,0.5507813 1.066407,1.1132813 0,0.609375 -0.433594,1.0898437 -0.65625,1.3359375 l -1.6875,1.6640625 c -0.07031,0.058594 -0.07031,0.070312 -0.07031,0.2695312 h 2.882813 z m 1.757813,-3.9609375 h -1.078125 v 0.3398438 h 0.738281 v 6.2929687 h -0.738281 v 0.3398438 h 1.078125 z m 0,0"
         style="fill:#000000;fill-opacity:1;fill-rule:nonzero;stroke:none" />
    </g>
    <path
       id="path21"
       d="m 1.9110781,-2.4955078 c 0,-0.28125 -0.234375,-0.5273438 -0.5273437,-0.5273438 -0.28125,0 -0.52734378,0.2460938 -0.52734378,0.5273438 0,0.2929687 0.24609378,0.5390625 0.52734378,0.5390625 0.2929687,0 0.5273437,-0.2460938 0.5273437,-0.5390625 z m 4.4296875,0 c 0,-0.28125 -0.234375,-0.5273438 -0.5273437,-0.5273438 -0.28125,0 -0.5273438,0.2460938 -0.5273438,0.5273438 0,0.2929687 0.2460938,0.5390625 0.5273438,0.5390625 0.2929687,0 0.5273437,-0.2460938 0.5273437,-0.5390625 z m 4.4208984,0 c 0,-0.28125 -0.234375,-0.5273438 -0.527344,-0.5273438 -0.2812497,0 -0.5273434,0.2460938 -0.5273434,0.5273438 0,0.2929687 0.2460937,0.5390625 0.5273434,0.5390625 0.292969,0 0.527344,-0.2460938 0.527344,-0.5390625 z m 0,0"
       style="fill:#000000;fill-opacity:1;fill-rule:nonzero;stroke:none"
       aria-label="···"
       transform="matrix(1.3333333,0,0,1.3333333,230.22533,53.8)" />
    <path
       id="path22"
       d="m 130.15428,11.33871 h -22.19556 c -1.10046,0 -1.99255,-0.89209 -1.99255,-1.99255 V -9.34616 c 0,-1.10046 0.89209,-1.99255 1.99255,-1.99255 h 22.19556 c 1.10048,0 1.99256,0.89209 1.99256,1.99255 V 9.34616 c 0,1.10046 -0.89208,1.99255 -1.99256,1.99255 z"
       style="fill:#ccccff;fill-opacity:1;fill-rule:nonzero;stroke:#000000;stroke-width:0.3985;stroke-linecap:butt;stroke-linejoin:miter;stroke-miterlimit:10;stroke-dasharray:none;stroke-opacity:1"
       transform="matrix(1.3333333,0,0,-1.3333333,124.588,50.848)" />
    <g
       id="g22"
       aria-label="A&#10;[N]"
       transform="matrix(1.3333333,0,0,1.3333333,270.30133,56.745333)">
      <path
         id="path23"
         d="m 1.7808359,-1.1478672 c -0.3984375,0.66796876 -0.78515621,0.80859376 -1.21874996,0.84375001 -0.12890625,0 -0.2109375,0 -0.2109375,0.19921875 0,0.05859375 0.046875,0.1054687525 0.12890625,0.1054687525 0.26953125,0 0.57421871,-0.0351562525 0.85546871,-0.0351562525 0.328125,0 0.6796875,0.0351562525 0.9960938,0.0351562525 0.058594,0 0.1875,0 0.1875,-0.1875000025 0,-0.1171875 -0.09375,-0.1171875 -0.1640625,-0.1171875 -0.2226563,-0.0234375 -0.4570313,-0.10546875 -0.4570313,-0.3515625 0,-0.1171875 0.058594,-0.234375 0.1289063,-0.37500001 l 0.7617187,-1.265625 h 2.4960938 c 0.023437,0.1992188 0.1640625,1.55859376 0.1640625,1.66406251 0,0.29296875 -0.515625,0.328125 -0.7148438,0.328125 -0.140625,0 -0.2460937,0 -0.2460937,0.19921875 0,0.1054687525 0.1289062,0.1054687525 0.140625,0.1054687525 0.4101562,0 0.84375,-0.0351562525 1.2539062,-0.0351562525 0.2460938,0 0.8671875,0.0351562525 1.125,0.0351562525 0.058594,0 0.1757813,0 0.1757813,-0.1992187525 0,-0.10546875 -0.1054688,-0.10546875 -0.234375,-0.10546875 -0.609375,0 -0.609375,-0.0703125 -0.6445313,-0.36328125 L 5.6948984,-6.8900547 c -0.011719,-0.1992187 -0.011719,-0.2460937 -0.1875,-0.2460937 -0.1640625,0 -0.1992187,0.070312 -0.2578125,0.1757812 z m 1.1953125,-1.4648437 1.96875,-3.28125 0.3164063,3.28125 z m 0,0"
         style="fill:#000000;fill-opacity:1;fill-rule:nonzero;stroke:none" />
      <path
         id="path24"
         d="M 9.5005625,-1.8685703 V -2.2084141 H 8.7622813 v -6.2929687 h 0.7382812 v -0.3398438 h -1.078125 v 6.9726563 z m 0,0"
         style="fill:#000000;fill-opacity:1;fill-rule:nonzero;stroke:none" />
      <path
         id="path25"
         d="m 15.541578,-7.6224766 c 0.07031,-0.2578125 0.1875,-0.4921875 0.738281,-0.5039062 0.03516,0 0.140625,-0.011719 0.140625,-0.1523438 0,-0.046875 -0.03516,-0.09375 -0.105468,-0.09375 -0.222657,0 -0.480469,0.023437 -0.726563,0.023437 -0.164062,0 -0.5625,-0.023437 -0.738281,-0.023437 -0.03516,0 -0.140625,0 -0.140625,0.1523438 0,0.082031 0.09375,0.09375 0.164062,0.09375 0.316407,0.011719 0.445313,0.1171875 0.445313,0.28125 0,0.058594 -0.01172,0.09375 -0.03516,0.1757812 l -0.761719,3.0351563 -1.769531,-3.6210938 c -0.05859,-0.1171875 -0.07031,-0.1171875 -0.234375,-0.1171875 h -0.960938 c -0.128906,0 -0.222656,0 -0.222656,0.1523438 0,0.09375 0.09375,0.09375 0.234375,0.09375 0.152344,0 0.304687,0.011719 0.445312,0.035156 l -0.9375,3.7265625 c -0.05859,0.2695313 -0.175781,0.4804688 -0.714843,0.5039063 -0.05859,0 -0.152344,0 -0.152344,0.140625 0,0.082031 0.05859,0.1054687 0.105469,0.1054687 0.234375,0 0.492187,-0.023437 0.726562,-0.023437 0.164063,0 0.574219,0.023437 0.738281,0.023437 0.07031,0 0.140625,-0.035156 0.140625,-0.140625 0,-0.1054687 -0.08203,-0.1054687 -0.164062,-0.1054687 -0.433594,-0.023437 -0.433594,-0.1992188 -0.433594,-0.2929688 0,-0.035156 0,-0.070312 0.02344,-0.1757812 l 0.890625,-3.5742188 2.039062,4.171875 c 0.05859,0.1054688 0.08203,0.1171875 0.152344,0.1171875 0.117187,0 0.117187,-0.023437 0.152344,-0.140625 z m 0,0"
         style="fill:#000000;fill-opacity:1;fill-rule:nonzero;stroke:none" />
      <path
         id="path26"
         d="m 18.087477,-8.8412266 h -1.078125 v 0.3398438 h 0.738281 v 6.2929687 h -0.738281 v 0.3398438 h 1.078125 z m 0,0"
         style="fill:#000000;fill-opacity:1;fill-rule:nonzero;stroke:none" />
    </g>
    <path
       id="path27"
       d="M 11.74605,0 H 39.27827"
       style="fill:none;stroke:#000000;stroke-width:0.3985;stroke-linecap:butt;stroke-linejoin:miter;stroke-miterlimit:10;stroke-dasharray:none;stroke-opacity:1"
       transform="matrix(1.3333333,0,0,-1.3333333,124.588,50.848)" />
    <g
       id="g27"
       aria-label="α&#10;1"
       transform="matrix(1.3333333,0,0,1.3333333,151.376,44.162667)">
      <path
         id="path28"
         d="m 4.7453437,-2.3544219 c 0,-1.5585937 -0.9257812,-2.0507812 -1.6523437,-2.0507812 -1.3710938,0 -2.68359375,1.4296875 -2.68359375,2.8359375 0,0.92578123 0.59765625,1.67578123 1.61718745,1.67578123 0.6210938,0 1.3359375,-0.22265625 2.0976563,-0.83203125 0.1289062,0.52734375 0.4570312,0.83203125 0.9023437,0.83203125 0.5273438,0 0.84375,-0.5390625 0.84375,-0.703125 0,-0.0703125 -0.058594,-0.10546875 -0.1289062,-0.10546875 -0.058594,0 -0.09375,0.0351563 -0.1289063,0.10546875 -0.1757812,0.4921875 -0.5273437,0.4921875 -0.5507812,0.4921875 -0.3164063,0 -0.3164063,-0.78515625 -0.3164063,-1.01953123 0,-0.2109375 0,-0.234375 0.1054688,-0.3515625 0.9375,-1.171875 1.1484375,-2.3320313 1.1484375,-2.34375 0,-0.011719 -0.011719,-0.09375 -0.1171875,-0.09375 -0.1054688,0 -0.1054688,0.023437 -0.1523438,0.2109375 -0.1875,0.6210937 -0.515625,1.3828125 -0.984375,1.96875 z m -0.65625,1.37109378 c -0.8789062,0.76171875 -1.6523437,0.87890625 -2.0507812,0.87890625 -0.5976563,0 -0.890625,-0.45703125 -0.890625,-1.08984373 0,-0.4921875 0.2578125,-1.5585938 0.5742187,-2.0742188 0.46875,-0.7265625 1.0078125,-0.9140625 1.359375,-0.9140625 0.984375,0 0.984375,1.3007813 0.984375,2.0859375 0,0.3632813 0,0.9375 0.023437,1.11328128 z m 0,0"
         style="fill:#000000;fill-opacity:1;fill-rule:nonzero;stroke:none" />
      <path
         id="path29"
         d="m 8.7062812,-2.9345 c 0,-0.1875 -0.011719,-0.1992188 -0.2109375,-0.1992188 -0.4453125,0.4335938 -1.078125,0.4453125 -1.359375,0.4453125 v 0.2460938 c 0.1640625,0 0.6210938,0 1.0078125,-0.1875 v 3.55078125 c 0,0.23437505 0,0.32812505 -0.6914062,0.32812505 H 7.1828437 V 1.4951875 C 7.31175,1.4834687 8.1672187,1.47175 8.4250312,1.47175 c 0.2109375,0 1.0898438,0.011719 1.2421875,0.023437 V 1.2490938 H 9.4094062 c -0.703125,0 -0.703125,-0.09375 -0.703125,-0.32812505 z m 0,0"
         style="fill:#000000;fill-opacity:1;fill-rule:nonzero;stroke:none" />
    </g>
    <path
       id="path30"
       d="M 62.77037,0 H 76.53629"
       style="fill:none;stroke:#000000;stroke-width:0.3985;stroke-linecap:butt;stroke-linejoin:miter;stroke-miterlimit:10;stroke-dasharray:none;stroke-opacity:1"
       transform="matrix(1.3333333,0,0,-1.3333333,124.588,50.848)" />
    <g
       id="g30"
       aria-label="α&#10;2"
       transform="matrix(1.3333333,0,0,1.3333333,210.22933,44.162667)">
      <path
         id="path31"
         d="m 4.7469453,-2.3544219 c 0,-1.5585937 -0.9257812,-2.0507812 -1.6523437,-2.0507812 -1.3710938,0 -2.68359379,1.4296875 -2.68359379,2.8359375 0,0.92578123 0.59765629,1.67578123 1.61718749,1.67578123 0.6210938,0 1.3359375,-0.22265625 2.0976563,-0.83203125 0.1289062,0.52734375 0.4570312,0.83203125 0.9023437,0.83203125 0.5273438,0 0.84375,-0.5390625 0.84375,-0.703125 0,-0.0703125 -0.058594,-0.10546875 -0.1289062,-0.10546875 -0.058594,0 -0.09375,0.0351563 -0.1289063,0.10546875 -0.1757812,0.4921875 -0.5273437,0.4921875 -0.5507812,0.4921875 -0.3164063,0 -0.3164063,-0.78515625 -0.3164063,-1.01953123 0,-0.2109375 0,-0.234375 0.1054688,-0.3515625 0.9375,-1.171875 1.1484375,-2.3320313 1.1484375,-2.34375 0,-0.011719 -0.011719,-0.09375 -0.1171875,-0.09375 -0.1054688,0 -0.1054688,0.023437 -0.1523438,0.2109375 -0.1875,0.6210937 -0.515625,1.3828125 -0.984375,1.96875 z m -0.65625,1.37109378 c -0.8789062,0.76171875 -1.6523437,0.87890625 -2.0507812,0.87890625 -0.5976563,0 -0.890625,-0.45703125 -0.890625,-1.08984373 0,-0.4921875 0.2578125,-1.5585938 0.5742187,-2.0742188 0.46875,-0.7265625 1.0078125,-0.9140625 1.359375,-0.9140625 0.984375,0 0.984375,1.3007813 0.984375,2.0859375 0,0.3632813 0,0.9375 0.023437,1.11328128 z m 0,0"
         style="fill:#000000;fill-opacity:1;fill-rule:nonzero;stroke:none" />
      <path
         id="path32"
         d="M 9.8885469,0.2295625 H 9.6541719 C 9.6307349,0.38190625 9.5721409,0.7920625 9.4783906,0.862375 9.4197966,0.8975313 8.8807344,0.8975313 8.7869844,0.8975313 H 7.4979219 C 8.2362031,0.253 8.4822969,0.05378125 8.8924531,-0.27434375 9.4080781,-0.6845 9.8885469,-1.1180937 9.8885469,-1.7743437 c 0,-0.8437501 -0.7382813,-1.3593751 -1.6289063,-1.3593751 -0.8671875,0 -1.453125,0.609375 -1.453125,1.2421876 0,0.3632812 0.3046875,0.3984375 0.375,0.3984375 0.1640625,0 0.375,-0.1171875 0.375,-0.375 0,-0.1289063 -0.058594,-0.3632813 -0.421875,-0.3632813 0.2226563,-0.5039063 0.6914063,-0.65625 1.0195313,-0.65625 0.703125,0 1.0664062,0.5507812 1.0664062,1.1132813 0,0.609375 -0.4335937,1.0898437 -0.65625,1.33593745 l -1.6875,1.66406255 c -0.070312,0.058594 -0.070312,0.070312 -0.070312,0.2695312 h 2.8828125 z m 0,0"
         style="fill:#000000;fill-opacity:1;fill-rule:nonzero;stroke:none" />
    </g>
    <path
       id="path33"
       d="m 93.54454,0 h 12.22238"
       style="fill:none;stroke:#000000;stroke-width:0.3985;stroke-linecap:butt;stroke-linejoin:miter;stroke-miterlimit:10;stroke-dasharray:none;stroke-opacity:1"
       transform="matrix(1.3333333,0,0,-1.3333333,124.588,50.848)" />
    <g
       id="g33"
       aria-label="α&#10;N−1"
       transform="matrix(1.3333333,0,0,1.3333333,241.376,43.056)">
      <path
         id="path34"
         d="m 4.7453437,-2.3564531 c 0,-1.5585938 -0.9257812,-2.0507813 -1.6523437,-2.0507813 -1.3710938,0 -2.68359375,1.4296875 -2.68359375,2.8359375 0,0.92578127 0.59765625,1.67578127 1.61718745,1.67578127 0.6210938,0 1.3359375,-0.22265625 2.0976563,-0.83203125 0.1289062,0.52734375 0.4570312,0.83203125 0.9023437,0.83203125 0.5273438,0 0.84375,-0.5390625 0.84375,-0.703125 0,-0.0703125 -0.058594,-0.10546875 -0.1289062,-0.10546875 -0.058594,0 -0.09375,0.0351563 -0.1289063,0.10546875 -0.1757812,0.4921875 -0.5273437,0.4921875 -0.5507812,0.4921875 -0.3164063,0 -0.3164063,-0.78515625 -0.3164063,-1.01953127 0,-0.2109375 0,-0.234375 0.1054688,-0.3515625 0.9375,-1.171875 1.1484375,-2.3320312 1.1484375,-2.34375 0,-0.011719 -0.011719,-0.09375 -0.1171875,-0.09375 -0.1054688,0 -0.1054688,0.023437 -0.1523438,0.2109375 -0.1875,0.6210938 -0.515625,1.3828125 -0.984375,1.96875 z m -0.65625,1.37109372 c -0.8789062,0.76171875 -1.6523437,0.87890625 -2.0507812,0.87890625 -0.5976563,0 -0.890625,-0.45703125 -0.890625,-1.08984377 0,-0.4921875 0.2578125,-1.5585937 0.5742187,-2.0742187 0.46875,-0.7265625 1.0078125,-0.9140625 1.359375,-0.9140625 0.984375,0 0.984375,1.3007812 0.984375,2.0859375 0,0.3632812 0,0.9375 0.023437,1.11328122 z m 0,0"
         style="fill:#000000;fill-opacity:1;fill-rule:nonzero;stroke:none" />
      <path
         id="path35"
         d="m 12.18675,-2.5146563 c 0.07031,-0.2578125 0.1875,-0.4921875 0.738281,-0.5039062 0.03516,0 0.140625,-0.011719 0.140625,-0.1523438 0,-0.046875 -0.03516,-0.09375 -0.105469,-0.09375 -0.222656,0 -0.480468,0.023437 -0.726562,0.023437 -0.164063,0 -0.5625,-0.023437 -0.738281,-0.023437 -0.03516,0 -0.140625,0 -0.140625,0.1523438 0,0.082031 0.09375,0.09375 0.164062,0.09375 0.316406,0.011719 0.445313,0.1171875 0.445313,0.28125 0,0.058594 -0.01172,0.09375 -0.03516,0.1757812 L 11.167219,0.473625 9.3976875,-3.1474688 C 9.3390937,-3.2646563 9.327375,-3.2646563 9.1633125,-3.2646563 H 8.202375 c -0.1289063,0 -0.2226563,0 -0.2226563,0.1523438 0,0.09375 0.09375,0.09375 0.234375,0.09375 0.1523438,0 0.3046875,0.011719 0.4453125,0.035156 l -0.9375,3.72656255 C 7.6633125,1.0126875 7.546125,1.223625 7.0070625,1.2470625 c -0.058594,0 -0.1523438,0 -0.1523438,0.140625 0,0.082031 0.058594,0.1054687 0.1054688,0.1054687 0.234375,0 0.4921875,-0.023437 0.7265625,-0.023437 0.1640625,0 0.5742187,0.023437 0.7382812,0.023437 0.070312,0 0.140625,-0.035156 0.140625,-0.140625 0,-0.1054687 -0.082031,-0.1054687 -0.1640625,-0.1054687 C 7.968,1.223625 7.968,1.0478437 7.968,0.95409375 c 0,-0.0351563 0,-0.0703125 0.023437,-0.17578125 l 0.890625,-3.5742188 2.039063,4.171875 c 0.05859,0.1054688 0.08203,0.1171875 0.152344,0.1171875 0.117187,0 0.117187,-0.023437 0.152343,-0.140625 z m 0,0"
         style="fill:#000000;fill-opacity:1;fill-rule:nonzero;stroke:none" />
      <path
         id="path36"
         d="m 18.623273,-0.07715625 c 0.105469,0 0.269532,0 0.269532,-0.17578125 0,-0.17578125 -0.152344,-0.17578125 -0.269532,-0.17578125 h -4.160156 c -0.105469,0 -0.28125,0 -0.28125,0.17578125 0,0.17578125 0.164063,0.17578125 0.28125,0.17578125 z m 0,0"
         style="fill:#000000;fill-opacity:1;fill-rule:nonzero;stroke:none" />
      <path
         id="path37"
         d="m 21.989484,-2.9365313 c 0,-0.1875 -0.01172,-0.1992187 -0.210937,-0.1992187 -0.445313,0.4335937 -1.078125,0.4453125 -1.359375,0.4453125 v 0.2460937 c 0.164062,0 0.621094,0 1.007812,-0.1875 v 3.5507813 c 0,0.234375 0,0.328125 -0.691406,0.328125 h -0.269531 v 0.2460937 c 0.128906,-0.011719 0.984375,-0.023437 1.242187,-0.023437 0.210938,0 1.089844,0.011719 1.242188,0.023437 V 1.2470625 h -0.257813 c -0.703125,0 -0.703125,-0.09375 -0.703125,-0.328125 z m 0,0"
         style="fill:#000000;fill-opacity:1;fill-rule:nonzero;stroke:none" />
    </g>
    <path
       id="path38"
       d="M 0,11.33855 V 28.34679"
       style="fill:none;stroke:#000000;stroke-width:0.3985;stroke-linecap:butt;stroke-linejoin:miter;stroke-miterlimit:10;stroke-dasharray:none;stroke-opacity:1"
       transform="matrix(1.3333333,0,0,-1.3333333,124.588,50.848)" />
    <g
       id="g38"
       aria-label="σ&#10;1"
       transform="matrix(1.3333333,0,0,1.3333333,117.81333,10.146667)">
      <path
         id="path39"
         d="m 5.155625,-3.7135156 c 0.1289062,0 0.4921875,0 0.4921875,-0.3398438 0,-0.234375 -0.2109375,-0.234375 -0.3867188,-0.234375 H 2.9876562 c -1.5,0 -2.6132812,1.640625 -2.6132812,2.8242188 0,0.87890622 0.5859375,1.57031247 1.5,1.57031247 1.171875,0 2.4960937,-1.20703127 2.4960937,-2.73046877 0,-0.1757812 0,-0.65625 -0.3046875,-1.0898437 z m -3.2695313,3.60937497 c -0.4921875,0 -0.89062495,-0.36328125 -0.89062495,-1.07812497 0,-0.3046875 0.11718745,-1.1132813 0.46874995,-1.7109375 0.421875,-0.6796875 1.0195313,-0.8203125 1.359375,-0.8203125 0.8320313,0 0.9140625,0.65625 0.9140625,0.9609375 0,0.46875 -0.1992187,1.2890625 -0.5390625,1.79296872 -0.3867187,0.59765625 -0.9257812,0.85546875 -1.3125,0.85546875 z m 0,0"
         style="fill:#000000;fill-opacity:1;fill-rule:nonzero;stroke:none" />
      <path
         id="path40"
         d="m 8.0237891,-2.9342188 c 0,-0.1875 -0.011719,-0.1992187 -0.2109375,-0.1992187 -0.4453125,0.4335937 -1.078125,0.4453125 -1.359375,0.4453125 v 0.2460937 c 0.1640625,0 0.6210937,0 1.0078125,-0.1875 V 0.92125 c 0,0.234375 0,0.328125 -0.6914063,0.328125 H 6.5003516 v 0.2460937 c 0.1289062,-0.011719 0.984375,-0.023437 1.2421875,-0.023437 0.2109375,0 1.0898437,0.011719 1.2421875,0.023437 V 1.249375 H 8.7269141 c -0.703125,0 -0.703125,-0.09375 -0.703125,-0.328125 z m 0,0"
         style="fill:#000000;fill-opacity:1;fill-rule:nonzero;stroke:none" />
    </g>
    <path
       id="path41"
       d="M 51.02432,11.33855 V 28.34679"
       style="fill:none;stroke:#000000;stroke-width:0.3985;stroke-linecap:butt;stroke-linejoin:miter;stroke-miterlimit:10;stroke-dasharray:none;stroke-opacity:1"
       transform="matrix(1.3333333,0,0,-1.3333333,124.588,50.848)" />
    <g
       id="g41"
       aria-label="σ&#10;2"
       transform="matrix(1.3333333,0,0,1.3333333,185.84533,10.146667)">
      <path
         id="path42"
         d="m 5.1550625,-3.7135156 c 0.1289062,0 0.4921875,0 0.4921875,-0.3398438 0,-0.234375 -0.2109375,-0.234375 -0.3867188,-0.234375 H 2.9870937 c -1.5,0 -2.6132812,1.640625 -2.6132812,2.8242188 0,0.87890622 0.5859375,1.57031247 1.5,1.57031247 1.171875,0 2.4960937,-1.20703127 2.4960937,-2.73046877 0,-0.1757812 0,-0.65625 -0.3046875,-1.0898437 z m -3.2695313,3.60937497 c -0.4921875,0 -0.89062495,-0.36328125 -0.89062495,-1.07812497 0,-0.3046875 0.11718745,-1.1132813 0.46874995,-1.7109375 0.421875,-0.6796875 1.0195313,-0.8203125 1.359375,-0.8203125 0.8320313,0 0.9140625,0.65625 0.9140625,0.9609375 0,0.46875 -0.1992187,1.2890625 -0.5390625,1.79296872 -0.3867187,0.59765625 -0.9257812,0.85546875 -1.3125,0.85546875 z m 0,0"
         style="fill:#000000;fill-opacity:1;fill-rule:nonzero;stroke:none" />
      <path
         id="path43"
         d="m 9.2068203,0.22984375 h -0.234375 c -0.023437,0.15234375 -0.082031,0.5625 -0.1757812,0.6328125 C 8.7380703,0.8978125 8.1990078,0.8978125 8.1052578,0.8978125 H 6.8161953 c 0.7382813,-0.64453125 0.984375,-0.84375 1.3945313,-1.171875 0.515625,-0.41015625 0.9960937,-0.84375 0.9960937,-1.5 0,-0.84375 -0.7382812,-1.359375 -1.6289062,-1.359375 -0.8671875,0 -1.453125,0.609375 -1.453125,1.2421875 0,0.3632812 0.3046875,0.3984375 0.375,0.3984375 0.1640625,0 0.375,-0.1171875 0.375,-0.375 0,-0.1289063 -0.058594,-0.3632813 -0.421875,-0.3632813 0.2226562,-0.5039062 0.6914062,-0.65625 1.0195312,-0.65625 0.703125,0 1.0664063,0.5507813 1.0664063,1.1132813 0,0.609375 -0.4335938,1.08984375 -0.65625,1.3359375 l -1.6875,1.6640625 c -0.070312,0.058594 -0.070312,0.070312 -0.070312,0.2695312 h 2.8828125 z m 0,0"
         style="fill:#000000;fill-opacity:1;fill-rule:nonzero;stroke:none" />
    </g>
    <path
       id="path44"
       d="M 119.0565,11.33855 V 28.34679"
       style="fill:none;stroke:#000000;stroke-width:0.3985;stroke-linecap:butt;stroke-linejoin:miter;stroke-miterlimit:10;stroke-dasharray:none;stroke-opacity:1"
       transform="matrix(1.3333333,0,0,-1.3333333,124.588,50.848)" />
    <g
       id="g44"
       aria-label="σ&#10;N"
       transform="matrix(1.3333333,0,0,1.3333333,274.49467,10.146667)">
      <path
         id="path45"
         d="m 5.1573203,-3.7135156 c 0.1289063,0 0.4921875,0 0.4921875,-0.3398438 0,-0.234375 -0.2109375,-0.234375 -0.3867187,-0.234375 H 2.9893516 c -1.5,0 -2.61328129,1.640625 -2.61328129,2.8242188 0,0.87890622 0.5859375,1.57031247 1.49999999,1.57031247 1.171875,0 2.4960938,-1.20703127 2.4960938,-2.73046877 0,-0.1757812 0,-0.65625 -0.3046875,-1.0898437 z m -3.2695312,3.60937497 c -0.4921875,0 -0.89062504,-0.36328125 -0.89062504,-1.07812497 0,-0.3046875 0.11718754,-1.1132813 0.46875004,-1.7109375 0.421875,-0.6796875 1.0195312,-0.8203125 1.359375,-0.8203125 0.8320312,0 0.9140625,0.65625 0.9140625,0.9609375 0,0.46875 -0.1992188,1.2890625 -0.5390625,1.79296872 -0.3867188,0.59765625 -0.9257813,0.85546875 -1.3125,0.85546875 z m 0,0"
         style="fill:#000000;fill-opacity:1;fill-rule:nonzero;stroke:none" />
      <path
         id="path46"
         d="m 11.505953,-2.5123438 c 0.07031,-0.2578125 0.1875,-0.4921875 0.738281,-0.5039062 0.03516,0 0.140625,-0.011719 0.140625,-0.1523438 0,-0.046875 -0.03516,-0.09375 -0.105468,-0.09375 -0.222657,0 -0.480469,0.023437 -0.726563,0.023437 -0.164062,0 -0.5625,-0.023437 -0.738281,-0.023437 -0.03516,0 -0.140625,0 -0.140625,0.1523438 0,0.082031 0.09375,0.09375 0.164062,0.09375 0.316407,0.011719 0.445313,0.1171875 0.445313,0.28125 0,0.058594 -0.01172,0.09375 -0.03516,0.1757812 L 10.486422,0.4759375 8.7168906,-3.1451563 C 8.6582969,-3.2623438 8.6465781,-3.2623438 8.4825156,-3.2623438 H 7.5215781 c -0.1289062,0 -0.2226562,0 -0.2226562,0.1523438 0,0.09375 0.09375,0.09375 0.234375,0.09375 0.1523437,0 0.3046875,0.011719 0.4453125,0.035156 l -0.9375,3.72656255 C 6.9825156,1.015 6.8653281,1.2259375 6.3262656,1.249375 c -0.058594,0 -0.1523437,0 -0.1523437,0.140625 0,0.082031 0.058594,0.1054687 0.1054687,0.1054687 0.234375,0 0.4921875,-0.023437 0.7265625,-0.023437 0.1640625,0 0.5742188,0.023437 0.7382813,0.023437 0.070312,0 0.140625,-0.035156 0.140625,-0.140625 0,-0.1054687 -0.082031,-0.1054687 -0.1640625,-0.1054687 C 7.2872031,1.2259375 7.2872031,1.0501562 7.2872031,0.95640625 c 0,-0.0351563 0,-0.0703125 0.023437,-0.17578125 l 0.890625,-3.5742188 2.0390629,4.171875 c 0.05859,0.1054688 0.08203,0.1171875 0.152344,0.1171875 0.117187,0 0.117187,-0.023437 0.152344,-0.140625 z m 0,0"
         style="fill:#000000;fill-opacity:1;fill-rule:nonzero;stroke:none" />
    </g>
  </g>
</svg>
